<svg width="24" height="25" viewBox="0 0 24 25" fill="none" xmlns="http://www.w3.org/2000/svg">
<g clip-path="url(#clip0_557_21207)">
<path d="M21.3682 22.1564C17.6957 25.1543 6.22879 25.1543 2.6313 22.1564C-1.04112 19.1585 -0.666388 6.34253 2.6313 2.9699C5.929 -0.402728 18.0705 -0.402728 21.3682 2.9699C24.6658 6.34253 25.0406 19.1586 21.3682 22.1564Z" fill="#52CE06"/>
<g opacity="0.2">
<path d="M12.0755 16.9105C8.77777 19.5337 5.10535 20.8828 1.65778 20.9577C-0.890451 16.6107 -0.365797 6.04319 2.6321 2.97035C5.3302 0.197312 13.7992 -0.327342 18.6709 1.39644C19.87 6.34298 17.3967 12.6385 12.0755 16.9105Z" fill="white"/>
</g>
<path d="M10.2754 19.0839C9.75076 19.0839 9.22616 18.859 8.92637 18.4093L4.72934 13.0131C4.12975 12.2637 4.27967 11.2144 5.02914 10.6148C5.7786 10.0152 6.82785 10.1652 7.42744 10.9146L10.2754 14.5871L16.571 6.41781C17.1706 5.66835 18.2199 5.51842 18.9693 6.11801C19.7188 6.7176 19.8687 7.76686 19.2691 8.51632L11.6245 18.4093C11.2497 18.7841 10.8001 19.0839 10.2754 19.0839Z" fill="white"/>
</g>
<defs>
<clipPath id="clip0_557_21207">
<rect width="24" height="24" fill="white" transform="translate(0 0.405273)"/>
</clipPath>
</defs>
</svg>
