<svg width="24" height="25" viewBox="0 0 24 25" fill="none" xmlns="http://www.w3.org/2000/svg">
<g clip-path="url(#clip0_702_17613)">
<path d="M10.6836 13.1386C10.6836 14.1023 9.99312 14.8866 9.125 14.8866C8.27047 14.8866 7.56641 14.1023 7.56641 13.1386C7.56641 12.1753 8.25687 11.3906 9.125 11.3906C9.99969 11.3906 10.6972 12.1823 10.6836 13.1386Z" fill="#0B6614"/>
<path d="M16.4453 13.1386C16.4453 14.1023 15.7619 14.8866 14.8867 14.8866C14.0322 14.8866 13.3281 14.1023 13.3281 13.1386C13.3281 12.1753 14.0186 11.3906 14.8867 11.3906C15.7619 11.3906 16.4589 12.1823 16.4453 13.1386Z" fill="#0B6614"/>
<path d="M12 0.480469C5.37281 0.480469 0 5.85328 0 12.4805C0 19.1077 5.37281 24.4805 12 24.4805C18.6272 24.4805 24 19.1077 24 12.4805C24 5.85328 18.6272 0.480469 12 0.480469ZM20.5739 16.8984C19.0908 17.9878 17.6536 18.6492 16.2366 19.0875C16.2141 19.0945 16.1897 19.0861 16.1756 19.0669C15.8484 18.6112 15.5513 18.1308 15.2906 17.6264C15.2756 17.5969 15.2892 17.5613 15.3202 17.5495C15.7922 17.3709 16.2413 17.1577 16.6734 16.9055C16.7077 16.8853 16.7095 16.8366 16.6781 16.8131C16.5867 16.7452 16.4958 16.6734 16.4091 16.6017C16.3927 16.5886 16.3706 16.5858 16.3523 16.5947C13.5473 17.8908 10.4747 17.8908 7.63641 16.5947C7.61812 16.5867 7.59609 16.5895 7.58063 16.6027C7.49391 16.6739 7.40297 16.7452 7.31203 16.8131C7.28063 16.8366 7.28297 16.8853 7.31719 16.9055C7.74938 17.153 8.19844 17.3709 8.67 17.55C8.70094 17.5617 8.71547 17.5969 8.7 17.6264C8.44547 18.1317 8.14781 18.6117 7.81453 19.0673C7.8 19.0861 7.77609 19.0945 7.75359 19.0875C6.34313 18.6492 4.90641 17.9878 3.42281 16.8984C3.41062 16.8886 3.40172 16.8736 3.40031 16.8577C3.09844 13.6219 3.71438 10.3458 5.9625 6.98672C5.96812 6.97781 5.97609 6.97078 5.98594 6.96703C7.09172 6.45891 8.27719 6.08531 9.51562 5.87203C9.53813 5.86875 9.56063 5.87906 9.57234 5.89875C9.72563 6.17016 9.90047 6.5175 10.0191 6.80156C11.3245 6.60234 12.6506 6.60234 13.9838 6.80156C14.1019 6.52359 14.2706 6.17016 14.423 5.89875C14.4347 5.87812 14.4572 5.86781 14.4797 5.87203C15.7191 6.08578 16.9045 6.45984 18.0098 6.96703C18.0197 6.97078 18.0277 6.97781 18.0323 6.98766C19.9908 9.86812 20.9583 13.1175 20.5964 16.8586C20.595 16.8745 20.587 16.8886 20.5739 16.8984Z" fill="#0B6614"/>
</g>
<defs>
<clipPath id="clip0_702_17613">
<rect width="24" height="24" fill="white" transform="translate(0 0.480469)"/>
</clipPath>
</defs>
</svg>
