<svg width="24" height="25" viewBox="0 0 24 25" fill="none" xmlns="http://www.w3.org/2000/svg">
<g clip-path="url(#clip0_702_17620)">
<path d="M12 0.480469C5.38323 0.480469 0 5.8637 0 12.4805C0 19.0968 5.38323 24.4805 12 24.4805C18.6163 24.4805 24 19.0968 24 12.4805C24 5.8637 18.6173 0.480469 12 0.480469ZM14.9843 12.9029H13.032V19.8614H10.139C10.139 19.8614 10.139 16.0593 10.139 12.9029H8.76388V10.4436H10.139V8.85282C10.139 7.71353 10.6804 5.9333 13.0586 5.9333L15.2023 5.94152V8.32885C15.2023 8.32885 13.8996 8.32885 13.6463 8.32885C13.3931 8.32885 13.0329 8.45549 13.0329 8.9988V10.4441H15.2371L14.9843 12.9029Z" fill="#0B6614"/>
</g>
<defs>
<clipPath id="clip0_702_17620">
<rect width="24" height="24" fill="white" transform="translate(0 0.480469)"/>
</clipPath>
</defs>
</svg>
