<svg width="80" height="80" viewBox="0 0 80 80" fill="none" xmlns="http://www.w3.org/2000/svg">
<ellipse cx="39.6899" cy="39.9684" rx="39.6899" ry="39.9684" fill="#FFF7E1"/>
<g clip-path="url(#clip0_557_21437)">
<g clip-path="url(#clip1_557_21437)">
<path d="M40.0009 2.13867L43.421 19.6821L40.0009 54.5035H15.0365C13.7528 54.5035 12.7109 53.4559 12.7109 52.1616V29.1563C12.7109 23.8184 16.5063 19.3547 21.5218 18.3571C21.9078 16.3805 22.8288 14.5414 24.2071 13.0363C25.6629 11.4438 27.5295 10.3337 29.5807 9.81697C30.1898 7.88857 31.3141 6.16609 32.8303 4.8381C34.8189 3.09678 37.3656 2.13806 40.0009 2.13867Z" fill="#B1705B"/>
<path d="M67.2899 29.1563V52.1616C67.2899 53.4559 66.2481 54.5035 64.9643 54.5035H40V2.13867C42.6353 2.13806 45.1819 3.09678 47.1705 4.8381C48.6868 6.16609 49.811 7.88857 50.4202 9.81697C52.4713 10.3337 54.338 11.4438 55.7938 13.0363C57.1721 14.5414 58.093 16.3805 58.4791 18.3571C63.4946 19.3547 67.2899 23.8184 67.2899 29.1563Z" fill="#885140"/>
<path d="M40.0004 38.8291L43.4206 49.555L40.0004 64.8882H7.67486C7.00199 64.8882 6.36168 64.5947 5.91982 64.0841C5.06555 63.0942 5.37455 62.198 5.6516 60.206L9.31052 33.8503C9.31827 33.7863 9.33067 33.7207 9.34462 33.6567C9.73067 31.9424 11.0578 30.6684 12.7105 30.3312C12.9958 30.2719 13.2904 30.2422 13.5911 30.2422H29.2252C31.4904 30.2422 33.3338 32.0985 33.3338 34.3795V38.8291H40.0004Z" fill="#FFD298"/>
<path d="M72.3256 64.8882H40V38.8291H46.6667V34.3795C46.6667 32.0985 48.5101 30.2422 50.7752 30.2422H66.462C66.7442 30.2422 67.0217 30.2687 67.2899 30.3203C68.9705 30.6419 70.3225 31.9284 70.7101 33.666C70.724 33.7301 70.7349 33.7941 70.7442 33.8581C74.6478 62.3536 74.2349 59.3377 74.6295 62.2262C74.8215 63.6359 73.736 64.8882 72.3256 64.8882Z" fill="#FFB555"/>
<path d="M40.0005 60.2051L42.6361 69.0637L40.0005 77.9223H4.7152C2.28574 77.9223 0.310547 75.9333 0.310547 73.4868V64.6406C0.310547 62.1941 2.28574 60.2051 4.7152 60.2051H40.0005Z" fill="#FFB555"/>
<path d="M79.6899 64.6406V73.4868C79.6899 75.9333 77.7147 77.9223 75.2853 77.9223H40V60.2051H75.2853C77.7147 60.2051 79.6899 62.1941 79.6899 64.6406Z" fill="#FF7C48"/>
<mask id="mask0_557_21437" style="mask-type:luminance" maskUnits="userSpaceOnUse" x="22" y="22" width="36" height="36">
<path d="M22.6367 22.5443H57.3663V57.5176H22.6367V22.5443Z" fill="white"/>
</mask>
<g mask="url(#mask0_557_21437)">
<path d="M52.5503 22.5449H25.6891C24.006 22.5449 22.6367 23.9238 22.6367 25.6187V52.6684C22.6367 54.3633 24.006 55.7422 25.6891 55.7422H45.7672C46.0371 55.7422 46.2959 55.6342 46.4866 55.442L55.3047 46.5621C55.3992 46.467 55.4741 46.3541 55.5253 46.2297C55.5764 46.1054 55.6027 45.9722 55.6027 45.8377V25.6187C55.6027 23.9238 54.2334 22.5449 52.5503 22.5449Z" fill="#696969"/>
<path d="M39.1197 22.5439H25.6891C24.006 22.5439 22.6367 23.9229 22.6367 25.6178V39.1426H39.1197V22.5439Z" fill="#696969"/>
<path d="M55.6041 39.1426V25.6178C55.6041 23.9229 54.2348 22.5439 52.5517 22.5439H39.1211V39.1426H55.6041Z" fill="#555555"/>
<path d="M39.1211 39.1436V55.7422H45.7686C46.0385 55.7422 46.2972 55.6342 46.488 55.442L55.306 46.5621C55.4005 46.467 55.4755 46.3541 55.5266 46.2297C55.5778 46.1054 55.6041 45.9722 55.6041 45.8377V39.1436H39.1211Z" fill="#414141"/>
<path d="M22.6367 39.1436V52.6684C22.6367 54.3633 24.006 55.7422 25.6891 55.7422H39.1197V39.1436H22.6367Z" fill="#555555"/>
<path d="M33.252 29.8198H31.8954V28.4537C31.8954 27.8878 31.4398 27.4291 30.8779 27.4291C30.316 27.4291 29.8604 27.8878 29.8604 28.4537V29.8198H28.5038C27.9419 29.8198 27.4863 30.2786 27.4863 30.8444C27.4863 31.4103 27.9419 31.869 28.5038 31.869H29.8604V33.2352C29.8604 33.801 30.316 34.2598 30.8779 34.2598C31.4398 34.2598 31.8954 33.801 31.8954 33.2352V31.869H33.252C33.8139 31.869 34.2695 31.4103 34.2695 30.8444C34.2695 30.2786 33.8139 29.8198 33.252 29.8198Z" fill="white"/>
<path d="M49.7344 31.8691H44.9862C44.4243 31.8691 43.9688 31.4104 43.9688 30.8445C43.9688 30.2787 44.4243 29.8199 44.9862 29.8199H49.7344C50.2963 29.8199 50.7519 30.2787 50.7519 30.8445C50.7519 31.4104 50.2963 31.8691 49.7344 31.8691Z" fill="white"/>
<path d="M32.3162 47.4415L33.2926 46.4583C33.69 46.0583 33.69 45.4095 33.2926 45.0094C32.8952 44.6092 32.251 44.6092 31.8537 45.0094L30.8773 45.9925L29.901 45.0094C29.5037 44.6092 28.8594 44.6092 28.4621 45.0094C28.0647 45.4095 28.0647 46.0583 28.4621 46.4583L29.4384 47.4415L28.4621 48.4248C28.0647 48.8248 28.0647 49.4736 28.4621 49.8737C28.5565 49.969 28.6686 50.0446 28.7921 50.0961C28.9155 50.1476 29.0479 50.174 29.1815 50.1738C29.3152 50.174 29.4476 50.1476 29.571 50.0961C29.6945 50.0446 29.8067 49.969 29.901 49.8737L30.8773 48.8905L31.8537 49.8737C31.948 49.969 32.0602 50.0446 32.1836 50.0961C32.3071 50.1476 32.4395 50.174 32.5731 50.1738C32.7068 50.174 32.8391 50.1476 32.9626 50.0961C33.0861 50.0446 33.1982 49.969 33.2926 49.8737C33.69 49.4736 33.69 48.8248 33.2926 48.4248L32.3162 47.4415Z" fill="white"/>
<path d="M46.8537 57.5176C41.0563 57.5176 36.3398 52.768 36.3398 46.93C36.3398 41.092 41.0563 36.3424 46.8537 36.3424C52.6511 36.3424 57.3675 41.092 57.3675 46.93C57.3675 52.768 52.6511 57.5176 46.8537 57.5176Z" fill="white"/>
<path d="M49.2266 50.0039H44.4784C43.9165 50.0039 43.4609 49.5452 43.4609 48.9793C43.4609 48.4134 43.9165 47.9547 44.4784 47.9547H49.2266C49.7885 47.9547 50.2441 48.4134 50.2441 48.9793C50.2441 49.5452 49.7885 50.0039 49.2266 50.0039Z" fill="#555555"/>
<path d="M49.2266 45.9062H44.4784C43.9165 45.9062 43.4609 45.4475 43.4609 44.8816C43.4609 44.3158 43.9165 43.857 44.4784 43.857H49.2266C49.7885 43.857 50.2441 44.3158 50.2441 44.8816C50.2441 45.4475 49.7885 45.9062 49.2266 45.9062Z" fill="#555555"/>
</g>
</g>
</g>
<defs>
<clipPath id="clip0_557_21437">
<rect width="79.3798" height="79.9367" fill="white" transform="translate(0.621094 0.0625)"/>
</clipPath>
<clipPath id="clip1_557_21437">
<rect width="79.3798" height="79.9367" fill="white" transform="translate(0.310547 0.0625)"/>
</clipPath>
</defs>
</svg>
