<svg width="48" height="48" viewBox="0 0 48 48" fill="none" xmlns="http://www.w3.org/2000/svg">
<g clip-path="url(#clip0_557_21106)">
<path d="M42.7363 43.5023C35.3915 49.4981 12.4576 49.4981 5.26261 43.5023C-2.08224 37.5065 -1.33278 11.8745 5.26261 5.12926C11.858 -1.616 36.1409 -1.616 42.7363 5.12926C49.3317 11.8745 50.0812 37.5066 42.7363 43.5023Z" fill="#B4FEE8"/>
<g opacity="0.2">
<path d="M24.1509 33.0105C17.5555 38.2569 10.2107 40.955 3.31556 41.1048C-1.7809 32.4109 -0.731594 11.2758 5.2642 5.13016C10.6604 -0.415922 27.5985 -1.46523 37.3417 1.98233C39.74 11.8754 34.7935 24.4665 24.1509 33.0105Z" fill="white"/>
</g>
<path d="M31.5396 15.0988L15.6196 22.3088C15.4023 22.4246 15.227 22.6061 15.1188 22.8274C15.0107 23.0488 14.9751 23.2985 15.0172 23.5412C15.0593 23.7839 15.177 24.0072 15.3534 24.1791C15.5298 24.351 15.7559 24.4629 15.9996 24.4988L22.2296 25.7588L23.4996 31.9988C23.5339 32.2432 23.6446 32.4705 23.8159 32.6482C23.9871 32.8259 24.2102 32.9449 24.4532 32.9881C24.6961 33.0314 24.9466 32.9967 25.1687 32.8891C25.3907 32.7814 25.5731 32.6063 25.6896 32.3888L32.8996 16.4588C33.0053 16.2688 33.0462 16.0495 33.0161 15.8342C32.986 15.6189 32.8866 15.4193 32.7328 15.2656C32.5791 15.1118 32.3795 15.0124 32.1642 14.9823C31.9489 14.9522 31.7296 14.9931 31.5396 15.0988V15.0988Z" stroke="#097158" stroke-width="1.5" stroke-linejoin="round"/>
</g>
<defs>
<clipPath id="clip0_557_21106">
<rect width="48" height="48" fill="white"/>
</clipPath>
</defs>
</svg>
