<svg width="48" height="48" viewBox="0 0 48 48" fill="none" xmlns="http://www.w3.org/2000/svg">
<g clip-path="url(#clip0_557_20969)">
<path d="M42.7363 43.5023C35.3915 49.4981 12.4576 49.4981 5.26261 43.5023C-2.08224 37.5065 -1.33278 11.8745 5.26261 5.12926C11.858 -1.616 36.1409 -1.616 42.7363 5.12926C49.3317 11.8745 50.0812 37.5066 42.7363 43.5023Z" fill="#C1F0F6"/>
<g opacity="0.2">
<path d="M24.149 33.0105C17.5536 38.2569 10.2087 40.955 3.31361 41.1048C-1.78286 32.4109 -0.733547 11.2758 5.26225 5.13016C10.6585 -0.415922 27.5965 -1.46523 37.3397 1.98233C39.738 11.8754 34.7915 24.4665 24.149 33.0105Z" fill="white"/>
</g>
<path d="M33 33.377L28.66 29.037M31 23.377C31 24.9592 30.5308 26.5059 29.6518 27.8215C28.7727 29.1371 27.5233 30.1625 26.0615 30.768C24.5997 31.3735 22.9911 31.5319 21.4393 31.2232C19.8874 30.9146 18.462 30.1526 17.3431 29.0338C16.2243 27.915 15.4624 26.4895 15.1537 24.9377C14.845 23.3858 15.0035 21.7773 15.609 20.3155C16.2145 18.8537 17.2398 17.6042 18.5554 16.7252C19.871 15.8461 21.4178 15.377 23 15.377C25.1217 15.377 27.1566 16.2198 28.6569 17.7201C30.1571 19.2204 31 21.2552 31 23.377Z" stroke="#120B6D" stroke-width="2" stroke-linecap="round" stroke-linejoin="round"/>
</g>
<defs>
<clipPath id="clip0_557_20969">
<rect width="48" height="48" fill="white"/>
</clipPath>
</defs>
</svg>
