<svg width="48" height="48" viewBox="0 0 48 48" fill="none" xmlns="http://www.w3.org/2000/svg">
<g clip-path="url(#clip0_557_20981)">
<path d="M42.7363 43.5023C35.3915 49.4981 12.4576 49.4981 5.26261 43.5023C-2.08224 37.5065 -1.33278 11.8745 5.26261 5.12926C11.858 -1.616 36.1409 -1.616 42.7363 5.12926C49.3317 11.8745 50.0812 37.5066 42.7363 43.5023Z" fill="#FEBDB4"/>
<g opacity="0.2">
<path d="M24.1509 33.0105C17.5555 38.2569 10.2107 40.955 3.31556 41.1048C-1.7809 32.4109 -0.731594 11.2758 5.2642 5.13016C10.6604 -0.415922 27.5985 -1.46523 37.3417 1.98233C39.74 11.8754 34.7935 24.4665 24.1509 33.0105Z" fill="white"/>
</g>
<g clip-path="url(#clip1_557_20981)">
<path d="M17.4475 15.2805L24 12.3945L35.6484 17.525V20.9009L24 15.77M24 15.77L12.3516 20.9009V17.525L16.8057 15.5632M24 15.77L13.4324 20.4246V35.6397H34.5676V29.1544M24 15.77L34.5676 20.4246V28.4618M25.8923 25.4944C26.2027 25.2492 26.5969 25.0992 27.0408 25.0992H27.5925C28.4409 25.0992 29.182 25.673 29.3939 26.4942L29.9742 28.7395C30.2784 29.917 29.3892 31.0654 28.1723 31.0654C27.9764 31.0654 27.7852 31.0345 27.6042 30.9769M20.3958 30.9769C20.2121 31.0355 20.0205 31.0654 19.8277 31.0654C18.6108 31.0654 17.7216 29.917 18.0258 28.7395L18.6061 26.4942C18.818 25.673 19.5591 25.0992 20.4075 25.0992H20.9592C21.4031 25.0992 21.7973 25.2492 22.1077 25.4944M23.9687 32.2641C24.3876 32.2641 24.7272 31.9245 24.7272 31.5056C24.7272 31.0866 24.3876 30.747 23.9687 30.747C23.5498 30.747 23.2102 31.0866 23.2102 31.5056C23.2102 31.9245 23.5498 32.2641 23.9687 32.2641ZM23.9687 32.2641L23.9687 34.2066M25.6793 28.252H24.8954M23.1045 28.252H22.3207M30.9284 34.242H31.6205M32.308 34.242H33.0345M26.4372 19.7549H24.9163V18.2339H23.0837V19.7549H21.5627V21.5875H23.0837V23.1085H24.9163V21.5875H26.4372V19.7549ZM24 34.2066C21.7859 34.2066 20.0892 32.2391 20.4147 30.0491L20.947 27.4788C21.1718 25.9661 22.4706 24.846 24 24.846C25.5294 24.846 26.8281 25.966 27.053 27.4788L27.5853 30.0491C27.9107 32.2391 26.214 34.2066 24 34.2066Z" stroke="#710909" stroke-width="1.5" stroke-miterlimit="10" stroke-linejoin="round"/>
</g>
</g>
<defs>
<clipPath id="clip0_557_20981">
<rect width="48" height="48" fill="white"/>
</clipPath>
<clipPath id="clip1_557_20981">
<rect width="24" height="24" fill="white" transform="translate(12 12)"/>
</clipPath>
</defs>
</svg>
