<svg width="24" height="24" viewBox="0 0 24 24" fill="none" xmlns="http://www.w3.org/2000/svg">
<path d="M12 3H4C3.73478 3 3.48043 3.10536 3.29289 3.29289C3.10536 3.48043 3 3.73478 3 4V20C3 20.2652 3.10536 20.5196 3.29289 20.7071C3.48043 20.8946 3.73478 21 4 21H20C20.2652 21 20.5196 20.8946 20.7071 20.7071C20.8946 20.5196 21 20.2652 21 20V12M20 4C19.5926 3.6253 19.0532 3.42749 18.5002 3.44999C17.9471 3.47249 17.4256 3.71344 17.05 4.12L10.17 11L9 15L13 13.83L19.88 7C20.0888 6.81334 20.2579 6.58662 20.3774 6.33331C20.4968 6.07999 20.5642 5.80526 20.5754 5.52541C20.5866 5.24557 20.5414 4.96634 20.4426 4.70429C20.3437 4.44225 20.1932 4.20274 20 4Z" stroke="#1D2432" stroke-linecap="round" stroke-linejoin="round"/>
</svg>
