<svg width="44" height="56" viewBox="0 0 44 56" fill="none" xmlns="http://www.w3.org/2000/svg">
<path d="M22.0022 28.0011V17.9211C22.0022 16.0619 23.5031 14.5611 25.3622 14.5611C27.2214 14.5611 28.7222 16.0619 28.7222 17.9211V28.0011V20.1611C28.7222 18.3019 30.2231 16.8011 32.0822 16.8011C33.9414 16.8011 35.4422 18.3019 35.4422 20.1611V28.0011V24.6411C35.4422 22.7819 36.9431 21.2811 38.8022 21.2811C40.6614 21.2811 42.1622 22.7819 42.1622 24.6411V39.6939C42.1622 48.0939 35.3751 54.8811 26.9751 54.8811C21.7335 54.8811 16.8726 52.2379 14.1622 48.2059L2.44696 31.1147C1.3718 29.5915 1.75254 27.4411 3.29811 26.3658C3.88054 25.9627 4.55254 25.761 5.22454 25.761C6.29969 25.761 7.35254 26.2538 8.02454 27.217L11.7877 32.593L12.4148 33.4666C12.706 33.7801 13.1317 33.9594 13.602 33.9594C14.5204 33.9594 15.282 33.1978 15.282 32.2794V4.48109C15.282 2.62194 16.7829 1.12109 18.642 1.12109C20.5012 1.12109 22.002 2.62194 22.002 4.48109V28.0011H22.0022Z" fill="#F1F1F1"/>
<path d="M25.3636 15.68C26.5978 15.68 27.6036 16.6835 27.6036 17.92V28C27.6036 28.6182 28.1054 29.12 28.7236 29.12C29.3418 29.12 29.8436 28.6182 29.8436 28V20.16C29.8436 18.9235 30.8493 17.92 32.0836 17.92C33.3179 17.92 34.3236 18.9235 34.3236 20.16V28C34.3236 28.6182 34.8254 29.12 35.4436 29.12C36.0618 29.12 36.5636 28.6182 36.5636 28V24.64C36.5636 23.4035 37.5693 22.4 38.8036 22.4C40.0379 22.4 41.0436 23.4035 41.0436 24.64V39.6928C41.0436 47.4499 34.7336 53.76 26.9765 53.76C22.2075 53.76 17.6559 51.3901 15.0888 47.5709L3.36229 30.4685C3.01732 29.9779 2.88738 29.3776 2.99271 28.775C3.10023 28.1612 3.43623 27.6326 3.93574 27.2855C4.31411 27.0213 4.76448 26.8798 5.22593 26.88C5.9898 26.88 6.67296 27.2361 7.10751 27.8589L10.8796 33.2439L11.5965 34.2295C12.0983 34.767 12.8307 35.0784 13.6035 35.0784C15.1469 35.0784 16.4035 33.824 16.4035 32.2784V4.48C16.4035 3.24352 17.4093 2.24 18.6435 2.24C19.8777 2.24 20.8835 3.24352 20.8835 4.48V28C20.8835 28.6182 21.3853 29.12 22.0035 29.12C22.6217 29.12 23.1235 28.6182 23.1235 28V17.92C23.1236 16.6835 24.1293 15.68 25.3636 15.68ZM18.6436 0C16.1729 0 14.1636 2.00933 14.1636 4.48V32.2784C14.1636 32.5764 13.9016 32.8384 13.6036 32.8384C13.4468 32.8384 13.3125 32.7824 13.3258 32.8138L8.94435 26.5754C7.56677 24.5975 4.67719 24.0487 2.6589 25.4442C1.66205 26.1387 0.999023 27.1847 0.786288 28.3876C0.577929 29.5816 0.842288 30.78 1.52326 31.7454L13.2339 48.8299C16.2065 53.2515 21.4727 56 26.9764 56C35.9677 56 43.2835 48.6841 43.2835 39.6928V24.64C43.2835 22.1693 41.2742 20.16 38.8035 20.16C38.0167 20.159 37.2437 20.3669 36.5635 20.7625V20.16C36.5635 17.6893 34.5542 15.68 32.0835 15.68C31.196 15.6787 30.3284 15.9432 29.5926 16.4394C28.9788 14.6944 27.3145 13.44 25.3635 13.44C24.5767 13.439 23.8037 13.6469 23.1235 14.0425V4.48C23.1236 2.00933 21.1143 0 18.6436 0Z" fill="#1D2432"/>
<path opacity="0.12" d="M42.1633 34.0922C41.5451 34.0922 41.0433 34.5941 41.0433 35.2122C41.0433 42.9693 34.7332 49.2794 26.9762 49.2794C22.2072 49.2794 17.6555 46.9118 15.0862 43.0925L3.59046 26.3216C3.494 26.1795 3.36593 26.0617 3.21631 25.9773C3.06668 25.893 2.89956 25.8445 2.72804 25.8355C2.3764 25.8064 2.04259 25.961 1.8164 26.2253C0.465729 27.809 0.349245 30.0827 1.52295 31.7447L13.2336 48.8292C16.2062 53.2532 21.4724 55.9994 26.976 55.9994C35.9674 55.9994 43.2832 48.6858 43.2832 39.6922V35.2122C43.2833 34.5939 42.7815 34.0922 42.1633 34.0922Z" fill="#1D2432"/>
</svg>
