<svg width="34" height="41" viewBox="0 0 34 41" fill="none" xmlns="http://www.w3.org/2000/svg">
<path d="M22.4349 28.1175L16.9176 35.014L11.4004 28.1175C12.2336 27.4937 12.8314 26.6066 13.0969 25.6002C13.2811 25.0009 13.399 24.3837 13.4487 23.7589V23.752H20.3866V23.7589C20.4362 24.3789 20.5521 24.9913 20.7314 25.5864C20.9963 26.5986 21.5969 27.491 22.4349 28.1175Z" fill="#FDD7AD"/>
<path d="M33.3666 39.7517C33.3794 39.8489 33.3713 39.9477 33.3428 40.0415C33.3143 40.1354 33.2662 40.222 33.2016 40.2958C33.137 40.3695 33.0574 40.4287 32.9681 40.4692C32.8788 40.5098 32.7819 40.5308 32.6839 40.531H15.5391L16.9184 32.2551L22.4356 28.1172L28.2908 29.3724C29.4024 29.6098 30.4134 30.1853 31.1851 31.02C31.9568 31.8546 32.4514 32.9076 32.6011 34.0344L33.3666 39.7517Z" fill="#65DDB9"/>
<path d="M16.919 32.2551V40.531H1.15345C1.0554 40.5308 0.958513 40.5098 0.869243 40.4692C0.779973 40.4287 0.700378 40.3695 0.635765 40.2958C0.571152 40.222 0.523008 40.1354 0.494544 40.0415C0.46608 39.9477 0.45795 39.8489 0.470696 39.7517L1.23621 34.0344C1.38589 32.9076 1.88049 31.8546 2.65219 31.02C3.42388 30.1853 4.43489 29.6098 5.54655 29.3724L11.4017 28.1172L16.919 32.2551Z" fill="#26B99A"/>
<path d="M20.7321 25.5864C19.6134 26.3615 18.279 26.7644 16.9183 26.7382C15.5573 26.7663 14.2215 26.3684 13.0977 25.6002C13.2818 25.0009 13.3997 24.3837 13.4494 23.7589V23.752H20.3873V23.7589C20.437 24.3789 20.5528 24.9913 20.7321 25.5864Z" fill="#F9C795"/>
<path d="M27.2631 35.0143H25.8838V33.635C25.8838 33.4521 25.8112 33.2766 25.6818 33.1473C25.5525 33.018 25.3771 32.9453 25.1942 32.9453C25.0113 32.9453 24.8358 33.018 24.7065 33.1473C24.5772 33.2766 24.5045 33.4521 24.5045 33.635V35.0143H23.1252C22.9423 35.0143 22.7669 35.0869 22.6375 35.2163C22.5082 35.3456 22.4355 35.521 22.4355 35.7039C22.4355 35.8868 22.5082 36.0623 22.6375 36.1916C22.7669 36.3209 22.9423 36.3936 23.1252 36.3936H24.5045V37.7729C24.5045 37.9558 24.5772 38.1312 24.7065 38.2606C24.8358 38.3899 25.0113 38.4626 25.1942 38.4626C25.3771 38.4626 25.5525 38.3899 25.6818 38.2606C25.8112 38.1312 25.8838 37.9558 25.8838 37.7729V36.3936H27.2631C27.446 36.3936 27.6215 36.3209 27.7508 36.1916C27.8801 36.0623 27.9528 35.8868 27.9528 35.7039C27.9528 35.521 27.8801 35.3456 27.7508 35.2163C27.6215 35.0869 27.446 35.0143 27.2631 35.0143Z" fill="#E64C3C"/>
<path d="M10.0237 36.6688C10.0237 37.5826 9.40643 37.7723 8.64436 37.7723C7.88229 37.7723 7.26505 37.5826 7.26505 36.6688C7.19609 35.833 7.80988 35.0964 8.64436 35.0137C9.47884 35.0964 10.0926 35.833 10.0237 36.6688Z" fill="#3F5C6C"/>
<path d="M7.26387 33.6352C7.64476 33.6352 7.95353 33.3264 7.95353 32.9455C7.95353 32.5646 7.64476 32.2559 7.26387 32.2559C6.88299 32.2559 6.57422 32.5646 6.57422 32.9455C6.57422 33.3264 6.88299 33.6352 7.26387 33.6352Z" fill="#3F5C6C"/>
<path d="M5.88497 35.0141C6.26585 35.0141 6.57462 34.7053 6.57462 34.3244C6.57462 33.9435 6.26585 33.6348 5.88497 33.6348C5.50408 33.6348 5.19531 33.9435 5.19531 34.3244C5.19531 34.7053 5.50408 35.0141 5.88497 35.0141Z" fill="#3F5C6C"/>
<path d="M10.0236 33.6352C10.4045 33.6352 10.7133 33.3264 10.7133 32.9455C10.7133 32.5646 10.4045 32.2559 10.0236 32.2559C9.64275 32.2559 9.33398 32.5646 9.33398 32.9455C9.33398 33.3264 9.64275 33.6352 10.0236 33.6352Z" fill="#3F5C6C"/>
<path d="M11.4025 35.0141C11.7834 35.0141 12.0922 34.7053 12.0922 34.3244C12.0922 33.9435 11.7834 33.6348 11.4025 33.6348C11.0217 33.6348 10.7129 33.9435 10.7129 34.3244C10.7129 34.7053 11.0217 35.0141 11.4025 35.0141Z" fill="#3F5C6C"/>
<path d="M7.26425 11.5657C6.9565 10.677 6.78446 9.74706 6.75391 8.80711L6.80218 6.04849C6.94149 4.08366 7.5746 2.18642 8.64356 0.53125C8.64356 0.53125 10.0229 1.91056 13.4711 1.2209C16.9194 0.53125 22.3539 -0.241163 25.1953 2.60021C26.0776 3.57379 26.6867 4.76346 26.9608 6.04849L27.2918 8.80711C27.3035 9.82292 27.1306 10.8324 26.7815 11.7864C26.7209 11.9463 26.6518 12.1028 26.5746 12.2554L7.26425 11.5657Z" fill="#CB8252"/>
<path d="M25.188 11.338C26.0018 11.1794 27.2639 11.3035 27.2639 13.6346C27.2639 16.5449 25.788 17.0001 24.4983 17.069H9.33973C8.05008 17.0001 6.57422 16.5449 6.57422 13.6346C6.57422 11.3035 7.83629 11.1794 8.65008 11.338H25.188Z" fill="#F9C795"/>
<path d="M24.6928 8.80664C24.9252 9.47905 25.0942 10.1722 25.1962 10.8756C25.1962 17.228 23.299 24.6687 16.9204 24.6687C9.33419 24.6687 8.64453 14.3239 8.64453 10.8756C8.7466 10.1722 8.91557 9.47905 9.14798 8.80664H24.6928Z" fill="#FDD7AD"/>
<path d="M6.57442 6.04883C6.39151 6.04883 6.2161 6.12149 6.08676 6.25082C5.95743 6.38016 5.88477 6.55558 5.88477 6.73848V8.11779C5.88477 8.3007 5.95743 8.47612 6.08676 8.60545C6.2161 8.73479 6.39151 8.80745 6.57442 8.80745H27.2916C27.4697 8.80032 27.6381 8.72452 27.7616 8.59595C27.885 8.46738 27.9539 8.29602 27.9537 8.11779V6.73848C27.9537 6.55558 27.8811 6.38016 27.7517 6.25082C27.6224 6.12149 27.447 6.04883 27.2641 6.04883H6.57442Z" fill="#65DDB9"/>
<path d="M19.6785 10.1872C21.2021 10.1872 22.4372 8.95208 22.4372 7.42854C22.4372 5.905 21.2021 4.66992 19.6785 4.66992C18.155 4.66992 16.9199 5.905 16.9199 7.42854C16.9199 8.95208 18.155 10.1872 19.6785 10.1872Z" fill="#95A5A5"/>
</svg>
