<svg width="40" height="41" viewBox="0 0 40 41" fill="none" xmlns="http://www.w3.org/2000/svg">
<g clip-path="url(#clip0_1219_18494)">
<path d="M1.97421 13.8263L15.9387 2.47057C18.305 0.54627 21.6968 0.54627 24.0631 2.47057L38.0276 13.8263C39.2031 14.7823 38.5272 16.6849 37.012 16.6849H2.98976C1.47468 16.6849 0.798742 14.7823 1.97421 13.8263Z" fill="#F25D1B"/>
<path d="M36.3355 20.7087H36.3403V38.6057H32.3951C22.5359 37.0049 12.6172 28.8319 12.6172 18.9912C12.6172 13.3776 17.4744 8.30633 21.4027 4.68945L36.3403 16.6846L36.3355 20.7087Z" fill="#92C7CE"/>
<path d="M32.3958 38.6048H3.66016V20.7077H3.665L3.66016 16.6836L20.0006 3.5625L21.4034 4.68844C17.4751 8.30539 15.0324 13.3766 15.0324 18.9902C15.0324 28.8309 22.5366 37.0039 32.3958 38.6048Z" fill="#689AAA"/>
<path d="M24.0252 13.3773H15.977C14.6434 13.3773 13.5625 12.2962 13.5625 10.9628V2.91445C13.5625 1.58102 14.6434 0.5 15.977 0.5H24.0252C25.3587 0.5 26.4397 1.58102 26.4397 2.91445V10.9627C26.4397 12.2963 25.3587 13.3773 24.0252 13.3773Z" fill="#FFF8E6"/>
<path d="M23.2201 5.18484H22.1566C22.1037 5.18485 22.0514 5.17445 22.0026 5.15423C21.9537 5.13401 21.9094 5.10437 21.872 5.067C21.8346 5.02963 21.805 4.98526 21.7848 4.93643C21.7645 4.88761 21.7541 4.83527 21.7541 4.78242V3.71891C21.7541 3.27437 21.3938 2.91406 20.9493 2.91406H19.0522C18.6077 2.91406 18.2473 3.27437 18.2473 3.71891V4.78242C18.2474 4.83527 18.237 4.88761 18.2167 4.93643C18.1965 4.98526 18.1669 5.02963 18.1295 5.067C18.0921 5.10437 18.0478 5.13401 17.9989 5.15423C17.9501 5.17445 17.8978 5.18485 17.8449 5.18484H16.7814C16.3369 5.18484 15.9766 5.54516 15.9766 5.98969V7.8868C15.9766 8.33133 16.3369 8.69164 16.7814 8.69164H17.8449C17.8978 8.69163 17.9501 8.70203 17.9989 8.72225C18.0478 8.74247 18.0921 8.77211 18.1295 8.80948C18.1669 8.84686 18.1965 8.89122 18.2167 8.94005C18.237 8.98888 18.2474 9.04121 18.2473 9.09406V10.1576C18.2473 10.6021 18.6077 10.9624 19.0522 10.9624H20.9493C21.3938 10.9624 21.7541 10.6021 21.7541 10.1576V9.09406C21.7541 9.04121 21.7645 8.98888 21.7848 8.94005C21.805 8.89122 21.8346 8.84686 21.872 8.80948C21.9094 8.77211 21.9537 8.74247 22.0026 8.72225C22.0514 8.70203 22.1037 8.69163 22.1566 8.69164H23.2201C23.6646 8.69164 24.0249 8.33133 24.0249 7.8868V5.98969C24.0249 5.54523 23.6646 5.18484 23.2201 5.18484Z" fill="#F25D1B"/>
<path d="M30.8651 33.355C30.8651 38.4889 26.0005 40.0753 19.9999 40.0753C13.9993 40.0753 9.13477 38.4889 9.13477 33.355C9.13477 28.2211 13.9992 22.3691 19.9999 22.3691C26.0006 22.3691 30.8651 28.2211 30.8651 33.355Z" fill="#FDCB89"/>
<path d="M1.60969 40.5006H38.3904C39.2794 40.5006 40.0001 39.7799 40.0001 38.8909C40.0001 38.002 39.2794 37.2812 38.3904 37.2812H1.60969C0.720703 37.2813 0 38.002 0 38.8909C0 39.7799 0.720703 40.5006 1.60969 40.5006Z" fill="#F25D1B"/>
<path d="M30.3052 33.9473C28.7495 33.9473 27.4883 35.0798 27.4883 36.4767C27.4883 37.8737 28.7495 38.0864 30.3052 38.0864C31.8609 38.0864 33.122 37.8737 33.122 36.4767C33.1221 35.0798 31.8609 33.9473 30.3052 33.9473Z" fill="#FFEAB7"/>
<path d="M10.8059 23.9878C9.89942 22.7094 9.24059 20.9846 8.77403 18.9131C8.53121 17.835 9.38363 16.8192 10.4875 16.871C12.6086 16.9707 14.4215 17.3201 15.838 17.9908C15.8712 19.7221 12.5166 23.7199 10.8059 23.9878Z" fill="#FDCB89"/>
<path d="M29.1945 23.9878C30.1009 22.7094 30.7598 20.9846 31.2263 18.9131C31.4692 17.835 30.6167 16.8192 29.5129 16.871C27.3918 16.9707 25.5788 17.3201 24.1624 17.9908C24.1292 19.7221 27.4838 23.7199 29.1945 23.9878Z" fill="#FFD9A0"/>
<path d="M30.3455 26.0148C30.3455 29.4787 28.2223 31.6494 25.0787 32.69C18.8992 32.69 14.502 28.1812 14.502 23.0439C14.502 20.8773 16.4483 18.0625 18.6859 16.5652C19.1165 16.5129 19.5551 16.4863 20.0002 16.4863C25.7137 16.4864 30.3455 20.8985 30.3455 26.0148Z" fill="#FFEAB7"/>
<path d="M25.0781 32.6911C23.5779 33.1877 21.8451 33.4276 19.9996 33.4276C14.2861 33.4276 9.6543 31.133 9.6543 26.0159C9.6543 21.298 13.5923 17.1797 18.6853 16.5664C17.6238 18.2348 17.0041 20.2469 17.0041 22.4135C17.0041 27.5507 20.489 31.8211 25.0781 32.6911Z" fill="#FCE3A0"/>
<path d="M13.5917 28.353C14.898 28.353 15.9569 27.5097 15.9569 26.4695C15.9569 25.4292 14.898 24.5859 13.5917 24.5859C12.2855 24.5859 11.2266 25.4292 11.2266 26.4695C11.2266 27.5097 12.2855 28.353 13.5917 28.353Z" fill="#FFA1AC"/>
<path d="M26.4101 28.353C27.7163 28.353 28.7752 27.5097 28.7752 26.4695C28.7752 25.4292 27.7163 24.5859 26.4101 24.5859C25.1038 24.5859 24.0449 25.4292 24.0449 26.4695C24.0449 27.5097 25.1038 28.353 26.4101 28.353Z" fill="#FFA1AC"/>
<path d="M21.9061 25.0232C21.9061 23.8447 21.0523 23.734 19.9991 23.734C18.946 23.734 18.0922 23.8447 18.0922 25.0232C18.0922 26.2017 18.9459 27.157 19.9991 27.157C21.0523 27.157 21.9061 26.2017 21.9061 25.0232ZM13.9845 24.8253C13.9052 24.8253 13.8267 24.8097 13.7535 24.7794C13.6802 24.7491 13.6137 24.7046 13.5576 24.6485C13.5016 24.5925 13.4571 24.526 13.4268 24.4527C13.3965 24.3795 13.3808 24.301 13.3809 24.2217V23.2559C13.3809 23.0959 13.4445 22.9423 13.5576 22.8291C13.6708 22.7159 13.8244 22.6523 13.9845 22.6523C14.1445 22.6523 14.2981 22.7159 14.4113 22.8291C14.5245 22.9423 14.588 23.0959 14.588 23.2559V24.2217C14.5881 24.301 14.5725 24.3795 14.5421 24.4527C14.5118 24.526 14.4673 24.5925 14.4113 24.6485C14.3552 24.7046 14.2887 24.7491 14.2155 24.7794C14.1422 24.8097 14.0637 24.8253 13.9845 24.8253ZM26.0138 24.8253C25.9346 24.8253 25.8561 24.8097 25.7828 24.7794C25.7096 24.7491 25.6431 24.7046 25.587 24.6485C25.5309 24.5925 25.4865 24.526 25.4562 24.4527C25.4258 24.3795 25.4102 24.301 25.4102 24.2217V23.2559C25.4102 23.1767 25.4258 23.0982 25.4562 23.0249C25.4865 22.9517 25.5309 22.8852 25.587 22.8291C25.6431 22.7731 25.7096 22.7286 25.7828 22.6983C25.8561 22.6679 25.9346 22.6523 26.0138 22.6523C26.0931 22.6523 26.1716 22.6679 26.2448 22.6983C26.3181 22.7286 26.3846 22.7731 26.4407 22.8291C26.4967 22.8852 26.5412 22.9517 26.5715 23.0249C26.6018 23.0982 26.6174 23.1767 26.6174 23.2559V24.2217C26.6174 24.301 26.6018 24.3795 26.5715 24.4527C26.5412 24.526 26.4967 24.5925 26.4407 24.6485C26.3846 24.7046 26.3181 24.7491 26.2448 24.7794C26.1716 24.8097 26.0931 24.8253 26.0138 24.8253Z" fill="#666667"/>
<path d="M9.69578 33.9473C8.14008 33.9473 6.87891 35.0798 6.87891 36.4767C6.87891 37.8737 8.14008 38.0864 9.69578 38.0864C11.2515 38.0864 12.5127 37.8737 12.5127 36.4767C12.5127 35.0798 11.2515 33.9473 9.69578 33.9473Z" fill="#FCE3A0"/>
</g>
<defs>
<clipPath id="clip0_1219_18494">
<rect width="40" height="40" fill="white" transform="translate(0 0.5)"/>
</clipPath>
</defs>
</svg>
