<svg width="40" height="40" viewBox="0 0 40 40" fill="none" xmlns="http://www.w3.org/2000/svg">
<path d="M35.6149 36.2519C29.4942 41.2484 10.3826 41.2484 4.38681 36.2519C-1.7339 31.2554 -1.10935 9.89543 4.38681 4.27438C9.88297 -1.34667 30.1187 -1.34667 35.6149 4.27438C41.1111 9.89543 41.7356 31.2555 35.6149 36.2519Z" fill="#52CE06"/>
<g opacity="0.2">
<path d="M20.1251 27.5088C14.629 31.8807 8.50826 34.1291 2.76232 34.254C-1.48474 27.0091 -0.610313 9.39652 4.38619 4.27513C8.88302 -0.346602 22.9981 -1.22103 31.1174 1.65194C33.116 9.89618 28.9939 20.3887 20.1251 27.5088Z" fill="white"/>
</g>
<path d="M31.868 20.017C31.8692 20.3126 31.8119 20.6055 31.6993 20.8788C31.5868 21.1522 31.4212 21.4005 31.2122 21.6096C31.0031 21.8186 30.7548 21.9842 30.4814 22.0967C30.2081 22.2093 29.9151 22.2666 29.6195 22.2654H22.1248V29.7601C22.1261 30.0557 22.0688 30.3486 21.9562 30.622C21.8436 30.8953 21.6781 31.1437 21.469 31.3527C21.26 31.5617 21.0117 31.7273 20.7383 31.8399C20.465 31.9524 20.172 32.0097 19.8764 32.0085C19.5808 32.0097 19.2879 31.9524 19.0145 31.8399C18.7412 31.7273 18.4928 31.5617 18.2838 31.3527C18.0748 31.1437 17.9092 30.8953 17.7966 30.622C17.6841 30.3486 17.6268 30.0557 17.628 29.7601V22.2654H10.1332C9.83759 22.2666 9.54466 22.2093 9.27132 22.0967C8.99797 21.9842 8.74962 21.8186 8.54059 21.6096C8.33155 21.4005 8.16598 21.1522 8.05343 20.8788C7.94087 20.6055 7.88355 20.3126 7.88479 20.017C7.88355 19.7213 7.94087 19.4284 8.05343 19.1551C8.16598 18.8817 8.33155 18.6334 8.54059 18.4243C8.74962 18.2153 8.99797 18.0497 9.27132 17.9372C9.54466 17.8246 9.83759 17.7673 10.1332 17.7685H17.6279V10.2738C17.6267 9.97822 17.684 9.68529 17.7965 9.41194C17.9091 9.13859 18.0747 8.89024 18.2837 8.68121C18.4927 8.47218 18.7411 8.30661 19.0144 8.19405C19.2878 8.08149 19.5807 8.02418 19.8763 8.02541C20.1719 8.02418 20.4649 8.08149 20.7382 8.19405C21.0116 8.30661 21.2599 8.47218 21.4689 8.68121C21.678 8.89024 21.8435 9.13859 21.9561 9.41194C22.0687 9.68529 22.126 9.97822 22.1247 10.2738V17.7685H29.6195C29.9151 17.7673 30.208 17.8246 30.4814 17.9371C30.7547 18.0497 31.0031 18.2152 31.2122 18.4243C31.4212 18.6333 31.5868 18.8817 31.6993 19.155C31.8119 19.4284 31.8692 19.7213 31.868 20.017Z" fill="white"/>
</svg>
