<svg width="18" height="18" viewBox="0 0 18 18" fill="none" xmlns="http://www.w3.org/2000/svg">
<g clip-path="url(#clip0_557_21220)">
<path d="M3.07087 8.01772H6.78517C6.86094 8.01772 6.93362 7.98762 6.9872 7.93403C7.04078 7.88045 7.07088 7.80778 7.07088 7.732C7.07088 7.65623 7.04078 7.58355 6.9872 7.52997C6.93362 7.47639 6.86094 7.44629 6.78517 7.44629H3.07087C2.99509 7.44629 2.92242 7.47639 2.86884 7.52997C2.81526 7.58355 2.78516 7.65623 2.78516 7.732C2.78516 7.80778 2.81526 7.88045 2.86884 7.93403C2.92242 7.98762 2.99509 8.01772 3.07087 8.01772ZM10.4995 9.16058H3.07087C2.99509 9.16058 2.92242 9.19068 2.86884 9.24426C2.81526 9.29784 2.78516 9.37051 2.78516 9.44629C2.78516 9.52207 2.81526 9.59474 2.86884 9.64832C2.92242 9.7019 2.99509 9.732 3.07087 9.732H10.4995C10.5752 9.732 10.6479 9.7019 10.7015 9.64832C10.7551 9.59474 10.7852 9.52207 10.7852 9.44629C10.7852 9.37051 10.7551 9.29784 10.7015 9.24426C10.6479 9.19068 10.5752 9.16058 10.4995 9.16058ZM10.4995 10.8749H3.07087C2.99509 10.8749 2.92242 10.905 2.86884 10.9585C2.81526 11.0121 2.78516 11.0848 2.78516 11.1606C2.78516 11.2364 2.81526 11.309 2.86884 11.3626C2.92242 11.4162 2.99509 11.4463 3.07087 11.4463H10.4995C10.5752 11.4463 10.6479 11.4162 10.7015 11.3626C10.7551 11.309 10.7852 11.2364 10.7852 11.1606C10.7852 11.0848 10.7551 11.0121 10.7015 10.9585C10.6479 10.905 10.5752 10.8749 10.4995 10.8749Z" fill="#1D2432" stroke="#1D2432" stroke-width="0.0714287"/>
<path d="M15.664 1.46727L5.90914 1.44727C4.97486 1.44727 4.21485 2.20727 4.21485 3.14155V4.60555L1.90913 4.61041C0.974846 4.61041 0.214844 5.37041 0.214844 6.30469V12.345C0.214844 13.2793 0.974846 14.039 1.90913 14.039H3.64342V16.8961C3.6434 16.9538 3.66084 17.0101 3.69344 17.0577C3.72604 17.1053 3.77227 17.1419 3.82607 17.1627C3.87987 17.1835 3.9387 17.1876 3.99483 17.1743C4.05097 17.161 4.10177 17.1311 4.14057 17.0884L6.91315 14.0384L11.6634 14.019C12.5977 14.019 13.3577 13.259 13.3577 12.325V12.2927L14.8606 13.9458C14.8995 13.9882 14.9503 14.0179 15.0063 14.031C15.0624 14.0441 15.1211 14.04 15.1747 14.0192C15.2284 13.9984 15.2746 13.962 15.3072 13.9146C15.3399 13.8672 15.3575 13.8111 15.3577 13.7536V10.8964H15.6635C16.5977 10.8964 17.3577 10.1364 17.3577 9.20241V3.16155C17.3572 2.71246 17.1786 2.28191 16.8611 1.9643C16.5436 1.64669 16.1131 1.46795 15.664 1.46727ZM12.7863 12.3247C12.7859 12.6226 12.6673 12.9081 12.4566 13.1186C12.2458 13.329 11.9602 13.4473 11.6623 13.4473L6.78515 13.4673C6.74553 13.4674 6.70638 13.4758 6.67018 13.4919C6.63398 13.508 6.60152 13.5314 6.57486 13.5607L4.21485 16.157V13.753C4.21485 13.6772 4.18475 13.6045 4.13117 13.551C4.07759 13.4974 4.00491 13.4673 3.92914 13.4673H1.90913C1.61147 13.467 1.32609 13.3486 1.11559 13.1382C0.905083 12.9277 0.786652 12.6424 0.786274 12.3447V6.30441C0.786652 6.00663 0.905153 5.72116 1.11577 5.51064C1.32639 5.30013 1.61192 5.18178 1.90971 5.18155L4.50057 5.17612H4.50114L11.6634 5.16127C11.9612 5.16157 12.2466 5.27997 12.4571 5.49048C12.6676 5.70099 12.786 5.98642 12.7863 6.28412V12.3247ZM16.7863 9.20184C16.7859 9.4995 16.6675 9.78485 16.457 9.9953C16.2465 10.2057 15.9611 10.3241 15.6635 10.3244H15.072C14.9962 10.3244 14.9236 10.3545 14.87 10.4081C14.8164 10.4617 14.7863 10.5343 14.7863 10.6101V13.0141L13.3577 11.4427V6.28441C13.3577 5.35012 12.5977 4.59012 11.6629 4.59012L4.78628 4.60412V3.14127C4.78659 2.84366 4.90491 2.55832 5.11529 2.34782C5.32568 2.13733 5.61096 2.01886 5.90857 2.01841L15.6632 2.03841H15.6637C15.9614 2.03871 16.2469 2.15711 16.4574 2.36762C16.6679 2.57813 16.7863 2.86356 16.7866 3.16127L16.7863 9.20184Z" fill="#1D2432" stroke="#1D2432" stroke-width="0.0714287"/>
</g>
<defs>
<clipPath id="clip0_557_21220">
<rect width="17.1429" height="17.1429" fill="white" transform="translate(0.214844 0.732422)"/>
</clipPath>
</defs>
</svg>
