<svg width="48" height="48" viewBox="0 0 48 48" fill="none" xmlns="http://www.w3.org/2000/svg">
<g clip-path="url(#clip0_557_21092)">
<path d="M42.7363 43.5023C35.3915 49.4981 12.4576 49.4981 5.26261 43.5023C-2.08224 37.5065 -1.33278 11.8745 5.26261 5.12926C11.858 -1.616 36.1409 -1.616 42.7363 5.12926C49.3317 11.8745 50.0812 37.5066 42.7363 43.5023Z" fill="#F6F4C1"/>
<g opacity="0.2">
<path d="M24.149 33.0105C17.5536 38.2569 10.2087 40.955 3.31361 41.1048C-1.78286 32.4109 -0.733547 11.2758 5.26225 5.13016C10.6585 -0.415922 27.5965 -1.46523 37.3397 1.98233C39.738 11.8754 34.7915 24.4665 24.149 33.0105Z" fill="white"/>
</g>
<path d="M16.6307 22.3533H21.3519C21.4482 22.3533 21.5405 22.315 21.6086 22.2469C21.6768 22.1788 21.715 22.0864 21.715 21.9901C21.715 21.8938 21.6768 21.8014 21.6086 21.7333C21.5405 21.6652 21.4482 21.627 21.3519 21.627H16.6307C16.5344 21.627 16.4421 21.6652 16.3739 21.7333C16.3058 21.8014 16.2676 21.8938 16.2676 21.9901C16.2676 22.0864 16.3058 22.1788 16.3739 22.2469C16.4421 22.315 16.5344 22.3533 16.6307 22.3533ZM26.073 23.8059H16.6307C16.5344 23.8059 16.4421 23.8442 16.3739 23.9123C16.3058 23.9804 16.2676 24.0728 16.2676 24.1691C16.2676 24.2654 16.3058 24.3578 16.3739 24.4259C16.4421 24.494 16.5344 24.5323 16.6307 24.5323H26.073C26.1693 24.5323 26.2617 24.494 26.3298 24.4259C26.3979 24.3578 26.4361 24.2654 26.4361 24.1691C26.4361 24.0728 26.3979 23.9804 26.3298 23.9123C26.2617 23.8442 26.1693 23.8059 26.073 23.8059ZM26.073 25.9849H16.6307C16.5344 25.9849 16.4421 26.0232 16.3739 26.0913C16.3058 26.1594 16.2676 26.2518 16.2676 26.3481C16.2676 26.4444 16.3058 26.5368 16.3739 26.6049C16.4421 26.673 16.5344 26.7113 16.6307 26.7113H26.073C26.1693 26.7113 26.2617 26.673 26.3298 26.6049C26.3979 26.5368 26.4361 26.4444 26.4361 26.3481C26.4361 26.2518 26.3979 26.1594 26.3298 26.0913C26.2617 26.0232 26.1693 25.9849 26.073 25.9849Z" stroke="#6B6D0B" stroke-width="0.7" stroke-linecap="round" stroke-linejoin="round"/>
<path d="M32.6369 14.0274L20.2378 14.002C19.0503 14.002 18.0843 14.968 18.0843 16.1555V18.0164L15.1536 18.0226C13.966 18.0226 13 18.9886 13 20.1761V27.8538C13 29.0413 13.966 30.007 15.1536 30.007H17.3579V33.6386C17.3579 33.712 17.3801 33.7836 17.4215 33.844C17.463 33.9045 17.5217 33.9511 17.5901 33.9775C17.6585 34.0039 17.7333 34.0091 17.8046 33.9922C17.876 33.9754 17.9405 33.9373 17.9899 33.8831L21.514 30.0063L27.5519 29.9816C28.7395 29.9816 29.7055 29.0156 29.7055 27.8284V27.7873L31.6157 29.8886C31.6652 29.9425 31.7297 29.9802 31.801 29.9968C31.8722 30.0135 31.9468 30.0082 32.015 29.9819C32.0832 29.9555 32.1419 29.9091 32.1834 29.8489C32.2249 29.7887 32.2473 29.7173 32.2476 29.6442V26.0125H32.6362C33.8237 26.0125 34.7897 25.0465 34.7897 23.8593V16.1809C34.7891 15.6101 34.5621 15.0628 34.1585 14.6591C33.7549 14.2554 33.2077 14.0282 32.6369 14.0274ZM28.9791 27.828C28.9787 28.2066 28.8279 28.5695 28.5601 28.8371C28.2922 29.1046 27.9291 29.2549 27.5505 29.2549L21.3513 29.2803C21.3009 29.2805 21.2512 29.2911 21.2052 29.3116C21.1591 29.332 21.1179 29.3618 21.084 29.3991L18.0843 32.6991V29.6435C18.0843 29.5472 18.046 29.4548 17.9779 29.3867C17.9098 29.3186 17.8174 29.2803 17.7211 29.2803H15.1536C14.7752 29.2799 14.4125 29.1295 14.1449 28.862C13.8773 28.5945 13.7268 28.2318 13.7263 27.8534V20.1758C13.7268 19.7973 13.8774 19.4344 14.1451 19.1668C14.4128 18.8992 14.7758 18.7488 15.1543 18.7485L18.4474 18.7416H18.4482L27.5519 18.7227C27.9303 18.7231 28.2931 18.8736 28.5607 19.1412C28.8283 19.4088 28.9788 19.7716 28.9791 20.15V27.828ZM34.0634 23.8586C34.0629 24.237 33.9124 24.5997 33.6448 24.8672C33.3773 25.1347 33.0145 25.2851 32.6362 25.2855H31.8844C31.7881 25.2855 31.6958 25.3238 31.6276 25.3919C31.5595 25.46 31.5213 25.5523 31.5213 25.6487V28.7043L29.7055 26.7069V20.1503C29.7055 18.9628 28.7395 17.9968 27.5512 17.9968L18.8106 18.0146V16.1552C18.811 15.7769 18.9614 15.4142 19.2288 15.1466C19.4962 14.8791 19.8588 14.7285 20.2371 14.7279L32.6358 14.7533H32.6366C33.015 14.7537 33.3778 14.9042 33.6453 15.1718C33.9129 15.4394 34.0634 15.8022 34.0638 16.1806L34.0634 23.8586Z" stroke="#6B6D0B" stroke-width="0.7" stroke-linecap="round" stroke-linejoin="round"/>
</g>
<defs>
<clipPath id="clip0_557_21092">
<rect width="48" height="48" fill="white"/>
</clipPath>
</defs>
</svg>
