<svg width="18" height="19" viewBox="0 0 18 19" fill="none" xmlns="http://www.w3.org/2000/svg">
<path d="M3.73597 8.32935H7.10821C7.17701 8.32935 7.24299 8.30202 7.29164 8.25338C7.34029 8.20473 7.36762 8.13875 7.36762 8.06995C7.36762 8.00115 7.34029 7.93517 7.29164 7.88652C7.24299 7.83788 7.17701 7.81055 7.10821 7.81055H3.73597C3.66717 7.81055 3.60119 7.83788 3.55254 7.88652C3.50389 7.93517 3.47656 8.00115 3.47656 8.06995C3.47656 8.13875 3.50389 8.20473 3.55254 8.25338C3.60119 8.30202 3.66717 8.32935 3.73597 8.32935ZM10.4805 9.36697H3.73597C3.66717 9.36697 3.60119 9.3943 3.55254 9.44295C3.50389 9.49159 3.47656 9.55757 3.47656 9.62637C3.47656 9.69517 3.50389 9.76115 3.55254 9.8098C3.60119 9.85845 3.66717 9.88578 3.73597 9.88578H10.4805C10.5493 9.88578 10.6152 9.85845 10.6639 9.8098C10.7125 9.76115 10.7399 9.69517 10.7399 9.62637C10.7399 9.55757 10.7125 9.49159 10.6639 9.44295C10.6152 9.3943 10.5493 9.36697 10.4805 9.36697ZM10.4805 10.9234H3.73597C3.66717 10.9234 3.60119 10.9507 3.55254 10.9994C3.50389 11.048 3.47656 11.114 3.47656 11.1828C3.47656 11.2516 3.50389 11.3176 3.55254 11.3662C3.60119 11.4149 3.66717 11.4422 3.73597 11.4422H10.4805C10.5493 11.4422 10.6152 11.4149 10.6639 11.3662C10.7125 11.3176 10.7399 11.2516 10.7399 11.1828C10.7399 11.114 10.7125 11.048 10.6639 10.9994C10.6152 10.9507 10.5493 10.9234 10.4805 10.9234Z" fill="#1D2432" stroke="#1D2432" stroke-width="0.0714286"/>
<path d="M15.169 2.37949L6.31249 2.36133C5.46424 2.36133 4.77423 3.05134 4.77423 3.89959V5.22878L2.68084 5.23318C1.83259 5.23318 1.14258 5.9232 1.14258 6.77145V12.2555C1.14258 13.1037 1.83259 13.7935 2.68084 13.7935H4.25542V16.3875C4.2554 16.4399 4.27123 16.4911 4.30083 16.5343C4.33043 16.5775 4.37241 16.6107 4.42125 16.6296C4.47009 16.6485 4.5235 16.6521 4.57447 16.6401C4.62543 16.6281 4.67156 16.6009 4.70678 16.5621L7.22404 13.793L11.5369 13.7753C12.3851 13.7753 13.0751 13.0853 13.0751 12.2373V12.208L14.4396 13.7089C14.4749 13.7474 14.5211 13.7744 14.5719 13.7862C14.6228 13.7981 14.6761 13.7944 14.7248 13.7755C14.7735 13.7567 14.8155 13.7236 14.8451 13.6806C14.8747 13.6376 14.8907 13.5866 14.891 13.5344V10.9403H15.1685C16.0168 10.9403 16.7068 10.2503 16.7068 9.40232V3.91775C16.7063 3.51001 16.5442 3.11911 16.2559 2.83075C15.9676 2.54239 15.5768 2.3801 15.169 2.37949ZM12.5563 12.2371C12.556 12.5075 12.4483 12.7667 12.257 12.9578C12.0656 13.1489 11.8063 13.2563 11.5358 13.2563L7.10782 13.2744C7.07186 13.2746 7.03631 13.2822 7.00345 13.2968C6.97058 13.3114 6.94111 13.3327 6.9169 13.3593L4.77423 15.7165V13.5338C4.77423 13.465 4.7469 13.3991 4.69825 13.3504C4.6496 13.3018 4.58362 13.2744 4.51482 13.2744H2.68084C2.41059 13.2742 2.15149 13.1667 1.96037 12.9756C1.76925 12.7846 1.66173 12.5255 1.66139 12.2552V6.77119C1.66173 6.50083 1.76932 6.24165 1.96054 6.05052C2.15176 5.8594 2.411 5.75194 2.68136 5.75173L5.03363 5.7468H5.03415L11.5369 5.73331C11.8072 5.73359 12.0663 5.84108 12.2574 6.03221C12.4486 6.22334 12.5561 6.48248 12.5563 6.75277V12.2371ZM16.188 9.4018C16.1876 9.67205 16.0801 9.93112 15.889 10.1222C15.6979 10.3133 15.4388 10.4207 15.1685 10.421H14.6316C14.5628 10.421 14.4968 10.4483 14.4481 10.497C14.3995 10.5456 14.3722 10.6116 14.3722 10.6804V12.863L13.0751 11.4363V6.75303C13.0751 5.90478 12.3851 5.21477 11.5364 5.21477L5.29304 5.22748V3.89933C5.29331 3.62913 5.40073 3.37006 5.59175 3.17895C5.78276 2.98784 6.04177 2.88029 6.31197 2.87988L15.1683 2.89803H15.1688C15.4391 2.89831 15.6982 3.0058 15.8893 3.19693C16.0805 3.38805 16.188 3.6472 16.1882 3.91749L16.188 9.4018Z" fill="#1D2432" stroke="#1D2432" stroke-width="0.0714286"/>
</svg>
