<svg width="18" height="20" viewBox="0 0 18 20" fill="none" xmlns="http://www.w3.org/2000/svg">
<path d="M0.716797 5H16.7168H0.716797ZM12.7168 5V2C12.7168 1.73478 12.6114 1.48043 12.4239 1.29289C12.2364 1.10536 11.982 1 11.7168 1H5.7168C5.45158 1 5.19723 1.10536 5.00969 1.29289C4.82215 1.48043 4.7168 1.73478 4.7168 2V5H12.7168ZM14.7168 18V5H2.7168V18C2.7168 18.2652 2.82215 18.5196 3.00969 18.7071C3.19723 18.8946 3.45158 19 3.7168 19H13.7168C13.982 19 14.2364 18.8946 14.4239 18.7071C14.6114 18.5196 14.7168 18.2652 14.7168 18Z" stroke="#1D2432" stroke-linecap="round" stroke-linejoin="round"/>
</svg>
