<svg width="80" height="80" viewBox="0 0 80 80" fill="none" xmlns="http://www.w3.org/2000/svg">
<ellipse cx="39.6899" cy="39.9684" rx="39.6899" ry="39.9684" fill="#FFEBEB"/>
<g clip-path="url(#clip0_557_21469)">
<g clip-path="url(#clip1_557_21469)">
<path d="M40.0005 0.0625C18.1865 0.0625 0.310547 18.0639 0.310547 40.0309C0.310547 61.9978 18.1865 79.9992 40.0005 79.9992C61.8144 79.9992 79.6904 61.9978 79.6904 40.0309C79.6904 18.0639 61.8144 0.0625 40.0005 0.0625Z" fill="#C6E2E7"/>
<path d="M79.6899 40.0309C79.6899 61.9978 61.814 79.9992 40 79.9992V0.0625C61.814 0.0625 79.6899 18.0639 79.6899 40.0309Z" fill="#A8D3D8"/>
<path d="M39.9997 4.74609C20.7439 4.74609 4.96094 20.6398 4.96094 40.0307C4.96094 59.4216 20.7439 75.1591 39.9997 75.1591C59.2555 75.1591 75.0385 59.4216 75.0385 40.0307C75.0385 20.6398 59.2555 4.74609 39.9997 4.74609Z" fill="#DEECF1"/>
<path d="M75.0388 40.0307C75.0388 59.4216 59.2558 75.1591 40 75.1591V4.74609C59.2558 4.74609 75.0388 20.6398 75.0388 40.0307Z" fill="#C6E2E7"/>
<path d="M46.974 16.6121C46.974 17.9056 45.933 18.9546 44.6478 18.9546C43.3634 18.9546 42.3223 17.9056 42.3223 16.6121C42.3223 15.3185 43.3634 14.2695 44.6478 14.2695C45.933 14.2695 46.974 15.3185 46.974 16.6121Z" fill="#CC2E43"/>
<path d="M26.0466 23.6371C24.7614 23.6371 23.7211 22.5895 23.7211 21.2952V16.6114C23.7211 15.3171 24.7614 14.2695 26.0466 14.2695C27.3319 14.2695 28.3722 15.3171 28.3722 16.6114V21.2952C28.3722 22.5895 27.3319 23.6371 26.0466 23.6371ZM16.7443 33.0047H12.0932C10.8079 33.0047 9.76758 31.9571 9.76758 30.6628C9.76758 29.3685 10.8079 28.3209 12.0932 28.3209H16.7443C18.0296 28.3209 19.0699 29.3685 19.0699 30.6628C19.0699 31.9571 18.0296 33.0047 16.7443 33.0047ZM16.7443 51.7399C16.149 51.7399 15.5542 51.5111 15.1001 51.0537C14.1916 50.139 14.1916 48.657 15.1001 47.7423L18.7363 44.0805C19.6446 43.1657 21.1163 43.1657 22.0246 44.0805C22.933 44.9952 22.9332 46.4773 22.0246 47.3921L18.3885 51.0537C18.1729 51.2715 17.9166 51.4443 17.6344 51.5621C17.3523 51.6798 17.0498 51.7402 16.7443 51.7399ZM30.6953 65.7912C30.3459 65.7912 29.9916 65.7113 29.6573 65.5443C28.5085 64.9655 28.0428 63.5591 28.6175 62.4016L30.8299 57.9489C31.404 56.7896 32.8011 56.323 33.9501 56.9019C35.0995 57.48 35.5646 58.8869 34.9904 60.0439L32.7781 64.4971C32.3693 65.318 31.5493 65.7912 30.6953 65.7912Z" fill="#E63950"/>
<path d="M49.3021 70.4756C48.0169 70.4756 46.9766 69.428 46.9766 68.1337V63.4499C46.9766 62.1556 48.0169 61.108 49.3021 61.108C50.5874 61.108 51.6277 62.1556 51.6277 63.4499V68.1337C51.6277 69.428 50.5874 70.4756 49.3021 70.4756ZM63.2556 51.7404H57.36C56.0747 51.7404 55.0344 50.6928 55.0344 49.3985C55.0344 48.1042 56.0747 47.0566 57.36 47.0566H63.2556C64.5409 47.0566 65.5812 48.1042 65.5812 49.3985C65.5812 50.6928 64.5409 51.7404 63.2556 51.7404Z" fill="#CC2E43"/>
<path d="M41.0228 28.0863L39.9999 28.6015L36.1391 30.5684C35.8138 30.7094 35.4421 30.8026 35.0695 30.8026C34.2326 30.8026 33.3951 30.3342 33.0231 29.4915C32.4188 28.3205 32.8833 26.9154 34.0461 26.353L38.9769 23.8709C39.3022 23.7301 39.6281 23.6367 39.9999 23.6367C40.8368 23.6367 41.6743 24.1051 42.0929 24.9479C42.6514 26.072 42.1856 27.4777 41.0228 28.0863Z" fill="#E63950"/>
<path d="M48.8389 47.0553C48.5505 47.0553 48.2575 47.0022 47.9735 46.8883C46.7809 46.4058 46.202 45.0422 46.6786 43.8413L49.4705 36.8211C49.9496 35.6178 51.2989 35.0391 52.4963 35.5173C53.6887 36.0003 54.2677 37.3633 53.791 38.5641L50.9992 45.5843C50.8259 46.0186 50.5276 46.3907 50.1427 46.6528C49.7577 46.915 49.3036 47.0551 48.8389 47.0553Z" fill="#CC2E43"/>
<path d="M53.9572 33.0047C52.1693 33.0047 50.384 32.321 49.0231 30.9507C46.3022 28.2106 46.3022 23.7542 49.0231 21.014C51.7442 18.274 56.1695 18.274 58.8906 21.014C61.6115 23.7542 61.6115 28.2105 58.8906 30.9507C57.5298 32.321 55.7444 33.0047 53.9572 33.0047Z" fill="#E63950"/>
<path d="M41.0229 28.0863L40 28.6015V23.6367C40.8369 23.6367 41.6744 24.1051 42.093 24.9479C42.6515 26.072 42.1857 27.4777 41.0229 28.0863Z" fill="#CC2E43"/>
<path d="M49.3036 42.3721C45.4894 42.3721 42.1409 40.5454 40.0013 37.6883C38.5595 35.7679 37.6757 33.2855 37.6757 30.6626C37.6757 24.1993 32.4661 18.9531 26.0478 18.9531C19.6295 18.9531 14.4199 24.1993 14.4199 30.6626C14.4199 46.8217 25.2574 60.4047 40.0013 64.4793C42.9781 65.3695 46.0943 65.791 49.3036 65.791C55.7219 65.791 60.9315 60.5449 60.9315 54.0816C60.9315 47.6182 55.7219 42.3721 49.3036 42.3721Z" fill="#EC5569"/>
<path d="M60.9302 54.0827C60.9302 60.546 55.7206 65.7922 49.3023 65.7922C46.093 65.7922 42.9767 65.3707 40 64.4804V37.6895C42.1395 40.5466 45.4881 42.3732 49.3023 42.3732C55.7206 42.3732 60.9302 47.6194 60.9302 54.0827Z" fill="#E63950"/>
<path d="M28.368 30.6622C28.368 31.9557 27.3261 33.0041 26.0424 33.0041C24.7577 33.0041 23.7168 31.9557 23.7168 30.6622C23.7168 29.3687 24.7577 28.3203 26.0424 28.3203C27.3261 28.3203 28.368 29.3687 28.368 30.6622ZM30.6935 42.3717C30.6935 43.6652 29.6517 44.7136 28.368 44.7136C27.0833 44.7136 26.0424 43.6652 26.0424 42.3717C26.0424 41.0782 27.0833 40.0298 28.368 40.0298C29.6517 40.0298 30.6935 41.0782 30.6935 42.3717Z" fill="#FDBF00"/>
<path d="M51.6238 54.0821C51.6238 55.3756 50.582 56.424 49.2982 56.424C48.0136 56.424 46.9727 55.3756 46.9727 54.0821C46.9727 52.7886 48.0136 51.7402 49.2982 51.7402C50.582 51.7402 51.6238 52.7886 51.6238 54.0821Z" fill="#FF9F00"/>
<path d="M39.9949 51.7403C39.9949 53.0338 38.9531 54.0822 37.6693 54.0822C36.3847 54.0822 35.3438 53.0338 35.3438 51.7403C35.3438 50.4468 36.3847 49.3984 37.6693 49.3984C38.9531 49.3984 39.9949 50.4468 39.9949 51.7403Z" fill="#FDBF00"/>
</g>
</g>
<defs>
<clipPath id="clip0_557_21469">
<rect width="79.3798" height="79.9367" fill="white" transform="translate(0.621094 0.0625)"/>
</clipPath>
<clipPath id="clip1_557_21469">
<rect width="79.3798" height="79.9367" fill="white" transform="translate(0.310547 0.0625)"/>
</clipPath>
</defs>
</svg>
