<svg width="40" height="40" viewBox="0 0 40 40" fill="none" xmlns="http://www.w3.org/2000/svg">
<g clip-path="url(#clip0_763_16226)">
<path d="M35.6149 36.2519C29.4942 41.2484 10.3826 41.2484 4.38681 36.2519C-1.7339 31.2554 -1.10935 9.89543 4.38681 4.27438C9.88297 -1.34667 30.1187 -1.34667 35.6149 4.27438C41.1111 9.89543 41.7356 31.2555 35.6149 36.2519Z" fill="#52CE06"/>
<g opacity="0.2">
<path d="M20.1271 27.5088C14.6309 31.8807 8.51021 34.1291 2.76427 34.254C-1.48278 27.0091 -0.60836 9.39652 4.38814 4.27513C8.88498 -0.346602 23 -1.22103 31.1194 1.65194C33.1179 9.89618 28.9959 20.3887 20.1271 27.5088Z" fill="white"/>
</g>
<path d="M29 26.25V23.25C29 23.0511 28.921 22.8603 28.7803 22.7197C28.6397 22.579 28.4489 22.5 28.25 22.5C28.0511 22.5 27.8603 22.579 27.7197 22.7197C27.579 22.8603 27.5 23.0511 27.5 23.25V26.25C27.5 26.4489 27.421 26.6397 27.2803 26.7803C27.1397 26.921 26.9489 27 26.75 27H13.25C13.0511 27 12.8603 26.921 12.7197 26.7803C12.579 26.6397 12.5 26.4489 12.5 26.25V23.25C12.5 23.0511 12.421 22.8603 12.2803 22.7197C12.1397 22.579 11.9489 22.5 11.75 22.5C11.5511 22.5 11.3603 22.579 11.2197 22.7197C11.079 22.8603 11 23.0511 11 23.25V26.25C11 26.8467 11.2371 27.419 11.659 27.841C12.081 28.2629 12.6533 28.5 13.25 28.5H26.75C27.3467 28.5 27.919 28.2629 28.341 27.841C28.7629 27.419 29 26.8467 29 26.25ZM24.215 22.335L20.465 25.335C20.3326 25.4396 20.1688 25.4965 20 25.4965C19.8312 25.4965 19.6674 25.4396 19.535 25.335L15.785 22.335C15.6484 22.206 15.5651 22.0305 15.5517 21.843C15.5383 21.6556 15.5958 21.47 15.7127 21.3229C15.8296 21.1758 15.9975 21.078 16.1831 21.0487C16.3687 21.0195 16.5585 21.061 16.715 21.165L19.25 23.19V12.75C19.25 12.5511 19.329 12.3603 19.4697 12.2197C19.6103 12.079 19.8011 12 20 12C20.1989 12 20.3897 12.079 20.5303 12.2197C20.671 12.3603 20.75 12.5511 20.75 12.75V23.19L23.285 21.165C23.3605 21.0937 23.45 21.0389 23.5478 21.004C23.6457 20.9691 23.7497 20.9549 23.8533 20.9623C23.9569 20.9697 24.0578 20.9985 24.1496 21.047C24.2415 21.0954 24.3223 21.1624 24.3869 21.2437C24.4516 21.325 24.4986 21.4189 24.5251 21.5193C24.5515 21.6197 24.5568 21.7245 24.5407 21.8271C24.5245 21.9297 24.4872 22.0278 24.4312 22.1153C24.3751 22.2027 24.3015 22.2775 24.215 22.335Z" fill="white" stroke="white" stroke-width="0.5"/>
</g>
<defs>
<clipPath id="clip0_763_16226">
<rect width="40" height="40" fill="white"/>
</clipPath>
</defs>
</svg>
