<svg width="24" height="24" viewBox="0 0 24 24" fill="none" xmlns="http://www.w3.org/2000/svg">
<path d="M17.8158 18.1229C17.9673 18.1229 18.1126 18.0627 18.2198 17.9556C18.3269 17.8484 18.3871 17.7031 18.3871 17.5516V15.7749C18.8498 15.6508 19.2587 15.3775 19.5503 14.9974C19.842 14.6173 20 14.1516 20 13.6725C20 13.1934 19.842 12.7277 19.5503 12.3476C19.2587 11.9675 18.8498 11.6942 18.3871 11.5701V5.91998C18.3871 5.76846 18.3269 5.62315 18.2198 5.51601C18.1126 5.40887 17.9673 5.34869 17.8158 5.34869C17.6643 5.34869 17.519 5.40887 17.4118 5.51601C17.3047 5.62315 17.2445 5.76846 17.2445 5.91998V11.5758C16.7818 11.6999 16.3729 11.9732 16.0813 12.3533C15.7897 12.7334 15.6316 13.1991 15.6316 13.6782C15.6316 14.1573 15.7897 14.623 16.0813 15.0031C16.3729 15.3832 16.7818 15.6565 17.2445 15.7806V17.5573C17.246 17.7078 17.3069 17.8517 17.4138 17.9576C17.5208 18.0635 17.6653 18.1229 17.8158 18.1229ZM16.7703 13.6725C16.7703 13.4657 16.8317 13.2636 16.9465 13.0917C17.0614 12.9197 17.2247 12.7857 17.4157 12.7066C17.6068 12.6275 17.817 12.6068 18.0198 12.6471C18.2226 12.6874 18.4089 12.787 18.5551 12.9332C18.7013 13.0794 18.8009 13.2657 18.8412 13.4685C18.8815 13.6713 18.8608 13.8815 18.7817 14.0726C18.7026 14.2636 18.5686 14.4269 18.3966 14.5418C18.2247 14.6566 18.0226 14.718 17.8158 14.718C17.5385 14.718 17.2726 14.6078 17.0765 14.4118C16.8805 14.2157 16.7703 13.9498 16.7703 13.6725Z" fill="#555555"/>
<path d="M11.9999 18.1218C12.1514 18.1218 12.2967 18.0616 12.4039 17.9544C12.511 17.8473 12.5712 17.702 12.5712 17.5505V9.63227C13.0832 9.49379 13.5275 9.17404 13.8213 8.73251C14.1152 8.29097 14.2388 7.75772 14.1689 7.23194C14.099 6.70616 13.8406 6.22365 13.4416 5.87417C13.0426 5.52469 12.5303 5.33203 11.9999 5.33203C11.4695 5.33203 10.9571 5.52469 10.5582 5.87417C10.1592 6.22365 9.90073 6.70616 9.83088 7.23194C9.76102 7.75772 9.88453 8.29097 10.1784 8.73251C10.4723 9.17404 10.9166 9.49379 11.4286 9.63227V17.5505C11.4286 17.702 11.4888 17.8473 11.5959 17.9544C11.7031 18.0616 11.8484 18.1218 11.9999 18.1218ZM10.9544 7.53561C10.9533 7.32859 11.0136 7.1259 11.1278 6.95323C11.242 6.78055 11.4049 6.64566 11.5958 6.56565C11.7868 6.48565 11.9971 6.46413 12.2003 6.50382C12.4035 6.54351 12.5903 6.64263 12.7371 6.78861C12.8839 6.93459 12.984 7.12087 13.0248 7.32382C13.0656 7.52678 13.0453 7.73728 12.9663 7.92865C12.8874 8.12002 12.7534 8.28364 12.5813 8.39877C12.4093 8.51391 12.2069 8.57537 11.9999 8.57537C11.7236 8.57538 11.4585 8.46601 11.2626 8.27118C11.0667 8.07635 10.9559 7.8119 10.9544 7.53561Z" fill="#555555"/>
<path d="M5.61291 13.8382V17.5516C5.61291 17.7031 5.6731 17.8484 5.78024 17.9556C5.88738 18.0627 6.03269 18.1229 6.18421 18.1229C6.33572 18.1229 6.48103 18.0627 6.58817 17.9556C6.69531 17.8484 6.7555 17.7031 6.7555 17.5516V13.8382C7.21824 13.7141 7.62712 13.4408 7.91873 13.0607C8.21035 12.6806 8.36841 12.2149 8.36841 11.7358C8.36841 11.2567 8.21035 10.791 7.91873 10.4109C7.62712 10.0308 7.21824 9.7575 6.7555 9.63342V5.91998C6.7555 5.76846 6.69531 5.62315 6.58817 5.51601C6.48103 5.40887 6.33572 5.34869 6.18421 5.34869C6.03269 5.34869 5.88738 5.40887 5.78024 5.51601C5.6731 5.62315 5.61291 5.76846 5.61291 5.91998V9.63342C5.15017 9.7575 4.74129 10.0308 4.44968 10.4109C4.15806 10.791 4 11.2567 4 11.7358C4 12.2149 4.15806 12.6806 4.44968 13.0607C4.74129 13.4408 5.15017 13.7141 5.61291 13.8382ZM6.18421 10.6903C6.39122 10.6892 6.59391 10.7495 6.76659 10.8637C6.93927 10.9779 7.07416 11.1408 7.15416 11.3317C7.23417 11.5227 7.25569 11.7331 7.216 11.9362C7.1763 12.1394 7.07719 12.3262 6.9312 12.473C6.78522 12.6198 6.59895 12.7199 6.39599 12.7607C6.19303 12.8015 5.98253 12.7812 5.79116 12.7022C5.5998 12.6233 5.43618 12.4893 5.32104 12.3172C5.20591 12.1452 5.14445 11.9428 5.14444 11.7358C5.14444 11.4595 5.2538 11.1944 5.44863 10.9985C5.64346 10.8026 5.90792 10.6918 6.18421 10.6903Z" fill="#555555"/>
</svg>
