<svg width="1156" height="128" viewBox="0 0 1156 128" fill="none" xmlns="http://www.w3.org/2000/svg">
<g clip-path="url(#clip0_594_15205)">
<g clip-path="url(#clip1_594_15205)">
<path d="M-0.00195312 63.9996C-0.00195312 71.8281 1.4063 79.3271 3.9788 86.2603L63.9981 89.0431L124.017 86.2606C126.59 79.3271 127.998 71.8281 127.998 63.9996C127.998 56.1711 126.59 48.6721 124.017 41.7388L63.9981 38.9561L3.9788 41.7386C1.4063 48.6721 -0.00195312 56.1711 -0.00195312 63.9996Z" fill="#FFDA44"/>
<path d="M63.9978 0C36.48 0 13.0213 17.368 3.97852 41.7393H124.017C114.974 17.368 91.5155 0 63.9978 0Z" fill="#D80027"/>
<path d="M124.019 86.2627H3.98047C13.0232 110.634 36.482 128.002 63.9997 128.002C91.5175 128.002 114.976 110.634 124.019 86.2627Z" fill="#496E2D"/>
<path d="M63.9978 41.7373L69.5228 58.7423H87.4048L72.9391 69.2531L78.4641 86.2588L63.9978 75.7488L49.5315 86.2588L55.0576 69.2531L40.5918 58.7423H58.4728L63.9978 41.7373Z" fill="black"/>
</g>
<g clip-path="url(#clip2_594_15205)">
<path d="M208.139 58.4375L213.704 125.798C219.027 127.233 224.623 128.003 230.399 128.003C265.745 128.003 294.399 99.3488 294.399 64.0028L208.139 58.4375Z" fill="#D80027"/>
<path d="M208.139 64L213.704 2.20475C219.027 0.77 224.623 0 230.399 0C265.745 0 294.399 28.654 294.399 64H208.139Z" fill="#FFDA44"/>
<path d="M166.4 64.0013C166.4 93.5711 186.456 118.453 213.705 125.797V2.20605C186.456 9.55005 166.4 34.4316 166.4 64.0013Z" fill="#6DA544"/>
</g>
<g clip-path="url(#clip3_594_15205)">
<path d="M396.801 128C432.147 128 460.801 99.3462 460.801 64C460.801 28.6538 432.147 0 396.801 0C361.455 0 332.801 28.6538 332.801 64C332.801 99.3462 361.455 128 396.801 128Z" fill="#FFDA44"/>
<path d="M396.804 0C396.758 0.0005 394.022 25.6 394.022 25.6H448.007C436.331 10.0558 417.742 0 396.804 0ZM396.804 128C417.742 128 436.331 117.944 448.007 102.4H345.602C357.278 117.944 375.866 128 396.804 128ZM459.523 51.2H394.022L396.804 76.8H459.523C460.363 72.6643 460.804 68.3838 460.804 64C460.804 59.6162 460.362 55.3358 459.523 51.2Z" fill="#496E2D"/>
<path d="M396.801 76.8V0C361.455 0 332.801 28.654 332.801 64C332.801 68.3838 333.243 72.6643 334.082 76.8H396.801Z" fill="#D80027"/>
<path d="M368.117 30.6064L372.261 43.3602H385.672L374.823 51.2434L378.967 63.9977L368.117 56.1152L357.268 63.9977L361.412 51.2434L350.562 43.3602H363.973L368.117 30.6064Z" fill="#F0F0F0"/>
</g>
<g clip-path="url(#clip4_594_15205)">
<path d="M591.024 6.3505C582.61 2.282 573.17 0 563.198 0C553.225 0 543.786 2.282 535.372 6.3505L529.807 64L535.372 121.649C543.786 125.718 553.225 128 563.198 128C573.17 128 582.61 125.718 591.024 121.649L596.589 64L591.024 6.3505Z" fill="#D80027"/>
<path d="M563.199 41.7373L568.724 58.7421H586.606L572.14 69.2531L577.665 86.2588L563.199 75.7486L548.733 86.2588L554.259 69.2531L539.793 58.7421H557.674L563.199 41.7373Z" fill="#FFDA44"/>
<path d="M535.373 6.34961C513.966 16.7011 499.199 38.6234 499.199 63.9969C499.199 89.3704 513.966 111.293 535.373 121.644V6.34961Z" fill="#496E2D"/>
<path d="M591.025 6.34961V121.644C612.433 111.293 627.199 89.3701 627.199 63.9969C627.199 38.6236 612.433 16.7011 591.025 6.34961Z" fill="#FFDA44"/>
</g>
<g clip-path="url(#clip5_594_15205)">
<path d="M729.602 128C764.948 128 793.602 99.3462 793.602 64C793.602 28.6538 764.948 0 729.602 0C694.255 0 665.602 28.6538 665.602 64C665.602 99.3462 694.255 128 729.602 128Z" fill="#F0F0F0"/>
<path d="M684.347 109.254C659.353 84.2604 659.353 43.7379 684.347 18.7441C684.345 18.7469 721.254 63.9991 721.254 63.9991L684.347 109.254Z" fill="black"/>
<path d="M721.25 64.0026L674.086 32.1309C672.618 34.6854 671.328 37.3387 670.227 40.0716L694.104 64.0029L670.227 87.9354C671.328 90.6664 672.616 93.3178 674.084 95.8706L721.25 64.0026Z" fill="#FFDA44"/>
<path d="M793.062 55.6504H721.255L684.349 18.7441C680.357 22.7351 676.908 27.2346 674.092 32.1266L705.902 63.9981L674.09 95.8656C676.906 100.759 680.356 105.26 684.349 109.252L721.255 72.3459H793.062C793.418 69.6134 793.604 66.8274 793.604 63.9981C793.604 61.1689 793.418 58.3829 793.062 55.6504Z" fill="#6DA544"/>
<path d="M690.633 114.767C701.425 123.062 714.934 127.998 729.598 127.998C759.168 127.998 784.05 107.942 791.394 80.6934H724.707L690.633 114.767Z" fill="#0052B4"/>
<path d="M791.394 47.3042C784.05 20.0552 759.168 0 729.598 0C714.934 0 701.425 4.93525 690.633 13.2308L724.706 47.3042H791.394Z" fill="#D80027"/>
</g>
<g clip-path="url(#clip6_594_15205)">
<path d="M895.998 128C931.344 128 959.998 99.3462 959.998 64C959.998 28.6538 931.344 0 895.998 0C860.652 0 831.998 28.6538 831.998 64C831.998 99.3462 860.652 128 895.998 128Z" fill="#F0F0F0"/>
<path d="M831.998 63.9995C831.998 91.5175 849.366 114.976 873.737 124.019V3.98047C849.366 13.023 831.998 36.482 831.998 63.9995ZM959.998 63.9995C959.998 36.482 942.63 13.023 918.259 3.98047V124.019C942.63 114.976 959.998 91.5175 959.998 63.9995Z" fill="#6DA544"/>
</g>
<g clip-path="url(#clip7_594_15205)">
<path d="M1062.4 128C1097.75 128 1126.4 99.3462 1126.4 64C1126.4 28.6538 1097.75 0 1062.4 0C1027.05 0 998.4 28.6538 998.4 64C998.4 99.3462 1027.05 128 1062.4 128Z" fill="#F0F0F0"/>
<path d="M1062.4 0C1037.03 0 1015.1 14.7663 1004.75 36.174H1120.05C1109.7 14.7663 1087.77 0 1062.4 0Z" fill="black"/>
<path d="M1062.4 127.999C1037.03 127.999 1015.1 113.233 1004.75 91.8252H1120.05C1109.7 113.233 1087.77 127.999 1062.4 127.999Z" fill="#496E2D"/>
<path d="M1123.38 44.5186H1001.42C999.462 50.6608 998.4 57.2046 998.4 63.9968C998.4 70.7891 999.462 77.3328 1001.42 83.4751H1123.38C1125.34 77.3328 1126.4 70.7891 1126.4 63.9968C1126.4 57.2046 1125.34 50.6608 1123.38 44.5186Z" fill="#A2001D"/>
<path d="M1082.33 29.5725L1074.75 26.0742L1062.4 54.037L1050.05 26.0742L1042.47 29.5725L1057.8 63.9972L1042.47 98.422L1050.05 101.92L1062.4 73.9575L1074.75 101.92L1082.33 98.422L1066.99 63.9972L1082.33 29.5725Z" fill="#F0F0F0"/>
<path d="M1067.55 32.8705C1064.61 29.6662 1062.4 27.8242 1062.4 27.8242C1062.4 27.8242 1060.18 29.666 1057.25 32.8705V95.1255C1060.18 98.3302 1062.4 100.172 1062.4 100.172C1062.4 100.172 1064.61 98.3305 1067.55 95.1257V32.8705Z" fill="#F0F0F0"/>
<path d="M1048.49 44.8131V83.1911C1051.59 88.6848 1055.38 93.1878 1058.23 96.1733V31.8311C1055.38 34.8163 1051.59 39.3196 1048.49 44.8131ZM1076.31 44.8131C1073.21 39.3193 1069.42 34.8163 1066.58 31.8311V96.1733C1069.42 93.1878 1073.21 88.6848 1076.31 83.1911V44.8131Z" fill="#A2001D"/>
<path d="M1076.32 44.8125V83.1905C1079.46 77.6283 1081.88 71.051 1081.88 64.0018C1081.88 56.9525 1079.46 50.375 1076.32 44.8125ZM1048.49 44.8125V83.1905C1045.35 77.6283 1042.93 71.051 1042.93 64.0018C1042.93 56.9525 1045.35 50.375 1048.49 44.8125Z" fill="black"/>
</g>
</g>
<defs>
<clipPath id="clip0_594_15205">
<rect width="1156" height="128" fill="white"/>
</clipPath>
<clipPath id="clip1_594_15205">
<rect width="128" height="128" fill="white"/>
</clipPath>
<clipPath id="clip2_594_15205">
<rect width="128" height="128" fill="white" transform="translate(166.4)"/>
</clipPath>
<clipPath id="clip3_594_15205">
<rect width="128" height="128" fill="white" transform="translate(332.801)"/>
</clipPath>
<clipPath id="clip4_594_15205">
<rect width="128" height="128" fill="white" transform="translate(499.199)"/>
</clipPath>
<clipPath id="clip5_594_15205">
<rect width="128" height="128" fill="white" transform="translate(665.6)"/>
</clipPath>
<clipPath id="clip6_594_15205">
<rect width="128" height="128" fill="white" transform="translate(832)"/>
</clipPath>
<clipPath id="clip7_594_15205">
<rect width="128" height="128" fill="white" transform="translate(998.4)"/>
</clipPath>
</defs>
</svg>
