<svg width="40" height="40" viewBox="0 0 40 40" fill="none" xmlns="http://www.w3.org/2000/svg">
<circle cx="20" cy="20" r="20" fill="#FF0000"/>
<path d="M27.1847 18.6157C27.2769 19.1099 27.3272 19.6267 27.3272 20.1659C27.3272 24.3839 24.5042 27.3832 20.2404 27.3832C19.2708 27.3835 18.3106 27.1927 17.4147 26.8218C16.5188 26.4509 15.7048 25.907 15.0192 25.2214C14.3336 24.5358 13.7897 23.7218 13.4188 22.8259C13.0479 21.93 12.8571 20.9698 12.8574 20.0002C12.8571 19.0306 13.0479 18.0704 13.4188 17.1745C13.7897 16.2786 14.3336 15.4646 15.0192 14.779C15.7048 14.0933 16.5188 13.5495 17.4147 13.1786C18.3106 12.8077 19.2708 12.6169 20.2404 12.6172C22.2339 12.6172 23.8997 13.3507 25.1777 14.5417L23.0964 16.6229V16.6177C22.3217 15.8797 21.3384 15.5009 20.2404 15.5009C17.8044 15.5009 15.8244 17.5589 15.8244 19.9957C15.8244 22.4317 17.8044 24.4942 20.2404 24.4942C22.4507 24.4942 23.9552 23.2304 24.2642 21.4949H20.2404V18.6157H27.1854H27.1847Z" fill="white"/>
</svg>
