<svg width="18" height="19" viewBox="0 0 18 19" fill="none" xmlns="http://www.w3.org/2000/svg">
<path d="M15.9957 11.8009C15.9949 11.5542 15.9289 11.3122 15.8044 11.0993C15.6798 10.8864 15.5013 10.7102 15.2867 10.5885C15.3108 10.5674 15.3381 10.5505 15.3611 10.5275C15.5558 10.3331 15.6884 10.0853 15.7422 9.81549C15.796 9.5457 15.7686 9.26601 15.6635 9.01178C15.5584 8.75756 15.3802 8.54022 15.1515 8.38725C14.9229 8.23428 14.654 8.15255 14.3789 8.15239H13.9637C13.8927 8.15239 13.8246 8.18061 13.7743 8.23084C13.7241 8.28107 13.6959 8.3492 13.6959 8.42024C13.6959 8.49128 13.7241 8.55941 13.7743 8.60965C13.8246 8.65988 13.8927 8.6881 13.9637 8.6881H14.3789C14.4911 8.6881 14.6022 8.7102 14.7059 8.75314C14.8096 8.79608 14.9038 8.85902 14.9831 8.93837C15.0624 9.01771 15.1254 9.11191 15.1683 9.21558C15.2113 9.31924 15.2334 9.43036 15.2334 9.54257C15.2334 9.65478 15.2113 9.76589 15.1683 9.86955C15.1254 9.97322 15.0624 10.0674 14.9831 10.1468C14.9038 10.2261 14.8096 10.289 14.7059 10.332C14.6022 10.3749 14.4911 10.397 14.3789 10.397H13.9959C13.9248 10.397 13.8567 10.4253 13.8065 10.4755C13.7562 10.5257 13.728 10.5938 13.728 10.6649C13.728 10.7359 13.7562 10.8041 13.8065 10.8543C13.8567 10.9045 13.9248 10.9327 13.9959 10.9327C14.1202 10.9325 14.4681 10.9333 14.5924 10.9333C14.8199 10.9373 15.0367 11.0305 15.1962 11.1927C15.3556 11.355 15.445 11.5735 15.445 11.801C15.445 12.0285 15.3556 12.247 15.1962 12.4093C15.0367 12.5716 14.8199 12.6647 14.5924 12.6687H14.0939C14.0229 12.6687 13.9547 12.6969 13.9045 12.7472C13.8543 12.7974 13.826 12.8655 13.826 12.9366C13.826 13.0076 13.8543 13.0758 13.9045 13.126C13.9547 13.1762 14.0229 13.2044 14.0939 13.2044H14.3543C14.5328 13.208 14.7029 13.2814 14.8279 13.4089C14.9529 13.5365 15.023 13.7079 15.023 13.8865C15.023 14.0651 14.9529 14.2366 14.8279 14.3641C14.7029 14.4917 14.5328 14.5651 14.3543 14.5686H13.4291C13.358 14.5686 13.2899 14.5969 13.2397 14.6471C13.1894 14.6973 13.1612 14.7655 13.1612 14.8365C13.1612 14.9075 13.1894 14.9757 13.2397 15.0259C13.2899 15.0761 13.358 15.1044 13.4291 15.1044C13.5133 15.0928 13.599 15.0986 13.6809 15.1214C13.7628 15.1442 13.8392 15.1834 13.9054 15.2368C13.9716 15.2901 14.0262 15.3564 14.0659 15.4316C14.1055 15.5068 14.1294 15.5894 14.136 15.6741C14.1426 15.7589 14.1318 15.8441 14.1043 15.9245C14.0768 16.005 14.0332 16.079 13.9761 16.142C13.919 16.2049 13.8496 16.2556 13.7722 16.2908C13.6948 16.326 13.6111 16.345 13.526 16.3467C12.0427 16.299 8.5948 16.5095 7.19069 16.0965L6.04587 15.8219V9.35239L8.01676 7.13292C8.60986 6.46375 9.06475 5.68387 9.35525 4.83819C9.55797 4.2717 9.72499 3.69307 9.85534 3.10569C9.8764 2.98139 9.93259 2.86572 10.0173 2.77231C10.1019 2.67891 10.2116 2.61168 10.3332 2.57855C10.4596 2.54069 10.5929 2.53099 10.7235 2.55012C10.8541 2.56925 10.9789 2.61675 11.0892 2.68927C11.1995 2.7618 11.2925 2.8576 11.3618 2.96994C11.4311 3.08228 11.475 3.20843 11.4903 3.33953C11.5605 3.96042 11.6111 5.13042 11.276 5.88739C11.0778 6.40649 10.7486 7.26551 10.5362 7.81167C10.5002 7.90958 10.4882 8.01471 10.5012 8.11822C10.5143 8.22173 10.552 8.32059 10.6112 8.40649C10.6705 8.49238 10.7495 8.56279 10.8416 8.6118C10.9337 8.66081 11.0362 8.68697 11.1405 8.6881H12.8923C12.9633 8.6881 13.0315 8.65988 13.0817 8.60965C13.1319 8.55941 13.1602 8.49128 13.1602 8.42024C13.1602 8.3492 13.1319 8.28107 13.0817 8.23084C13.0315 8.18061 12.9633 8.15239 12.8923 8.15239H11.1405C11.1225 8.15282 11.1047 8.14878 11.0886 8.14063C11.0726 8.13249 11.0588 8.12049 11.0485 8.10571C11.0382 8.09093 11.0317 8.07384 11.0296 8.05595C11.0276 8.03806 11.0299 8.01993 11.0366 8.00319C11.3695 7.03382 11.9452 5.96373 12.0448 4.97024C12.0934 4.40823 12.0861 3.84278 12.0231 3.28221C11.9015 1.81783 9.65926 1.47819 9.32953 3.0031C9.01801 4.37694 8.56346 5.73712 7.61605 6.77721L5.96873 8.63292C5.89894 8.47573 5.78509 8.34213 5.64095 8.24829C5.49682 8.15445 5.32858 8.10439 5.15658 8.10417H2.89319C2.65778 8.1041 2.43195 8.1974 2.26524 8.36361C2.09853 8.52982 2.00454 8.75537 2.00391 8.99078V13.3515C2.00391 13.4225 2.03213 13.4907 2.08236 13.5409C2.13259 13.5911 2.20072 13.6194 2.27176 13.6194C2.3428 13.6194 2.41093 13.5911 2.46117 13.5409C2.5114 13.4907 2.53962 13.4225 2.53962 13.3515V8.99078C2.54012 8.89741 2.57761 8.80804 2.64389 8.74226C2.71017 8.67649 2.79982 8.63967 2.89319 8.63989H5.15658C5.24996 8.63967 5.33961 8.67649 5.40589 8.74226C5.47216 8.80804 5.50966 8.89741 5.51016 8.99078V16.1158C5.51001 16.2095 5.47272 16.2994 5.40644 16.3656C5.34016 16.4319 5.25031 16.4692 5.15658 16.4694H2.89319C2.79946 16.4692 2.70961 16.4319 2.64334 16.3656C2.57706 16.2994 2.53976 16.2095 2.53962 16.1158V14.4229C2.53962 14.3519 2.5114 14.2838 2.46117 14.2335C2.41093 14.1833 2.3428 14.1551 2.27176 14.1551C2.20072 14.1551 2.13259 14.1833 2.08236 14.2335C2.03213 14.2838 2.00391 14.3519 2.00391 14.4229V16.1158C2.00419 16.3515 2.09797 16.5776 2.26469 16.7443C2.4314 16.911 2.65743 17.0048 2.89319 17.0051H5.15658C5.34857 17.0044 5.53518 16.9416 5.68841 16.8259C5.84165 16.7102 5.95326 16.548 6.0065 16.3635L7.06507 16.6175C8.52007 17.0474 11.9912 16.836 13.526 16.8827C13.7348 16.8828 13.9397 16.8264 14.1189 16.7194C14.2982 16.6124 14.4452 16.4589 14.5442 16.2751C14.6432 16.0914 14.6906 15.8842 14.6814 15.6757C14.6721 15.4671 14.6066 15.265 14.4917 15.0907C14.7636 15.0627 15.0178 14.9427 15.2122 14.7505C15.4369 14.5246 15.5646 14.2199 15.568 13.9012C15.5714 13.5826 15.4503 13.2752 15.2304 13.0445C15.4613 12.9292 15.6553 12.7517 15.7905 12.5319C15.9257 12.3121 15.9968 12.0589 15.9957 11.8009Z" fill="#1D2432"/>
<path d="M4.85281 10.5143C4.85281 10.2945 4.7655 10.0837 4.61008 9.92828C4.45466 9.77286 4.24386 9.68555 4.02406 9.68555C3.80426 9.68555 3.59347 9.77286 3.43805 9.92828C3.28263 10.0837 3.19531 10.2945 3.19531 10.5143C3.19531 10.7341 3.28263 10.9449 3.43805 11.1003C3.59347 11.2557 3.80426 11.343 4.02406 11.343C4.24386 11.343 4.45466 11.2557 4.61008 11.1003C4.7655 10.9449 4.85281 10.7341 4.85281 10.5143ZM3.73103 10.5143C3.73103 10.4366 3.7619 10.362 3.81685 10.3071C3.87181 10.2521 3.94634 10.2213 4.02406 10.2213C4.10178 10.2213 4.17632 10.2521 4.23127 10.3071C4.28622 10.362 4.3171 10.4366 4.3171 10.5143C4.3171 10.592 4.28622 10.6666 4.23127 10.7215C4.17632 10.7765 4.10178 10.8073 4.02406 10.8073C3.94634 10.8073 3.87181 10.7765 3.81685 10.7215C3.7619 10.6666 3.73103 10.592 3.73103 10.5143Z" fill="#1D2432"/>
</svg>
