<svg width="24" height="25" viewBox="0 0 24 25" fill="none" xmlns="http://www.w3.org/2000/svg">
<g clip-path="url(#clip0_702_17603)">
<path d="M12 0.480469C9.62663 0.480469 7.30655 1.18426 5.33316 2.50283C3.35977 3.82141 1.8217 5.69555 0.913451 7.88827C0.00519938 10.081 -0.232441 12.4938 0.230582 14.8216C0.693605 17.1493 1.83649 19.2875 3.51472 20.9658C5.19295 22.644 7.33115 23.7869 9.65892 24.2499C11.9867 24.7129 14.3995 24.4753 16.5922 23.567C18.7849 22.6588 20.6591 21.1207 21.9776 19.1473C23.2962 17.1739 24 14.8538 24 12.4805C24 9.29787 22.7357 6.24562 20.4853 3.99519C18.2348 1.74475 15.1826 0.480469 12 0.480469V0.480469ZM8.51053 18.7963H5.89264V10.3631H8.51053V18.7963ZM7.20001 9.21205C6.89872 9.21329 6.60383 9.12519 6.35261 8.95887C6.10138 8.79256 5.90511 8.55549 5.78859 8.27765C5.67207 7.9998 5.64053 7.69365 5.69797 7.39789C5.75541 7.10213 5.89925 6.83004 6.11129 6.616C6.32334 6.40197 6.59408 6.25561 6.8893 6.19541C7.18451 6.13522 7.49094 6.1639 7.76986 6.27782C8.04878 6.39175 8.28766 6.5858 8.45631 6.83547C8.62496 7.08513 8.71581 7.37919 8.71737 7.68047C8.71822 8.08447 8.55908 8.47237 8.27474 8.75938C7.9904 9.04638 7.604 9.20913 7.20001 9.21205ZM18.3158 18.7963H15.6995V14.691C15.6995 13.712 15.6805 12.4568 14.3384 12.4568C12.9963 12.4568 12.7595 13.521 12.7595 14.6199V18.7963H10.1526V10.3631H12.6647V11.5126H12.7011C13.05 10.8494 13.9042 10.1499 15.1784 10.1499C17.8279 10.1499 18.3158 11.8963 18.3158 14.1636V18.7963Z" fill="#0B6614"/>
</g>
<defs>
<clipPath id="clip0_702_17603">
<rect width="24" height="24" fill="white" transform="translate(0 0.480469)"/>
</clipPath>
</defs>
</svg>
