<svg width="24" height="24" viewBox="0 0 24 24" fill="none" xmlns="http://www.w3.org/2000/svg">
<g clip-path="url(#clip0_1311_6542)">
<path d="M11.8657 0C6.97705 0 3 3.97705 3 8.86571C3 10.4751 3.72177 12.206 3.75202 12.279C3.98514 12.8323 4.44511 13.6918 4.77679 14.1956L10.8555 23.406C11.1043 23.7836 11.4725 24 11.8657 24C12.2589 24 12.6271 23.7836 12.8759 23.4065L18.9551 14.1956C19.2874 13.6918 19.7468 12.8323 19.9799 12.279C20.0102 12.2065 20.7314 10.4756 20.7314 8.86571C20.7314 3.97705 16.7544 0 11.8657 0ZM19.0183 11.8743C18.8102 12.3703 18.382 13.1698 18.0842 13.6214L12.005 22.8323C11.885 23.0143 11.8469 23.0143 11.727 22.8323L5.64772 13.6214C5.34993 13.1698 4.92177 12.3698 4.71369 11.8738C4.70482 11.8524 4.04302 10.2592 4.04302 8.86571C4.04302 4.55228 7.55228 1.04302 11.8657 1.04302C16.1791 1.04302 19.6884 4.55228 19.6884 8.86571C19.6884 10.2613 19.025 11.8587 19.0183 11.8743Z" fill="#1D2432" stroke="#1D2432" stroke-width="0.05"/>
<path d="M11.8655 4.17188C9.27722 4.17188 7.17188 6.27774 7.17188 8.86549C7.17188 11.4532 9.27722 13.5591 11.8655 13.5591C14.4538 13.5591 16.5591 11.4532 16.5591 8.86549C16.5591 6.27774 14.4538 4.17188 11.8655 4.17188ZM11.8655 12.5161C9.85297 12.5161 8.2149 10.8785 8.2149 8.86549C8.2149 6.85245 9.85297 5.2149 11.8655 5.2149C13.878 5.2149 15.5161 6.85245 15.5161 8.86549C15.5161 10.8785 13.878 12.5161 11.8655 12.5161Z" fill="#1D2432" stroke="#1D2432" stroke-width="0.05"/>
</g>
<defs>
<clipPath id="clip0_1311_6542">
<rect width="24" height="24" rx="6" transform="matrix(-1 0 0 1 24 0)" fill="white"/>
</clipPath>
</defs>
</svg>
