<svg width="57" height="56" viewBox="0 0 57 56" fill="none" xmlns="http://www.w3.org/2000/svg">
<g clip-path="url(#clip0_435_18562)">
<path d="M56.5002 35.0294C56.5002 23.4476 47.1112 14.0586 35.5294 14.0586C23.9476 14.0586 14.5586 23.4476 14.5586 35.0294C14.5586 46.6112 23.9475 56.0002 35.5294 56.0002C38.8274 56.0002 41.9471 55.238 44.7233 53.8815L50.8261 55.916C51.0728 55.9982 51.3354 56.0206 51.5924 55.9814C51.8494 55.9422 52.0934 55.8425 52.3043 55.6905C52.5152 55.5385 52.6869 55.3386 52.8054 55.1072C52.9239 54.8758 52.9856 54.6195 52.9856 54.3596V46.6528C55.2053 43.3257 56.5002 39.329 56.5002 35.0294Z" fill="#78ECA6"/>
<path d="M35.5293 56.0002C38.8273 56.0002 41.947 55.238 44.7232 53.8815L50.826 55.916C51.0727 55.9982 51.3353 56.0206 51.5923 55.9814C51.8493 55.9422 52.0933 55.8425 52.3042 55.6905C52.5151 55.5385 52.6868 55.3386 52.8053 55.1072C52.9238 54.8758 52.9855 54.6195 52.9855 54.3596V46.6528C55.2052 43.3257 56.5001 39.329 56.5001 35.0294C56.5001 23.4476 47.1111 14.0586 35.5293 14.0586V56.0002Z" fill="#39C580"/>
<path d="M4.69595 45.1466C4.48506 44.9946 4.31332 44.7947 4.19486 44.5632C4.07641 44.3318 4.01465 44.0756 4.01466 43.8156V34.8673C1.71373 31.2359 0.5 27.0499 0.5 22.7281C0.5 10.1958 10.6958 0 23.2281 0C35.7604 0 45.9562 10.1958 45.9562 22.7281C45.9562 35.2605 35.7604 45.4562 23.2281 45.4562C19.7082 45.4562 16.2168 44.6324 13.0841 43.0682L6.17416 45.372C5.92753 45.4543 5.66489 45.4767 5.40788 45.4375C5.15088 45.3983 4.90687 45.2986 4.69595 45.1466Z" fill="#F3F9FF"/>
<path d="M23.2285 0C35.7608 0 45.9566 10.1958 45.9566 22.7281C45.9566 35.2605 35.7608 45.4562 23.2285 45.4562V0Z" fill="#E1EEFF"/>
<path d="M30.2578 20.7495C29.3517 20.7495 28.6172 20.015 28.6172 19.1089V17.3516C28.6172 16.4455 29.3517 15.7109 30.2578 15.7109C31.1639 15.7109 31.8984 16.4455 31.8984 17.3516V19.1089C31.8984 20.015 31.164 20.7495 30.2578 20.7495Z" fill="#070F15"/>
<path d="M16.1992 20.7495C15.2932 20.7495 14.5586 20.015 14.5586 19.1089V17.3516C14.5586 16.4455 15.2932 15.7109 16.1992 15.7109C17.1053 15.7109 17.8398 16.4455 17.8398 17.3516V19.1089C17.8398 20.015 17.1053 20.7495 16.1992 20.7495ZM24.7047 28.4952C23.8908 27.6817 22.5662 27.6817 21.7523 28.4952C21.1116 29.1357 20.0727 29.1356 19.4321 28.4946C18.7916 27.8537 18.7918 26.8149 19.4328 26.1744C21.5258 24.0826 24.9312 24.0827 27.0242 26.1744C27.665 26.8149 27.6653 27.8537 27.0249 28.4946C26.3841 29.1355 25.3455 29.1356 24.7047 28.4952Z" fill="#142D3F"/>
<path d="M23.2285 24.6055V27.885C23.7631 27.885 24.2978 28.0883 24.7047 28.4951C25.3456 29.1355 26.3843 29.1353 27.025 28.4944C27.6654 27.8535 27.6652 26.8147 27.0243 26.1742C25.9778 25.1284 24.6031 24.6055 23.2285 24.6055Z" fill="#070F15"/>
</g>
<defs>
<clipPath id="clip0_435_18562">
<rect width="56" height="56" fill="white" transform="translate(0.5)"/>
</clipPath>
</defs>
</svg>
