<svg width="18" height="18" viewBox="0 0 18 18" fill="none" xmlns="http://www.w3.org/2000/svg">
<g clip-path="url(#clip0_557_21226)">
<path d="M15.7143 2.875H1.42859C0.640682 2.875 0 3.51568 0 4.30358V14.3036C0 15.0915 0.640682 15.7321 1.42859 15.7321H15.7143C16.5022 15.7321 17.1429 15.0915 17.1429 14.3036V4.30358C17.1429 3.51568 16.5022 2.875 15.7143 2.875ZM1.42859 3.58927H15.7143C15.767 3.58927 15.8134 3.60846 15.8627 3.61931C14.6259 4.75124 10.5249 8.50298 9.08975 9.79603C8.97746 9.89718 8.79645 10.0178 8.57148 10.0178C8.34652 10.0178 8.16551 9.89718 8.05284 9.79569C6.61783 8.50285 2.51656 4.7509 1.27996 3.61938C1.32945 3.60853 1.37592 3.58927 1.42859 3.58927ZM0.714276 14.3036V4.30358C0.714276 4.2336 0.73537 4.17012 0.754254 4.10617C1.70086 4.97256 4.56239 7.59032 6.41784 9.27759C4.56842 10.8662 1.70615 13.5799 0.752011 14.4897C0.735169 14.429 0.714276 14.3696 0.714276 14.3036ZM15.7143 15.0179H1.42859C1.37153 15.0179 1.32081 14.998 1.26754 14.9853C2.25349 14.0453 5.13396 11.3161 6.95088 9.76174C7.1585 9.95021 7.36643 10.1384 7.57465 10.3262C7.86903 10.592 8.21359 10.7322 8.57145 10.7322C8.92931 10.7322 9.27387 10.5919 9.56788 10.3265C9.77622 10.1386 9.98426 9.95032 10.192 9.76174C12.009 11.3159 14.8891 14.045 15.8754 14.9853C15.8221 14.998 15.7714 15.0179 15.7143 15.0179ZM16.4286 14.3036C16.4286 14.3696 16.4077 14.429 16.3909 14.4897C15.4364 13.5794 12.5745 10.866 10.7251 9.27762C12.5806 7.59036 15.4417 4.97282 16.3886 4.1061C16.4075 4.17006 16.4286 4.23357 16.4286 4.30355V14.3036Z" fill="#1D2432"/>
</g>
<defs>
<clipPath id="clip0_557_21226">
<rect width="17.1429" height="17.1429" fill="white" transform="translate(0 0.732422)"/>
</clipPath>
</defs>
</svg>
