<svg width="24" height="24" viewBox="0 0 24 24" fill="none" xmlns="http://www.w3.org/2000/svg">
<g clip-path="url(#clip0_682_16303)">
<path d="M13.4162 12.5829L5.29656 20.7037C4.9743 21.026 4.45183 21.026 4.12952 20.7037L2.12059 18.6947C1.79837 18.3725 1.79833 17.85 2.12055 17.5278L7.64777 11.9994L4.40767 8.75934L2.12064 6.47231C1.79837 6.15004 1.79837 5.62757 2.12064 5.30531L4.12956 3.29639C4.45183 2.97412 4.9743 2.97412 5.29656 3.29639L10.7595 8.75934L13.4162 11.416C13.7384 11.7382 13.7384 12.2607 13.4162 12.5829Z" fill="#FF5151"/>
<path d="M10.8223 8.82464L7.64642 12.0006L6.4325 10.7866L4.40764 8.7592L2.12061 6.47217C1.79834 6.1499 1.79834 5.62743 2.12061 5.30517L4.12939 3.29639C4.4517 2.97407 4.97431 2.97412 5.29653 3.29653L9.60842 7.61067L10.8223 8.82464Z" fill="#BE1010"/>
<path d="M10.8211 8.82611L7.64516 12.002L6.875 11.2306L10.0509 8.05469L10.8211 8.82611Z" fill="#710909"/>
<path d="M21.881 12.5829L13.7615 20.7037C13.4392 21.026 12.9167 21.026 12.5944 20.7037L10.5854 18.6947C10.2632 18.3725 10.2632 17.85 10.5854 17.5278L16.1126 11.9994L12.8725 8.75934L10.5855 6.47231C10.2632 6.15004 10.2632 5.62757 10.5855 5.30531L12.5944 3.29639C12.9167 2.97412 13.4391 2.97412 13.7614 3.29639L19.2244 8.75934L21.881 11.416C22.2033 11.7382 22.2033 12.2607 21.881 12.5829Z" fill="#BE1010"/>
<path d="M19.2872 8.82464L16.1113 12.0006L14.8973 10.7866L12.8725 8.7592L10.5854 6.47217C10.2632 6.1499 10.2632 5.62743 10.5854 5.30517L12.5942 3.29639C12.9165 2.97407 13.4392 2.97412 13.7614 3.29653L18.0733 7.61067L19.2872 8.82464Z" fill="#FF5151"/>
<path d="M19.2879 8.82611L16.112 12.002L15.3418 11.2306L18.5177 8.05469L19.2879 8.82611ZM23.1578 22.9037C23.0645 22.9037 22.9751 22.9407 22.9092 23.0067C22.8433 23.0726 22.8062 23.162 22.8062 23.2553V23.6498C22.8062 23.844 22.9636 24.0014 23.1578 24.0014C23.352 24.0014 23.5093 23.844 23.5093 23.6498V23.2553C23.5093 23.162 23.4723 23.0726 23.4064 23.0067C23.3404 22.9407 23.251 22.9037 23.1578 22.9037ZM21.0825 22.9037C20.9893 22.9037 20.8999 22.9407 20.8339 23.0067C20.768 23.0726 20.731 23.162 20.731 23.2553V23.6498C20.731 23.844 20.8883 24.0014 21.0825 24.0014C21.2767 24.0014 21.4341 23.844 21.4341 23.6498V23.2553C21.4341 23.162 21.3971 23.0726 21.3311 23.0067C21.2652 22.9407 21.1758 22.9037 21.0825 22.9037ZM19.0073 22.9037C18.914 22.9037 18.8246 22.9407 18.7587 23.0067C18.6928 23.0726 18.6557 23.162 18.6557 23.2553V23.6498C18.6557 23.844 18.8131 24.0014 19.0073 24.0014C19.2015 24.0014 19.3588 23.844 19.3588 23.6498V23.2553C19.3588 23.162 19.3218 23.0726 19.2559 23.0067C19.1899 22.9407 19.1005 22.9037 19.0073 22.9037Z" fill="#FF8E8E"/>
<path d="M4.99425 1.09767C5.08749 1.09767 5.17691 1.06063 5.24284 0.994702C5.30877 0.928771 5.34581 0.83935 5.34581 0.746109V0.351562C5.34581 0.258322 5.30877 0.168901 5.24284 0.10297C5.17691 0.0370395 5.08749 0 4.99425 0C4.90101 0 4.81159 0.0370395 4.74566 0.10297C4.67973 0.168901 4.64269 0.258322 4.64269 0.351562V0.746109C4.64269 0.83935 4.67973 0.928771 4.74566 0.994702C4.81159 1.06063 4.90101 1.09767 4.99425 1.09767ZM2.919 1.09767C3.01224 1.09767 3.10166 1.06063 3.16759 0.994702C3.23352 0.928771 3.27056 0.83935 3.27056 0.746109V0.351562C3.27056 0.258322 3.23352 0.168901 3.16759 0.10297C3.10166 0.0370395 3.01224 0 2.919 0C2.82576 0 2.73634 0.0370395 2.67041 0.10297C2.60448 0.168901 2.56744 0.258322 2.56744 0.351562V0.746109C2.56744 0.83935 2.60448 0.928771 2.67041 0.994702C2.73634 1.06063 2.82576 1.09767 2.919 1.09767ZM0.84375 0C0.75051 0 0.661089 0.0370395 0.595158 0.10297C0.529227 0.168901 0.492188 0.258322 0.492188 0.351562V0.746109C0.492188 0.83935 0.529227 0.928771 0.595158 0.994702C0.661089 1.06063 0.75051 1.09767 0.84375 1.09767C0.93699 1.09767 1.02641 1.06063 1.09234 0.994702C1.15827 0.928771 1.19531 0.83935 1.19531 0.746109V0.351562C1.19531 0.258322 1.15827 0.168901 1.09234 0.10297C1.02641 0.0370395 0.93699 0 0.84375 0Z" fill="#710909"/>
</g>
<defs>
<clipPath id="clip0_682_16303">
<rect width="24" height="24" fill="white"/>
</clipPath>
</defs>
</svg>
