<svg width="382" height="106" viewBox="0 0 382 106" fill="none" xmlns="http://www.w3.org/2000/svg">
<path d="M382 40L204.771 40M0 40L176.031 40" stroke="#1D2432" stroke-linejoin="round"/>
<g filter="url(#filter0_d_1219_7246)">
<rect x="179" y="28" width="24" height="24" rx="6" stroke="#1D2432"/>
</g>
<path d="M187.576 43.1C186.896 43.1 186.3 42.95 185.786 42.65C185.28 42.35 184.886 41.93 184.606 41.39C184.326 40.8433 184.186 40.2033 184.186 39.47C184.186 38.9167 184.266 38.42 184.426 37.98C184.586 37.5333 184.813 37.1533 185.106 36.84C185.406 36.52 185.763 36.2767 186.176 36.11C186.596 35.9367 187.063 35.85 187.576 35.85C188.263 35.85 188.86 36 189.366 36.3C189.873 36.5933 190.266 37.01 190.546 37.55C190.826 38.09 190.966 38.7267 190.966 39.46C190.966 40.0133 190.886 40.5133 190.726 40.96C190.566 41.4067 190.336 41.79 190.036 42.11C189.743 42.43 189.386 42.6767 188.966 42.85C188.553 43.0167 188.09 43.1 187.576 43.1ZM187.576 42C188.01 42 188.376 41.9 188.676 41.7C188.983 41.5 189.216 41.21 189.376 40.83C189.543 40.45 189.626 39.9967 189.626 39.47C189.626 38.67 189.446 38.05 189.086 37.61C188.733 37.17 188.23 36.95 187.576 36.95C187.15 36.95 186.783 37.05 186.476 37.25C186.17 37.4433 185.933 37.73 185.766 38.11C185.606 38.4833 185.526 38.9367 185.526 39.47C185.526 40.2633 185.706 40.8833 186.066 41.33C186.426 41.7767 186.93 42 187.576 42ZM192.908 43.08C192.701 43.08 192.541 43.0233 192.428 42.91C192.321 42.79 192.268 42.6267 192.268 42.42V36.6C192.268 36.3867 192.325 36.2267 192.438 36.12C192.551 36.0067 192.711 35.95 192.918 35.95H195.328C196.101 35.95 196.698 36.1367 197.118 36.51C197.538 36.8767 197.748 37.3933 197.748 38.06C197.748 38.4933 197.651 38.8667 197.458 39.18C197.271 39.4933 196.998 39.7333 196.638 39.9C196.278 40.0667 195.841 40.15 195.328 40.15L195.418 40H195.748C196.021 40 196.258 40.0667 196.458 40.2C196.665 40.3333 196.845 40.5433 196.998 40.83L197.748 42.22C197.828 42.36 197.865 42.4967 197.858 42.63C197.851 42.7633 197.801 42.8733 197.708 42.96C197.615 43.04 197.478 43.08 197.298 43.08C197.118 43.08 196.971 43.0433 196.858 42.97C196.745 42.89 196.645 42.77 196.558 42.61L195.548 40.75C195.428 40.5233 195.285 40.3733 195.118 40.3C194.958 40.22 194.751 40.18 194.498 40.18H193.548V42.42C193.548 42.6267 193.495 42.79 193.388 42.91C193.281 43.0233 193.121 43.08 192.908 43.08ZM193.548 39.23H195.108C195.568 39.23 195.915 39.1367 196.148 38.95C196.388 38.7567 196.508 38.47 196.508 38.09C196.508 37.7167 196.388 37.4367 196.148 37.25C195.915 37.0567 195.568 36.96 195.108 36.96H193.548V39.23Z" fill="#1D2432"/>
<defs>
<filter id="filter0_d_1219_7246" x="138.5" y="0.5" width="105" height="105" filterUnits="userSpaceOnUse" color-interpolation-filters="sRGB">
<feFlood flood-opacity="0" result="BackgroundImageFix"/>
<feColorMatrix in="SourceAlpha" type="matrix" values="0 0 0 0 0 0 0 0 0 0 0 0 0 0 0 0 0 0 127 0" result="hardAlpha"/>
<feOffset dy="13"/>
<feGaussianBlur stdDeviation="20"/>
<feColorMatrix type="matrix" values="0 0 0 0 0.105977 0 0 0 0 0.0998438 0 0 0 0 0.3375 0 0 0 0.06 0"/>
<feBlend mode="normal" in2="BackgroundImageFix" result="effect1_dropShadow_1219_7246"/>
<feBlend mode="normal" in="SourceGraphic" in2="effect1_dropShadow_1219_7246" result="shape"/>
</filter>
</defs>
</svg>
