<svg width="18" height="18" viewBox="0 0 18 18" fill="none" xmlns="http://www.w3.org/2000/svg">
<path d="M15.3445 11.4484V14.2555C15.3467 14.4619 15.3042 14.6663 15.2198 14.8547C15.1354 15.043 15.0112 15.2109 14.8558 15.3466C14.7003 15.4824 14.5173 15.5829 14.3193 15.6411C14.1213 15.6994 13.913 15.7141 13.7088 15.6841C10.8781 15.3205 8.24877 14.0253 6.23521 12.0027C4.22165 9.98011 2.9383 7.34504 2.58737 4.51269C2.55752 4.30908 2.57202 4.10143 2.62987 3.90395C2.68772 3.70646 2.78755 3.5238 2.92253 3.36848C3.05751 3.21315 3.22445 3.08881 3.41194 3.00398C3.59942 2.91915 3.80302 2.87583 4.0088 2.87698H6.77309C6.94967 2.8759 7.12039 2.94028 7.2523 3.05768C7.38421 3.17508 7.46796 3.33718 7.48738 3.51269C7.55826 4.44881 7.80037 5.36398 8.20167 6.21269C8.27048 6.37342 8.27795 6.55381 8.22266 6.71969C8.16737 6.88556 8.05316 7.02539 7.90167 7.11269L7.28738 7.46269C7.19883 7.51139 7.12163 7.57832 7.06087 7.65906C7.00011 7.7398 6.95717 7.83252 6.93489 7.93109C6.91261 8.02965 6.9115 8.13182 6.93163 8.23085C6.95176 8.32987 6.99267 8.4235 7.05166 8.50555C7.75833 9.54068 8.65225 10.4346 9.68738 11.1413C9.76943 11.2003 9.86306 11.2412 9.96208 11.2613C10.0611 11.2814 10.1633 11.2803 10.2618 11.258C10.3604 11.2358 10.4531 11.1928 10.5339 11.1321C10.6146 11.0713 10.6815 10.9941 10.7302 10.9055L11.0802 10.2913C11.1728 10.1378 11.3196 10.0247 11.4916 9.97441C11.6636 9.92413 11.8482 9.94035 12.0088 10.0198C12.8575 10.4211 13.7727 10.6632 14.7088 10.7341C14.8843 10.7535 15.0464 10.8373 15.1638 10.9692C15.2812 11.1011 15.3456 11.2718 15.3445 11.4484Z" stroke="#1D2432" stroke-linecap="round" stroke-linejoin="round"/>
</svg>
