<svg xmlns="http://www.w3.org/2000/svg" width="28" height="28" viewBox="0 0 28 28" fill="none">
  <g clip-path="url(#clip0_1259_29441)">
    <path d="M13.0754 13.3477L0.115234 25.6306C0.260776 26.0971 0.522318 26.5274 0.879869 26.8885C1.23742 27.2497 1.68151 27.532 2.1782 27.7141C2.67489 27.8962 3.21102 27.9731 3.74561 27.939C4.2802 27.9049 4.7991 27.7607 5.26264 27.5174L19.8453 20.0045L13.0754 13.3477Z" fill="#EA4335"/>
    <path d="M26.1816 11.2615L19.8756 7.99414L12.7773 13.6288L19.9044 19.9886L26.1624 16.7563C26.7168 16.4937 27.1812 16.0988 27.5052 15.6145C27.8292 15.1302 28.0005 14.5749 28.0005 14.0088C28.0005 13.4428 27.8292 12.8875 27.5052 12.4032C27.1812 11.9189 26.7168 11.524 26.1624 11.2614H26.1818L26.1816 11.2615Z" fill="#FBBC04"/>
    <path d="M0.115974 2.32422C0.0376367 2.5862 -0.00135929 2.85652 3.61631e-05 3.12791V24.8281C0.000848363 25.0994 0.0398069 25.3695 0.115974 25.6319L13.5204 13.6635L0.115974 2.32422Z" fill="#4285F4"/>
    <path d="M13.172 13.9776L19.8743 7.99346L5.31098 0.445533C4.76305 0.15525 4.13986 0.00152196 3.50488 6.06802e-06C1.92911 -0.00276425 0.543766 0.943299 0.115234 2.3151L13.172 13.9776Z" fill="#34A853"/>
  </g>
  <defs>
    <clipPath id="clip0_1259_29441">
      <rect width="28" height="28" fill="white"/>
    </clipPath>
  </defs>
</svg>