<svg width="48" height="48" viewBox="0 0 48 48" fill="none" xmlns="http://www.w3.org/2000/svg">
<g clip-path="url(#clip0_682_16258)">
<path d="M42.7363 43.5023C35.3915 49.4981 12.4576 49.4981 5.26261 43.5023C-2.08224 37.5065 -1.33278 11.8745 5.26261 5.12926C11.858 -1.616 36.1409 -1.616 42.7363 5.12926C49.3317 11.8745 50.0812 37.5066 42.7363 43.5023Z" fill="#FEE4B4"/>
<g opacity="0.2">
<path d="M24.1509 33.0105C17.5555 38.2569 10.2107 40.955 3.31556 41.1048C-1.7809 32.4109 -0.731594 11.2758 5.2642 5.13016C10.6604 -0.415922 27.5985 -1.46523 37.3417 1.98233C39.74 11.8754 34.7935 24.4665 24.1509 33.0105Z" fill="white"/>
</g>
<g clip-path="url(#clip1_682_16258)">
<path d="M34.016 35.4179L31.9063 26.9477C31.4983 25.3094 30.294 24.4071 28.5155 24.4071H26.6997L26.1934 23.1414C26.3181 23.011 26.4363 22.8746 26.5478 22.7328C27.1287 21.9949 27.6277 20.9926 27.8848 20.049C27.9365 19.8953 27.9748 19.727 28.0036 19.5495C29.817 18.5927 30.1959 17.0903 29.9299 15.9725C29.5648 14.4382 28.0819 13.3822 26.283 13.349C24.8601 11.8558 23.4023 12.2807 22.2233 12.6245C21.0121 12.9776 20.2903 13.131 19.5391 12.1785C19.501 12.1301 19.4537 12.0897 19.3999 12.0596C19.3461 12.0296 19.287 12.0104 19.2258 12.0032C19.1646 11.996 19.1026 12.001 19.0433 12.0178C18.984 12.0346 18.9286 12.0629 18.8803 12.1011C17.7937 12.9604 17.245 14.1878 17.3353 15.557C17.4347 17.0663 18.2991 18.5099 19.61 19.3831C19.6875 20.2979 20.1501 21.4057 20.8564 22.3432C21.0891 22.6521 21.3374 22.9287 21.5957 23.17L21.1699 24.4071H19.3401C18.9083 24.4044 18.1768 24.5699 17.5091 24.9467C16.6299 25.4429 16.0579 26.1828 15.8548 27.0866L13.9821 35.4234C13.9667 35.492 13.9669 35.5631 13.9827 35.6316C13.9985 35.7001 14.0295 35.7641 14.0734 35.819C14.1173 35.8739 14.173 35.9182 14.2363 35.9486C14.2997 35.9791 14.369 35.9949 14.4393 35.9949L33.561 36C33.7052 36 33.8416 35.9336 33.9305 35.8199C33.9743 35.7638 34.0048 35.6985 34.0196 35.6288C34.0344 35.5592 34.0332 35.487 34.016 35.4179ZM19.5989 16.9599L19.5987 18.1859C18.8282 17.4754 18.3372 16.5019 18.2708 15.4954C18.2112 14.5894 18.5163 13.7636 19.1367 13.1287C19.5863 13.5595 20.0938 13.79 20.677 13.8301C21.2923 13.8725 21.8991 13.6955 22.4858 13.5245C23.6461 13.1862 24.6484 12.8939 25.7238 14.1267C25.8157 14.2321 25.9505 14.2918 26.0899 14.2871C27.7802 14.2415 28.7922 15.2408 29.018 16.1896C29.2149 17.0167 28.869 17.8052 28.0809 18.3964C28.0816 18.1134 28.0742 17.8292 28.0671 17.5566C28.0613 17.3407 28.056 17.1368 28.056 16.96C28.056 16.8503 28.0175 16.744 27.9472 16.6597C27.8768 16.5754 27.7792 16.5185 27.6712 16.4989C26.5656 16.2975 26.0394 16.0834 25.2886 15.2817C25.2185 15.2068 25.1257 15.157 25.0246 15.1399C24.9234 15.1228 24.8194 15.1394 24.7286 15.1871C23.0055 16.092 21.7817 16.4334 20.0519 16.4916C19.9303 16.4956 19.8152 16.5467 19.7306 16.6341C19.6461 16.7215 19.5988 16.8383 19.5989 16.9599ZM20.5359 19.1181L20.5361 17.4066C22.0909 17.307 23.2973 16.9617 24.8543 16.1767C25.5783 16.8745 26.2212 17.1519 27.1238 17.3463C27.1256 17.4228 27.1277 17.5012 27.1298 17.5813C27.1492 18.3186 27.1735 19.236 26.9931 19.7593C26.9896 19.7693 26.9865 19.7796 26.9838 19.7899C26.7445 20.6766 26.1665 21.8991 25.3574 22.6537C25.3362 22.67 25.3167 22.6879 25.2989 22.7072C24.8743 23.086 24.3887 23.3344 23.8566 23.3406C23.4064 23.2959 22.9263 23.0672 22.4631 22.6874C22.4474 22.6724 22.4308 22.6586 22.4132 22.6459C22.1337 22.4095 21.8609 22.1183 21.6054 21.7791C20.9556 20.9168 20.5359 19.8723 20.5359 19.1181ZM25.7917 24.6612L23.9948 25.646L22.079 24.6469L22.3794 23.7741C22.8467 24.0621 23.3278 24.2357 23.7954 24.2765C23.809 24.2777 23.8226 24.2783 23.8362 24.2783C24.3891 24.2783 24.929 24.1074 25.4377 23.7764L25.7917 24.6612ZM19.8476 27.8304C20.1707 27.8304 20.4336 28.0932 20.4336 28.4163C20.4336 28.7394 20.1707 29.0023 19.8476 29.0023C19.5245 29.0023 19.2617 28.7394 19.2617 28.4163C19.2617 28.0932 19.5246 27.8304 19.8476 27.8304ZM20.3164 35.059V33.0287C20.3164 32.7698 20.1065 32.5599 19.8476 32.5599C19.5887 32.5599 19.3789 32.7698 19.3789 33.0287V35.0588L15.0251 35.0576L16.7696 27.2921C17.1006 25.8189 18.7767 25.3445 19.3308 25.3445H19.3789V26.9669C18.7676 27.1651 18.3243 27.7398 18.3243 28.4162C18.3243 29.2562 19.0077 29.9396 19.8477 29.9396C20.6877 29.9396 21.3711 29.2562 21.3711 28.4162C21.3711 27.7397 20.9277 27.1652 20.3164 26.9669V25.3445H21.3896L23.7836 26.593C23.852 26.6287 23.9281 26.647 24.0052 26.6462C24.0823 26.6454 24.158 26.6255 24.2256 26.5884L26.4954 25.3445H28.5157C29.8596 25.3445 30.6944 25.9601 30.9968 27.1742L32.9615 35.0623L20.3164 35.059Z" fill="#714C09"/>
<path d="M29.3664 27.9722H28.5803V27.186C28.5803 26.9271 28.3704 26.7173 28.1115 26.7173H26.6056C26.3468 26.7173 26.1369 26.9271 26.1369 27.186V27.9722H25.3507C25.0919 27.9722 24.882 28.182 24.882 28.4409V29.9468C24.882 30.2057 25.0919 30.4155 25.3507 30.4155H26.1369V31.2017C26.1369 31.4605 26.3468 31.6704 26.6056 31.6704H28.1115C28.3704 31.6704 28.5803 31.4605 28.5803 31.2017V30.4155H29.3664C29.6253 30.4155 29.8351 30.2057 29.8351 29.9468V28.4409C29.8351 28.182 29.6252 27.9722 29.3664 27.9722ZM28.8976 29.478H28.1115C27.8526 29.478 27.6427 29.6879 27.6427 29.9468V30.7329H27.0743V29.9468C27.0743 29.6879 26.8644 29.478 26.6055 29.478H25.8194V28.9097H26.6055C26.8644 28.9097 27.0743 28.6998 27.0743 28.4409V27.6548H27.6427V28.4409C27.6427 28.6998 27.8526 28.9097 28.1115 28.9097H28.8976V29.478ZM19.8477 31.1509C19.5888 31.1509 19.3789 31.3608 19.3789 31.6197V31.6349C19.3789 31.8938 19.5888 32.1036 19.8477 32.1036C20.1065 32.1036 20.3164 31.8938 20.3164 31.6349V31.6197C20.3164 31.3608 20.1065 31.1509 19.8477 31.1509ZM25.3256 18.4141C25.0674 18.4141 24.8568 18.6246 24.8568 18.8828C24.8568 19.141 25.0674 19.3516 25.3256 19.3516C25.5838 19.3516 25.7943 19.141 25.7943 18.8828C25.7943 18.6246 25.5838 18.4141 25.3256 18.4141ZM22.56 18.4141C22.3019 18.4141 22.0913 18.6246 22.0913 18.8828C22.0913 19.141 22.3019 19.3516 22.56 19.3516C22.8183 19.3516 23.0288 19.141 23.0288 18.8828C23.0288 18.6246 22.8182 18.4141 22.56 18.4141Z" fill="#714C09"/>
<path d="M34.016 35.4179L31.9063 26.9477C31.4983 25.3094 30.294 24.4071 28.5155 24.4071H26.6997L26.1934 23.1414C26.3181 23.011 26.4363 22.8746 26.5478 22.7328C27.1287 21.9949 27.6277 20.9926 27.8848 20.049C27.9365 19.8953 27.9748 19.727 28.0036 19.5495C29.817 18.5927 30.1959 17.0903 29.9299 15.9725C29.5648 14.4382 28.0819 13.3822 26.283 13.349C24.8601 11.8558 23.4023 12.2807 22.2233 12.6245C21.0121 12.9776 20.2903 13.131 19.5391 12.1785C19.501 12.1301 19.4537 12.0897 19.3999 12.0596C19.3461 12.0296 19.287 12.0104 19.2258 12.0032C19.1646 11.996 19.1026 12.001 19.0433 12.0178C18.984 12.0346 18.9286 12.0629 18.8803 12.1011C17.7937 12.9604 17.245 14.1878 17.3353 15.557C17.4347 17.0663 18.2991 18.5099 19.61 19.3831C19.6875 20.2979 20.1501 21.4057 20.8564 22.3432C21.0891 22.6521 21.3374 22.9287 21.5957 23.17L21.1699 24.4071H19.3401C18.9083 24.4044 18.1768 24.5699 17.5091 24.9467C16.6299 25.4429 16.0579 26.1828 15.8548 27.0866L13.9821 35.4234C13.9667 35.492 13.9669 35.5631 13.9827 35.6316C13.9985 35.7001 14.0295 35.7641 14.0734 35.819C14.1173 35.8739 14.173 35.9182 14.2363 35.9486C14.2997 35.9791 14.369 35.9949 14.4393 35.9949L33.561 36C33.7052 36 33.8416 35.9336 33.9305 35.8199C33.9743 35.7638 34.0048 35.6985 34.0196 35.6288C34.0344 35.5592 34.0332 35.487 34.016 35.4179ZM19.5989 16.9599L19.5987 18.1859C18.8282 17.4754 18.3372 16.5019 18.2708 15.4954C18.2112 14.5894 18.5163 13.7636 19.1367 13.1287C19.5863 13.5595 20.0938 13.79 20.677 13.8301C21.2923 13.8725 21.8991 13.6955 22.4858 13.5245C23.6461 13.1862 24.6484 12.8939 25.7238 14.1267C25.8157 14.2321 25.9505 14.2918 26.0899 14.2871C27.7802 14.2415 28.7922 15.2408 29.018 16.1896C29.2149 17.0167 28.869 17.8052 28.0809 18.3964C28.0816 18.1134 28.0742 17.8292 28.0671 17.5566C28.0613 17.3407 28.056 17.1368 28.056 16.96C28.056 16.8503 28.0175 16.744 27.9472 16.6597C27.8768 16.5754 27.7792 16.5185 27.6712 16.4989C26.5656 16.2975 26.0394 16.0834 25.2886 15.2817C25.2185 15.2068 25.1257 15.157 25.0246 15.1399C24.9234 15.1228 24.8194 15.1394 24.7286 15.1871C23.0055 16.092 21.7817 16.4334 20.0519 16.4916C19.9303 16.4956 19.8152 16.5467 19.7306 16.6341C19.6461 16.7215 19.5988 16.8383 19.5989 16.9599ZM20.5359 19.1181L20.5361 17.4066C22.0909 17.307 23.2973 16.9617 24.8543 16.1767C25.5783 16.8745 26.2212 17.1519 27.1238 17.3463C27.1256 17.4228 27.1277 17.5012 27.1298 17.5813C27.1492 18.3186 27.1735 19.236 26.9931 19.7593C26.9896 19.7693 26.9865 19.7796 26.9838 19.7899C26.7445 20.6766 26.1665 21.8991 25.3574 22.6537C25.3362 22.67 25.3167 22.6879 25.2989 22.7072C24.8743 23.086 24.3887 23.3344 23.8566 23.3406C23.4064 23.2959 22.9263 23.0672 22.4631 22.6874C22.4474 22.6724 22.4308 22.6586 22.4132 22.6459C22.1337 22.4095 21.8609 22.1183 21.6054 21.7791C20.9556 20.9168 20.5359 19.8723 20.5359 19.1181ZM25.7917 24.6612L23.9948 25.646L22.079 24.6469L22.3794 23.7741C22.8467 24.0621 23.3278 24.2357 23.7954 24.2765C23.809 24.2777 23.8226 24.2783 23.8362 24.2783C24.3891 24.2783 24.929 24.1074 25.4377 23.7764L25.7917 24.6612ZM19.8476 27.8304C20.1707 27.8304 20.4336 28.0932 20.4336 28.4163C20.4336 28.7394 20.1707 29.0023 19.8476 29.0023C19.5245 29.0023 19.2617 28.7394 19.2617 28.4163C19.2617 28.0932 19.5246 27.8304 19.8476 27.8304ZM20.3164 35.059V33.0287C20.3164 32.7698 20.1065 32.5599 19.8476 32.5599C19.5887 32.5599 19.3789 32.7698 19.3789 33.0287V35.0588L15.0251 35.0576L16.7696 27.2921C17.1006 25.8189 18.7767 25.3445 19.3308 25.3445H19.3789V26.9669C18.7676 27.1651 18.3243 27.7398 18.3243 28.4162C18.3243 29.2562 19.0077 29.9396 19.8477 29.9396C20.6877 29.9396 21.3711 29.2562 21.3711 28.4162C21.3711 27.7397 20.9277 27.1652 20.3164 26.9669V25.3445H21.3896L23.7836 26.593C23.852 26.6287 23.9281 26.647 24.0052 26.6462C24.0823 26.6454 24.158 26.6255 24.2256 26.5884L26.4954 25.3445H28.5157C29.8596 25.3445 30.6944 25.9601 30.9968 27.1742L32.9615 35.0623L20.3164 35.059Z" stroke="#714C09" stroke-width="0.3"/>
<path d="M29.3664 27.9722H28.5803V27.186C28.5803 26.9271 28.3704 26.7173 28.1115 26.7173H26.6056C26.3468 26.7173 26.1369 26.9271 26.1369 27.186V27.9722H25.3507C25.0919 27.9722 24.882 28.182 24.882 28.4409V29.9468C24.882 30.2057 25.0919 30.4155 25.3507 30.4155H26.1369V31.2017C26.1369 31.4605 26.3468 31.6704 26.6056 31.6704H28.1115C28.3704 31.6704 28.5803 31.4605 28.5803 31.2017V30.4155H29.3664C29.6253 30.4155 29.8351 30.2057 29.8351 29.9468V28.4409C29.8351 28.182 29.6252 27.9722 29.3664 27.9722ZM28.8976 29.478H28.1115C27.8526 29.478 27.6427 29.6879 27.6427 29.9468V30.7329H27.0743V29.9468C27.0743 29.6879 26.8644 29.478 26.6055 29.478H25.8194V28.9097H26.6055C26.8644 28.9097 27.0743 28.6998 27.0743 28.4409V27.6548H27.6427V28.4409C27.6427 28.6998 27.8526 28.9097 28.1115 28.9097H28.8976V29.478ZM19.8477 31.1509C19.5888 31.1509 19.3789 31.3608 19.3789 31.6197V31.6349C19.3789 31.8938 19.5888 32.1036 19.8477 32.1036C20.1065 32.1036 20.3164 31.8938 20.3164 31.6349V31.6197C20.3164 31.3608 20.1065 31.1509 19.8477 31.1509ZM25.3256 18.4141C25.0674 18.4141 24.8568 18.6246 24.8568 18.8828C24.8568 19.141 25.0674 19.3516 25.3256 19.3516C25.5838 19.3516 25.7943 19.141 25.7943 18.8828C25.7943 18.6246 25.5838 18.4141 25.3256 18.4141ZM22.56 18.4141C22.3019 18.4141 22.0913 18.6246 22.0913 18.8828C22.0913 19.141 22.3019 19.3516 22.56 19.3516C22.8183 19.3516 23.0288 19.141 23.0288 18.8828C23.0288 18.6246 22.8182 18.4141 22.56 18.4141Z" stroke="#714C09" stroke-width="0.3"/>
</g>
</g>
<defs>
<clipPath id="clip0_682_16258">
<rect width="48" height="48" fill="white"/>
</clipPath>
<clipPath id="clip1_682_16258">
<rect width="24" height="24" fill="white" transform="translate(12 12)"/>
</clipPath>
</defs>
</svg>
