<svg width="40" height="41" viewBox="0 0 40 41" fill="none" xmlns="http://www.w3.org/2000/svg">
<g clip-path="url(#clip0_1311_5536)">
<path d="M35.6149 36.7539C29.4942 41.7504 10.3826 41.7504 4.38681 36.7539C-1.7339 31.7574 -1.10935 10.3974 4.38681 4.77633C9.88297 -0.844715 30.1187 -0.844715 35.6149 4.77633C41.1111 10.3974 41.7356 31.7575 35.6149 36.7539Z" fill="#0B6614"/>
<g opacity="0.2">
<path d="M20.1251 28.0107C14.629 32.3827 8.50826 34.6311 2.76232 34.756C-1.48474 27.5111 -0.610313 9.89847 4.38619 4.77708C8.88302 0.155351 22.9981 -0.719073 31.1174 2.1539C33.116 10.3981 28.9939 20.8907 20.1251 28.0107Z" fill="white"/>
</g>
<path d="M27.5396 11.3195L11.6196 18.5295C11.4023 18.6453 11.227 18.8268 11.1188 19.0481C11.0107 19.2695 10.9751 19.5193 11.0172 19.762C11.0593 20.0046 11.177 20.2279 11.3534 20.3998C11.5298 20.5717 11.7559 20.6836 11.9996 20.7195L18.2296 21.9795L19.4996 28.2195C19.5339 28.4639 19.6446 28.6912 19.8159 28.8689C19.9871 29.0466 20.2102 29.1656 20.4532 29.2088C20.6961 29.2521 20.9466 29.2174 21.1687 29.1098C21.3907 29.0021 21.5731 28.827 21.6896 28.6095L28.8996 12.6795C29.0053 12.4895 29.0462 12.2702 29.0161 12.0549C28.986 11.8396 28.8866 11.64 28.7328 11.4863C28.5791 11.3325 28.3795 11.2331 28.1642 11.203C27.9489 11.1729 27.7296 11.2138 27.5396 11.3195V11.3195Z" stroke="white" stroke-width="1.66102" stroke-linecap="round" stroke-linejoin="round"/>
</g>
<defs>
<clipPath id="clip0_1311_5536">
<rect width="40" height="40" fill="white" transform="translate(0 0.501953)"/>
</clipPath>
</defs>
</svg>
