<svg width="24" height="24" viewBox="0 0 24 24" fill="none" xmlns="http://www.w3.org/2000/svg">
<path d="M6.66566 8.34239C6.04795 8.34199 5.44017 8.49781 4.89883 8.79534C4.3575 9.09286 3.90018 9.52245 3.56942 10.0441C3.23866 10.5658 3.0452 11.1627 3.00701 11.7792C2.96882 12.3958 3.08715 13.0119 3.35101 13.5705C3.61486 14.129 4.01566 14.6117 4.51614 14.9738C5.01663 15.3359 5.60054 15.5655 6.21358 15.6413C6.82662 15.7171 7.44888 15.6367 8.0225 15.4075C8.59612 15.1784 9.10248 14.8078 9.49448 14.3304L14.4216 17.6153C13.9806 18.4459 13.8756 19.4142 14.1285 20.32C14.3813 21.2258 14.9726 21.9997 15.78 22.4818C16.5875 22.9638 17.5493 23.1171 18.4666 22.9099C19.3839 22.7027 20.1865 22.1509 20.7083 21.3686C21.2302 20.5863 21.4314 19.6333 21.2704 18.7068C21.1093 17.7803 20.5984 16.9511 19.8432 16.3908C19.0879 15.8304 18.1462 15.5817 17.2128 15.6962C16.2794 15.8107 15.4257 16.2795 14.8283 17.0058L9.90037 13.7209C10.1818 13.193 10.329 12.6039 10.329 12.0057C10.329 11.4075 10.1818 10.8184 9.90037 10.2905L14.8283 7.00565C15.4268 7.7335 16.2822 8.20346 17.2175 8.31831C18.1528 8.43316 19.0965 8.18411 19.8533 7.62268C20.6102 7.06125 21.1223 6.23039 21.2837 5.30197C21.4451 4.37355 21.2435 3.41861 20.7206 2.63468C20.1976 1.85075 19.3934 1.2978 18.4742 1.09022C17.555 0.882648 16.5912 1.03632 15.7821 1.51946C14.973 2.00259 14.3806 2.77822 14.1274 3.68591C13.8742 4.59359 13.9795 5.56388 14.4216 6.39607L9.49448 9.68097C9.15136 9.26246 8.71965 8.92531 8.23047 8.69384C7.74129 8.46236 7.20684 8.34233 6.66566 8.34239ZM17.6556 16.4017C18.2352 16.4017 18.8019 16.5736 19.2838 16.8956C19.7657 17.2176 20.1414 17.6753 20.3632 18.2108C20.585 18.7463 20.643 19.3356 20.53 19.9041C20.4169 20.4726 20.1378 20.9948 19.7279 21.4046C19.318 21.8145 18.7958 22.0936 18.2274 22.2067C17.6589 22.3198 17.0696 22.2617 16.5341 22.0399C15.9986 21.8181 15.5409 21.4425 15.2189 20.9605C14.8968 20.4786 14.725 19.912 14.725 19.3323C14.7258 18.5553 15.0349 17.8104 15.5843 17.261C16.1337 16.7116 16.8786 16.4026 17.6556 16.4017ZM17.6556 1.74842C18.2352 1.74842 18.8019 1.9203 19.2838 2.24232C19.7657 2.56435 20.1414 3.02205 20.3632 3.55756C20.585 4.09307 20.643 4.68232 20.53 5.25082C20.4169 5.81931 20.1378 6.3415 19.7279 6.75136C19.318 7.16122 18.7958 7.44034 18.2274 7.55342C17.6589 7.6665 17.0696 7.60846 16.5341 7.38664C15.9986 7.16483 15.5409 6.7892 15.2189 6.30726C14.8968 5.82531 14.725 5.2587 14.725 4.67907C14.7258 3.90208 15.0349 3.15717 15.5843 2.60775C16.1337 2.05834 16.8786 1.74929 17.6556 1.74842ZM6.66566 14.9364C6.08604 14.9364 5.51942 14.7645 5.03748 14.4425C4.55554 14.1204 4.17991 13.6627 3.95809 13.1272C3.73628 12.5917 3.67824 12.0025 3.79132 11.434C3.9044 10.8655 4.18352 10.3433 4.59338 9.93342C5.00324 9.52356 5.52543 9.24444 6.09392 9.13136C6.66241 9.01828 7.25167 9.07632 7.78718 9.29814C8.32268 9.51995 8.78039 9.89558 9.10241 10.3775C9.42444 10.8595 9.59632 11.4261 9.59632 12.0057C9.59544 12.7827 9.2864 13.5276 8.73698 14.077C8.18757 14.6264 7.44265 14.9355 6.66566 14.9364Z" fill="black" stroke="black" stroke-width="0.3"/>
</svg>
