<svg width="56" height="56" viewBox="0 0 56 56" fill="none" xmlns="http://www.w3.org/2000/svg">
<g clip-path="url(#clip0_631_15501)">
<path d="M49.8597 50.7537C41.2907 57.7488 14.5345 57.7488 6.14036 50.7537C-2.42863 43.7586 -1.55426 13.8546 6.14036 5.98511C13.835 -1.88436 42.1651 -1.88436 49.8597 5.98511C57.5543 13.8546 58.4287 43.7587 49.8597 50.7537Z" fill="#52CE06"/>
<g opacity="0.2">
<path d="M28.1748 38.5152C20.4802 44.6359 11.9112 47.7837 3.86685 47.9586C-2.07902 37.8157 -0.854828 13.1581 6.14027 5.98811C12.4358 -0.482313 32.1969 -1.70651 43.564 2.31565C46.362 13.8576 40.5911 28.5472 28.1748 38.5152Z" fill="white"/>
</g>
<path d="M41.0809 38.8241L39.5922 20.0665C39.4995 18.8581 38.4775 17.9114 37.2655 17.9114H34.3252V17.7792C34.3252 14.2264 31.4348 11.3359 27.8819 11.3359C24.329 11.3359 21.4386 14.2264 21.4386 17.7792V17.9114H18.4984C17.2863 17.9114 16.2643 18.858 16.1718 20.064L14.6827 38.8266C14.5675 40.3289 15.0887 41.8245 16.1125 42.9299C17.1363 44.0352 18.5877 44.6693 20.0944 44.6693H35.6693C37.176 44.6693 38.6274 44.0353 39.6513 42.9299C40.6751 41.8245 41.1962 40.3289 41.0809 38.8241ZM23.3911 17.7792C23.3911 15.303 25.4057 13.2884 27.8819 13.2884C30.3581 13.2884 32.3727 15.3031 32.3727 17.7792V17.9114H23.3911V17.7792ZM38.2188 41.6032C37.5536 42.3213 36.6482 42.7168 35.6693 42.7168H20.0945C19.1156 42.7168 18.2102 42.3213 17.545 41.6032C16.8798 40.885 16.5547 39.952 16.6294 38.9785L18.1184 20.2158C18.1335 20.0184 18.3004 19.8639 18.4984 19.8639H21.4386V22.2685C21.4386 22.8076 21.8757 23.2447 22.4148 23.2447C22.954 23.2447 23.3911 22.8076 23.3911 22.2685V19.8639H32.3727V22.2685C32.3727 22.8076 32.8098 23.2447 33.349 23.2447C33.8881 23.2447 34.3252 22.8076 34.3252 22.2685V19.8639H37.2655C37.4634 19.8639 37.6303 20.0185 37.6457 20.2184L39.1343 38.9759C39.2092 39.952 38.884 40.885 38.2188 41.6032Z" fill="white" stroke="white" stroke-width="0.352941"/>
<path d="M32.2815 27.8914C31.9004 27.5102 31.2822 27.5102 30.901 27.8914L26.5419 32.2505L24.8658 30.5743C24.4846 30.1931 23.8664 30.1931 23.4852 30.5743C23.1039 30.9556 23.1039 31.5737 23.4852 31.9549L25.8516 34.3214C26.0423 34.512 26.2921 34.6074 26.5419 34.6074C26.7916 34.6074 27.0415 34.5121 27.2321 34.3214L32.2814 29.2721C32.6628 28.8908 32.6628 28.2727 32.2815 27.8914Z" fill="white" stroke="white" stroke-width="0.352941"/>
</g>
<defs>
<clipPath id="clip0_631_15501">
<rect width="56" height="56" fill="white"/>
</clipPath>
</defs>
</svg>
