<svg width="24" height="25" viewBox="0 0 24 25" fill="none" xmlns="http://www.w3.org/2000/svg">
<path fill-rule="evenodd" clip-rule="evenodd" d="M12 24.4805C18.6274 24.4805 24 19.1079 24 12.4805C24 5.85303 18.6274 0.480469 12 0.480469C5.37259 0.480469 0 5.85303 0 12.4805C0 19.1079 5.37259 24.4805 12 24.4805ZM15.6837 10.2095C15.6837 11.1235 14.9398 11.8677 14.0255 11.8677C13.1112 11.8677 12.3674 11.1235 12.3673 10.2095V6.13867C12.3673 5.22412 13.1112 4.48047 14.0255 4.48047C14.9398 4.48047 15.6837 5.22412 15.6837 6.13867V10.2095ZM18.3419 11.8677H17.1524C16.8935 11.8677 16.6836 11.6577 16.6836 11.3989V10.2095C16.6836 9.29492 17.4275 8.55127 18.3419 8.55127C19.2562 8.55127 20 9.29492 20 10.2095C20 11.1235 19.2562 11.8677 18.3419 11.8677ZM5.65814 12.1133H9.72882C10.6432 12.1133 11.387 11.3691 11.387 10.4551C11.387 9.54053 10.6432 8.79688 9.72882 8.79688H5.65814C4.74384 8.79688 4 9.54053 4 10.4551C4 11.3691 4.74384 12.1133 5.65814 12.1133ZM10.9182 7.79688H9.72879C8.81448 7.79688 8.07065 7.05273 8.07065 6.13867C8.07065 5.22412 8.81448 4.48047 9.72879 4.48047C10.6431 4.48047 11.387 5.22412 11.387 6.13867V7.32812C11.387 7.58691 11.1771 7.79688 10.9182 7.79688ZM9.97443 13.0933C9.06012 13.0933 8.31628 13.8374 8.31628 14.7515V18.8223C8.31628 19.7368 9.06012 20.4805 9.97443 20.4805C10.8888 20.4805 11.6327 19.7368 11.6327 18.8223V14.7515C11.6327 13.8374 10.8888 13.0933 9.97443 13.0933ZM5.65814 13.0933H6.8476C7.10648 13.0933 7.31635 13.3032 7.31638 13.562V14.7515C7.31638 15.666 6.57251 16.4097 5.65814 16.4097C4.74384 16.4097 4 15.666 4 14.7515C4 13.8374 4.74384 13.0933 5.65814 13.0933ZM18.3418 12.8477H14.2712C13.3568 12.8477 12.613 13.5918 12.613 14.5059C12.613 15.4204 13.3568 16.1641 14.2712 16.1641H18.3419C19.2562 16.1641 20 15.4204 20 14.5059C20 13.5918 19.2561 12.8477 18.3418 12.8477ZM13.0818 17.1641H14.2712C15.1855 17.1641 15.9294 17.9077 15.9294 18.8223C15.9294 19.7368 15.1855 20.4805 14.2712 20.4805C13.3568 20.4805 12.613 19.7368 12.613 18.8223V17.6328C12.613 17.374 12.8229 17.1641 13.0818 17.1641Z" fill="#0B6614"/>
</svg>
