<svg width="48" height="48" viewBox="0 0 48 48" fill="none" xmlns="http://www.w3.org/2000/svg">
<g clip-path="url(#clip0_557_21008)">
<path d="M42.7363 43.5023C35.3915 49.4981 12.4576 49.4981 5.26261 43.5023C-2.08224 37.5065 -1.33278 11.8745 5.26261 5.12926C11.858 -1.616 36.1409 -1.616 42.7363 5.12926C49.3317 11.8745 50.0812 37.5066 42.7363 43.5023Z" fill="#B4FEE8"/>
<g opacity="0.2">
<path d="M24.1509 33.0105C17.5555 38.2569 10.2107 40.955 3.31556 41.1048C-1.7809 32.4109 -0.731594 11.2758 5.2642 5.13016C10.6604 -0.415922 27.5985 -1.46523 37.3417 1.98233C39.74 11.8754 34.7935 24.4665 24.1509 33.0105Z" fill="white"/>
</g>
<g clip-path="url(#clip1_557_21008)">
<path d="M31.4176 35.7015C31.2683 35.7015 31.151 35.5842 31.151 35.4349V25.5256C30.8256 25.4669 30.543 25.2856 30.351 25.0296C30.111 25.3442 29.7323 25.5469 29.311 25.5469C28.8843 25.5469 28.5056 25.3442 28.271 25.0296C28.031 25.3442 27.6576 25.5469 27.231 25.5469C26.8096 25.5469 26.431 25.3442 26.191 25.0296C25.951 25.3442 25.5776 25.5469 25.151 25.5469C24.735 25.5469 24.3616 25.3496 24.1216 25.0456C23.8923 25.3496 23.5296 25.5469 23.119 25.5469C22.7083 25.5469 22.3403 25.3496 22.111 25.0456C21.871 25.3496 21.4976 25.5469 21.0763 25.5469C20.655 25.5469 20.2763 25.3442 20.031 25.0349C19.7963 25.3496 19.423 25.5469 19.0016 25.5469C18.5803 25.5469 18.2016 25.3442 17.967 25.0296C17.7216 25.3442 17.343 25.5469 16.9163 25.5469H16.8523V35.4296C16.8523 35.5789 16.735 35.6962 16.5856 35.6962C16.4363 35.6962 16.319 35.5789 16.319 35.4296V25.2589C16.319 25.1789 16.3563 25.1042 16.415 25.0509C16.479 24.9976 16.559 24.9816 16.639 24.9976C16.6923 25.0082 16.7456 25.0136 16.799 25.0136H16.9216C17.359 25.0136 17.7163 24.6562 17.7163 24.2189C17.7163 24.0696 17.8336 23.9522 17.983 23.9522C18.1323 23.9522 18.2496 24.0696 18.2496 24.2189V24.2562C18.2496 24.6722 18.591 25.0136 19.007 25.0136C19.423 25.0136 19.7643 24.6722 19.7643 24.2562V24.2296C19.7643 24.0802 19.8816 23.9629 20.031 23.9629C20.1803 23.9629 20.2976 24.0802 20.2976 24.2296C20.2976 24.6616 20.6496 25.0136 21.0816 25.0136C21.5136 25.0136 21.8656 24.6616 21.8656 24.2296C21.8656 24.0802 21.983 23.9629 22.1323 23.9629C22.2816 23.9629 22.399 24.0802 22.399 24.2296V24.2882C22.399 24.6882 22.7243 25.0136 23.1243 25.0136C23.5243 25.0136 23.839 24.6936 23.839 24.2936V24.2456C23.839 24.0962 23.9563 23.9789 24.1056 23.9789C24.255 23.9789 24.3723 24.0962 24.3723 24.2456C24.3723 24.6722 24.719 25.0189 25.1456 25.0189C25.5723 25.0189 25.919 24.6722 25.919 24.2456C25.919 24.0962 26.0363 23.9789 26.1856 23.9789C26.335 23.9789 26.4523 24.0962 26.4523 24.2456C26.4523 24.6722 26.799 25.0189 27.2256 25.0189C27.6523 25.0189 27.999 24.6722 27.999 24.2456C27.999 24.0962 28.1163 23.9789 28.2656 23.9789C28.415 23.9789 28.5323 24.0962 28.5323 24.2456C28.5323 24.6722 28.879 25.0242 29.311 25.0242C29.743 25.0242 30.0896 24.6776 30.0896 24.2456C30.0896 24.0962 30.207 23.9789 30.3563 23.9789C30.5056 23.9789 30.623 24.0962 30.623 24.2456C30.623 24.6776 30.9696 25.0242 31.3963 25.0242H31.4176C31.487 25.0242 31.5616 25.0509 31.6096 25.0989C31.6576 25.1469 31.6896 25.2162 31.6896 25.2909V35.4456C31.6843 35.5842 31.5616 35.7015 31.4176 35.7015ZM15.7323 23.4242C15.7056 23.4242 15.679 23.4189 15.6523 23.4136C15.5136 23.3709 15.4336 23.2216 15.4763 23.0776L16.2976 20.4802C16.3403 20.3416 16.495 20.2616 16.6336 20.3042C16.7723 20.3469 16.8523 20.4962 16.8096 20.6402L15.9883 23.2376C15.951 23.3549 15.8443 23.4242 15.7323 23.4242ZM17.9776 23.4242C17.9563 23.4242 17.935 23.4242 17.9136 23.4189C17.7696 23.3869 17.679 23.2429 17.7163 23.0989L18.3296 20.5016C18.3616 20.3576 18.5056 20.2669 18.6496 20.3042C18.7936 20.3416 18.8843 20.4802 18.847 20.6242L18.239 23.2216C18.207 23.3442 18.1003 23.4242 17.9776 23.4242ZM20.0256 23.4242H19.9883C19.8443 23.4029 19.7376 23.2696 19.759 23.1256L20.1003 20.5282C20.1216 20.3842 20.255 20.2776 20.399 20.2989C20.543 20.3202 20.6496 20.4536 20.6283 20.5976L20.287 23.1949C20.271 23.3282 20.159 23.4242 20.0256 23.4242ZM22.127 23.4242H22.1163C21.967 23.4189 21.855 23.2962 21.8603 23.1469L21.951 20.5496C21.9563 20.4002 22.079 20.2882 22.2283 20.2936C22.3776 20.2989 22.4896 20.4216 22.4843 20.5709L22.3936 23.1682C22.3883 23.3122 22.271 23.4242 22.127 23.4242ZM24.1056 23.4242C23.9616 23.4242 23.8443 23.3069 23.839 23.1629L23.791 20.5656C23.7856 20.4162 23.903 20.2989 24.0523 20.2936C24.2016 20.2936 24.319 20.4056 24.3243 20.5549L24.3723 23.1522C24.3723 23.3016 24.2603 23.4242 24.1056 23.4242ZM26.1856 23.4242C26.0523 23.4242 25.935 23.3229 25.919 23.1842L25.6363 20.5869C25.6203 20.4376 25.727 20.3096 25.871 20.2936C26.015 20.2776 26.1483 20.3842 26.1643 20.5282L26.447 23.1256C26.463 23.2749 26.3563 23.4029 26.2123 23.4189C26.2016 23.4242 26.191 23.4242 26.1856 23.4242ZM28.271 23.4242C28.1483 23.4242 28.0363 23.3389 28.0096 23.2109L27.487 20.6136C27.4603 20.4696 27.551 20.3309 27.695 20.2989C27.839 20.2669 27.9776 20.3629 28.0096 20.5069L28.5323 23.1042C28.559 23.2482 28.4683 23.3869 28.3243 23.4189C28.3083 23.4242 28.287 23.4242 28.271 23.4242ZM30.351 23.4242C30.335 23.4242 30.3136 23.4242 30.2976 23.4189C30.2603 23.4136 30.223 23.3976 30.191 23.3709C30.159 23.3496 30.1323 23.3176 30.1163 23.2802C30.1056 23.2642 30.1003 23.2429 30.095 23.2269L29.3323 20.6402C29.2896 20.5016 29.375 20.3522 29.5136 20.3096C29.6576 20.2669 29.8016 20.3522 29.8443 20.4909L30.5483 22.8962H32.0416L31.1883 20.6616C31.135 20.5229 31.2043 20.3682 31.343 20.3149C31.4816 20.2616 31.6363 20.3309 31.6896 20.4696L32.6816 23.0669C32.7136 23.1469 32.703 23.2429 32.655 23.3122C32.607 23.3869 32.5216 23.4296 32.4363 23.4296H30.3616L30.351 23.4242Z" fill="#097158"/>
<path d="M16.9163 25.5469L16.7936 25.5469C16.063 25.5469 15.4656 24.9549 15.4656 24.2189V23.1575C15.4656 23.0082 15.583 22.8909 15.7323 22.8909H17.9776C18.127 22.8909 18.2443 23.0082 18.2443 23.1575V24.2189C18.2443 24.9549 17.647 25.5469 16.9163 25.5469ZM15.999 23.4242V24.2189C15.999 24.6562 16.3563 25.0135 16.7936 25.0135H16.9163C17.3536 25.0135 17.711 24.6562 17.711 24.2189V23.4242H15.999Z" fill="#097158"/>
<path d="M19.0016 25.5469C18.287 25.5469 17.7109 24.9655 17.7109 24.2562C17.7109 24.1069 17.8282 23.9895 17.9776 23.9895C18.1269 23.9895 18.2442 24.1069 18.2442 24.2562C18.2442 24.6722 18.5856 25.0135 19.0016 25.0135C19.4176 25.0135 19.7589 24.6722 19.7589 24.2562V23.4242L17.9776 23.4242C17.8283 23.4242 17.7109 23.3069 17.7109 23.1575C17.7109 23.0082 17.8283 22.8909 17.9776 22.8909H20.0256C20.1749 22.8909 20.2922 23.0082 20.2922 23.1575V24.2562C20.2922 24.9709 19.7163 25.5469 19.0016 25.5469Z" fill="#097158"/>
<path d="M21.0763 25.5469C20.351 25.5469 19.759 24.955 19.759 24.2296C19.759 24.0803 19.8763 23.963 20.0256 23.963C20.175 23.963 20.2923 24.0803 20.2923 24.2296C20.2923 24.6616 20.6443 25.0136 21.0763 25.0136C21.5083 25.0136 21.8603 24.6616 21.8603 24.2296V23.419H20.031C19.8816 23.419 19.7643 23.3016 19.7643 23.1523C19.7643 23.003 19.8816 22.8856 20.031 22.8856H22.127C22.2763 22.8856 22.3936 23.003 22.3936 23.1523V24.2296C22.3936 24.9603 21.8016 25.5469 21.0763 25.5469Z" fill="#097158"/>
<path d="M23.1136 25.5469C22.4202 25.5469 21.8549 24.9815 21.8549 24.2882C21.8549 24.1389 21.9722 24.0215 22.1216 24.0215C22.2709 24.0215 22.3882 24.1389 22.3882 24.2882C22.3882 24.6882 22.7136 25.0135 23.1136 25.0135C23.5136 25.0135 23.839 24.6936 23.839 24.2936L23.8389 23.4242L22.127 23.4242C21.9776 23.4242 21.8602 23.3069 21.8602 23.1575C21.8602 23.0082 21.9776 22.8909 22.1269 22.8909H24.1056C24.2549 22.8909 24.3722 23.0082 24.3722 23.1575V24.2935C24.3722 24.9869 23.8069 25.5469 23.1136 25.5469Z" fill="#097158"/>
<path d="M25.1456 25.547C24.4256 25.547 23.839 24.9603 23.839 24.2403C23.839 24.091 23.9563 23.9736 24.1056 23.9736C24.255 23.9736 24.3723 24.091 24.3723 24.2403C24.3723 24.667 24.719 25.0136 25.1456 25.0136C25.5723 25.0136 25.919 24.667 25.919 24.2403V23.419H24.1056C23.9563 23.419 23.839 23.3016 23.839 23.1523C23.839 23.003 23.9563 22.8856 24.1056 22.8856H26.1856C26.335 22.8856 26.4523 23.003 26.4523 23.1523V24.2403C26.4523 24.9656 25.8656 25.547 25.1456 25.547Z" fill="#097158"/>
<path d="M27.2256 25.547C26.5056 25.547 25.919 24.9603 25.919 24.2403C25.919 24.091 26.0363 23.9736 26.1856 23.9736C26.335 23.9736 26.4523 24.091 26.4523 24.2403C26.4523 24.667 26.799 25.0136 27.2256 25.0136C27.6523 25.0136 27.999 24.667 27.999 24.2403V23.419H26.1856C26.0363 23.419 25.919 23.3016 25.919 23.1523C25.919 23.003 26.0363 22.8856 26.1856 22.8856H28.2656C28.415 22.8856 28.5323 23.003 28.5323 23.1523V24.2403C28.5323 24.9656 27.9456 25.547 27.2256 25.547Z" fill="#097158"/>
<path d="M29.3056 25.547C28.5856 25.547 27.9936 24.9603 27.9936 24.235C27.9936 24.0856 28.111 23.9683 28.2603 23.9683C28.4096 23.9683 28.527 24.0856 28.527 24.235C28.527 24.6616 28.8736 25.0136 29.3056 25.0136C29.7376 25.0136 30.0843 24.667 30.0843 24.235V23.419H28.2656C28.1163 23.419 27.999 23.3016 27.999 23.1523C27.999 23.003 28.1163 22.8856 28.2656 22.8856H30.351C30.5003 22.8856 30.6176 23.003 30.6176 23.1523V24.235C30.6176 24.9603 30.0256 25.547 29.3056 25.547Z" fill="#097158"/>
<path d="M31.3909 25.547C30.6709 25.547 30.0843 24.9603 30.0843 24.2403C30.0843 24.091 30.2016 23.9736 30.3509 23.9736C30.5003 23.9736 30.6176 24.091 30.6176 24.2403C30.6176 24.667 30.9643 25.0136 31.3909 25.0136C31.8176 25.0136 32.1643 24.667 32.1643 24.2403V23.419H30.3509C30.2016 23.419 30.0843 23.3016 30.0843 23.1523C30.0843 23.003 30.2016 22.8856 30.351 22.8856H32.4309C32.5803 22.8856 32.6976 23.003 32.6976 23.1523V24.2403C32.6923 24.9656 32.1109 25.547 31.3909 25.547ZM29.8389 35.7016C29.6896 35.7016 29.5723 35.5843 29.5723 35.435V30.699C29.5723 29.9896 28.9963 29.4136 28.2869 29.4136H26.7829C26.0736 29.4136 25.4976 29.9896 25.4976 30.699V35.435C25.4976 35.5843 25.3803 35.7016 25.2309 35.7016C25.0816 35.7016 24.9643 35.5843 24.9643 35.435V30.699C24.9643 29.6963 25.7803 28.8803 26.7829 28.8803H28.2869C29.2896 28.8803 30.1056 29.6963 30.1056 30.699V35.435C30.1056 35.5843 29.9883 35.7016 29.8389 35.7016ZM23.1776 32.587H18.9163C18.3936 32.587 17.9723 32.1603 17.9723 31.643V28.475C17.9723 27.9523 18.3989 27.5256 18.9163 27.5256H23.1776C23.7003 27.5256 24.1216 27.9523 24.1216 28.475V31.643C24.1216 32.1603 23.6949 32.587 23.1776 32.587ZM18.9163 28.059C18.6869 28.059 18.5056 28.2456 18.5056 28.475V31.643C18.5056 31.8723 18.6923 32.0536 18.9163 32.0536H23.1776C23.4069 32.0536 23.5936 31.867 23.5936 31.643V28.475C23.5936 28.2456 23.4069 28.059 23.1776 28.059H18.9163Z" fill="#097158"/>
<path d="M23.855 30.3203H18.2336C18.0843 30.3203 17.967 30.203 17.967 30.0536C17.967 29.9043 18.0843 29.787 18.2336 29.787H23.855C24.0043 29.787 24.1216 29.9043 24.1216 30.0536C24.1216 30.203 24.0043 30.3203 23.855 30.3203Z" fill="#097158"/>
<path d="M21.0443 32.5868C20.8949 32.5868 20.7776 32.4695 20.7776 32.3202V27.7922C20.7776 27.6428 20.8949 27.5255 21.0443 27.5255C21.1936 27.5255 21.3109 27.6428 21.3109 27.7922V32.3202C21.3109 32.4695 21.1936 32.5868 21.0443 32.5868ZM25.5243 19.1042C25.1563 19.1042 24.7936 18.9122 24.5269 18.7682C24.3669 18.6828 24.1696 18.5762 24.0789 18.5762C23.9883 18.5762 23.7909 18.6828 23.6309 18.7682C23.1349 19.0295 22.3029 19.4722 21.7536 18.5228C21.5616 18.1868 21.5723 17.7655 21.8016 17.3335C22.0043 16.9442 22.3616 16.5868 22.8096 16.3308C23.0816 16.1762 23.3643 16.0642 23.6523 16.0055C23.7856 15.9735 23.9296 15.9575 24.0789 15.9575C24.2283 15.9575 24.3723 15.9735 24.5056 16.0055C24.7936 16.0642 25.0763 16.1762 25.3483 16.3308C26.3243 16.8962 26.7829 17.8562 26.3989 18.5228C26.1536 18.9655 25.8389 19.1042 25.5243 19.1042ZM24.0789 18.0482C24.2976 18.0482 24.5323 18.1708 24.7723 18.2988C25.3803 18.6188 25.6736 18.7148 25.9403 18.2562C26.1696 17.8615 25.7749 17.1948 25.0816 16.7948C24.8629 16.6668 24.6229 16.5762 24.3936 16.5282C24.3883 16.5282 24.3883 16.5282 24.3829 16.5228C24.2923 16.5015 24.1909 16.4908 24.0789 16.4908H24.0736C23.9669 16.4908 23.8656 16.5015 23.7696 16.5228C23.7643 16.5228 23.7643 16.5228 23.7589 16.5282C23.5296 16.5762 23.2896 16.6668 23.0709 16.7948C22.7136 17.0028 22.4256 17.2802 22.2709 17.5842C22.1909 17.7335 22.0789 18.0268 22.2123 18.2562C22.4736 18.7148 22.7669 18.6188 23.3803 18.2988C23.6309 18.1708 23.8603 18.0482 24.0789 18.0482ZM21.7109 16.4908C21.3109 16.4908 20.9909 16.1388 20.9909 15.7122C20.9909 15.2855 21.3109 14.9335 21.7109 14.9335C22.1109 14.9335 22.4309 15.2855 22.4309 15.7122C22.4309 16.1388 22.1056 16.4908 21.7109 16.4908ZM21.7109 15.4722C21.6096 15.4722 21.5243 15.5842 21.5243 15.7175C21.5243 15.8508 21.6096 15.9628 21.7109 15.9628C21.8123 15.9628 21.8976 15.8508 21.8976 15.7175C21.8976 15.5842 21.8123 15.4722 21.7109 15.4722ZM23.2736 15.8508C22.8736 15.8508 22.5536 15.4988 22.5536 15.0722C22.5536 14.6455 22.8789 14.2935 23.2736 14.2935C23.6683 14.2935 23.9989 14.6402 23.9989 15.0722C23.9989 15.5042 23.6736 15.8508 23.2736 15.8508ZM23.2736 14.8268C23.1723 14.8268 23.0869 14.9388 23.0869 15.0722C23.0869 15.2055 23.1723 15.3175 23.2736 15.3175C23.3749 15.3175 23.4603 15.2055 23.4603 15.0722C23.4603 14.9388 23.3803 14.8268 23.2736 14.8268ZM26.4523 16.4908C26.0523 16.4908 25.7323 16.1388 25.7323 15.7122C25.7323 15.2855 26.0523 14.9335 26.4523 14.9335C26.8523 14.9335 27.1723 15.2855 27.1723 15.7122C27.1723 16.1388 26.8523 16.4908 26.4523 16.4908ZM26.4523 15.4722C26.3509 15.4722 26.2656 15.5842 26.2656 15.7175C26.2656 15.8508 26.3509 15.9628 26.4523 15.9628C26.5536 15.9628 26.6389 15.8508 26.6389 15.7175C26.6389 15.5842 26.5536 15.4722 26.4523 15.4722ZM24.8843 15.8508C24.4843 15.8508 24.1643 15.4988 24.1643 15.0722C24.1643 14.6455 24.4896 14.2935 24.8843 14.2935C25.2789 14.2935 25.6043 14.6455 25.6043 15.0722C25.6043 15.4988 25.2843 15.8508 24.8843 15.8508ZM24.8843 14.8268C24.7829 14.8268 24.6976 14.9388 24.6976 15.0722C24.6976 15.2055 24.7829 15.3175 24.8843 15.3175C24.9856 15.3175 25.0709 15.2055 25.0709 15.0722C25.0709 14.9388 24.9856 14.8268 24.8843 14.8268Z" fill="#097158"/>
<path d="M24.0789 20.8322C21.7269 20.8322 19.8122 18.9175 19.8122 16.5655C19.8122 14.2135 21.7269 12.2988 24.0789 12.2988C26.4309 12.2988 28.3456 14.2135 28.3456 16.5655C28.3456 18.9175 26.4309 20.8322 24.0789 20.8322ZM24.0789 12.8322C22.0202 12.8322 20.3456 14.5068 20.3456 16.5655C20.3456 18.6242 22.0202 20.2988 24.0789 20.2988C26.1376 20.2988 27.8122 18.6242 27.8122 16.5655C27.8122 14.5068 26.1376 12.8322 24.0789 12.8322Z" fill="#097158"/>
<path d="M32.9323 20.8322H15.231C14.8416 20.8322 14.5216 20.5175 14.5216 20.1229V18.6509C14.5216 18.2615 14.8363 17.9415 15.231 17.9415H20.4363C20.5856 17.9415 20.703 18.0589 20.703 18.2082C20.703 18.3575 20.5856 18.4749 20.4363 18.4749H15.231C15.135 18.4749 15.055 18.5549 15.055 18.6509V20.1229C15.055 20.2189 15.135 20.2989 15.231 20.2989H32.9323C33.0283 20.2989 33.1083 20.2189 33.1083 20.1229V18.6509C33.1083 18.5549 33.0283 18.4749 32.9323 18.4749H27.727C27.5776 18.4749 27.4603 18.3575 27.4603 18.2082C27.4603 18.0589 27.5776 17.9415 27.727 17.9415H32.9323C33.3216 17.9415 33.6416 18.2562 33.6416 18.6509V20.1229C33.6416 20.5122 33.3216 20.8322 32.9323 20.8322ZM35.4656 35.7015H12.5323C12.383 35.7015 12.2656 35.5842 12.2656 35.4349C12.2656 35.2855 12.383 35.1682 12.5323 35.1682H35.4656C35.615 35.1682 35.7323 35.2855 35.7323 35.4349C35.7323 35.5842 35.615 35.7015 35.4656 35.7015Z" fill="#097158"/>
<path d="M21.0763 25.5469C21.4976 25.5469 21.871 25.3496 22.111 25.0456C22.3403 25.3496 22.7083 25.5469 23.119 25.5469C23.5296 25.5469 23.8923 25.3496 24.1216 25.0456C24.3616 25.3496 24.735 25.5469 25.151 25.5469C25.5776 25.5469 25.951 25.3442 26.191 25.0296C26.431 25.3442 26.8096 25.5469 27.231 25.5469C27.6576 25.5469 28.031 25.3442 28.271 25.0296C28.5056 25.3442 28.8843 25.5469 29.311 25.5469C29.7323 25.5469 30.111 25.3442 30.351 25.0296C30.543 25.2856 30.8256 25.4669 31.151 25.5256V35.4349C31.151 35.5842 31.2683 35.7016 31.4176 35.7016C31.5616 35.7016 31.6843 35.5842 31.6896 35.4456V25.2909C31.6896 25.2162 31.6576 25.1469 31.6096 25.0989C31.5616 25.0509 31.487 25.0242 31.4176 25.0242H31.3963C30.9696 25.0242 30.623 24.6776 30.623 24.2456C30.623 24.0962 30.5056 23.9789 30.3563 23.9789C30.207 23.9789 30.0896 24.0962 30.0896 24.2456C30.0896 24.6776 29.743 25.0242 29.311 25.0242C28.879 25.0242 28.5323 24.6722 28.5323 24.2456C28.5323 24.0962 28.415 23.9789 28.2656 23.9789C28.1163 23.9789 27.999 24.0962 27.999 24.2456C27.999 24.6722 27.6523 25.0189 27.2256 25.0189C26.799 25.0189 26.4523 24.6722 26.4523 24.2456C26.4523 24.0962 26.335 23.9789 26.1856 23.9789C26.0363 23.9789 25.919 24.0962 25.919 24.2456C25.919 24.6722 25.5723 25.0189 25.1456 25.0189C24.719 25.0189 24.3723 24.6722 24.3723 24.2456C24.3723 24.0962 24.255 23.9789 24.1056 23.9789C23.9563 23.9789 23.839 24.0962 23.839 24.2456V24.2936M21.0763 25.5469C20.655 25.5469 20.2763 25.3442 20.031 25.0349C19.7963 25.3496 19.423 25.5469 19.0016 25.5469M21.0763 25.5469C20.351 25.5469 19.759 24.955 19.759 24.2296C19.759 24.0803 19.8763 23.963 20.0256 23.963C20.175 23.963 20.2923 24.0803 20.2923 24.2296C20.2923 24.6616 20.6443 25.0136 21.0763 25.0136C21.5083 25.0136 21.8603 24.6616 21.8603 24.2296V23.419H20.031C19.8816 23.419 19.7643 23.3016 19.7643 23.1523C19.7643 23.003 19.8816 22.8856 20.031 22.8856H22.127C22.2763 22.8856 22.3936 23.003 22.3936 23.1523V24.2296C22.3936 24.9603 21.8016 25.5469 21.0763 25.5469ZM19.0016 25.5469C18.5803 25.5469 18.2016 25.3442 17.967 25.0296C17.7216 25.3442 17.343 25.5469 16.9163 25.5469M19.0016 25.5469C18.287 25.5469 17.7109 24.9655 17.7109 24.2562C17.7109 24.1069 17.8282 23.9895 17.9776 23.9895C18.1269 23.9895 18.2442 24.1069 18.2442 24.2562C18.2442 24.6722 18.5856 25.0135 19.0016 25.0135C19.4176 25.0135 19.7589 24.6722 19.7589 24.2562V23.4242L17.9776 23.4242M19.0016 25.5469C19.7163 25.5469 20.2922 24.9709 20.2922 24.2562V23.1575C20.2922 23.0082 20.1749 22.8909 20.0256 22.8909H17.9776M16.9163 25.5469H16.8523V35.4295C16.8523 35.5789 16.735 35.6962 16.5856 35.6962C16.4363 35.6962 16.319 35.5789 16.319 35.4295V25.2589C16.319 25.1789 16.3563 25.1042 16.415 25.0509C16.479 24.9976 16.559 24.9816 16.639 24.9976C16.6923 25.0082 16.7456 25.0136 16.799 25.0136H16.9216C17.359 25.0136 17.7163 24.6562 17.7163 24.2189C17.7163 24.0696 17.8336 23.9522 17.983 23.9522C18.1323 23.9522 18.2496 24.0696 18.2496 24.2189V24.2562C18.2496 24.6722 18.591 25.0136 19.007 25.0136C19.423 25.0136 19.7643 24.6722 19.7643 24.2562V24.2296C19.7643 24.0802 19.8816 23.9629 20.031 23.9629C20.1803 23.9629 20.2976 24.0802 20.2976 24.2296C20.2976 24.6616 20.6496 25.0136 21.0816 25.0136C21.5136 25.0136 21.8656 24.6616 21.8656 24.2296C21.8656 24.0802 21.983 23.9629 22.1323 23.9629C22.2816 23.9629 22.399 24.0802 22.399 24.2296V24.2882C22.399 24.6882 22.7243 25.0136 23.1243 25.0136C23.5243 25.0136 23.839 24.6936 23.839 24.2936M16.9163 25.5469L16.7936 25.5469C16.063 25.5469 15.4656 24.9549 15.4656 24.2189V23.1575C15.4656 23.0082 15.583 22.8909 15.7323 22.8909H17.9776M16.9163 25.5469C17.647 25.5469 18.2443 24.9549 18.2443 24.2189V23.1575C18.2443 23.0082 18.127 22.8909 17.9776 22.8909M23.839 24.2936C23.839 24.6936 23.5136 25.0135 23.1136 25.0135C22.7136 25.0135 22.3882 24.6882 22.3882 24.2882C22.3882 24.1389 22.2709 24.0215 22.1216 24.0215C21.9722 24.0215 21.8549 24.1389 21.8549 24.2882C21.8549 24.9815 22.4202 25.5469 23.1136 25.5469C23.8069 25.5469 24.3722 24.9869 24.3722 24.2935V23.1575C24.3722 23.0082 24.2549 22.8909 24.1056 22.8909H22.1269C21.9776 22.8909 21.8602 23.0082 21.8602 23.1575C21.8602 23.3069 21.9776 23.4242 22.127 23.4242M23.839 24.2936L23.8389 23.4242L22.127 23.4242M17.9776 23.4242C17.9563 23.4242 17.935 23.4242 17.9136 23.4189C17.7696 23.3869 17.679 23.2429 17.7163 23.0989L18.3296 20.5016C18.3616 20.3576 18.5056 20.2669 18.6496 20.3042C18.7936 20.3416 18.8843 20.4802 18.847 20.6242L18.239 23.2216C18.207 23.3442 18.1003 23.4242 17.9776 23.4242ZM17.9776 23.4242C17.8283 23.4242 17.7109 23.3069 17.7109 23.1575C17.7109 23.0082 17.8283 22.8909 17.9776 22.8909M22.127 23.4242H22.1163C21.967 23.4189 21.855 23.2962 21.8603 23.1469L21.951 20.5496C21.9563 20.4002 22.079 20.2882 22.2283 20.2936C22.3776 20.2989 22.4896 20.4216 22.4843 20.5709L22.3936 23.1682C22.3883 23.3122 22.271 23.4242 22.127 23.4242ZM25.919 24.2403C25.919 24.667 25.5723 25.0136 25.1456 25.0136C24.719 25.0136 24.3723 24.667 24.3723 24.2403C24.3723 24.091 24.255 23.9736 24.1056 23.9736C23.9563 23.9736 23.839 24.091 23.839 24.2403C23.839 24.9603 24.4256 25.547 25.1456 25.547C25.8656 25.547 26.4523 24.9656 26.4523 24.2403M25.919 24.2403V23.419H24.1056C23.9563 23.419 23.839 23.3016 23.839 23.1523C23.839 23.003 23.9563 22.8856 24.1056 22.8856H26.1856M25.919 24.2403C25.919 24.9603 26.5056 25.547 27.2256 25.547C27.9456 25.547 28.5323 24.9656 28.5323 24.2403V23.1523C28.5323 23.003 28.415 22.8856 28.2656 22.8856M25.919 24.2403C25.919 24.091 26.0363 23.9736 26.1856 23.9736C26.335 23.9736 26.4523 24.091 26.4523 24.2403M26.1856 22.8856C26.335 22.8856 26.4523 23.003 26.4523 23.1523V24.2403M26.1856 22.8856C26.0363 22.8856 25.919 23.003 25.919 23.1523C25.919 23.3016 26.0363 23.419 26.1856 23.419H27.999V24.2403C27.999 24.667 27.6523 25.0136 27.2256 25.0136C26.799 25.0136 26.4523 24.667 26.4523 24.2403M26.1856 22.8856H28.2656M28.2656 22.8856C28.1163 22.8856 27.999 23.003 27.999 23.1523C27.999 23.3016 28.1163 23.419 28.2656 23.419H30.0843V24.235C30.0843 24.667 29.7376 25.0136 29.3056 25.0136C28.8736 25.0136 28.527 24.6616 28.527 24.235C28.527 24.0856 28.4096 23.9683 28.2603 23.9683C28.111 23.9683 27.9936 24.0856 27.9936 24.235C27.9936 24.9603 28.5856 25.547 29.3056 25.547C30.0256 25.547 30.6176 24.9603 30.6176 24.235V23.1523C30.6176 23.003 30.5003 22.8856 30.351 22.8856M28.2656 22.8856H30.351M30.351 22.8856C30.2016 22.8856 30.0843 23.003 30.0843 23.1523C30.0843 23.3016 30.2016 23.419 30.3509 23.419H32.1643V24.2403C32.1643 24.667 31.8176 25.0136 31.3909 25.0136C30.9643 25.0136 30.6176 24.667 30.6176 24.2403C30.6176 24.091 30.5003 23.9736 30.3509 23.9736C30.2016 23.9736 30.0843 24.091 30.0843 24.2403C30.0843 24.9603 30.6709 25.547 31.3909 25.547C32.1109 25.547 32.6923 24.9656 32.6976 24.2403V23.1523C32.6976 23.003 32.5803 22.8856 32.4309 22.8856H30.351ZM15.7323 23.4242C15.7056 23.4242 15.679 23.4189 15.6523 23.4136C15.5136 23.3709 15.4336 23.2216 15.4763 23.0776L16.2976 20.4802C16.3403 20.3416 16.495 20.2616 16.6336 20.3042C16.7723 20.3469 16.8523 20.4962 16.8096 20.6402L15.9883 23.2376C15.951 23.3549 15.8443 23.4242 15.7323 23.4242ZM20.0256 23.4242H19.9883C19.8443 23.4029 19.7376 23.2696 19.759 23.1256L20.1003 20.5282C20.1216 20.3842 20.255 20.2776 20.399 20.2989C20.543 20.3202 20.6496 20.4536 20.6283 20.5976L20.287 23.1949C20.271 23.3282 20.159 23.4242 20.0256 23.4242ZM24.1056 23.4242C23.9616 23.4242 23.8443 23.3069 23.839 23.1629L23.791 20.5656C23.7856 20.4162 23.903 20.2989 24.0523 20.2936C24.2016 20.2936 24.319 20.4056 24.3243 20.5549L24.3723 23.1522C24.3723 23.3016 24.2603 23.4242 24.1056 23.4242ZM26.1856 23.4242C26.0523 23.4242 25.935 23.3229 25.919 23.1842L25.6363 20.5869C25.6203 20.4376 25.727 20.3096 25.871 20.2936C26.015 20.2776 26.1483 20.3842 26.1643 20.5282L26.447 23.1256C26.463 23.2749 26.3563 23.4029 26.2123 23.4189C26.2016 23.4242 26.191 23.4242 26.1856 23.4242ZM28.271 23.4242C28.1483 23.4242 28.0363 23.3389 28.0096 23.2109L27.487 20.6136C27.4603 20.4696 27.551 20.3309 27.695 20.2989C27.839 20.2669 27.9776 20.3629 28.0096 20.5069L28.5323 23.1042C28.559 23.2482 28.4683 23.3869 28.3243 23.4189C28.3083 23.4242 28.287 23.4242 28.271 23.4242ZM30.351 23.4242C30.335 23.4242 30.3136 23.4242 30.2976 23.4189C30.2603 23.4136 30.223 23.3976 30.191 23.3709C30.159 23.3496 30.1323 23.3176 30.1163 23.2802C30.1056 23.2642 30.1003 23.2429 30.095 23.2269L29.3323 20.6402C29.2896 20.5016 29.375 20.3522 29.5136 20.3096C29.6576 20.2669 29.8016 20.3522 29.8443 20.4909L30.5483 22.8962H32.0416L31.1883 20.6616C31.135 20.5229 31.2043 20.3682 31.343 20.3149C31.4816 20.2616 31.6363 20.3309 31.6896 20.4696L32.6816 23.0669C32.7136 23.1469 32.703 23.2429 32.655 23.3122C32.607 23.3869 32.5216 23.4296 32.4363 23.4296H30.3616L30.351 23.4242ZM15.999 23.4242V24.2189C15.999 24.6562 16.3563 25.0135 16.7936 25.0135H16.9163C17.3536 25.0135 17.711 24.6562 17.711 24.2189V23.4242H15.999ZM29.8389 35.7016C29.6896 35.7016 29.5723 35.5843 29.5723 35.435V30.699C29.5723 29.9896 28.9963 29.4136 28.2869 29.4136H26.7829C26.0736 29.4136 25.4976 29.9896 25.4976 30.699V35.435C25.4976 35.5843 25.3803 35.7016 25.2309 35.7016C25.0816 35.7016 24.9643 35.5843 24.9643 35.435V30.699C24.9643 29.6963 25.7803 28.8803 26.7829 28.8803H28.2869C29.2896 28.8803 30.1056 29.6963 30.1056 30.699V35.435C30.1056 35.5843 29.9883 35.7016 29.8389 35.7016ZM23.1776 32.587H18.9163C18.3936 32.587 17.9723 32.1603 17.9723 31.643V28.475C17.9723 27.9523 18.3989 27.5256 18.9163 27.5256H23.1776C23.7003 27.5256 24.1216 27.9523 24.1216 28.475V31.643C24.1216 32.1603 23.6949 32.587 23.1776 32.587ZM18.9163 28.059C18.6869 28.059 18.5056 28.2456 18.5056 28.475V31.643C18.5056 31.8723 18.6923 32.0536 18.9163 32.0536H23.1776C23.4069 32.0536 23.5936 31.867 23.5936 31.643V28.475C23.5936 28.2456 23.4069 28.059 23.1776 28.059H18.9163ZM23.855 30.3203H18.2336C18.0843 30.3203 17.967 30.203 17.967 30.0536C17.967 29.9043 18.0843 29.787 18.2336 29.787H23.855C24.0043 29.787 24.1216 29.9043 24.1216 30.0536C24.1216 30.203 24.0043 30.3203 23.855 30.3203ZM21.0443 32.5868C20.8949 32.5868 20.7776 32.4695 20.7776 32.3202V27.7922C20.7776 27.6428 20.8949 27.5255 21.0443 27.5255C21.1936 27.5255 21.3109 27.6428 21.3109 27.7922V32.3202C21.3109 32.4695 21.1936 32.5868 21.0443 32.5868ZM25.5243 19.1042C25.1563 19.1042 24.7936 18.9122 24.5269 18.7682C24.3669 18.6828 24.1696 18.5762 24.0789 18.5762C23.9883 18.5762 23.7909 18.6828 23.6309 18.7682C23.1349 19.0295 22.3029 19.4722 21.7536 18.5228C21.5616 18.1868 21.5723 17.7655 21.8016 17.3335C22.0043 16.9442 22.3616 16.5868 22.8096 16.3308C23.0816 16.1762 23.3643 16.0642 23.6523 16.0055C23.7856 15.9735 23.9296 15.9575 24.0789 15.9575C24.2283 15.9575 24.3723 15.9735 24.5056 16.0055C24.7936 16.0642 25.0763 16.1762 25.3483 16.3308C26.3243 16.8962 26.7829 17.8562 26.3989 18.5228C26.1536 18.9655 25.8389 19.1042 25.5243 19.1042ZM24.0789 18.0482C24.2976 18.0482 24.5323 18.1708 24.7723 18.2988C25.3803 18.6188 25.6736 18.7148 25.9403 18.2562C26.1696 17.8615 25.7749 17.1948 25.0816 16.7948C24.8629 16.6668 24.6229 16.5762 24.3936 16.5282C24.3883 16.5282 24.3883 16.5282 24.3829 16.5228C24.2923 16.5015 24.1909 16.4908 24.0789 16.4908H24.0736C23.9669 16.4908 23.8656 16.5015 23.7696 16.5228C23.7643 16.5228 23.7643 16.5228 23.7589 16.5282C23.5296 16.5762 23.2896 16.6668 23.0709 16.7948C22.7136 17.0028 22.4256 17.2802 22.2709 17.5842C22.1909 17.7335 22.0789 18.0268 22.2123 18.2562C22.4736 18.7148 22.7669 18.6188 23.3803 18.2988C23.6309 18.1708 23.8603 18.0482 24.0789 18.0482ZM21.7109 16.4908C21.3109 16.4908 20.9909 16.1388 20.9909 15.7122C20.9909 15.2855 21.3109 14.9335 21.7109 14.9335C22.1109 14.9335 22.4309 15.2855 22.4309 15.7122C22.4309 16.1388 22.1056 16.4908 21.7109 16.4908ZM21.7109 15.4722C21.6096 15.4722 21.5243 15.5842 21.5243 15.7175C21.5243 15.8508 21.6096 15.9628 21.7109 15.9628C21.8123 15.9628 21.8976 15.8508 21.8976 15.7175C21.8976 15.5842 21.8123 15.4722 21.7109 15.4722ZM23.2736 15.8508C22.8736 15.8508 22.5536 15.4988 22.5536 15.0722C22.5536 14.6455 22.8789 14.2935 23.2736 14.2935C23.6683 14.2935 23.9989 14.6402 23.9989 15.0722C23.9989 15.5042 23.6736 15.8508 23.2736 15.8508ZM23.2736 14.8268C23.1723 14.8268 23.0869 14.9388 23.0869 15.0722C23.0869 15.2055 23.1723 15.3175 23.2736 15.3175C23.3749 15.3175 23.4603 15.2055 23.4603 15.0722C23.4603 14.9388 23.3803 14.8268 23.2736 14.8268ZM26.4523 16.4908C26.0523 16.4908 25.7323 16.1388 25.7323 15.7122C25.7323 15.2855 26.0523 14.9335 26.4523 14.9335C26.8523 14.9335 27.1723 15.2855 27.1723 15.7122C27.1723 16.1388 26.8523 16.4908 26.4523 16.4908ZM26.4523 15.4722C26.3509 15.4722 26.2656 15.5842 26.2656 15.7175C26.2656 15.8508 26.3509 15.9628 26.4523 15.9628C26.5536 15.9628 26.6389 15.8508 26.6389 15.7175C26.6389 15.5842 26.5536 15.4722 26.4523 15.4722ZM24.8843 15.8508C24.4843 15.8508 24.1643 15.4988 24.1643 15.0722C24.1643 14.6455 24.4896 14.2935 24.8843 14.2935C25.2789 14.2935 25.6043 14.6455 25.6043 15.0722C25.6043 15.4988 25.2843 15.8508 24.8843 15.8508ZM24.8843 14.8268C24.7829 14.8268 24.6976 14.9388 24.6976 15.0722C24.6976 15.2055 24.7829 15.3175 24.8843 15.3175C24.9856 15.3175 25.0709 15.2055 25.0709 15.0722C25.0709 14.9388 24.9856 14.8268 24.8843 14.8268ZM24.0789 20.8322C21.7269 20.8322 19.8122 18.9175 19.8122 16.5655C19.8122 14.2135 21.7269 12.2988 24.0789 12.2988C26.4309 12.2988 28.3456 14.2135 28.3456 16.5655C28.3456 18.9175 26.4309 20.8322 24.0789 20.8322ZM24.0789 12.8322C22.0202 12.8322 20.3456 14.5068 20.3456 16.5655C20.3456 18.6242 22.0202 20.2988 24.0789 20.2988C26.1376 20.2988 27.8122 18.6242 27.8122 16.5655C27.8122 14.5068 26.1376 12.8322 24.0789 12.8322ZM32.9323 20.8322H15.231C14.8416 20.8322 14.5216 20.5175 14.5216 20.1229V18.6509C14.5216 18.2615 14.8363 17.9415 15.231 17.9415H20.4363C20.5856 17.9415 20.703 18.0589 20.703 18.2082C20.703 18.3575 20.5856 18.4749 20.4363 18.4749H15.231C15.135 18.4749 15.055 18.5549 15.055 18.6509V20.1229C15.055 20.2189 15.135 20.2989 15.231 20.2989H32.9323C33.0283 20.2989 33.1083 20.2189 33.1083 20.1229V18.6509C33.1083 18.5549 33.0283 18.4749 32.9323 18.4749H27.727C27.5776 18.4749 27.4603 18.3575 27.4603 18.2082C27.4603 18.0589 27.5776 17.9415 27.727 17.9415H32.9323C33.3216 17.9415 33.6416 18.2562 33.6416 18.6509V20.1229C33.6416 20.5122 33.3216 20.8322 32.9323 20.8322ZM35.4656 35.7015H12.5323C12.383 35.7015 12.2656 35.5842 12.2656 35.4349C12.2656 35.2855 12.383 35.1682 12.5323 35.1682H35.4656C35.615 35.1682 35.7323 35.2855 35.7323 35.4349C35.7323 35.5842 35.615 35.7015 35.4656 35.7015Z" stroke="#097158" stroke-width="0.4"/>
</g>
</g>
<defs>
<clipPath id="clip0_557_21008">
<rect width="48" height="48" fill="white"/>
</clipPath>
<clipPath id="clip1_557_21008">
<rect width="24" height="24" fill="white" transform="translate(12 12)"/>
</clipPath>
</defs>
</svg>
