<svg xmlns="http://www.w3.org/2000/svg" width="28" height="28" viewBox="0 0 28 28" fill="none">
  <g clip-path="url(#clip0_1259_29448)">
    <path d="M14.7 5.48246C14.6091 5.48345 14.5188 5.46651 14.4344 5.43262C14.35 5.39872 14.2731 5.34853 14.2081 5.28492C14.1431 5.2213 14.0913 5.1455 14.0556 5.06186C14.0199 4.97821 14.001 4.88834 14 4.7974C14 2.14673 16.1952 6.3371e-05 18.8981 6.3371e-05C18.9891 -0.00116957 19.0795 0.0155994 19.164 0.0494062C19.2485 0.083213 19.3255 0.133391 19.3906 0.197055C19.4556 0.260719 19.5074 0.336613 19.5431 0.420374C19.5787 0.504136 19.5974 0.594112 19.5981 0.68513C19.5981 3.3358 17.4048 5.48246 14.7 5.48246Z" fill="white"/>
    <path d="M14.7008 5.48246C14.6098 5.48345 14.5196 5.46651 14.4352 5.43262C14.3508 5.39872 14.2739 5.34853 14.2089 5.28492C14.1439 5.2213 14.0921 5.1455 14.0563 5.06186C14.0206 4.97821 14.0018 4.88834 14.0008 4.7974C14.0008 2.14673 16.196 6.3371e-05 18.8989 6.3371e-05C18.9899 -0.00116957 19.0803 0.0155994 19.1648 0.0494062C19.2493 0.083213 19.3263 0.133391 19.3914 0.197055C19.4564 0.260719 19.5082 0.336613 19.5438 0.420374C19.5795 0.504136 19.5982 0.594112 19.5989 0.68513C19.5989 3.3358 17.4056 5.48246 14.7008 5.48246ZM24.9208 19.9137C25.1914 20.1115 25.2792 20.4737 25.1261 20.7686C22.6621 25.5958 20.6965 28.0001 18.9008 28.0001C18.0645 28.0001 17.2432 27.735 16.4424 27.2198C15.8676 26.8508 15.202 26.6478 14.5192 26.6333C13.8363 26.6188 13.1627 26.7934 12.5728 27.1377C11.6021 27.707 10.6781 28.0001 9.80078 28.0001C7.15945 28.0001 2.80078 20.035 2.80078 15.6651C2.80078 10.9985 5.30025 7.4406 9.10078 7.4406C10.889 7.4406 12.4328 7.6982 13.7301 8.22273C14.2789 8.443 14.9005 8.42806 15.4362 8.17606C16.489 7.67953 17.8778 7.4406 19.5989 7.4406C21.7026 7.4406 23.5376 8.46726 25.0608 10.4553C25.1159 10.527 25.156 10.609 25.1789 10.6965C25.2017 10.7839 25.2067 10.8751 25.1937 10.9646C25.1806 11.0541 25.1497 11.14 25.1028 11.2173C25.056 11.2946 24.9941 11.3618 24.9208 11.4147C23.2202 12.6654 22.4008 14.0673 22.4008 15.6651C22.4008 17.2611 23.2202 18.6649 24.9208 19.9137Z" fill="white"/>
    <path d="M24.9208 19.9145C25.1914 20.1123 25.2792 20.4745 25.1261 20.7694C22.6621 25.5966 20.6965 28.0009 18.9008 28.0009C18.0645 28.0009 17.2432 27.7358 16.4424 27.2206C15.8676 26.8516 15.202 26.6486 14.5192 26.6341C13.8363 26.6196 13.1627 26.7942 12.5728 27.1385C11.6021 27.7078 10.6781 28.0009 9.80078 28.0009C7.15945 28.0009 2.80078 20.0358 2.80078 15.6659C2.80078 10.9993 5.30025 7.44141 9.10078 7.44141C10.889 7.44141 12.4328 7.69901 13.7301 8.22354C14.2789 8.44381 14.9005 8.42887 15.4362 8.17687C16.489 7.68034 17.8778 7.44141 19.5989 7.44141C21.7026 7.44141 23.5376 8.46807 25.0608 10.4561C25.1159 10.5278 25.156 10.6098 25.1789 10.6973C25.2017 10.7848 25.2067 10.8759 25.1937 10.9654C25.1806 11.0549 25.1497 11.1408 25.1028 11.2181C25.056 11.2955 24.9941 11.3626 24.9208 11.4155C23.2202 12.6662 22.4008 14.0681 22.4008 15.6659C22.4008 17.2619 23.2202 18.6657 24.9208 19.9145Z" fill="white"/>
  </g>
  <defs>
    <clipPath id="clip0_1259_29448">
      <rect width="28" height="28" fill="white"/>
    </clipPath>
  </defs>
</svg>