<svg width="24" height="25" viewBox="0 0 24 25" fill="none" xmlns="http://www.w3.org/2000/svg">
<path d="M12 0.480469C5.38323 0.480469 0 5.8637 0 12.4805C0 19.0968 5.38323 24.4805 12 24.4805C18.6163 24.4805 24 19.0968 24 12.4805C24 5.8637 18.6173 0.480469 12 0.480469ZM17.3533 9.73399C17.3586 9.8529 17.3615 9.97277 17.3615 10.0926C17.3615 13.7425 14.5841 17.9497 9.50246 17.9497C7.94264 17.9497 6.49061 17.4939 5.26867 16.7099C5.48473 16.7355 5.70466 16.7486 5.92749 16.7486C7.22194 16.7486 8.41247 16.3068 9.35793 15.5663C8.14952 15.544 7.12914 14.7455 6.77773 13.6478C6.94594 13.6797 7.11947 13.6976 7.29687 13.6976C7.5487 13.6976 7.79328 13.6647 8.02481 13.6014C6.7613 13.3481 5.80955 12.232 5.80955 10.8931C5.80955 10.8815 5.80955 10.8694 5.81004 10.8583C6.18223 11.0647 6.60807 11.1894 7.0605 11.2034C6.31999 10.7089 5.83227 9.86305 5.83227 8.90502C5.83227 8.39846 5.9681 7.92379 6.20591 7.51583C7.56755 9.18731 9.60348 10.2865 11.8985 10.4025C11.8511 10.2 11.8274 9.98969 11.8274 9.77266C11.8274 8.24765 13.0639 7.01072 14.5889 7.01072C15.3835 7.01072 16.1004 7.34617 16.605 7.88271C17.2348 7.75897 17.8245 7.52985 18.3596 7.21228C18.1518 7.85757 17.7153 8.39846 17.1435 8.74068C17.7027 8.67397 18.2364 8.52607 18.7299 8.30613C18.3616 8.8591 17.8932 9.34585 17.3533 9.73399Z" fill="#0B6614"/>
</svg>
