<svg width="41" height="41" viewBox="0 0 41 41" fill="none" xmlns="http://www.w3.org/2000/svg">
<g clip-path="url(#clip0_566_49045)">
<g clip-path="url(#clip1_566_49045)">
<path d="M37.9808 13.5153L34.6673 9.76142C34.0918 9.11006 33.0053 8.61857 32.1395 8.61857H29.0388V4.87154C29.0388 2.46095 27.0915 0.5 24.6977 0.5H16.0155C13.6217 0.5 11.6744 2.46095 11.6744 4.87154V8.61857H8.57366C7.70792 8.61857 6.62141 9.11006 6.04591 9.76142L2.73242 13.5153C2.18234 14.138 1.75195 15.2796 1.75195 16.1126V17.9862C1.75245 18.6434 1.92462 19.2889 2.25118 19.8579C2.57774 20.4269 3.04719 20.8994 3.61242 21.228V37.3458C3.61242 39.0676 5.00343 40.4684 6.71319 40.4684H34C35.7098 40.4684 37.1008 39.0676 37.1008 37.3458V21.228C37.666 20.8994 38.1355 20.4269 38.462 19.8579C38.7886 19.2889 38.9608 18.6434 38.9613 17.9862V16.1126C38.9613 15.2796 38.5309 14.138 37.9808 13.5153Z" fill="#FFDAAA"/>
<path d="M7.33203 39.8432C7.33203 40.0088 7.39737 40.1676 7.51367 40.2848C7.62997 40.4019 7.78771 40.4677 7.95219 40.4677H15.394C15.5585 40.4677 15.7163 40.4019 15.8326 40.2848C15.9489 40.1676 16.0142 40.0088 16.0142 39.8432V29.2266H7.33203V39.8432Z" fill="#A78966"/>
<path d="M37.9808 13.5153L34.6673 9.76142C34.0918 9.11006 33.0053 8.61857 32.1395 8.61857H29.0388V4.87154C29.0388 2.46095 27.0915 0.5 24.6977 0.5H16.0155C13.6217 0.5 11.6744 2.46095 11.6744 4.87154V8.61857H8.57366C7.70792 8.61857 6.62141 9.11006 6.04591 9.76142L2.73242 13.5153C2.18234 14.138 1.75195 15.2796 1.75195 16.1126V17.9862C1.75195 20.0526 3.42079 21.7332 5.47288 21.7332C6.39042 21.7356 7.27551 21.3915 7.9535 20.769C8.63071 21.3885 9.50327 21.7332 10.4341 21.7332C11.365 21.7332 12.2375 21.3885 12.9147 20.769C13.592 21.3885 14.4645 21.7332 15.3954 21.7332C16.3262 21.7332 17.1988 21.3885 17.876 20.769C18.5532 21.3885 19.4258 21.7332 20.3566 21.7332C21.2875 21.7332 22.16 21.3885 22.8372 20.769C23.5144 21.3885 24.387 21.7332 25.3178 21.7332C26.2487 21.7332 27.1213 21.3885 27.7985 20.769C28.4757 21.3885 29.3482 21.7332 30.2791 21.7332C31.2099 21.7332 32.0825 21.3885 32.7597 20.769C33.4377 21.3915 34.3228 21.7356 35.2403 21.7332C37.2924 21.7332 38.9613 20.0526 38.9613 17.9862V16.1126C38.9613 15.2796 38.5309 14.138 37.9808 13.5153Z" fill="#FFA733"/>
<path d="M24.6971 0.5H16.0149C13.6211 0.5 11.6738 2.46095 11.6738 4.87154V11.7411C11.6738 14.1517 13.6211 16.1126 16.0149 16.1126H24.6971C27.0909 16.1126 29.0382 14.1517 29.0382 11.7411V4.87154C29.0382 2.46095 27.0909 0.5 24.6971 0.5Z" fill="#FFDAAA"/>
<path d="M20.3576 7.36914C18.5493 7.36914 16.6367 9.61611 16.6367 11.7407C16.6367 12.5257 17.0522 13.1108 17.8063 13.3888C18.3229 13.5786 18.9307 13.6179 19.6848 13.6179L20.3576 13.6142L21.0305 13.6173C21.9428 13.6173 24.0786 13.6173 24.0786 11.7407C24.0786 9.61611 22.166 7.36914 20.3576 7.36914Z" fill="#6A563D"/>
<path d="M16.0167 8.61813C17.0442 8.61813 17.8772 7.77933 17.8772 6.74461C17.8772 5.7099 17.0442 4.87109 16.0167 4.87109C14.9892 4.87109 14.1562 5.7099 14.1562 6.74461C14.1562 7.77933 14.9892 8.61813 16.0167 8.61813Z" fill="#6A563D"/>
<path d="M20.3585 6.74508C21.386 6.74508 22.219 5.90628 22.219 4.87156C22.219 3.83685 21.386 2.99805 20.3585 2.99805C19.331 2.99805 18.498 3.83685 18.498 4.87156C18.498 5.90628 19.331 6.74508 20.3585 6.74508Z" fill="#6A563D"/>
<path d="M24.6984 8.61813C25.7259 8.61813 26.5588 7.77933 26.5588 6.74461C26.5588 5.7099 25.7259 4.87109 24.6984 4.87109C23.6708 4.87109 22.8379 5.7099 22.8379 6.74461C22.8379 7.77933 23.6708 8.61813 24.6984 8.61813Z" fill="#6A563D"/>
<path d="M32.1392 25.4805H20.9765C19.9507 25.4805 19.116 26.3211 19.116 27.354V28.603C19.116 28.7686 19.1813 28.9275 19.2976 29.0446C19.4139 29.1617 19.5717 29.2275 19.7361 29.2275H33.3796C33.544 29.2275 33.7018 29.1617 33.8181 29.0446C33.9344 28.9275 33.9997 28.7686 33.9997 28.603V27.354C33.9997 26.3211 33.165 25.4805 32.1392 25.4805ZM14.7749 25.4805H8.57336C7.54762 25.4805 6.71289 26.3211 6.71289 27.354V28.603C6.71289 28.7686 6.77823 28.9275 6.89453 29.0446C7.01083 29.1617 7.16857 29.2275 7.33305 29.2275H16.0152C16.1797 29.2275 16.3374 29.1617 16.4537 29.0446C16.57 28.9275 16.6354 28.7686 16.6354 28.603V27.354C16.6354 26.3211 15.8006 25.4805 14.7749 25.4805Z" fill="#FFA733"/>
<path d="M13.5343 34.8486H12.294C12.1295 34.8486 11.9718 34.7828 11.8555 34.6657C11.7392 34.5486 11.6738 34.3897 11.6738 34.2241C11.6738 34.0585 11.7392 33.8996 11.8555 33.7825C11.9718 33.6654 12.1295 33.5996 12.294 33.5996H13.5343C13.6988 33.5996 13.8565 33.6654 13.9728 33.7825C14.0891 33.8996 14.1544 34.0585 14.1544 34.2241C14.1544 34.3897 14.0891 34.5486 13.9728 34.6657C13.8565 34.7828 13.6988 34.8486 13.5343 34.8486Z" fill="#6A563D"/>
<path d="M19.7363 29.2266H33.3797V34.2226H19.7363V29.2266Z" fill="#806749"/>
<path d="M19.7363 36.0962C19.7363 36.2618 19.8017 36.4206 19.918 36.5378C20.0343 36.6549 20.192 36.7207 20.3565 36.7207H32.7596C32.9241 36.7207 33.0818 36.6549 33.1981 36.5378C33.3144 36.4206 33.3797 36.2618 33.3797 36.0962V34.2227H19.7363V36.0962Z" fill="#A78966"/>
</g>
</g>
<defs>
<clipPath id="clip0_566_49045">
<rect width="39.6899" height="39.9684" fill="white" transform="translate(0.357422 0.5)"/>
</clipPath>
<clipPath id="clip1_566_49045">
<rect width="39.6899" height="39.9684" fill="white" transform="translate(0.511719 0.5)"/>
</clipPath>
</defs>
</svg>
