<svg width="40" height="41" viewBox="0 0 40 41" fill="none" xmlns="http://www.w3.org/2000/svg">
<path d="M25.4349 28.1175L19.9176 35.014L14.4004 28.1175C15.2336 27.4937 15.8314 26.6066 16.0969 25.6002C16.2811 25.0009 16.399 24.3837 16.4487 23.7589V23.752H23.3866V23.7589C23.4362 24.3789 23.5521 24.9913 23.7314 25.5864C23.9963 26.5986 24.5969 27.491 25.4349 28.1175Z" fill="#FDD7AD"/>
<path d="M36.3666 39.7517C36.3794 39.8489 36.3713 39.9477 36.3428 40.0415C36.3143 40.1354 36.2662 40.222 36.2016 40.2958C36.137 40.3695 36.0574 40.4287 35.9681 40.4692C35.8788 40.5098 35.7819 40.5308 35.6839 40.531H18.5391L19.9184 32.2551L25.4356 28.1172L31.2908 29.3724C32.4024 29.6098 33.4134 30.1853 34.1851 31.02C34.9568 31.8546 35.4514 32.9076 35.6011 34.0344L36.3666 39.7517Z" fill="#65DDB9"/>
<path d="M19.919 32.2551V40.531H4.15345C4.0554 40.5308 3.95851 40.5098 3.86924 40.4692C3.77997 40.4287 3.70038 40.3695 3.63576 40.2958C3.57115 40.222 3.52301 40.1354 3.49454 40.0415C3.46608 39.9477 3.45795 39.8489 3.4707 39.7517L4.23621 34.0344C4.38589 32.9076 4.88049 31.8546 5.65219 31.02C6.42388 30.1853 7.43489 29.6098 8.54655 29.3724L14.4017 28.1172L19.919 32.2551Z" fill="#26B99A"/>
<path d="M23.7321 25.5864C22.6134 26.3615 21.279 26.7644 19.9183 26.7382C18.5573 26.7663 17.2215 26.3684 16.0977 25.6002C16.2818 25.0009 16.3997 24.3837 16.4494 23.7589V23.752H23.3873V23.7589C23.437 24.3789 23.5528 24.9913 23.7321 25.5864Z" fill="#F9C795"/>
<path d="M30.2631 35.0143H28.8838V33.635C28.8838 33.4521 28.8112 33.2766 28.6818 33.1473C28.5525 33.018 28.3771 32.9453 28.1942 32.9453C28.0113 32.9453 27.8358 33.018 27.7065 33.1473C27.5772 33.2766 27.5045 33.4521 27.5045 33.635V35.0143H26.1252C25.9423 35.0143 25.7669 35.0869 25.6375 35.2163C25.5082 35.3456 25.4355 35.521 25.4355 35.7039C25.4355 35.8868 25.5082 36.0623 25.6375 36.1916C25.7669 36.3209 25.9423 36.3936 26.1252 36.3936H27.5045V37.7729C27.5045 37.9558 27.5772 38.1312 27.7065 38.2606C27.8358 38.3899 28.0113 38.4626 28.1942 38.4626C28.3771 38.4626 28.5525 38.3899 28.6818 38.2606C28.8112 38.1312 28.8838 37.9558 28.8838 37.7729V36.3936H30.2631C30.446 36.3936 30.6215 36.3209 30.7508 36.1916C30.8801 36.0623 30.9528 35.8868 30.9528 35.7039C30.9528 35.521 30.8801 35.3456 30.7508 35.2163C30.6215 35.0869 30.446 35.0143 30.2631 35.0143Z" fill="#E64C3C"/>
<path d="M13.0237 36.6688C13.0237 37.5826 12.4064 37.7723 11.6444 37.7723C10.8823 37.7723 10.2651 37.5826 10.2651 36.6688C10.1961 35.833 10.8099 35.0964 11.6444 35.0137C12.4788 35.0964 13.0926 35.833 13.0237 36.6688Z" fill="#3F5C6C"/>
<path d="M10.2639 33.6352C10.6448 33.6352 10.9535 33.3264 10.9535 32.9455C10.9535 32.5646 10.6448 32.2559 10.2639 32.2559C9.88299 32.2559 9.57422 32.5646 9.57422 32.9455C9.57422 33.3264 9.88299 33.6352 10.2639 33.6352Z" fill="#3F5C6C"/>
<path d="M8.88497 35.0141C9.26585 35.0141 9.57462 34.7053 9.57462 34.3244C9.57462 33.9435 9.26585 33.6348 8.88497 33.6348C8.50408 33.6348 8.19531 33.9435 8.19531 34.3244C8.19531 34.7053 8.50408 35.0141 8.88497 35.0141Z" fill="#3F5C6C"/>
<path d="M13.0236 33.6352C13.4045 33.6352 13.7133 33.3264 13.7133 32.9455C13.7133 32.5646 13.4045 32.2559 13.0236 32.2559C12.6428 32.2559 12.334 32.5646 12.334 32.9455C12.334 33.3264 12.6428 33.6352 13.0236 33.6352Z" fill="#3F5C6C"/>
<path d="M14.4025 35.0141C14.7834 35.0141 15.0922 34.7053 15.0922 34.3244C15.0922 33.9435 14.7834 33.6348 14.4025 33.6348C14.0217 33.6348 13.7129 33.9435 13.7129 34.3244C13.7129 34.7053 14.0217 35.0141 14.4025 35.0141Z" fill="#3F5C6C"/>
<path d="M10.2643 11.5657C9.9565 10.677 9.78446 9.74706 9.75391 8.80711L9.80218 6.04849C9.94149 4.08366 10.5746 2.18642 11.6436 0.53125C11.6436 0.53125 13.0229 1.91056 16.4711 1.2209C19.9194 0.53125 25.3539 -0.241163 28.1953 2.60021C29.0776 3.57379 29.6867 4.76346 29.9608 6.04849L30.2918 8.80711C30.3035 9.82292 30.1306 10.8324 29.7815 11.7864C29.7209 11.9463 29.6518 12.1028 29.5746 12.2554L10.2643 11.5657Z" fill="#CB8252"/>
<path d="M28.188 11.338C29.0018 11.1794 30.2639 11.3035 30.2639 13.6346C30.2639 16.5449 28.788 17.0001 27.4983 17.069H12.3397C11.0501 17.0001 9.57422 16.5449 9.57422 13.6346C9.57422 11.3035 10.8363 11.1794 11.6501 11.338H28.188Z" fill="#F9C795"/>
<path d="M27.6928 8.80664C27.9252 9.47905 28.0942 10.1722 28.1962 10.8756C28.1962 17.228 26.299 24.6687 19.9204 24.6687C12.3342 24.6687 11.6445 14.3239 11.6445 10.8756C11.7466 10.1722 11.9156 9.47905 12.148 8.80664H27.6928Z" fill="#FDD7AD"/>
<path d="M9.57442 6.04883C9.39151 6.04883 9.2161 6.12149 9.08676 6.25082C8.95743 6.38016 8.88477 6.55558 8.88477 6.73848V8.11779C8.88477 8.3007 8.95743 8.47612 9.08676 8.60545C9.2161 8.73479 9.39151 8.80745 9.57442 8.80745H30.2916C30.4697 8.80032 30.6381 8.72452 30.7616 8.59595C30.885 8.46738 30.9539 8.29602 30.9537 8.11779V6.73848C30.9537 6.55558 30.8811 6.38016 30.7517 6.25082C30.6224 6.12149 30.447 6.04883 30.2641 6.04883H9.57442Z" fill="#65DDB9"/>
<path d="M22.6785 10.1872C24.2021 10.1872 25.4372 8.95208 25.4372 7.42854C25.4372 5.905 24.2021 4.66992 22.6785 4.66992C21.155 4.66992 19.9199 5.905 19.9199 7.42854C19.9199 8.95208 21.155 10.1872 22.6785 10.1872Z" fill="#95A5A5"/>
</svg>
