<svg width="80" height="80" viewBox="0 0 80 80" fill="none" xmlns="http://www.w3.org/2000/svg">
  <g clip-path="url(#clip0_834_53620)">
    <path d="M71.2298 72.5038C58.9884 82.4968 20.7653 82.4968 8.77362 72.5038C-3.46779 62.5108 -2.21869 19.7909 8.77362 8.54876C19.7659 -2.69334 60.2375 -2.69334 71.2298 8.54876C82.2221 19.7909 83.4712 62.511 71.2298 72.5038Z" fill="#FFC700"/>
    <g opacity="0.2">
      <path d="M40.2541 55.0175C29.2618 63.7614 17.0204 68.2583 5.52854 68.5081C-2.96557 54.0182 -1.21672 18.793 8.77628 8.55026C17.77 -0.693204 46.0001 -2.44205 62.2388 3.30389C66.2359 19.7924 57.9917 40.7775 40.2541 55.0175Z" fill="white"/>
    </g>
    <path d="M44.4373 20.2404C43.4993 19.229 42.2702 18.5342 40.9201 18.252C39.5699 17.9699 38.1654 18.1143 36.9009 18.6655C35.6365 19.2166 34.5746 20.1471 33.8622 21.3283C33.1498 22.5094 32.8222 23.8828 32.9246 25.2583L34.6802 47.4096C34.7767 48.6362 35.3321 49.7814 36.2357 50.6167C37.1392 51.4519 38.3245 51.9158 39.5549 51.9158C40.7854 51.9158 41.9706 51.4519 42.8742 50.6167C43.7778 49.7814 44.3332 48.6362 44.4297 47.4096L46.1852 25.2583C46.2543 24.3467 46.1347 23.4306 45.834 22.5672C45.5332 21.7039 45.0578 20.9118 44.4373 20.2404ZM39.5549 53.3392C38.6426 53.3377 37.7504 53.6068 36.9911 54.1126C36.2318 54.6184 35.6396 55.338 35.2895 56.1804C34.9393 57.0229 34.8469 57.9502 35.024 58.8452C35.2011 59.7402 35.6396 60.5625 36.2842 61.2081C36.9288 61.8537 37.7504 62.2936 38.645 62.4722C39.5397 62.6507 40.4672 62.5598 41.3102 62.2111C42.1532 61.8623 42.8738 61.2713 43.3808 60.5128C43.8879 59.7544 44.1585 58.8626 44.1585 57.9503C44.1585 56.7286 43.6737 55.5569 42.8106 54.6924C41.9475 53.8279 40.7766 53.3412 39.5549 53.3392Z" fill="#1D2432"/>
  </g>
  <defs>
    <clipPath id="clip0_834_53620">
      <rect width="80" height="80" fill="white"/>
    </clipPath>
  </defs>
</svg>