<svg width="81" height="80" viewBox="0 0 81 80" fill="none" xmlns="http://www.w3.org/2000/svg">
<path d="M71.7278 72.5038C59.4864 82.4968 21.2633 82.4968 9.27167 72.5038C-2.96975 62.5108 -1.72064 19.7909 9.27167 8.54876C20.264 -2.69334 60.7355 -2.69334 71.7278 8.54876C82.7202 19.7909 83.9693 62.511 71.7278 72.5038Z" fill="#CC2E43"/>
<g opacity="0.2">
<path d="M40.7502 55.0175C29.7579 63.7614 17.5165 68.2583 6.02463 68.5081C-2.46947 54.0182 -0.720625 18.793 9.27237 8.55026C18.266 -0.693204 46.4962 -2.44205 62.7349 3.30389C66.732 19.7924 58.4878 40.7775 40.7502 55.0175Z" fill="white"/>
</g>
<path d="M44.9353 20.2423C43.9974 19.2309 42.7683 18.5361 41.4181 18.254C40.0679 17.9718 38.6634 18.1163 37.399 18.6674C36.1345 19.2186 35.0726 20.1491 34.3603 21.3302C33.6479 22.5114 33.3202 23.8847 33.4227 25.2603L35.1782 47.4115C35.2747 48.6382 35.8302 49.7834 36.7337 50.6186C37.6373 51.4539 38.8225 51.9178 40.053 51.9178C41.2834 51.9178 42.4687 51.4539 43.3722 50.6186C44.2758 49.7834 44.8312 48.6382 44.9278 47.4115L46.6833 25.2603C46.7523 24.3486 46.6328 23.4325 46.332 22.5692C46.0313 21.7058 45.5558 20.9137 44.9353 20.2423ZM40.053 53.3411C39.1407 53.3396 38.2484 53.6088 37.4892 54.1146C36.7299 54.6203 36.1377 55.34 35.7875 56.1824C35.4374 57.0248 35.345 57.9522 35.5221 58.8472C35.6991 59.7421 36.1377 60.5644 36.7823 61.2101C37.4268 61.8557 38.2484 62.2956 39.1431 62.4741C40.0378 62.6527 40.9653 62.5618 41.8083 62.213C42.6513 61.8642 43.3719 61.2732 43.8789 60.5148C44.3859 59.7563 44.6565 58.8645 44.6565 57.9522C44.6565 56.7306 44.1718 55.5589 43.3086 54.6943C42.4455 53.8298 41.2746 53.3431 40.053 53.3411Z" fill="white"/>
</svg>
