<svg width="82" height="82" viewBox="0 0 82 82" fill="none" xmlns="http://www.w3.org/2000/svg">
<rect x="1" y="1" width="80" height="80" rx="22.8571" fill="white"/>
<g clip-path="url(#clip0_1219_18538)">
<path d="M69.5706 22.6911V59.3072C69.5706 64.9668 64.9668 69.5706 59.3072 69.5706H22.6911C17.0315 69.5706 12.4277 64.9668 12.4277 59.3072V22.6911C12.4277 17.0315 17.0315 12.4277 22.6911 12.4277H59.3072C64.9668 12.4277 69.5706 17.0315 69.5706 22.6911Z" fill="white"/>
<path d="M69.5714 22.6911V59.3072C69.5714 64.9668 64.9676 69.5706 59.308 69.5706H41V12.4277H59.308C64.9676 12.4277 69.5714 17.0315 69.5714 22.6911Z" fill="white"/>
<path d="M60.7189 57.0218H21.2792C19.0559 57.0218 19.0548 53.6602 21.2792 53.6602H60.7189C62.9421 53.6602 62.9432 57.0218 60.7189 57.0218Z" fill="#00357B"/>
<path d="M60.7199 57.0218H41V53.6602H60.7199C62.9431 53.6602 62.9442 57.0218 60.7199 57.0218Z" fill="#001737"/>
<path d="M60.5505 42.5109H21.1108C18.8876 42.5109 18.8876 39.1504 21.1108 39.1504H60.5505C62.7748 39.1504 62.7748 42.5109 60.5505 42.5109Z" fill="#00357B"/>
<path d="M60.5513 42.5109H41V39.1504H60.5513C62.7757 39.1504 62.7757 42.5109 60.5513 42.5109Z" fill="#001737"/>
<path d="M60.5505 28.1702H21.1108C18.8876 28.1702 18.8876 24.8086 21.1108 24.8086H60.5505C62.7748 24.8086 62.7748 28.1702 60.5505 28.1702Z" fill="#00357B"/>
<path d="M60.5513 28.1702H41V24.8086H60.5513C62.7757 24.8086 62.7757 28.1702 60.5513 28.1702Z" fill="#001737"/>
<path d="M51.7544 46.2646C54.6627 46.2646 57.0204 43.9069 57.0204 40.9985C57.0204 38.0901 54.6627 35.7324 51.7544 35.7324C48.846 35.7324 46.4883 38.0901 46.4883 40.9985C46.4883 43.9069 48.846 46.2646 51.7544 46.2646Z" fill="#58B354"/>
<path d="M57.0219 40.9986C57.0219 43.9028 54.66 46.2647 51.7559 46.2647V35.7324C54.66 35.7325 57.0219 38.0944 57.0219 40.9986Z" fill="#00A963"/>
<path d="M37.4126 60.6064C40.3209 60.6064 42.6786 58.2487 42.6786 55.3403C42.6786 52.4319 40.3209 50.0742 37.4126 50.0742C34.5042 50.0742 32.1465 52.4319 32.1465 55.3403C32.1465 58.2487 34.5042 60.6064 37.4126 60.6064Z" fill="#FFEC00"/>
<path d="M42.6801 55.3404C42.6801 58.2446 40.3182 60.6065 37.4141 60.6065V50.0742C40.3182 50.0743 42.6801 52.4362 42.6801 55.3404Z" fill="#FFD92E"/>
<path d="M30.2426 31.9228C33.151 31.9228 35.5087 29.5651 35.5087 26.6567C35.5087 23.7483 33.151 21.3906 30.2426 21.3906C27.3343 21.3906 24.9766 23.7483 24.9766 26.6567C24.9766 29.5651 27.3343 31.9228 30.2426 31.9228Z" fill="#FF2828"/>
<path d="M35.5095 26.6584C35.5095 29.5256 33.208 31.8628 30.3555 31.9222V21.3945C33.208 21.4539 35.5095 23.7912 35.5095 26.6584Z" fill="#CC0000"/>
</g>
<rect x="1" y="1" width="80" height="80" rx="22.8571" stroke="#EBEBEB" stroke-width="1.42857"/>
<defs>
<clipPath id="clip0_1219_18538">
<rect width="57.1429" height="57.1429" fill="white" transform="translate(12.4277 12.4277)"/>
</clipPath>
</defs>
</svg>
