<svg width="82" height="82" viewBox="0 0 82 82" fill="none" xmlns="http://www.w3.org/2000/svg">
<rect x="1" y="1" width="80" height="80" rx="22.8571" fill="white"/>
<path fill-rule="evenodd" clip-rule="evenodd" d="M34.269 19.2294C33.5294 19.2294 32.9297 18.6297 32.9297 17.8901C32.9297 17.1504 33.5294 16.5508 34.269 16.5508H65.1915C65.9311 16.5508 66.5308 17.1504 66.5308 17.8901C66.5308 18.6297 65.9311 19.2294 65.1915 19.2294H34.269ZM34.269 57.4513C33.5294 57.4513 32.9297 56.8517 32.9297 56.1121C32.9297 55.3724 33.5294 54.7728 34.269 54.7728H65.1915C65.9311 54.7728 66.5308 55.3724 66.5308 56.1121C66.5308 56.8517 65.9311 57.4513 65.1915 57.4513H34.269ZM34.269 65.446C33.5294 65.446 32.9297 64.8463 32.9297 64.1067C32.9297 63.3671 33.5294 62.7674 34.269 62.7674H65.1915C65.9311 62.7674 66.5308 63.3671 66.5308 64.1067C66.5308 64.8463 65.9311 65.446 65.1915 65.446H34.269ZM34.269 38.3403C33.5294 38.3403 32.9297 37.7406 32.9297 37.001C32.9297 36.2614 33.5294 35.6617 34.269 35.6617H65.1915C65.9311 35.6617 66.5308 36.2614 66.5308 37.001C66.5308 37.7406 65.9311 38.3403 65.1915 38.3403H34.269ZM34.269 46.3349C33.5294 46.3349 32.9297 45.7353 32.9297 44.9956C32.9297 44.256 33.5294 43.6564 34.269 43.6564H65.1915C65.9311 43.6564 66.5308 44.256 66.5308 44.9956C66.5308 45.7353 65.9311 46.3349 65.1915 46.3349H34.269ZM34.269 27.2239C33.5294 27.2239 32.9297 26.6242 32.9297 25.8846C32.9297 25.145 33.5294 24.5453 34.269 24.5453H65.1915C65.9311 24.5453 66.5308 25.145 66.5308 25.8846C66.5308 26.6242 65.9311 27.2239 65.1915 27.2239H34.269Z" fill="#B6C1CC"/>
<path fill-rule="evenodd" clip-rule="evenodd" d="M16.8617 15.8867H26.077C26.8432 15.8867 27.47 16.5135 27.47 17.2797V26.495C27.47 27.2612 26.8432 27.8879 26.077 27.8879H16.8617C16.0955 27.8879 15.4688 27.2612 15.4688 26.495V17.2797C15.4688 16.5135 16.0956 15.8867 16.8617 15.8867Z" fill="#B9EA6A"/>
<path fill-rule="evenodd" clip-rule="evenodd" d="M26.3307 15.9102C26.9769 16.0302 27.4701 16.6001 27.4701 17.2798V26.4951C27.4701 27.2613 26.8433 27.8881 26.0771 27.8881H16.8618C16.1823 27.8881 15.6123 27.3949 15.4922 26.7485C15.5744 26.7638 15.6592 26.7719 15.7456 26.7719H24.9609C25.7271 26.7719 26.3539 26.1451 26.3539 25.3789V16.1636C26.354 16.0786 26.3462 15.9937 26.3307 15.9102Z" fill="#A1E42C"/>
<path fill-rule="evenodd" clip-rule="evenodd" d="M16.8617 34.998H26.077C26.8432 34.998 27.47 35.6248 27.47 36.391V45.6063C27.47 46.3725 26.8432 46.9993 26.077 46.9993H16.8617C16.0955 46.9993 15.4688 46.3724 15.4688 45.6063V36.391C15.4688 35.6249 16.0956 34.998 16.8617 34.998Z" fill="#FCDD2E"/>
<path fill-rule="evenodd" clip-rule="evenodd" d="M26.3307 35.0215C26.9769 35.1416 27.4701 35.7114 27.4701 36.3911V45.6064C27.4701 46.3726 26.8433 46.9994 26.0771 46.9994H16.8618C16.1823 46.9994 15.6123 46.5062 15.4922 45.8599C15.5744 45.8752 15.6592 45.8832 15.7456 45.8832H24.9609C25.7271 45.8832 26.3539 45.2564 26.3539 44.4902V35.2749C26.354 35.1899 26.3462 35.1051 26.3307 35.0215Z" fill="#FBD307"/>
<path fill-rule="evenodd" clip-rule="evenodd" d="M16.8617 54.1094H26.077C26.8432 54.1094 27.47 54.7362 27.47 55.5023V64.7176C27.47 65.4838 26.8432 66.1106 26.077 66.1106H16.8617C16.0955 66.1106 15.4688 65.4837 15.4688 64.7176V55.5023C15.4688 54.7362 16.0956 54.1094 16.8617 54.1094Z" fill="#FC5692"/>
<path fill-rule="evenodd" clip-rule="evenodd" d="M26.3307 54.1328C26.9769 54.2529 27.4701 54.8228 27.4701 55.5025V64.7177C27.4701 65.4839 26.8433 66.1107 26.0771 66.1107H16.8618C16.1823 66.1107 15.6123 65.6175 15.4922 64.9712C15.5744 64.9865 15.6592 64.9945 15.7456 64.9945H24.9609C25.7271 64.9945 26.3539 64.3677 26.3539 63.6016V54.3863C26.354 54.3012 26.3462 54.2164 26.3307 54.1328Z" fill="#FB3580"/>
<rect x="1" y="1" width="80" height="80" rx="22.8571" stroke="#EBEBEB" stroke-width="1.42857"/>
</svg>
