<svg width="82" height="82" viewBox="0 0 82 82" fill="none" xmlns="http://www.w3.org/2000/svg">
<rect x="1.14258" y="1" width="80" height="80" rx="22.8571" fill="white"/>
<g clip-path="url(#clip0_1219_18528)">
<path d="M41.1422 69.5704C52.9557 69.5704 62.5325 67.5111 62.5325 64.9708C62.5325 62.4304 52.9557 60.3711 41.1422 60.3711C29.3287 60.3711 19.752 62.4304 19.752 64.9708C19.752 67.5111 29.3287 69.5704 41.1422 69.5704Z" fill="url(#paint0_linear_1219_18528)"/>
<path d="M62.5327 64.9708C62.5327 62.4305 52.956 60.3711 41.1424 60.3711C39.1772 60.3711 37.2745 60.4283 35.4668 60.5351L39.4707 66.4255C39.5785 66.5842 39.7082 66.7269 39.8559 66.8492L42.5667 69.56C53.716 69.4024 62.5327 67.4082 62.5327 64.9708Z" fill="url(#paint1_linear_1219_18528)"/>
<path d="M64.5863 35.8722C64.5863 22.9242 54.09 12.4277 41.1419 12.4277C28.2503 12.4277 17.8278 22.7407 17.6985 35.6318C17.6009 45.3679 23.4392 53.7509 31.8157 57.3866C33.2172 57.9958 34.4169 58.9904 35.2754 60.2546L39.4701 66.4257C40.2723 67.6057 42.0113 67.6057 42.8134 66.4257L47.0081 60.2547C47.8644 58.9949 49.0571 57.9979 50.4549 57.3923C58.7693 53.7894 64.5863 45.5108 64.5863 35.8722Z" fill="url(#paint2_linear_1219_18528)"/>
<path d="M41.1414 66.1421C41.0056 66.1421 40.665 66.1057 40.4359 65.7687L36.2413 59.5975C35.2548 58.1463 33.8852 57.0111 32.2805 56.3147C24.0416 52.7386 18.7763 44.6245 18.8664 35.6431C18.9258 29.7186 21.2659 24.1723 25.4557 20.0256C29.6451 15.8794 35.2163 13.5957 41.1414 13.5957H41.1416C53.4247 13.5957 63.4177 23.5889 63.4177 35.872C63.4177 44.7591 58.147 52.7854 49.9901 56.3201C48.3946 57.0115 47.0292 58.1448 46.0416 59.5977L41.847 65.7688C41.6179 66.1057 41.2772 66.1421 41.1414 66.1421Z" fill="url(#paint3_linear_1219_18528)"/>
<path d="M41.1433 50.6088C49.2823 50.6088 55.8803 44.0108 55.8803 35.8718C55.8803 27.7328 49.2823 21.1348 41.1433 21.1348C33.0042 21.1348 26.4062 27.7328 26.4062 35.8718C26.4062 44.0108 33.0042 50.6088 41.1433 50.6088Z" fill="url(#paint4_linear_1219_18528)"/>
<path d="M63.8528 41.7093L49.8514 27.7079C47.6733 25.3852 44.5772 23.9336 41.1417 23.9336C34.5482 23.9336 29.2031 29.2787 29.2031 35.8722C29.2031 39.3077 30.6548 42.4037 32.9775 44.5819L47.7333 59.3377C48.4915 58.5085 49.4165 57.8422 50.4549 57.3923C57.0307 54.5427 62.0436 48.768 63.8528 41.7093Z" fill="url(#paint5_linear_1219_18528)"/>
<path d="M41.1417 47.8108C47.7352 47.8108 53.0803 42.4657 53.0803 35.8722C53.0803 29.2787 47.7352 23.9336 41.1417 23.9336C34.5482 23.9336 29.2031 29.2787 29.2031 35.8722C29.2031 42.4657 34.5482 47.8108 41.1417 47.8108Z" fill="url(#paint6_linear_1219_18528)"/>
</g>
<rect x="1.14258" y="1" width="80" height="80" rx="22.8571" stroke="#EBEBEB" stroke-width="1.42857"/>
<defs>
<linearGradient id="paint0_linear_1219_18528" x1="40.6712" y1="62.9859" x2="43.3283" y2="74.1839" gradientUnits="userSpaceOnUse">
<stop stop-color="#FFDA45"/>
<stop offset="1" stop-color="#FFA425"/>
</linearGradient>
<linearGradient id="paint1_linear_1219_18528" x1="52.2494" y1="67.0993" x2="45.1748" y2="58.0729" gradientUnits="userSpaceOnUse">
<stop stop-color="#FFDA45" stop-opacity="0"/>
<stop offset="1" stop-color="#B53759"/>
</linearGradient>
<linearGradient id="paint2_linear_1219_18528" x1="26.992" y1="21.7216" x2="73.7706" y2="68.5002" gradientUnits="userSpaceOnUse">
<stop stop-color="#FF7044"/>
<stop offset="1" stop-color="#F92814"/>
</linearGradient>
<linearGradient id="paint3_linear_1219_18528" x1="36.1138" y1="30.8573" x2="19.6752" y2="14.4188" gradientUnits="userSpaceOnUse">
<stop stop-color="#FF7044" stop-opacity="0"/>
<stop offset="1" stop-color="#FFA425"/>
</linearGradient>
<linearGradient id="paint4_linear_1219_18528" x1="50.0296" y1="44.7581" x2="20.6371" y2="15.3656" gradientUnits="userSpaceOnUse">
<stop stop-color="#FF7044"/>
<stop offset="1" stop-color="#F92814"/>
</linearGradient>
<linearGradient id="paint5_linear_1219_18528" x1="56.4735" y1="51.204" x2="43.4464" y2="38.1768" gradientUnits="userSpaceOnUse">
<stop stop-color="#F92814" stop-opacity="0"/>
<stop offset="1" stop-color="#C1272D"/>
</linearGradient>
<linearGradient id="paint6_linear_1219_18528" x1="38.2191" y1="31.4153" x2="45.2739" y2="42.1738" gradientUnits="userSpaceOnUse">
<stop stop-color="#F9F7FC"/>
<stop offset="1" stop-color="#F0DDFC"/>
</linearGradient>
<clipPath id="clip0_1219_18528">
<rect width="57.1429" height="57.1429" fill="white" transform="translate(12.5703 12.4277)"/>
</clipPath>
</defs>
</svg>
