<svg width="40" height="40" viewBox="0 0 40 40" fill="none" xmlns="http://www.w3.org/2000/svg">
<path d="M33.5484 30.6632H6.45166V27.1578C6.45166 19.6752 12.5175 13.6094 20 13.6094C27.4826 13.6094 33.5484 19.6752 33.5484 27.1578V30.6632Z" fill="#FF8C22"/>
<path d="M20 15.9368C24.4128 15.9368 27.99 12.3692 27.99 7.96839C27.99 3.56757 24.4128 0 20 0C15.5873 0 12.01 3.56757 12.01 7.96839C12.01 12.3692 15.5873 15.9368 20 15.9368Z" fill="#F5DCB4"/>
<path d="M29.081 29.3554H27.6487C27.4536 28.399 27.0629 27.4735 26.4771 26.6712L27.5187 25.7148C27.7791 25.468 27.7791 25.0977 27.5513 24.8509L26.282 23.6477C26.1602 23.5318 26.0002 23.4646 25.8322 23.4589C25.6642 23.4532 25.5 23.5094 25.3707 23.6167L24.3291 24.5732C23.5155 24.0486 22.5713 23.6477 21.53 23.4625V22.1051C21.53 21.7657 21.2371 21.457 20.8791 21.457H19.1213C18.7958 21.488 18.4704 21.7348 18.4704 22.0741L18.5029 23.4935C17.4939 23.6786 16.5175 24.049 15.6713 24.6041L14.6623 23.6167C14.5406 23.5008 14.3805 23.4337 14.2125 23.428C14.0446 23.4222 13.8803 23.4784 13.751 23.5857L12.5142 24.758C12.2539 25.0048 12.2539 25.3751 12.4816 25.6219L13.4907 26.6093C12.9375 27.3806 12.5142 28.2754 12.3191 29.2625H10.8868C10.5613 29.2935 10.2358 29.5403 10.2358 29.8796V31.5457C10.2684 31.8541 10.5287 32.1628 10.8868 32.1628H12.3191C12.5142 33.1193 12.9049 34.0448 13.4907 34.847L12.4491 35.8035C12.1887 36.0503 12.1887 36.4206 12.4165 36.6674L13.6533 37.8396C13.775 37.9555 13.935 38.0227 14.103 38.0284C14.271 38.0341 14.4352 37.9779 14.5645 37.8706L15.6062 36.9141C16.4197 37.4386 17.3639 37.8396 18.4052 38.0248V39.3822C18.4378 39.6906 18.6981 39.9993 19.0562 39.9993H20.8139C21.1394 39.9683 21.4649 39.7215 21.4649 39.3822V38.0248C22.4739 37.8396 23.4504 37.4693 24.2965 36.9141L25.3055 37.9015C25.4273 38.0174 25.5873 38.0846 25.7553 38.0903C25.9233 38.096 26.0875 38.0399 26.2168 37.9325L27.4536 36.7603C27.7139 36.5135 27.7139 36.1432 27.4862 35.8964L26.5097 34.909C27.0629 34.1377 27.4862 33.2428 27.6813 32.2557H29.1136C29.4391 32.2248 29.7645 31.978 29.7645 31.6386V29.9725C29.7645 29.6022 29.4716 29.3554 29.081 29.3554Z" fill="#666666"/>
<path d="M20.0001 34.4724C22.1724 34.4724 23.9333 32.8031 23.9333 30.744C23.9333 28.6849 22.1724 27.0156 20.0001 27.0156C17.8279 27.0156 16.0669 28.6849 16.0669 30.744C16.0669 32.8031 17.8279 34.4724 20.0001 34.4724Z" fill="#E6E6E6"/>
</svg>
