<svg width="41" height="40" viewBox="0 0 41 40" fill="none" xmlns="http://www.w3.org/2000/svg">
  <g clip-path="url(#clip0_826_24918)">
    <path d="M34.0499 30.6632H6.95312V27.1578C6.95312 19.6752 13.0189 13.6094 20.5015 13.6094C27.9841 13.6094 34.0499 19.6752 34.0499 27.1578V30.6632Z" fill="#FF8C22"/>
    <path d="M20.5017 15.9368C24.9145 15.9368 28.4917 12.3692 28.4917 7.96839C28.4917 3.56757 24.9145 0 20.5017 0C16.089 0 12.5117 3.56757 12.5117 7.96839C12.5117 12.3692 16.089 15.9368 20.5017 15.9368Z" fill="#F5DCB4"/>
    <path d="M28.5006 38.2842C25.6915 40.5743 16.9204 40.5743 14.1687 38.2842C11.3597 35.9941 11.6463 26.2039 14.1687 23.6276C16.6911 21.0512 25.9782 21.0512 28.5006 23.6276C31.023 26.2039 31.3096 35.9942 28.5006 38.2842Z" fill="#52CE06"/>
    <g opacity="0.2">
      <path d="M21.3836 34.2764C18.8612 36.2802 16.0521 37.3108 13.4151 37.368C11.4659 34.0474 11.8673 25.9748 14.1604 23.6274C16.2241 21.5091 22.7021 21.1083 26.4284 22.4251C27.3456 26.2038 25.4538 31.013 21.3836 34.2764Z" fill="white"/>
    </g>
    <path d="M20.0252 35.9373C19.6239 35.9373 19.2226 35.7655 18.9933 35.422L15.783 31.2998C15.3244 30.7273 15.439 29.9258 16.0123 29.4678C16.5856 29.0097 17.3881 29.1243 17.8468 29.6968L20.0252 32.5021L24.8407 26.2616C25.2993 25.6891 26.1019 25.5746 26.6752 26.0326C27.2484 26.4906 27.3631 27.2922 26.9045 27.8647L21.0571 35.422C20.7705 35.7083 20.4265 35.9373 20.0252 35.9373Z" fill="white"/>
  </g>
  <defs>
    <clipPath id="clip0_826_24918">
      <rect width="40" height="40" fill="white" transform="translate(0.5)"/>
    </clipPath>
  </defs>
</svg>