<svg width="40" height="40" viewBox="0 0 40 40" fill="none" xmlns="http://www.w3.org/2000/svg">
<g clip-path="url(#clip0_744_26505)">
<path d="M29.0041 3.16804C29.0041 1.42264 30.419 0.0078125 32.1644 0.0078125H7.56613C6.17817 0.0078125 5.05298 1.13301 5.05298 2.52097V31.1395H29.004L29.0041 3.16804Z" fill="#FFE07D"/>
<path d="M30.2563 0.0078125C28.5109 0.0078125 27.0961 1.42272 27.0961 3.16804V15.7005C27.0961 16.4378 26.6118 17.0938 25.902 17.2939C20.6687 18.7696 16.8328 23.5786 16.8328 29.2841C16.8328 30.784 17.098 32.2221 17.584 33.5539H29.004V3.16804C29.004 1.42264 30.4189 0.0078125 32.1642 0.0078125H30.2563Z" fill="#FFD064"/>
<path d="M25.1843 5.45924H9.3512C9.01782 5.45924 8.74756 5.18906 8.74756 4.8556C8.74756 4.52214 9.01775 4.25195 9.3512 4.25195H25.1843C25.5177 4.25195 25.788 4.52214 25.788 4.8556C25.788 5.18906 25.5177 5.45924 25.1843 5.45924ZM25.1843 11.4784H9.3512C9.01782 11.4784 8.74756 11.2082 8.74756 10.8747C8.74756 10.5412 9.01775 10.2711 9.3512 10.2711H25.1843C25.5177 10.2711 25.788 10.5412 25.788 10.8747C25.788 11.2082 25.5177 11.4784 25.1843 11.4784ZM25.1843 17.4976H9.3512C9.27193 17.4976 9.19343 17.482 9.12019 17.4517C9.04694 17.4214 8.9804 17.3769 8.92434 17.3208C8.86828 17.2648 8.82382 17.1982 8.79349 17.125C8.76316 17.0517 8.74755 16.9732 8.74756 16.894C8.74755 16.8147 8.76316 16.7362 8.79349 16.663C8.82382 16.5897 8.86828 16.5232 8.92434 16.4671C8.9804 16.4111 9.04694 16.3666 9.12019 16.3363C9.19343 16.3059 9.27193 16.2903 9.3512 16.2903H25.1843C25.5177 16.2903 25.788 16.5605 25.788 16.894C25.788 17.2274 25.5177 17.4976 25.1843 17.4976ZM25.1843 23.5168H9.3512C9.01782 23.5168 8.74756 23.2466 8.74756 22.9132C8.74756 22.5797 9.01775 22.3095 9.3512 22.3095H25.1843C25.5177 22.3095 25.788 22.5797 25.788 22.9132C25.788 23.2466 25.5177 23.5168 25.1843 23.5168Z" fill="#2B4D66"/>
<path d="M26.1167 33.5541H4.46805C2.00043 33.5541 0 31.5537 0 29.086V28.2947C2.07087e-05 28.1943 0.0399243 28.098 0.110937 28.027C0.181949 27.9559 0.278257 27.916 0.378684 27.916H26.1167V33.5541Z" fill="#EAB14D"/>
<path d="M16.8328 29.2843C16.8328 30.7843 17.098 32.2223 17.584 33.5541H26.1166V27.916H16.9079C16.858 28.3704 16.8329 28.8272 16.8328 29.2843Z" fill="#E49542"/>
<path d="M29.2901 39.9938C35.2049 39.9938 39.9999 35.1988 39.9999 29.284C39.9999 23.3691 35.2049 18.5742 29.2901 18.5742C23.3753 18.5742 18.5803 23.3691 18.5803 29.284C18.5803 35.1988 23.3753 39.9938 29.2901 39.9938Z" fill="#DD636E"/>
<path d="M29.2901 18.5742C29.0062 18.5742 28.7249 18.5855 28.4465 18.6072C33.9671 19.0373 38.3127 23.6531 38.3127 29.284C38.3127 34.9149 33.967 39.5307 28.4465 39.9608C28.7249 39.9825 29.0062 39.9938 29.2901 39.9938C35.205 39.9938 39.9999 35.1988 39.9999 29.284C39.9999 23.3692 35.205 18.5742 29.2901 18.5742Z" fill="#DA4A54"/>
<path d="M29.2901 37.2715C33.7019 37.2715 37.2784 33.695 37.2784 29.2832C37.2784 24.8714 33.7019 21.2949 29.2901 21.2949C24.8782 21.2949 21.3018 24.8714 21.3018 29.2832C21.3018 33.695 24.8782 37.2715 29.2901 37.2715Z" fill="#F4FBFF"/>
<path d="M29.2902 21.2949C28.92 21.2949 28.556 21.3207 28.1992 21.3694C32.0949 21.9015 35.0965 25.2415 35.0965 29.2832C35.0965 33.3249 32.0948 36.665 28.1992 37.1971C28.556 37.2458 28.92 37.2715 29.2902 37.2715C33.702 37.2715 37.2785 33.695 37.2785 29.2831C37.2785 24.8714 33.702 21.2949 29.2902 21.2949Z" fill="#DAF1F4"/>
<path d="M29.2904 24.3588C29.2112 24.3588 29.1327 24.3432 29.0594 24.3129C28.9862 24.2825 28.9196 24.2381 28.8636 24.182C28.8075 24.126 28.763 24.0594 28.7327 23.9862C28.7024 23.9129 28.6868 23.8344 28.6868 23.7552V23.4786C28.6868 23.3994 28.7024 23.3209 28.7327 23.2476C28.763 23.1744 28.8075 23.1078 28.8636 23.0518C28.9196 22.9957 28.9862 22.9513 29.0594 22.9209C29.1327 22.8906 29.2112 22.875 29.2904 22.875C29.3697 22.875 29.4482 22.8906 29.5214 22.9209C29.5947 22.9513 29.6612 22.9957 29.7173 23.0518C29.7734 23.1078 29.8178 23.1744 29.8481 23.2476C29.8785 23.3209 29.8941 23.3994 29.8941 23.4786V23.7552C29.8941 23.8344 29.8785 23.9129 29.8481 23.9862C29.8178 24.0594 29.7734 24.126 29.7173 24.182C29.6612 24.2381 29.5947 24.2825 29.5214 24.3129C29.4482 24.3432 29.3697 24.3588 29.2904 24.3588ZM33.2006 25.9784C33.0812 25.9785 32.9645 25.9431 32.8652 25.8767C32.7659 25.8104 32.6885 25.7161 32.6429 25.6058C32.5972 25.4955 32.5852 25.3741 32.6086 25.257C32.6319 25.1399 32.6894 25.0323 32.7739 24.9479L32.9694 24.7525C33.0255 24.6965 33.092 24.652 33.1653 24.6217C33.2385 24.5914 33.317 24.5758 33.3962 24.5758C33.4755 24.5758 33.554 24.5915 33.6272 24.6218C33.7004 24.6522 33.767 24.6967 33.823 24.7527C33.879 24.8088 33.9235 24.8753 33.9538 24.9486C33.9841 25.0218 33.9997 25.1003 33.9997 25.1796C33.9997 25.2588 33.984 25.3373 33.9537 25.4105C33.9233 25.4838 33.8788 25.5503 33.8228 25.6063L33.6273 25.8018C33.5713 25.8579 33.5048 25.9024 33.4316 25.9327C33.3584 25.963 33.2799 25.9786 33.2006 25.9784ZM35.0968 29.8886H34.8202C34.4869 29.8886 34.2166 29.6184 34.2166 29.285C34.2166 28.9515 34.4868 28.6813 34.8202 28.6813H35.0968C35.4301 28.6813 35.7004 28.9515 35.7004 29.285C35.7004 29.6184 35.4301 29.8886 35.0968 29.8886ZM23.7605 29.8886H23.484C23.1506 29.8886 22.8804 29.6184 22.8804 29.285C22.8804 28.9515 23.1506 28.6813 23.484 28.6813H23.7605C24.0939 28.6813 24.3642 28.9515 24.3642 29.285C24.3642 29.6184 24.094 29.8886 23.7605 29.8886ZM33.3962 33.9944C33.3169 33.9945 33.2384 33.9789 33.1652 33.9486C33.092 33.9183 33.0255 33.8738 32.9695 33.8177L32.774 33.6223C32.7179 33.5662 32.6734 33.4997 32.6431 33.4265C32.6127 33.3533 32.5971 33.2748 32.5971 33.1955C32.597 33.1163 32.6126 33.0378 32.6429 32.9645C32.6733 32.8913 32.7177 32.8247 32.7737 32.7687C32.8297 32.7126 32.8963 32.6681 32.9695 32.6377C33.0427 32.6073 33.1212 32.5917 33.2005 32.5916C33.2798 32.5916 33.3583 32.6072 33.4315 32.6376C33.5047 32.6679 33.5713 32.7124 33.6273 32.7684L33.8228 32.9639C33.9073 33.0483 33.9648 33.1558 33.9882 33.2729C34.0115 33.39 33.9996 33.5114 33.9539 33.6217C33.9082 33.732 33.8309 33.8263 33.7316 33.8927C33.6323 33.959 33.5156 33.9944 33.3962 33.9944ZM29.2904 35.695C29.2112 35.695 29.1327 35.6794 29.0594 35.6491C28.9862 35.6188 28.9196 35.5743 28.8636 35.5183C28.8075 35.4622 28.763 35.3957 28.7327 35.3224C28.7024 35.2492 28.6868 35.1707 28.6868 35.0914V34.8149C28.6868 34.7356 28.7024 34.6571 28.7327 34.5839C28.763 34.5106 28.8075 34.4441 28.8636 34.388C28.9196 34.332 28.9862 34.2875 29.0594 34.2572C29.1327 34.2268 29.2112 34.2112 29.2904 34.2112C29.3697 34.2112 29.4482 34.2268 29.5214 34.2572C29.5947 34.2875 29.6612 34.332 29.7173 34.388C29.7734 34.4441 29.8178 34.5106 29.8481 34.5839C29.8785 34.6571 29.8941 34.7356 29.8941 34.8149V35.0914C29.8941 35.1707 29.8785 35.2492 29.8481 35.3224C29.8178 35.3957 29.7734 35.4622 29.7173 35.5183C29.6612 35.5743 29.5947 35.6188 29.5214 35.6491C29.4482 35.6794 29.3697 35.695 29.2904 35.695ZM25.1847 33.9944C25.0654 33.9944 24.9486 33.959 24.8494 33.8927C24.7501 33.8263 24.6727 33.7321 24.6271 33.6218C24.5814 33.5115 24.5694 33.3901 24.5927 33.273C24.616 33.1559 24.6734 33.0484 24.7579 32.964L24.9533 32.7685C25.0093 32.7122 25.0758 32.6675 25.1492 32.637C25.2225 32.6064 25.3011 32.5906 25.3805 32.5905C25.4599 32.5904 25.5385 32.606 25.6119 32.6363C25.6853 32.6666 25.752 32.7112 25.8082 32.7673C25.8643 32.8235 25.9088 32.8902 25.9392 32.9636C25.9695 33.0369 25.9851 33.1156 25.985 33.195C25.9849 33.2744 25.9691 33.353 25.9385 33.4263C25.908 33.4996 25.8633 33.5662 25.807 33.6222L25.6115 33.8176C25.5555 33.8737 25.489 33.9182 25.4158 33.9486C25.3425 33.9789 25.264 33.9945 25.1847 33.9944ZM25.3802 25.9784C25.3009 25.9785 25.2224 25.9629 25.1491 25.9326C25.0759 25.9023 25.0093 25.8578 24.9533 25.8017L24.7579 25.6062C24.7015 25.5502 24.6568 25.4837 24.6263 25.4104C24.5958 25.3371 24.58 25.2585 24.5799 25.1791C24.5798 25.0996 24.5953 25.021 24.6257 24.9476C24.656 24.8742 24.7005 24.8075 24.7567 24.7514C24.8128 24.6952 24.8795 24.6507 24.9529 24.6204C25.0263 24.59 25.1049 24.5745 25.1844 24.5746C25.2638 24.5747 25.3424 24.5905 25.4157 24.621C25.489 24.6515 25.5555 24.6963 25.6115 24.7526L25.807 24.948C25.8914 25.0324 25.9489 25.14 25.9721 25.2571C25.9954 25.3741 25.9835 25.4955 25.9378 25.6058C25.8921 25.7161 25.8147 25.8104 25.7155 25.8767C25.6162 25.943 25.4996 25.9784 25.3802 25.9784Z" fill="#365E7D"/>
<path d="M30.9354 29.8873H29.2902C29.2109 29.8873 29.1324 29.8717 29.0591 29.8414C28.9859 29.811 28.9194 29.7666 28.8633 29.7105C28.8072 29.6544 28.7628 29.5879 28.7325 29.5147C28.7021 29.4414 28.6865 29.3629 28.6865 29.2836V26.0978C28.6865 26.0185 28.7021 25.94 28.7325 25.8668C28.7628 25.7935 28.8072 25.727 28.8633 25.6709C28.9194 25.6149 28.9859 25.5704 29.0591 25.5401C29.1324 25.5097 29.2109 25.4941 29.2902 25.4941C29.3694 25.4941 29.4479 25.5097 29.5212 25.5401C29.5944 25.5704 29.661 25.6149 29.717 25.6709C29.7731 25.727 29.8176 25.7935 29.8479 25.8668C29.8782 25.94 29.8938 26.0185 29.8938 26.0978V28.68H30.9354C31.2688 28.68 31.5391 28.9502 31.5391 29.2836C31.5391 29.6171 31.2689 29.8873 30.9354 29.8873Z" fill="#2B4D66"/>
<path d="M34.7619 7.938H29.0039V3.16804C29.0039 1.42264 30.4188 0.0078125 32.1641 0.0078125C33.9095 0.0078125 35.3244 1.42272 35.3244 3.16804V7.37544C35.3244 7.44931 35.3099 7.52247 35.2816 7.59073C35.2533 7.65898 35.2119 7.721 35.1597 7.77324C35.1074 7.82549 35.0454 7.86692 34.9772 7.89519C34.9089 7.92346 34.8358 7.93801 34.7619 7.938Z" fill="#EAB14D"/>
<path d="M33.1939 0.180283C32.8627 0.0660034 32.5148 0.00771515 32.1644 0.00781262C30.4191 0.00781262 29.0042 1.42272 29.0042 3.16804V7.938H31.0632V3.16804C31.0631 1.78329 31.9542 0.607396 33.1939 0.180283Z" fill="#E49542"/>
</g>
<defs>
<clipPath id="clip0_744_26505">
<rect width="40" height="40" fill="white"/>
</clipPath>
</defs>
</svg>
