<svg width="40" height="40" viewBox="0 0 40 40" fill="none" xmlns="http://www.w3.org/2000/svg">
  <g clip-path="url(#clip0_825_16929)">
    <path d="M26.0654 9.63352C26.0654 12.2809 25.116 14.5724 23.2431 16.4456C21.3702 18.3185 19.0784 19.2679 16.431 19.2679H16.4264C13.7823 19.267 11.492 18.3176 9.61914 16.4456C7.74602 14.5724 6.79688 12.2809 6.79688 9.63352C6.79688 6.98703 7.74602 4.69516 9.61914 2.82227C11.4911 0.95 13.7815 0.0009375 16.4264 0H16.431C19.0775 0 21.3693 0.949375 23.2431 2.82227C25.116 4.69516 26.0654 6.98703 26.0654 9.63352Z" fill="#FFBB85"/>
    <path d="M33.3725 33.1211C33.3725 35.2098 32.7081 36.9008 31.3995 38.1461C30.1063 39.377 28.3956 40.0004 26.3159 40.0004H7.0557C4.97586 40.0004 3.26539 39.377 1.97289 38.1462C0.663594 36.8998 0 35.2091 0 33.1212C0 32.3179 0.0265625 31.5232 0.0796875 30.7591C0.133594 29.9778 0.242969 29.1276 0.404063 28.2307C0.566406 27.3264 0.775156 26.4716 1.02516 25.6904C1.28453 24.8816 1.63547 24.084 2.06969 23.3198C2.52078 22.5266 3.05055 21.8357 3.64437 21.2669C4.26703 20.6715 5.02805 20.1933 5.90789 19.8448C6.78469 19.498 7.75664 19.3223 8.79672 19.3223C9.20469 19.3223 9.59984 19.4892 10.3616 19.9855C10.9041 20.3388 11.4482 20.6896 11.994 21.038C12.5177 21.3719 13.227 21.685 14.1037 21.9679C14.8743 22.2172 15.6564 22.3563 16.4291 22.3804C16.5143 22.3835 16.5995 22.3851 16.6846 22.3851C17.5427 22.3851 18.4106 22.2444 19.2663 21.9679C20.1431 21.685 20.8533 21.3718 21.3766 21.038C21.9222 20.69 22.4661 20.3394 23.0084 19.9864C23.7708 19.4892 24.1653 19.3223 24.5743 19.3223C25.6134 19.3223 26.5854 19.4981 27.4627 19.8448C28.3426 20.1932 29.1037 20.6724 29.7256 21.2669C30.3205 21.8357 30.8502 22.5266 31.3009 23.3198C31.7355 24.0846 32.0871 24.8816 32.3455 25.6895C32.5959 26.4716 32.8052 27.3264 32.9675 28.2313C33.1277 29.1291 33.2373 29.9793 33.291 30.7584C33.345 31.5202 33.3716 32.3148 33.3725 33.1211Z" fill="#6AA9FF"/>
    <path d="M16.4343 19.2679H16.4297V0H16.4343C19.0808 0 21.3726 0.949375 23.2464 2.82227C25.1193 4.69516 26.0687 6.98703 26.0687 9.63352C26.0687 12.2809 25.1193 14.5724 23.2464 16.4456C21.3735 18.3185 19.0816 19.2679 16.4343 19.2679Z" fill="#F5A86C"/>
    <path d="M33.373 33.121C33.373 35.2097 32.7087 36.9007 31.4001 38.146C30.1068 39.3769 28.3962 40.0003 26.3165 40.0003H16.4297V22.3804C16.5148 22.3834 16.6 22.3849 16.6852 22.3849C17.5433 22.3849 18.4112 22.2443 19.2669 21.9677C20.1437 21.6849 20.8538 21.3718 21.3772 21.0379C21.9227 20.6899 22.4667 20.3394 23.009 19.9863C23.7713 19.4891 24.1659 19.3223 24.5748 19.3223C25.6139 19.3223 26.5859 19.498 27.4633 19.8447C28.3431 20.1931 29.1042 20.6723 29.7262 21.2668C30.321 21.8356 30.8508 22.5266 31.3015 23.3197C31.7361 24.0845 32.0877 24.8816 32.3461 25.6894C32.5964 26.4716 32.8057 27.3263 32.968 28.2312C33.1283 29.1291 33.2378 29.9792 33.2916 30.7584C33.3455 31.5201 33.3721 32.3148 33.373 33.121Z" fill="#2682FF"/>
    <path d="M32.9287 19.5078C32.6179 19.5078 32.3198 19.3844 32.1002 19.1645L27.8764 14.9409C26.4214 13.4858 26.4214 11.1184 27.8764 9.66328C28.5813 8.95844 29.5184 8.57031 30.5152 8.57031C31.4092 8.57031 32.2552 8.88258 32.9287 9.45547C33.6022 8.88258 34.4482 8.57031 35.3422 8.57031C36.3391 8.57031 37.2762 8.95852 37.9809 9.66336C38.6859 10.3681 39.0741 11.3053 39.0741 12.3021C39.0741 13.2989 38.6859 14.2361 37.981 14.9409L33.7574 19.1645C33.5376 19.3843 33.2396 19.5078 32.9287 19.5078Z" fill="#FF7083"/>
    <path d="M35.3423 8.57031C34.4487 8.57031 33.603 8.88227 32.9297 9.45477V19.5077C33.2402 19.5075 33.5379 19.3841 33.7574 19.1645L37.981 14.9409C38.6859 14.2361 39.0741 13.2989 39.0741 12.3021C39.0741 11.3053 38.6859 10.3681 37.9811 9.66336C37.2762 8.95852 36.3391 8.57031 35.3423 8.57031Z" fill="#E63950"/>
    <path d="M29.8945 40C24.8328 40 20.7148 35.882 20.7148 30.8203C20.7148 25.7586 24.8328 21.6406 29.8945 21.6406C34.9563 21.6406 39.0742 25.7586 39.0742 30.8203C39.0742 35.882 34.9563 40 29.8945 40Z" fill="#FFF5F5"/>
    <path d="M39.0742 30.8203C39.0742 25.7586 34.9563 21.6406 29.8945 21.6406V40C34.9563 40 39.0742 35.882 39.0742 30.8203Z" fill="#EBE1DC"/>
    <path d="M29.8945 35.8984C27.558 35.8984 25.9883 34.6426 25.9883 32.7734C25.9883 30.9295 27.6588 28.8672 29.8945 28.8672C32.1302 28.8672 33.8008 30.9295 33.8008 32.7734C33.8008 34.6426 32.231 35.8984 29.8945 35.8984Z" fill="#D6995C"/>
    <path d="M29.8945 27.3047C30.5417 27.3047 31.0664 26.78 31.0664 26.1328C31.0664 25.4856 30.5417 24.9609 29.8945 24.9609C29.2473 24.9609 28.7227 25.4856 28.7227 26.1328C28.7227 26.78 29.2473 27.3047 29.8945 27.3047Z" fill="#D6995C"/>
    <path d="M26.3086 28.4336C26.9558 28.4336 27.4805 27.9089 27.4805 27.2617C27.4805 26.6145 26.9558 26.0898 26.3086 26.0898C25.6614 26.0898 25.1367 26.6145 25.1367 27.2617C25.1367 27.9089 25.6614 28.4336 26.3086 28.4336Z" fill="#D6995C"/>
    <path d="M33.8008 32.7734C33.8008 30.9295 32.1302 28.8672 29.8945 28.8672V35.8984C32.231 35.8984 33.8008 34.6426 33.8008 32.7734ZM31.0664 26.1328C31.0664 25.4856 30.5417 24.9609 29.8945 24.9609V27.3047C30.5417 27.3047 31.0664 26.78 31.0664 26.1328Z" fill="#B56D3C"/>
    <path d="M33.4805 28.4336C34.1277 28.4336 34.6523 27.9089 34.6523 27.2617C34.6523 26.6145 34.1277 26.0898 33.4805 26.0898C32.8333 26.0898 32.3086 26.6145 32.3086 27.2617C32.3086 27.9089 32.8333 28.4336 33.4805 28.4336Z" fill="#B56D3C"/>
  </g>
  <defs>
    <clipPath id="clip0_825_16929">
      <rect width="40" height="40" fill="white"/>
    </clipPath>
  </defs>
</svg>