<svg width="40" height="40" viewBox="0 0 40 40" fill="none" xmlns="http://www.w3.org/2000/svg">
  <g clip-path="url(#clip0_1488_15005)">
    <path d="M33.9025 14.6367H9.73284C8.39344 14.6367 7.30859 15.7216 7.30859 17.061V34.8549H36.3268V17.061C36.3268 15.7216 35.2419 14.6367 33.9025 14.6367Z" fill="#E1D9E1"/>
    <path d="M9.73438 17.0625H33.9041V32.4322H9.73438V17.0625Z" fill="#4F7CE7"/>
    <path d="M31.1829 21.3816L27.4374 19.1089C27.3848 19.077 27.3246 19.0596 27.263 19.0586C27.2014 19.0577 27.1407 19.0731 27.087 19.1033C27.0333 19.1335 26.9887 19.1775 26.9576 19.2306C26.9265 19.2838 26.9102 19.3443 26.9102 19.4059V23.9513C26.9102 24.224 27.2071 24.3877 27.4374 24.2483L31.1829 21.9755C31.4071 21.8422 31.4071 21.521 31.1829 21.3816Z" fill="white"/>
    <path opacity="0.1" d="M23.8601 30.6125C25.5328 30.6125 26.8904 29.2549 26.8904 27.5822V24.5519H24.5207V14.6367H9.73284C8.39344 14.6367 7.30859 15.7216 7.30859 17.061V30.6125H23.8601Z" fill="black"/>
    <path d="M4.85547 34.8555C4.85547 36.8676 6.48577 38.4918 8.49183 38.4918H35.1464C37.1585 38.4918 38.7827 36.8615 38.7827 34.8555H4.85547Z" fill="#0E4B5C"/>
    <path d="M4.85511 9.14647V6.37678C4.85511 5.37072 4.04299 4.55859 3.03693 4.55859C2.03087 4.55859 1.21875 5.37072 1.21875 6.37678V9.14647H4.85511ZM8.49148 25.7586V27.5768C8.49148 28.5828 7.67936 29.395 6.6733 29.395H23.8612C24.8672 29.395 25.6794 28.5828 25.6794 27.5768V25.7586H8.49148Z" fill="#FF7146"/>
    <path d="M8.49186 27.583V25.7649H23.3161V6.37092C23.3161 5.36486 22.504 4.55273 21.4979 4.55273H3.03125C4.03731 4.55273 4.84943 5.36486 4.84943 6.37092V27.577C4.84943 28.583 5.66155 29.3952 6.66761 29.3952C7.67367 29.3952 8.49186 28.583 8.49186 27.583Z" fill="#E5E5E5"/>
    <path d="M35.9387 11.5392C35.8538 11.5392 35.769 11.515 35.6902 11.4665L32.1205 9.13922C31.9084 8.99982 31.8477 8.72103 31.9871 8.50891C32.1265 8.29679 32.4053 8.23619 32.6174 8.37558L36.1932 10.6968C36.4053 10.8362 36.4659 11.115 36.3265 11.3271C36.2356 11.4665 36.0902 11.5392 35.9387 11.5392ZM32.3629 6.59982C32.287 6.60058 32.2122 6.58208 32.1454 6.54604C32.0786 6.51 32.0221 6.45761 31.9811 6.39376C31.9481 6.34374 31.9253 6.28766 31.9142 6.22878C31.903 6.1699 31.9036 6.10938 31.9161 6.05075C31.9285 5.99212 31.9524 5.93653 31.9864 5.88721C32.0205 5.8379 32.064 5.79583 32.1144 5.76346L35.6902 3.44225C35.9023 3.30285 36.1811 3.36346 36.3205 3.57558C36.4599 3.7877 36.3993 4.06649 36.1871 4.20588L32.6114 6.5271C32.5387 6.58164 32.4478 6.59982 32.3629 6.59982Z" fill="#658C99"/>
    <path d="M30.6993 9.57641C31.8709 9.57641 32.8205 8.62671 32.8205 7.4552C32.8205 6.28368 31.8709 5.33398 30.6993 5.33398C29.5278 5.33398 28.5781 6.28368 28.5781 7.4552C28.5781 8.62671 29.5278 9.57641 30.6993 9.57641Z" fill="#FFC040"/>
    <path d="M37.0731 4.37663C37.8664 4.37663 38.5094 3.73355 38.5094 2.94027C38.5094 2.14699 37.8664 1.50391 37.0731 1.50391C36.2798 1.50391 35.6367 2.14699 35.6367 2.94027C35.6367 3.73355 36.2798 4.37663 37.0731 4.37663Z" fill="#1980B3"/>
    <path d="M37.0731 13.4001C37.8664 13.4001 38.5094 12.757 38.5094 11.9637C38.5094 11.1704 37.8664 10.5273 37.0731 10.5273C36.2798 10.5273 35.6367 11.1704 35.6367 11.9637C35.6367 12.757 36.2798 13.4001 37.0731 13.4001Z" fill="#1980B3"/>
    <path d="M7.27876 16.3583H20.6485C20.8969 16.3583 21.103 16.1522 21.103 15.9038C21.103 15.6553 20.8969 15.4492 20.6485 15.4492H7.27876C7.15821 15.4492 7.0426 15.4971 6.95735 15.5824C6.87211 15.6676 6.82422 15.7832 6.82422 15.9038C6.82422 16.0243 6.87211 16.1399 6.95735 16.2252C7.0426 16.3104 7.15821 16.3583 7.27876 16.3583ZM20.6424 17.8553H7.27876C7.03028 17.8553 6.82422 18.0613 6.82422 18.3098C6.82422 18.5583 7.03028 18.7644 7.27876 18.7644H20.6485C20.8969 18.7644 21.103 18.5583 21.103 18.3098C21.103 18.0613 20.8969 17.8553 20.6424 17.8553ZM20.6424 20.2613H7.27876C7.03028 20.2613 6.82422 20.4674 6.82422 20.7159C6.82422 20.9644 7.03028 21.1704 7.27876 21.1704H20.6485C20.8969 21.1704 21.103 20.9644 21.103 20.7159C21.103 20.4674 20.8969 20.2613 20.6424 20.2613ZM20.6424 22.6613H7.27876C7.03028 22.6613 6.82422 22.8674 6.82422 23.1159C6.82422 23.3644 7.03028 23.5704 7.27876 23.5704H20.6485C20.8969 23.5704 21.103 23.3644 21.103 23.1159C21.103 22.8674 20.8969 22.6613 20.6424 22.6613Z" fill="#3CC9D7"/>
    <path d="M7.28125 6.97656H12.257V12.6553H7.28125V6.97656Z" fill="#C3B8C3"/>
    <path d="M12.2509 7.4008V6.97656H11.4206L7.28125 11.9463V12.6553H7.87519L12.2509 7.4008Z" fill="#E1D9E1"/>
    <path d="M38.5006 37.2842C35.6915 39.5743 26.9204 39.5743 24.1687 37.2842C21.3597 34.9941 21.6463 25.2039 24.1687 22.6276C26.6911 20.0512 35.9782 20.0512 38.5006 22.6276C41.023 25.2039 41.3096 34.9942 38.5006 37.2842Z" fill="#52CE06"/>
    <g opacity="0.2">
      <path d="M31.3836 33.2764C28.8612 35.2802 26.0521 36.3108 23.4151 36.368C21.4659 33.0474 21.8673 24.9748 24.1604 22.6274C26.2241 20.5091 32.7021 20.1083 36.4284 21.4251C37.3456 25.2038 35.4538 30.013 31.3836 33.2764Z" fill="white"/>
    </g>
    <path d="M30.0252 34.9373C29.6239 34.9373 29.2226 34.7655 28.9933 34.422L25.783 30.2998C25.3244 29.7273 25.439 28.9258 26.0123 28.4678C26.5856 28.0097 27.3881 28.1243 27.8468 28.6968L30.0252 31.5021L34.8407 25.2616C35.2993 24.6891 36.1019 24.5746 36.6752 25.0326C37.2484 25.4906 37.3631 26.2922 36.9045 26.8647L31.0571 34.422C30.7705 34.7083 30.4265 34.9373 30.0252 34.9373Z" fill="white"/>
  </g>
  <defs>
    <clipPath id="clip0_1488_15005">
      <rect width="40" height="40" fill="white"/>
    </clipPath>
  </defs>
</svg>