<svg width="25" height="24" viewBox="0 0 25 24" fill="none" xmlns="http://www.w3.org/2000/svg">
  <g clip-path="url(#clip0_737_16864)">
    <path d="M21.8682 21.7492C18.1957 24.7471 6.72879 24.7471 3.13131 21.7492C-0.541119 18.7513 -0.166388 5.9353 3.13131 2.56268C6.429 -0.809954 18.5705 -0.809954 21.8682 2.56268C25.1659 5.9353 25.5406 18.7514 21.8682 21.7492Z" fill="#E63950"/>
    <g opacity="0.2">
      <path d="M12.5745 16.5053C9.27679 19.1284 5.60437 20.4775 2.1568 20.5524C-0.391428 16.2055 0.133226 5.63791 3.13113 2.56508C5.82923 -0.207961 14.2983 -0.732616 19.1699 0.991167C20.369 5.93771 17.8958 12.2332 12.5745 16.5053Z" fill="white"/>
    </g>
    <path d="M7.53014 18.0051C7.82994 18.4547 8.35454 18.6796 8.8792 18.6796C9.40385 18.6796 9.85352 18.3798 10.2282 18.0051L17.8729 8.11202C18.4725 7.36256 18.3226 6.31331 17.5731 5.71372C16.8236 5.11413 15.7744 5.26405 15.1748 6.01351L8.8792 14.1828L7.53014 16C7.06975 16.9636 7.0227 17.3675 7.53014 18.0051Z" fill="white"/>
    <path d="M17.879 18.0051C17.5792 18.4547 17.0546 18.6796 16.53 18.6796C16.0053 18.6796 15.5557 18.3798 15.1809 18.0051L7.53629 8.11202C6.9367 7.36256 7.08662 6.31331 7.83608 5.71372C8.58555 5.11413 9.6348 5.26405 10.2344 6.01351L16.53 14.1828L17.879 16C18.3394 16.9636 18.3865 17.3675 17.879 18.0051Z" fill="white"/>
  </g>
  <defs>
    <clipPath id="clip0_737_16864">
      <rect width="24" height="24" fill="white" transform="translate(0.5)"/>
    </clipPath>
  </defs>
</svg>