<svg width="56" height="56" viewBox="0 0 56 56" fill="none" xmlns="http://www.w3.org/2000/svg">
<path d="M42.5377 0H12.8724C10.9339 0 9.36255 1.57139 9.36255 3.50984V20.2552H46.0476V3.50984C46.0476 1.57139 44.4762 0 42.5377 0Z" fill="#BCA98A"/>
<path d="M45.0256 5.91211H10.3844C8.12147 5.91211 6.28638 7.7472 6.28638 10.0107V29.5646H49.1238V10.0107C49.1238 7.7472 47.2888 5.91211 45.0256 5.91211Z" fill="#E0CFAF"/>
<path d="M52.2352 17.5312V39.9257H3.17456V17.5312C3.17456 14.9395 5.27609 12.8379 7.86828 12.8379H47.5414C50.1336 12.8379 52.2352 14.9395 52.2352 17.5312Z" fill="#FFF5D7"/>
<path d="M52.2352 24.8477V39.9264H3.17456V24.8934C3.37004 24.8629 3.56757 24.8476 3.7654 24.8477H11.4143C12.007 24.8476 12.5832 25.0428 13.0539 25.4031C13.5245 25.7634 13.8633 26.2686 14.018 26.8408L15.1151 30.8958C15.2696 31.468 15.6083 31.9734 16.0789 32.3339C16.5494 32.6943 17.1256 32.8896 17.7184 32.8897H38.2822C39.5015 32.8897 40.5675 32.0729 40.8866 30.8958L41.9826 26.8408C42.3004 25.6646 43.3677 24.8477 44.587 24.8477H52.2352Z" fill="#E0CFAF"/>
<path d="M56 30.7332V44.491C56 46.5695 54.3141 48.2554 52.2342 48.2554H3.76447C1.68547 48.2554 0 46.57 0 44.491V30.7332C0 28.6542 1.68547 26.9688 3.76447 26.9688H11.4138C12.0066 26.9687 12.5829 27.164 13.0537 27.5244C13.5244 27.8847 13.8633 28.3901 14.018 28.9623L15.1143 33.0173C15.4322 34.194 16.4998 35.0109 17.7183 35.0109H38.2817C38.8745 35.011 39.4509 34.8158 39.9216 34.4554C40.3923 34.095 40.7312 33.5896 40.8858 33.0173L41.9821 28.9623C42.1368 28.3901 42.4757 27.8847 42.9464 27.5244C43.4171 27.164 43.9934 26.9688 44.5862 26.9688H52.2342C54.3141 26.9688 56 28.6542 56 30.7332Z" fill="#996441"/>
<path d="M3.7647 46.5421C2.6342 46.5421 1.71436 45.6223 1.71436 44.4917V30.7339C1.71436 29.6034 2.6342 28.6836 3.7647 28.6836H11.4141C11.63 28.6839 11.8399 28.7552 12.0114 28.8866C12.1829 29.0179 12.3064 29.2019 12.363 29.4104L13.4594 33.4654C13.9785 35.3849 15.7301 36.7257 17.7185 36.7257H38.2819C40.2708 36.7257 42.022 35.385 42.5411 33.4652L43.6375 29.4104C43.6941 29.2019 43.8178 29.0178 43.9893 28.8865C44.1608 28.7552 44.3708 28.6839 44.5868 28.6836H52.2349C53.3658 28.6836 54.2861 29.6034 54.2861 30.7339V44.4913C54.2861 45.6223 53.3658 46.5417 52.2349 46.5417H3.7647V46.5421Z" fill="#BA7E56"/>
<path d="M25.4576 19.5481H9.26112C9.03381 19.5481 8.81581 19.4578 8.65508 19.2971C8.49435 19.1364 8.40405 18.9184 8.40405 18.691C8.40405 18.4637 8.49435 18.2457 8.65508 18.085C8.81581 17.9243 9.03381 17.834 9.26112 17.834H25.4576C25.931 17.8341 26.3146 18.2178 26.3146 18.6912C26.3146 19.1645 25.931 19.5481 25.4576 19.5481ZM19.7607 23.8993H9.26112C8.78774 23.8993 8.40405 23.5156 8.40405 23.0422C8.40405 22.5688 8.78774 22.1851 9.26112 22.1851H19.7607C20.2341 22.1851 20.6182 22.5688 20.6182 23.0422C20.6182 23.5156 20.2341 23.8993 19.7607 23.8993Z" fill="#FC445F"/>
</svg>
