<svg width="40" height="40" viewBox="0 0 40 40" fill="none" xmlns="http://www.w3.org/2000/svg">
<g clip-path="url(#clip0_744_26408)">
<path d="M28.2355 37.6479L29.8434 38.2557L31.7649 37.6479L32.4512 34.1184L31.7649 30.589L28.2609 29.0156C27.3742 29.4334 26.569 30.0059 25.8833 30.7064L28.2355 37.6479Z" fill="#59F3DE"/>
<path d="M39.9999 36.4698C39.9999 33.1859 38.0798 30.3471 35.2937 29.0254L31.7646 30.5874V37.6463L35.6026 38.7428L39.9999 37.6463V36.4698Z" fill="#00CDD6"/>
<path d="M27.0586 25.8817C27.0586 28.4764 29.1696 30.5875 31.7645 30.5875L32.9409 25.8817L31.7645 21.1758C29.1697 21.1758 27.0586 23.2868 27.0586 25.8817Z" fill="#FFDDCE"/>
<path d="M36.4705 25.8817C36.4705 23.2869 34.3596 21.1758 31.7646 21.1758V30.5875C34.3594 30.5875 36.4705 28.4766 36.4705 25.8817Z" fill="#FFBDA9"/>
<path d="M31.7645 39.9994H28.2351L27.6665 38.6549L28.2351 37.6465H31.7645L32.4508 38.823L31.7645 39.9994Z" fill="#00CDD6"/>
<path d="M31.7646 37.6465H39.9999V39.9994H31.7646V37.6465Z" fill="#00AFD2"/>
<path d="M0 36.4714V37.6479L4.11765 38.3276L8.2353 37.6479L8.94118 34.1184L8.2353 30.589L4.72863 29.0176C1.92824 30.3344 0 33.1864 0 36.4714Z" fill="#59F3DE"/>
<path d="M14.1175 30.7069C13.4342 30.0075 12.6317 29.4354 11.7476 29.0176L8.23535 30.5891V37.6479L10.0067 38.3611L11.7648 37.6479L14.1175 30.7069Z" fill="#00CDD6"/>
<path d="M3.5293 25.8817C3.5293 28.4764 5.64028 30.5875 8.23518 30.5875L9.41165 25.8817L8.23518 21.1758C5.64043 21.1758 3.5293 23.2868 3.5293 25.8817Z" fill="#FFDDCE"/>
<path d="M12.9412 25.8817C12.9412 23.2869 10.8303 21.1758 8.23535 21.1758V30.5875C10.8301 30.5875 12.9412 28.4766 12.9412 25.8817Z" fill="#FFBDA9"/>
<path d="M11.7646 36.4699V37.6464L15.8823 38.3595L19.9999 37.6464L20.7058 34.117L19.9999 30.5875L16.4926 29.0156C13.6932 30.3346 11.7646 33.1834 11.7646 36.4699Z" fill="#FF7C45"/>
<path d="M28.2353 36.4696C28.2353 33.1859 26.3153 30.3473 23.5296 29.0254L20 30.5873V37.6461L23.5294 38.6545L28.2353 37.6461V36.4696Z" fill="#FF415C"/>
<path d="M15.2939 25.8817C15.2939 28.4764 17.4049 30.5875 19.9998 30.5875L21.1763 25.8817L19.9998 21.1758C17.4051 21.1758 15.2939 23.2868 15.2939 25.8817Z" fill="#FFDDCE"/>
<path d="M24.7059 25.8817C24.7059 23.2869 22.5949 21.1758 20 21.1758V30.5875C22.5947 30.5875 24.7059 28.4766 24.7059 25.8817Z" fill="#FFBDA9"/>
<path d="M7.05884 0V14.1176H15.9833L20 18.1344L21.1765 9.06714L20 0H7.05884Z" fill="#ABE751"/>
<path d="M32.9412 14.1176V0H20V18.1344L24.0167 14.1176H32.9412Z" fill="#00DA7B"/>
<path d="M11.7646 5.88281V8.23575H19.9999L21.1764 7.05928L19.9999 5.88281H11.7646Z" fill="#F2F4F9"/>
<path d="M28.2353 5.88281H20V8.23575H28.2353V5.88281Z" fill="#DBF0F9"/>
<path d="M8.2353 39.9994H0V37.6465H8.2353L8.94118 38.823L8.2353 39.9994Z" fill="#00CDD6"/>
<path d="M11.7648 39.9994H8.23535V37.6465H11.7648L12.6014 38.823L11.7648 39.9994Z" fill="#00AFD2"/>
<path d="M19.9999 39.9994H11.7646V37.6465H19.9999L20.7058 38.823L19.9999 39.9994Z" fill="#FF415C"/>
<path d="M20 37.6465H28.2353V39.9994H20V37.6465Z" fill="#F20050"/>
</g>
<defs>
<clipPath id="clip0_744_26408">
<rect width="40" height="40" fill="white"/>
</clipPath>
</defs>
</svg>
