<svg width="40" height="40" viewBox="0 0 40 40" fill="none" xmlns="http://www.w3.org/2000/svg">
<g clip-path="url(#clip0_744_26357)">
<path d="M19.4932 15.7696L17.9037 15.025L16.2135 12.1468L17.3001 9.57234L17.5929 9.16992H15.8677L12.4442 10.8869L12.3869 11.2165L12.4912 11.5442L12.2586 11.9542L11.5625 15.9568L12.1491 16.1318L13.8556 18.4859L14.6704 19.3744H15.2678L17.3805 17.2987L19.614 16.6348L19.9752 16.2789L19.4932 15.7696Z" fill="#CE7BBC"/>
<path d="M12.0933 15.3524C12.0933 12.3503 14.3735 9.88072 17.2966 9.58103L17.3003 9.57213L18.1085 8.46142C17.1594 7.66314 15.9327 7.18572 14.5991 7.20361C13.3939 7.21978 12.2897 7.64033 11.4056 8.33299L11.7872 9.33064L12.4914 11.5439L11.4056 13.4581L9.79523 14.381L9.33156 15.0252C9.32648 15.0252 9.32148 15.0249 9.31641 15.0248V15.0257C9.32172 15.0257 9.32703 15.026 9.33234 15.026L9.65445 15.387L12.1469 16.1306C12.1116 15.8727 12.0937 15.6127 12.0933 15.3524Z" fill="#C464B0"/>
<path d="M28.3641 13.092C28.3439 13.0316 28.022 10.436 28.022 10.436L28.5427 9.10547L26.4755 9.16836L23.2963 12.1452L22.7305 15.8483L23.1577 18.3874L25.2988 19.7117L30.3156 15.7278L30.6225 15.0248C30.6441 15.0252 30.6659 15.0254 30.6876 15.0256V15.0223C30.6659 15.0227 30.6446 15.0239 30.6229 15.0239C30.623 15.024 28.3842 13.1523 28.3641 13.092Z" fill="#FFE02F"/>
<path d="M23.297 15.3524C23.297 12.4023 25.4992 9.96822 28.3491 9.60018L28.5648 9.04893L28.5809 8.31049C27.6602 7.60361 26.5066 7.18682 25.2594 7.20361C23.9703 7.22088 22.7964 7.70049 21.8842 8.48127L19.9785 16.2787L20.5162 16.7553L25.2123 19.6599C24.0363 18.598 23.297 17.0616 23.297 15.3524Z" fill="#FBC700"/>
<path d="M32.7764 15.4609L31.948 15.6576L31.0627 16.1002L29.9058 17.6295L29.3223 19.4839V24.4906L29.8655 25.0942L30.2273 25.2094H34.9812C35.5986 25.2094 36.0991 24.7089 36.0991 24.0916V20.477C36.0991 18.2329 34.7247 16.295 32.7764 15.4609Z" fill="#FF5CA8"/>
<path d="M29.4535 24.0915V20.4769C29.4535 18.2327 30.8279 16.2948 32.7762 15.4608C32.0801 15.1622 31.3289 15.0134 30.5715 15.024C27.9842 15.0586 25.8535 16.9221 25.3213 19.3597V19.7118L25.7775 21.4556V24.8091L26.1439 25.1957C26.1982 25.2038 26.2532 25.2093 26.3096 25.2093H30.5712C29.9539 25.2093 29.4535 24.7088 29.4535 24.0915Z" fill="#FF3C98"/>
<path d="M14.694 19.372C14.323 17.589 13.0741 16.1184 11.4245 15.4355H10.6598L8.84898 17.0766L8.02406 19.0686L7.80273 20.117V24.5605L8.39125 25.0948L8.87844 25.21H13.6896C13.7461 25.21 13.8012 25.2045 13.8554 25.1964L14.2414 24.4879V21.832L14.9389 20.1172L14.694 19.372Z" fill="#73D578"/>
<path d="M8.03258 24.0915V20.5485C8.03258 18.2578 9.42844 16.2644 11.4245 15.4348C10.745 15.1534 10.0153 15.0136 9.28 15.024C6.28523 15.0641 3.90039 17.5536 3.90039 20.5486V24.0916C3.90039 24.7089 4.40086 25.2094 5.0182 25.2094H9.15039C8.53305 25.2093 8.03258 24.7088 8.03258 24.0915Z" fill="#00C63A"/>
<path d="M22.0711 16.6387H20.8416L18.1587 18.7459L17.2734 20.7311V26.5527L18.0749 27.4884L18.8356 27.7527H24.885C25.5805 27.7527 26.1444 27.1889 26.1444 26.4934V22.421C26.1445 19.7676 24.4395 17.4934 22.0711 16.6387Z" fill="#00C2FB"/>
<path d="M17.9877 26.494V22.5022C17.9877 19.8225 19.683 17.5037 22.0706 16.6392C21.3802 16.39 20.6504 16.2676 19.9165 16.278C16.5424 16.3233 13.8555 19.1279 13.8555 22.5022V26.494C13.8555 27.1895 14.4193 27.7533 15.1148 27.7533H19.247C18.5515 27.7533 17.9877 27.1894 17.9877 26.494Z" fill="#00ABF2"/>
<path d="M32.4799 8.18164H32.0089L30.6461 9.20977L30.2383 10.8999L30.6461 12.7913L31.5059 14.1595L32.4799 14.5332C33.5759 13.899 34.3137 12.7148 34.3137 11.3574C34.3137 10.0001 33.5759 8.81586 32.4799 8.18164Z" fill="#FFCEBE"/>
<path d="M30.6462 11.3571C30.6462 9.99977 31.3841 8.81555 32.48 8.18133C31.9228 7.85845 31.2901 7.68874 30.6462 7.68946C28.6205 7.68946 26.9785 9.33149 26.9785 11.3571C26.9785 13.3827 28.6205 15.0248 30.6462 15.0248C31.2901 15.0255 31.9228 14.8558 32.48 14.5329C31.384 13.8986 30.6462 12.7144 30.6462 11.3571Z" fill="#FFB1A0"/>
<path d="M27.1892 0.501953H26.7035L25.6975 1.68414L24.9463 3.4682L25.228 5.06445L26.4957 6.49977L27.1893 6.70102C28.2474 6.07367 28.9571 4.9207 28.9571 3.60148C28.9571 2.28227 28.2472 1.1293 27.1892 0.501953Z" fill="#FFCEBE"/>
<path d="M25.4213 3.60157C25.4213 2.28235 26.131 1.12938 27.1891 0.502034C26.6341 0.172658 26.0005 -0.000787919 25.3552 2.69079e-06C23.3662 2.69079e-06 21.7537 1.6125 21.7537 3.60157C21.7537 5.59063 23.3662 7.20313 25.3552 7.20313C26.0005 7.20392 26.6341 7.03047 27.1891 6.7011C26.131 6.07368 25.4213 4.92078 25.4213 3.60157Z" fill="#FFB1A0"/>
<path d="M21.8343 8.44336H21.2845L20.1041 9.51828C20.1041 9.51828 19.3395 11.1979 19.3127 11.3574C19.2859 11.517 19.3127 13.2884 19.3127 13.2884L20.426 15.3399L21.1102 15.8228L21.8343 15.8494C23.1962 15.1737 24.1327 13.7697 24.1327 12.1463C24.1326 10.523 23.1961 9.11906 21.8343 8.44336Z" fill="#FFCEBE"/>
<path d="M19.5358 12.1459C19.5358 10.5225 20.4724 9.1186 21.8342 8.44281C21.2643 8.15989 20.6366 8.01299 20.0004 8.01367C17.7182 8.01367 15.8682 9.86375 15.8682 12.1459C15.8682 14.428 17.7182 16.278 20.0004 16.278C20.6366 16.2787 21.2643 16.1318 21.8342 15.8489C20.4724 15.1732 19.5358 13.7692 19.5358 12.1459Z" fill="#FFB1A0"/>
<path d="M16.5282 0.501953H16.2137L14.7918 1.76461L14.3894 3.44133V4.44734L15.221 5.97656L15.7844 6.49969L16.5282 6.70094C17.5862 6.07359 18.2959 4.92063 18.2959 3.60141C18.2959 2.28219 17.5862 1.1293 16.5282 0.501953Z" fill="#FFCEBE"/>
<path d="M14.7605 3.60157C14.7605 2.28235 15.4702 1.12938 16.5282 0.502034C15.9733 0.172656 15.3397 -0.000790362 14.6943 2.70753e-06C12.7053 2.70753e-06 11.0928 1.6125 11.0928 3.60157C11.0928 5.59063 12.7053 7.20313 14.6943 7.20313C15.3397 7.20392 15.9732 7.03047 16.5282 6.7011C15.4702 6.07368 14.7605 4.92078 14.7605 3.60157Z" fill="#FFB1A0"/>
<path d="M11.1879 8.18164H10.602L9.69422 9.16953L9.13086 10.5579V11.9663L9.71438 13.5257L10.5494 14.4714L11.1879 14.5332C12.2838 13.899 13.0217 12.7148 13.0217 11.3574C13.0217 10.0001 12.2838 8.81586 11.1879 8.18164Z" fill="#FFCEBE"/>
<path d="M9.35442 11.3571C9.35442 9.99977 10.0923 8.81555 11.1883 8.18133C10.6311 7.85845 9.99839 7.68874 9.35442 7.68946C7.3288 7.68946 5.68677 9.33149 5.68677 11.3571C5.68677 13.3827 7.3288 15.0248 9.35442 15.0248C9.99839 15.0255 10.6311 14.8558 11.1883 14.5329C10.0923 13.8986 9.35442 12.7144 9.35442 11.3571Z" fill="#FFB1A0"/>
<path d="M18.2005 33.5578L17.8438 34.0074L18.2005 36.0806L19.7409 37.5752C19.7409 37.5752 21.2833 37.8755 21.3379 37.8755C21.3925 37.8755 22.5322 37.6571 22.5322 37.6571L22.861 37.3866L22.8581 37.3698C22.8338 37.2278 22.8443 37.082 22.8888 36.9449C22.9334 36.8079 23.0106 36.6837 23.1137 36.5831L24.2688 35.4572C24.7963 34.9431 24.5052 34.0472 23.7763 33.9413L22.18 33.7093C22.0374 33.6886 21.902 33.6335 21.7854 33.5488C21.6689 33.4641 21.5746 33.3524 21.5109 33.2231L20.797 31.7767C20.4709 31.1161 19.529 31.1161 19.203 31.7767L18.4891 33.2231C18.4227 33.3572 18.3234 33.4723 18.2005 33.5578Z" fill="#FFE02F"/>
<path d="M22.8611 37.3855C22.4977 37.5069 22.117 37.5687 21.7338 37.5686C19.7664 37.5686 18.1715 35.9737 18.1715 34.0063C18.1715 33.8538 18.1822 33.7041 18.2007 33.5566C18.0874 33.6362 17.957 33.6881 17.8201 33.7082L16.2238 33.9402C15.4948 34.0461 15.2038 34.9419 15.7312 35.456L16.8863 36.582C16.9895 36.6825 17.0667 36.8067 17.1112 36.9437C17.1558 37.0808 17.1663 37.2266 17.1419 37.3686L16.8693 38.9584C16.7448 39.6844 17.5068 40.238 18.1588 39.8953L19.5866 39.1447C19.7141 39.0776 19.8561 39.0426 20.0002 39.0426C20.1443 39.0426 20.2862 39.0776 20.4137 39.1447L21.8415 39.8953C22.4935 40.238 23.2555 39.6845 23.131 38.9584L22.8611 37.3855Z" fill="#FBC700"/>
<path d="M28.3999 31.8201L28.1367 32.1517L28.3999 33.6812L29.5363 34.7837C29.5363 34.7837 30.674 35.0051 30.7143 35.0051C30.7546 35.0051 31.5953 34.844 31.5953 34.844L31.8379 34.6445L31.8358 34.6321C31.8178 34.5273 31.8256 34.4198 31.8584 34.3187C31.8913 34.2176 31.9482 34.126 32.0243 34.0518L32.8764 33.2212C33.2655 32.8419 33.0508 32.181 32.513 32.1029L31.3355 31.9318C31.2303 31.9165 31.1304 31.8758 31.0444 31.8134C30.9584 31.7509 30.8889 31.6684 30.8418 31.5731L30.3152 30.5061C30.0747 30.0188 29.3798 30.0188 29.1393 30.5061L28.6127 31.5731C28.5638 31.6721 28.4906 31.757 28.3999 31.8201Z" fill="#FFE02F"/>
<path d="M31.8384 34.6448C31.5702 34.7344 31.2894 34.78 31.0067 34.7799C29.5553 34.7799 28.3787 33.6034 28.3787 32.152C28.3787 32.0395 28.3866 31.929 28.4003 31.8203C28.3167 31.879 28.2206 31.9172 28.1195 31.9321L26.942 32.1032C26.4042 32.1813 26.1895 32.8422 26.5786 33.2215L27.4307 34.0521C27.5068 34.1263 27.5637 34.2179 27.5966 34.319C27.6294 34.4201 27.6372 34.5277 27.6192 34.6324L27.418 35.8052C27.3262 36.3409 27.8884 36.7492 28.3693 36.4964L29.4225 35.9427C29.5166 35.8932 29.6213 35.8674 29.7276 35.8674C29.8339 35.8674 29.9386 35.8932 30.0327 35.9427L31.0859 36.4964C31.5669 36.7493 32.129 36.3409 32.0371 35.8052L31.8384 34.6448Z" fill="#FBC700"/>
<path d="M36.1179 28.785L35.8994 29.0604L36.1179 30.3303L37.0614 31.2458C37.0614 31.2458 38.0061 31.4297 38.0396 31.4297C38.073 31.4297 38.7711 31.296 38.7711 31.296L38.9725 31.1303L38.9707 31.1199C38.9557 31.033 38.9622 30.9436 38.9895 30.8597C39.0167 30.7758 39.064 30.6997 39.1272 30.6381L39.8347 29.9485C40.1578 29.6336 39.9795 29.0849 39.533 29.02L38.5553 28.8779C38.4679 28.8652 38.385 28.8315 38.3136 28.7796C38.2422 28.7277 38.1845 28.6592 38.1454 28.5801L37.7082 27.6941C37.5085 27.2895 36.9315 27.2895 36.7318 27.6941L36.2946 28.5801C36.2539 28.6622 36.1932 28.7327 36.1179 28.785Z" fill="#FFE02F"/>
<path d="M38.9726 31.1304C38.75 31.2048 38.5168 31.2426 38.2821 31.2426C37.077 31.2426 36.1001 30.2657 36.1001 29.0605C36.1001 28.9672 36.1066 28.8755 36.118 28.7852C36.0486 28.8339 35.9687 28.8657 35.8848 28.878L34.9071 29.0201C34.4606 29.0849 34.2823 29.6337 34.6054 29.9486L35.3129 30.6382C35.3761 30.6998 35.4234 30.7759 35.4506 30.8598C35.4779 30.9438 35.4844 31.0331 35.4694 31.1201L35.3024 32.0938C35.2262 32.5385 35.6929 32.8777 36.0923 32.6677L36.9668 32.208C37.0449 32.1669 37.1319 32.1455 37.2201 32.1455C37.3084 32.1455 37.3953 32.1669 37.4734 32.208L38.348 32.6677C38.7473 32.8777 39.2141 32.5386 39.1378 32.0939L38.9726 31.1304Z" fill="#FBC700"/>
<path d="M8.94484 31.8201L8.68164 32.1517L8.94484 33.6812L10.0812 34.7837C10.0812 34.7837 11.2189 35.0051 11.2592 35.0051C11.2995 35.0051 12.1402 34.844 12.1402 34.844L12.3828 34.6445L12.3807 34.6321C12.3627 34.5273 12.3705 34.4198 12.4034 34.3187C12.4362 34.2176 12.4931 34.126 12.5692 34.0518L13.4213 33.2212C13.8105 32.8419 13.5957 32.181 13.058 32.1029L11.8804 31.9318C11.7752 31.9165 11.6753 31.8758 11.5893 31.8134C11.5033 31.7509 11.4338 31.6684 11.3867 31.5731L10.8601 30.5061C10.6196 30.0188 9.92477 30.0188 9.68422 30.5061L9.15758 31.5731C9.10873 31.6721 9.03553 31.7571 8.94484 31.8201Z" fill="#FFE02F"/>
<path d="M12.383 34.6448C12.1149 34.7344 11.8341 34.78 11.5514 34.7799C10.1 34.7799 8.92343 33.6034 8.92343 32.152C8.92343 32.0395 8.93132 31.929 8.94499 31.8203C8.86139 31.879 8.76524 31.9172 8.66421 31.9321L7.48663 32.1032C6.94889 32.1813 6.73413 32.8422 7.12327 33.2215L7.97538 34.0521C8.05149 34.1263 8.10843 34.2179 8.14127 34.319C8.17411 34.4201 8.18187 34.5277 8.16389 34.6324L7.96272 35.8052C7.87085 36.3409 8.43303 36.7492 8.91397 36.4964L9.96718 35.9427C10.0613 35.8932 10.166 35.8674 10.2723 35.8674C10.3785 35.8674 10.4832 35.8932 10.5773 35.9427L11.6305 36.4964C12.1115 36.7493 12.6737 36.3409 12.5818 35.8052L12.383 34.6448Z" fill="#FBC700"/>
<path d="M1.6775 28.785L1.45898 29.0604L1.6775 30.3303L2.62102 31.2458C2.62102 31.2458 3.5657 31.4297 3.59914 31.4297C3.63258 31.4297 4.33062 31.296 4.33062 31.296L4.53203 31.1303L4.53023 31.1199C4.51531 31.033 4.52176 30.9436 4.54904 30.8597C4.57631 30.7758 4.62359 30.6997 4.6868 30.6381L5.3943 29.9485C5.71734 29.6336 5.53906 29.0849 5.09258 29.02L4.11484 28.8779C4.02751 28.8652 3.94456 28.8315 3.87317 28.7796C3.80177 28.7277 3.74406 28.6592 3.705 28.5801L3.26773 27.6941C3.06805 27.2895 2.49109 27.2895 2.29141 27.6941L1.85414 28.5801C1.81351 28.6622 1.75274 28.7327 1.6775 28.785Z" fill="#FFE02F"/>
<path d="M4.53214 31.1304C4.30954 31.2048 4.07637 31.2426 3.84168 31.2426C2.6366 31.2426 1.65964 30.2657 1.65964 29.0605C1.65964 28.9672 1.66621 28.8755 1.67754 28.7852C1.60814 28.8339 1.5283 28.8657 1.44441 28.878L0.466676 29.0201C0.0201916 29.0849 -0.15809 29.6337 0.164957 29.9486L0.872457 30.6382C0.935665 30.6998 0.982943 30.7759 1.01022 30.8598C1.03749 30.9438 1.04394 31.0331 1.02902 31.1201L0.861988 32.0938C0.785738 32.5385 1.25246 32.8777 1.65183 32.6677L2.52636 32.208C2.60449 32.1669 2.69143 32.1455 2.77968 32.1455C2.86794 32.1455 2.95488 32.1669 3.033 32.208L3.90754 32.6677C4.30691 32.8777 4.77363 32.5386 4.69738 32.0939L4.53214 31.1304Z" fill="#FBC700"/>
</g>
<defs>
<clipPath id="clip0_744_26357">
<rect width="40" height="40" fill="white"/>
</clipPath>
</defs>
</svg>
