<svg width="40" height="40" viewBox="0 0 40 40" fill="none" xmlns="http://www.w3.org/2000/svg">
<g clip-path="url(#clip0_744_17322)">
<g clip-path="url(#clip1_744_17322)">
<path d="M1.97421 13.3263L15.9387 1.97057C18.305 0.0462696 21.6968 0.0462696 24.0631 1.97057L38.0276 13.3263C39.2031 14.2823 38.5272 16.1849 37.012 16.1849H2.98976C1.47468 16.1849 0.798742 14.2823 1.97421 13.3263Z" fill="#F25D1B"/>
<path d="M36.3355 20.2087H36.3403V38.1057H32.3951C22.5359 36.5049 12.6172 28.3319 12.6172 18.4912C12.6172 12.8776 17.4744 7.80633 21.4027 4.18945L36.3403 16.1846L36.3355 20.2087Z" fill="#92C7CE"/>
<path d="M32.3955 38.1048H3.65991V20.2077H3.66476L3.65991 16.1836L20.0004 3.0625L21.4032 4.18844C17.4748 7.80539 15.0322 12.8766 15.0322 18.4902C15.0322 28.3309 22.5364 36.5039 32.3955 38.1048Z" fill="#689AAA"/>
<path d="M24.0252 12.8773H15.977C14.6434 12.8773 13.5625 11.7962 13.5625 10.4628V2.41445C13.5625 1.08102 14.6434 0 15.977 0H24.0252C25.3587 0 26.4397 1.08102 26.4397 2.41445V10.4627C26.4397 11.7963 25.3587 12.8773 24.0252 12.8773Z" fill="#FFF8E6"/>
<path d="M23.2201 4.68484H22.1566C22.1037 4.68485 22.0514 4.67445 22.0026 4.65423C21.9537 4.63401 21.9094 4.60437 21.872 4.567C21.8346 4.52963 21.805 4.48526 21.7848 4.43643C21.7645 4.38761 21.7541 4.33527 21.7541 4.28242V3.21891C21.7541 2.77437 21.3938 2.41406 20.9493 2.41406H19.0522C18.6077 2.41406 18.2473 2.77437 18.2473 3.21891V4.28242C18.2474 4.33527 18.237 4.38761 18.2167 4.43643C18.1965 4.48526 18.1669 4.52963 18.1295 4.567C18.0921 4.60437 18.0478 4.63401 17.9989 4.65423C17.9501 4.67445 17.8978 4.68485 17.8449 4.68484H16.7814C16.3369 4.68484 15.9766 5.04516 15.9766 5.48969V7.3868C15.9766 7.83133 16.3369 8.19164 16.7814 8.19164H17.8449C17.8978 8.19163 17.9501 8.20203 17.9989 8.22225C18.0478 8.24247 18.0921 8.27211 18.1295 8.30948C18.1669 8.34686 18.1965 8.39122 18.2167 8.44005C18.237 8.48888 18.2474 8.54121 18.2473 8.59406V9.65758C18.2473 10.1021 18.6077 10.4624 19.0522 10.4624H20.9493C21.3938 10.4624 21.7541 10.1021 21.7541 9.65758V8.59406C21.7541 8.54121 21.7645 8.48888 21.7848 8.44005C21.805 8.39122 21.8346 8.34686 21.872 8.30948C21.9094 8.27211 21.9537 8.24247 22.0026 8.22225C22.0514 8.20203 22.1037 8.19163 22.1566 8.19164H23.2201C23.6646 8.19164 24.0249 7.83133 24.0249 7.3868V5.48969C24.0249 5.04523 23.6646 4.68484 23.2201 4.68484Z" fill="#F25D1B"/>
<path d="M30.8653 32.855C30.8653 37.9889 26.0008 39.5753 20.0002 39.5753C13.9995 39.5753 9.13501 37.9889 9.13501 32.855C9.13501 27.7211 13.9995 21.8691 20.0002 21.8691C26.0009 21.8691 30.8653 27.7211 30.8653 32.855Z" fill="#FDCB89"/>
<path d="M1.60969 40.0006H38.3904C39.2794 40.0006 40.0001 39.2799 40.0001 38.3909C40.0001 37.502 39.2794 36.7812 38.3904 36.7812H1.60969C0.720703 36.7813 0 37.502 0 38.3909C0 39.2799 0.720703 40.0006 1.60969 40.0006Z" fill="#F25D1B"/>
<path d="M30.3052 33.4473C28.7495 33.4473 27.4883 34.5798 27.4883 35.9767C27.4883 37.3737 28.7495 37.5864 30.3052 37.5864C31.8609 37.5864 33.122 37.3737 33.122 35.9767C33.1221 34.5798 31.8609 33.4473 30.3052 33.4473Z" fill="#FFEAB7"/>
<path d="M10.8061 23.4878C9.89966 22.2094 9.24083 20.4846 8.77427 18.4131C8.53146 17.335 9.38388 16.3192 10.4877 16.371C12.6088 16.4707 14.4218 16.8201 15.8383 17.4908C15.8715 19.2221 12.5168 23.2199 10.8061 23.4878Z" fill="#FDCB89"/>
<path d="M29.1947 23.4878C30.1012 22.2094 30.76 20.4846 31.2266 18.4131C31.4694 17.335 30.617 16.3192 29.5131 16.371C27.3921 16.4707 25.5791 16.8201 24.1626 17.4908C24.1294 19.2221 27.484 23.2199 29.1947 23.4878Z" fill="#FFD9A0"/>
<path d="M30.3455 25.5148C30.3455 28.9787 28.2223 31.1494 25.0787 32.19C18.8992 32.19 14.502 27.6812 14.502 22.5439C14.502 20.3773 16.4483 17.5625 18.6859 16.0652C19.1165 16.0129 19.5551 15.9863 20.0002 15.9863C25.7137 15.9864 30.3455 20.3985 30.3455 25.5148Z" fill="#FFEAB7"/>
<path d="M25.0779 32.1911C23.5776 32.6877 21.8448 32.9276 19.9994 32.9276C14.2858 32.9276 9.65405 30.633 9.65405 25.5159C9.65405 20.798 13.5921 16.6797 18.6851 16.0664C17.6235 17.7348 17.0038 19.7469 17.0038 21.9135C17.0038 27.0507 20.4887 31.3211 25.0779 32.1911Z" fill="#FCE3A0"/>
<path d="M13.5915 27.853C14.8977 27.853 15.9566 27.0097 15.9566 25.9695C15.9566 24.9292 14.8977 24.0859 13.5915 24.0859C12.2852 24.0859 11.2263 24.9292 11.2263 25.9695C11.2263 27.0097 12.2852 27.853 13.5915 27.853Z" fill="#FFA1AC"/>
<path d="M26.4103 27.853C27.7166 27.853 28.7755 27.0097 28.7755 25.9695C28.7755 24.9292 27.7166 24.0859 26.4103 24.0859C25.1041 24.0859 24.0452 24.9292 24.0452 25.9695C24.0452 27.0097 25.1041 27.853 26.4103 27.853Z" fill="#FFA1AC"/>
<path d="M21.9063 24.5232C21.9063 23.3447 21.0526 23.234 19.9994 23.234C18.9463 23.234 18.0924 23.3447 18.0924 24.5232C18.0924 25.7017 18.9462 26.657 19.9994 26.657C21.0526 26.657 21.9063 25.7017 21.9063 24.5232ZM13.9847 24.3253C13.9054 24.3253 13.8269 24.3097 13.7537 24.2794C13.6805 24.2491 13.6139 24.2046 13.5579 24.1485C13.5018 24.0925 13.4574 24.026 13.427 23.9527C13.3967 23.8795 13.3811 23.801 13.3811 23.7217V22.7559C13.3811 22.5959 13.4447 22.4423 13.5579 22.3291C13.6711 22.2159 13.8246 22.1523 13.9847 22.1523C14.1448 22.1523 14.2983 22.2159 14.4115 22.3291C14.5247 22.4423 14.5883 22.5959 14.5883 22.7559V23.7217C14.5883 23.801 14.5727 23.8795 14.5424 23.9527C14.512 24.026 14.4676 24.0925 14.4115 24.1485C14.3555 24.2046 14.2889 24.2491 14.2157 24.2794C14.1425 24.3097 14.064 24.3253 13.9847 24.3253ZM26.0141 24.3253C25.9348 24.3253 25.8563 24.3097 25.7831 24.2794C25.7098 24.2491 25.6433 24.2046 25.5872 24.1485C25.5312 24.0925 25.4867 24.026 25.4564 23.9527C25.4261 23.8795 25.4105 23.801 25.4105 23.7217V22.7559C25.4105 22.6767 25.4261 22.5982 25.4564 22.5249C25.4867 22.4517 25.5312 22.3852 25.5872 22.3291C25.6433 22.2731 25.7098 22.2286 25.7831 22.1983C25.8563 22.1679 25.9348 22.1523 26.0141 22.1523C26.0933 22.1523 26.1718 22.1679 26.2451 22.1983C26.3183 22.2286 26.3848 22.2731 26.4409 22.3291C26.4969 22.3852 26.5414 22.4517 26.5717 22.5249C26.6021 22.5982 26.6177 22.6767 26.6177 22.7559V23.7217C26.6177 23.801 26.6021 23.8795 26.5717 23.9527C26.5414 24.026 26.4969 24.0925 26.4409 24.1485C26.3848 24.2046 26.3183 24.2491 26.2451 24.2794C26.1718 24.3097 26.0933 24.3253 26.0141 24.3253Z" fill="#666667"/>
<path d="M9.69603 33.4473C8.14032 33.4473 6.87915 34.5798 6.87915 35.9767C6.87915 37.3737 8.14032 37.5864 9.69603 37.5864C11.2517 37.5864 12.5129 37.3737 12.5129 35.9767C12.5129 34.5798 11.2517 33.4473 9.69603 33.4473Z" fill="#FCE3A0"/>
</g>
</g>
<defs>
<clipPath id="clip0_744_17322">
<rect width="40" height="40" fill="white"/>
</clipPath>
<clipPath id="clip1_744_17322">
<rect width="40" height="40" fill="white"/>
</clipPath>
</defs>
</svg>
