<svg width="40" height="40" viewBox="0 0 40 40" fill="none" xmlns="http://www.w3.org/2000/svg">
<path d="M24.9999 38.6328H14.9999C14.2745 38.6328 13.7256 37.9817 13.8437 37.268L15.0937 29.768C15.1395 29.4944 15.2808 29.2459 15.4925 29.0667C15.7042 28.8875 15.9726 28.7891 16.2499 28.7891H23.7499C24.3226 28.7891 24.8117 29.2031 24.9062 29.768L26.1562 37.268C26.2742 37.9806 25.7264 38.6328 24.9999 38.6328Z" fill="#8BB9FF"/>
<path d="M25 38.6328H20V28.7891H23.75C24.3227 28.7891 24.8117 29.2031 24.9062 29.768L26.1562 37.268C26.2742 37.9806 25.7265 38.6328 25 38.6328Z" fill="#6EA3E2"/>
<path d="M28.6719 37.4609C28.6719 38.1078 28.1469 38.6328 27.5 38.6328H12.5C11.8531 38.6328 11.3281 38.1078 11.3281 37.4609C11.3281 36.8141 11.8531 36.2891 12.5 36.2891H27.5C28.1469 36.2891 28.6719 36.8141 28.6719 37.4609Z" fill="#6EA3E2"/>
<path d="M28.6719 37.4609C28.6719 38.1078 28.1469 38.6328 27.5 38.6328H20V36.2891H27.5C28.1469 36.2891 28.6719 36.8141 28.6719 37.4609Z" fill="#336BD8"/>
<path d="M38.8281 4.88281V27.6172C38.8281 28.9117 37.7789 29.9609 36.4844 29.9609H3.51562C2.22109 29.9609 1.17188 28.9117 1.17188 27.6172V4.88281C1.17188 3.58828 2.22109 2.53906 3.51562 2.53906H36.4844C37.7789 2.53906 38.8281 3.58828 38.8281 4.88281Z" fill="#F6F9F9"/>
<path d="M38.8281 4.88281V27.6172C38.8281 28.9117 37.7789 29.9609 36.4844 29.9609H20V2.53906H36.4844C37.7789 2.53906 38.8281 3.58828 38.8281 4.88281Z" fill="#E2DFF4"/>
<path d="M36.4844 1.36719H3.51562C1.57734 1.36719 0 2.94453 0 4.88281V27.6172C0 29.5555 1.57734 31.1328 3.51562 31.1328H36.4844C38.4227 31.1328 40 29.5555 40 27.6172V4.88281C40 2.94453 38.4227 1.36719 36.4844 1.36719ZM37.6562 27.6172C37.6562 28.2633 37.1305 28.7891 36.4844 28.7891H3.51562C2.86953 28.7891 2.34375 28.2633 2.34375 27.6172V4.88281C2.34375 4.23672 2.86953 3.71094 3.51562 3.71094H36.4844C37.1305 3.71094 37.6562 4.23672 37.6562 4.88281V27.6172Z" fill="#6EA3E2"/>
<path d="M40 4.88281V27.6172C40 29.5555 38.4227 31.1328 36.4844 31.1328H20V28.7891H36.4844C37.1305 28.7891 37.6562 28.2633 37.6562 27.6172V4.88281C37.6562 4.23672 37.1305 3.71094 36.4844 3.71094H20V1.36719H36.4844C38.4227 1.36719 40 2.94453 40 4.88281Z" fill="#336BD8"/>
<path d="M21.1719 2.53906V5.03906C21.1719 5.68594 20.6469 6.21094 20 6.21094C19.3531 6.21094 18.8281 5.68594 18.8281 5.03906V2.53906C18.8281 1.89219 19.3531 1.36719 20 1.36719C20.6469 1.36719 21.1719 1.89219 21.1719 2.53906Z" fill="#6EA3E2"/>
<path d="M21.1719 2.53906V5.03906C21.1719 5.68594 20.6469 6.21094 20 6.21094V1.36719C20.6469 1.36719 21.1719 1.89219 21.1719 2.53906Z" fill="#336BD8"/>
<path d="M11.25 22.5391C10.6028 22.5391 10.0781 22.0144 10.0781 21.3672V13.7891C10.0781 13.1419 10.6028 12.6172 11.25 12.6172C11.8972 12.6172 12.4219 13.1419 12.4219 13.7891V21.3672C12.4219 22.0144 11.8972 22.5391 11.25 22.5391Z" fill="#FFB454"/>
<path d="M16.25 22.5391C15.6028 22.5391 15.0781 22.0144 15.0781 21.3672V17.5391C15.0781 16.8919 15.6028 16.3672 16.25 16.3672C16.8972 16.3672 17.4219 16.8919 17.4219 17.5391V21.3672C17.4219 22.0144 16.8972 22.5391 16.25 22.5391Z" fill="#E27A4E"/>
<path d="M28.125 23.0859C31.8788 23.0859 34.9219 20.0429 34.9219 16.2891C34.9219 12.5353 31.8788 9.49219 28.125 9.49219C24.3712 9.49219 21.3281 12.5353 21.3281 16.2891C21.3281 20.0429 24.3712 23.0859 28.125 23.0859Z" fill="#FFB454"/>
<path d="M34.922 16.2891C34.922 20.0367 31.8728 23.0859 28.1251 23.0859C26.3095 23.0859 24.6032 22.3789 23.3188 21.0953L28.1251 16.2891V15.1172H33.7501C34.397 15.1172 34.922 15.6422 34.922 16.2891Z" fill="#00CB75"/>
<path d="M34.9219 16.2891H28.125V9.49219C31.8727 9.49219 34.9219 12.5414 34.9219 16.2891Z" fill="#6EA3E2"/>
<path d="M6.25 22.5391C5.60281 22.5391 5.07812 22.0144 5.07812 21.3672V10.0391C5.07812 9.39187 5.60281 8.86719 6.25 8.86719C6.89719 8.86719 7.42188 9.39187 7.42188 10.0391V21.3672C7.42188 22.0144 6.89719 22.5391 6.25 22.5391Z" fill="#ACE233"/>
<path d="M5.07812 21.3672V22.5391C5.07812 23.1862 5.60281 23.7109 6.25 23.7109H16.25C16.8972 23.7109 17.4219 23.1862 17.4219 22.5391V21.3672H5.07812Z" fill="#E2DFF4"/>
</svg>
