<svg width="40" height="40" viewBox="0 0 40 40" fill="none" xmlns="http://www.w3.org/2000/svg">
<ellipse cx="19.8447" cy="19.9842" rx="19.845" ry="19.9842" fill="#FFEBEB"/>
<g clip-path="url(#clip0_744_26468)">
<g clip-path="url(#clip1_744_26468)">
<path d="M19.9997 0.03125C9.09277 0.03125 0.154785 9.03194 0.154785 20.0154C0.154785 30.9989 9.09277 39.9996 19.9997 39.9996C30.9067 39.9996 39.8447 30.9989 39.8447 20.0154C39.8447 9.03194 30.9067 0.03125 19.9997 0.03125Z" fill="#C6E2E7"/>
<path d="M39.8447 20.0154C39.8447 30.9989 30.9067 39.9996 19.9998 39.9996V0.03125C30.9067 0.03125 39.8447 9.03194 39.8447 20.0154Z" fill="#A8D3D8"/>
<path d="M19.9998 2.37305C10.3719 2.37305 2.48047 10.3199 2.48047 20.0153C2.48047 29.7108 10.3719 37.5796 19.9998 37.5796C29.6278 37.5796 37.5192 29.7108 37.5192 20.0153C37.5192 10.3199 29.6278 2.37305 19.9998 2.37305Z" fill="#DEECF1"/>
<path d="M37.5191 20.0153C37.5191 29.7108 29.6277 37.5796 19.9998 37.5796V2.37305C29.6277 2.37305 37.5191 10.3199 37.5191 20.0153Z" fill="#C6E2E7"/>
<path d="M23.4863 8.30603C23.4863 8.95278 22.9657 9.47729 22.3232 9.47729C21.6809 9.47729 21.1604 8.95278 21.1604 8.30603C21.1604 7.65927 21.6809 7.13477 22.3232 7.13477C22.9657 7.13477 23.4863 7.65927 23.4863 8.30603Z" fill="#CC2E43"/>
<path d="M13.0231 11.8186C12.3804 11.8186 11.8603 11.2948 11.8603 10.6476V8.30571C11.8603 7.65857 12.3804 7.13477 13.0231 7.13477C13.6657 7.13477 14.1859 7.65857 14.1859 8.30571V10.6476C14.1859 11.2948 13.6657 11.8186 13.0231 11.8186ZM8.37192 16.5024H6.04634C5.4037 16.5024 4.88354 15.9785 4.88354 15.3314C4.88354 14.6843 5.4037 14.1605 6.04634 14.1605H8.37192C9.01455 14.1605 9.53471 14.6843 9.53471 15.3314C9.53471 15.9785 9.01455 16.5024 8.37192 16.5024ZM8.37192 25.8699C8.07424 25.8699 7.77688 25.7556 7.54982 25.5268C7.09556 25.0695 7.09556 24.3285 7.54982 23.8711L9.36789 22.0402C9.82207 21.5829 10.5579 21.5829 11.0121 22.0402C11.4663 22.4976 11.4663 23.2387 11.0121 23.696L9.19401 25.5268C9.08619 25.6358 8.95806 25.7222 8.81697 25.781C8.67589 25.8399 8.52464 25.8701 8.37192 25.8699ZM15.3474 32.8956C15.1727 32.8956 14.9956 32.8557 14.8284 32.7721C14.254 32.4827 14.0211 31.7796 14.3085 31.2008L15.4147 28.9744C15.7018 28.3948 16.4003 28.1615 16.9748 28.4509C17.5495 28.74 17.7821 29.4434 17.4949 30.022L16.3888 32.2486C16.1844 32.659 15.7744 32.8956 15.3474 32.8956Z" fill="#E63950"/>
<path d="M24.6511 35.2368C24.0084 35.2368 23.4883 34.713 23.4883 34.0659V31.724C23.4883 31.0768 24.0084 30.553 24.6511 30.553C25.2937 30.553 25.8139 31.0768 25.8139 31.724V34.0659C25.8139 34.713 25.2937 35.2368 24.6511 35.2368ZM31.6278 25.8692H28.68C28.0374 25.8692 27.5172 25.3454 27.5172 24.6983C27.5172 24.0511 28.0374 23.5273 28.68 23.5273H31.6278C32.2705 23.5273 32.7906 24.0511 32.7906 24.6983C32.7906 25.3454 32.2705 25.8692 31.6278 25.8692Z" fill="#CC2E43"/>
<path d="M20.5114 14.0432L19.9999 14.3008L18.0696 15.2842C17.9069 15.3547 17.721 15.4013 17.5348 15.4013C17.1163 15.4013 16.6975 15.1671 16.5116 14.7457C16.2094 14.1603 16.4417 13.4577 17.023 13.1765L19.4885 11.9355C19.6511 11.865 19.8141 11.8184 19.9999 11.8184C20.4184 11.8184 20.8372 12.0525 21.0465 12.4739C21.3257 13.036 21.0928 13.7389 20.5114 14.0432Z" fill="#E63950"/>
<path d="M24.4185 23.5286C24.2743 23.5286 24.1278 23.5021 23.9858 23.4451C23.3895 23.2039 23.1 22.5221 23.3383 21.9216L24.7343 18.4115C24.9738 17.8099 25.6485 17.5205 26.2472 17.7596C26.8434 18.0011 27.1329 18.6826 26.8945 19.283L25.4986 22.7931C25.412 23.0103 25.2628 23.1963 25.0704 23.3274C24.8779 23.4585 24.6508 23.5285 24.4185 23.5286Z" fill="#CC2E43"/>
<path d="M26.9776 16.5014C26.0837 16.5014 25.191 16.1595 24.5106 15.4744C23.1501 14.1043 23.1501 11.8761 24.5106 10.506C25.8711 9.13601 28.0838 9.13601 29.4443 10.506C30.8048 11.8761 30.8048 14.1043 29.4443 15.4744C28.7639 16.1595 27.8712 16.5014 26.9776 16.5014Z" fill="#E63950"/>
<path d="M20.511 14.0432L19.9995 14.3008V11.8184C20.418 11.8184 20.8367 12.0525 21.046 12.4739C21.3252 13.036 21.0924 13.7389 20.511 14.0432Z" fill="#CC2E43"/>
<path d="M24.6508 21.186C22.7437 21.186 21.0694 20.2727 19.9997 18.8441C19.2788 17.884 18.8369 16.6428 18.8369 15.3313C18.8369 12.0996 16.2321 9.47656 13.0229 9.47656C9.81379 9.47656 7.20898 12.0996 7.20898 15.3313C7.20898 23.4108 12.6277 30.2023 19.9997 32.2396C21.4881 32.6848 23.0462 32.8955 24.6508 32.8955C27.86 32.8955 30.4648 30.2724 30.4648 27.0408C30.4648 23.8091 27.86 21.186 24.6508 21.186Z" fill="#EC5569"/>
<path d="M30.4646 27.0404C30.4646 30.272 27.8598 32.8951 24.6507 32.8951C23.046 32.8951 21.4879 32.6844 19.9995 32.2392V18.8438C21.0693 20.2723 22.7435 21.1856 24.6507 21.1856C27.8598 21.1856 30.4646 23.8087 30.4646 27.0404Z" fill="#E63950"/>
<path d="M14.1835 15.3311C14.1835 15.9779 13.6626 16.5021 13.0207 16.5021C12.3784 16.5021 11.8579 15.9779 11.8579 15.3311C11.8579 14.6844 12.3784 14.1602 13.0207 14.1602C13.6626 14.1602 14.1835 14.6844 14.1835 15.3311ZM15.3463 21.1858C15.3463 21.8326 14.8254 22.3568 14.1835 22.3568C13.5412 22.3568 13.0207 21.8326 13.0207 21.1858C13.0207 20.5391 13.5412 20.0149 14.1835 20.0149C14.8254 20.0149 15.3463 20.5391 15.3463 21.1858Z" fill="#FDBF00"/>
<path d="M25.8114 27.042C25.8114 27.6888 25.2905 28.213 24.6486 28.213C24.0063 28.213 23.4858 27.6888 23.4858 27.042C23.4858 26.3953 24.0063 25.8711 24.6486 25.8711C25.2905 25.8711 25.8114 26.3953 25.8114 27.042Z" fill="#FF9F00"/>
<path d="M19.9977 25.8702C19.9977 26.5169 19.4768 27.0411 18.8349 27.0411C18.1926 27.0411 17.6721 26.5169 17.6721 25.8702C17.6721 25.2234 18.1926 24.6992 18.8349 24.6992C19.4768 24.6992 19.9977 25.2234 19.9977 25.8702Z" fill="#FDBF00"/>
</g>
</g>
<defs>
<clipPath id="clip0_744_26468">
<rect width="39.6899" height="39.9684" fill="white" transform="translate(0.310059 0.03125)"/>
</clipPath>
<clipPath id="clip1_744_26468">
<rect width="39.6899" height="39.9684" fill="white" transform="translate(0.154785 0.03125)"/>
</clipPath>
</defs>
</svg>
