<svg width="42" height="40" viewBox="0 0 42 40" fill="none" xmlns="http://www.w3.org/2000/svg">
<circle cx="20.8438" cy="19.9842" r="19.9842" fill="#FFF7E1"/>
<g clip-path="url(#clip0_744_26436)">
<g clip-path="url(#clip1_744_26436)">
<path d="M20.9992 1.07031L22.7213 9.84204L20.9992 27.2527H8.42949C7.78313 27.2527 7.25854 26.7289 7.25854 26.0818V14.5792C7.25854 11.9102 9.16953 9.67834 11.6949 9.17952C11.8893 8.19124 12.353 7.27166 13.0469 6.51913C13.7799 5.72288 14.7198 5.16785 15.7526 4.90946C16.0593 3.94526 16.6254 3.08402 17.3888 2.42003C18.3901 1.54937 19.6724 1.07001 20.9992 1.07031Z" fill="#B1705B"/>
<path d="M34.74 14.5792V26.0818C34.74 26.7289 34.2154 27.2527 33.569 27.2527H20.9993V1.07031C22.3261 1.07001 23.6084 1.54937 24.6097 2.42003C25.3731 3.08402 25.9392 3.94526 26.2459 4.90946C27.2787 5.16785 28.2186 5.72288 28.9516 6.51913C29.6455 7.27166 30.1092 8.19124 30.3036 9.17952C32.829 9.67834 34.74 11.9102 34.74 14.5792Z" fill="#885140"/>
<path d="M20.9992 19.4146L22.7212 24.7775L20.9992 32.4441H4.72298C4.38419 32.4441 4.06179 32.2973 3.83931 32.0421C3.40918 31.5471 3.56476 31.099 3.70426 30.103L5.54655 16.9251C5.55045 16.8931 5.5567 16.8603 5.56373 16.8283C5.7581 15.9712 6.42632 15.3342 7.25848 15.1656C7.40211 15.1359 7.55043 15.1211 7.70188 15.1211H15.5738C16.7143 15.1211 17.6424 16.0493 17.6424 17.1898V19.4146H20.9992Z" fill="#FFD298"/>
<path d="M37.2757 32.4441H20.9995V19.4146H24.3562V17.1898C24.3562 16.0493 25.2844 15.1211 26.4249 15.1211H34.3233C34.4654 15.1211 34.6051 15.1344 34.7402 15.1601C35.5864 15.3209 36.2671 15.9642 36.4623 16.833C36.4693 16.865 36.4748 16.897 36.4794 16.929C38.4449 31.1768 38.237 29.6689 38.4357 31.1131C38.5324 31.818 37.9858 32.4441 37.2757 32.4441Z" fill="#FFB555"/>
<path d="M20.9993 30.1035L22.3264 34.5328L20.9993 38.9621H3.23291C2.00966 38.9621 1.01514 37.9676 1.01514 36.7444V32.3213C1.01514 31.098 2.00966 30.1035 3.23291 30.1035H20.9993Z" fill="#FFB555"/>
<path d="M40.9834 32.3213V36.7444C40.9834 37.9676 39.9889 38.9621 38.7657 38.9621H20.9993V30.1035H38.7657C39.9889 30.1035 40.9834 31.098 40.9834 32.3213Z" fill="#FF7C48"/>
<mask id="mask0_744_26436" style="mask-type:luminance" maskUnits="userSpaceOnUse" x="12" y="11" width="18" height="18">
<path d="M12.2578 11.2731H29.7444V28.7598H12.2578V11.2731Z" fill="white"/>
</mask>
<g mask="url(#mask0_744_26436)">
<path d="M27.3195 11.2725H13.7947C12.9473 11.2725 12.2578 11.9619 12.2578 12.8094V26.3342C12.2578 27.1816 12.9473 27.8711 13.7947 27.8711H23.9042C24.0401 27.8711 24.1704 27.8171 24.2664 27.721L28.7064 23.2811C28.754 23.2335 28.7917 23.177 28.8174 23.1149C28.8432 23.0527 28.8564 22.9861 28.8564 22.9188V12.8094C28.8564 11.9619 28.167 11.2725 27.3195 11.2725Z" fill="#696969"/>
<path d="M20.5571 11.2729H13.7947C12.9473 11.2729 12.2578 11.9624 12.2578 12.8099V19.5723H20.5571V11.2729Z" fill="#696969"/>
<path d="M28.8564 19.5723V12.8099C28.8564 11.9624 28.167 11.2729 27.3195 11.2729H20.5571V19.5723H28.8564Z" fill="#555555"/>
<path d="M20.5571 19.5718V27.8711H23.9042C24.0401 27.8711 24.1704 27.8171 24.2664 27.721L28.7064 23.2811C28.754 23.2335 28.7917 23.177 28.8174 23.1149C28.8432 23.0527 28.8564 22.9861 28.8564 22.9188V19.5718H20.5571Z" fill="#414141"/>
<path d="M12.2578 19.5718V26.3342C12.2578 27.1816 12.9473 27.8711 13.7947 27.8711H20.5571V19.5718H12.2578Z" fill="#555555"/>
<path d="M17.6028 14.9109H16.9197V14.2278C16.9197 13.9449 16.6903 13.7155 16.4074 13.7155C16.1245 13.7155 15.8951 13.9449 15.8951 14.2278V14.9109H15.212C14.9291 14.9109 14.6997 15.1403 14.6997 15.4232C14.6997 15.7061 14.9291 15.9355 15.212 15.9355H15.8951V16.6186C15.8951 16.9015 16.1245 17.1309 16.4074 17.1309C16.6903 17.1309 16.9197 16.9015 16.9197 16.6186V15.9355H17.6028C17.8857 15.9355 18.1151 15.7061 18.1151 15.4232C18.1151 15.1403 17.8857 14.9109 17.6028 14.9109Z" fill="white"/>
<path d="M25.9021 15.9355H23.5113C23.2284 15.9355 22.999 15.7062 22.999 15.4232C22.999 15.1403 23.2284 14.9109 23.5113 14.9109H25.9021C26.185 14.9109 26.4144 15.1403 26.4144 15.4232C26.4144 15.7062 26.185 15.9355 25.9021 15.9355Z" fill="white"/>
<path d="M17.1322 23.7217L17.6238 23.2301C17.8238 23.0301 17.8238 22.7057 17.6238 22.5057C17.4237 22.3056 17.0993 22.3056 16.8993 22.5057L16.4077 22.9972L15.9161 22.5057C15.716 22.3056 15.3916 22.3056 15.1916 22.5057C14.9915 22.7057 14.9915 23.0301 15.1916 23.2301L15.6832 23.7217L15.1916 24.2134C14.9915 24.4134 14.9915 24.7378 15.1916 24.9378C15.2391 24.9855 15.2956 25.0233 15.3577 25.049C15.4199 25.0748 15.4865 25.088 15.5538 25.0879C15.6211 25.088 15.6878 25.0748 15.7499 25.049C15.8121 25.0233 15.8686 24.9855 15.9161 24.9378L16.4077 24.4462L16.8993 24.9378C16.9468 24.9855 17.0032 25.0233 17.0654 25.049C17.1276 25.0748 17.1942 25.088 17.2615 25.0879C17.3288 25.088 17.3954 25.0748 17.4576 25.049C17.5198 25.0233 17.5762 24.9855 17.6238 24.9378C17.8238 24.7378 17.8238 24.4134 17.6238 24.2134L17.1322 23.7217Z" fill="white"/>
<path d="M24.4508 28.7598C21.5317 28.7598 19.157 26.385 19.157 23.466C19.157 20.547 21.5317 18.1722 24.4508 18.1722C27.3698 18.1722 29.7446 20.547 29.7446 23.466C29.7446 26.385 27.3698 28.7598 24.4508 28.7598Z" fill="white"/>
<path d="M25.6462 25.002H23.2555C22.9725 25.002 22.7432 24.7726 22.7432 24.4896C22.7432 24.2067 22.9725 23.9773 23.2555 23.9773H25.6462C25.9291 23.9773 26.1585 24.2067 26.1585 24.4896C26.1585 24.7726 25.9291 25.002 25.6462 25.002Z" fill="#555555"/>
<path d="M25.6462 22.9531H23.2555C22.9725 22.9531 22.7432 22.7237 22.7432 22.4408C22.7432 22.1579 22.9725 21.9285 23.2555 21.9285H25.6462C25.9291 21.9285 26.1585 22.1579 26.1585 22.4408C26.1585 22.7237 25.9291 22.9531 25.6462 22.9531Z" fill="#555555"/>
</g>
</g>
</g>
<defs>
<clipPath id="clip0_744_26436">
<rect width="39.9684" height="39.9684" fill="white" transform="translate(1.17163 0.03125)"/>
</clipPath>
<clipPath id="clip1_744_26436">
<rect width="39.9684" height="39.9684" fill="white" transform="translate(1.01562 0.03125)"/>
</clipPath>
</defs>
</svg>
