<svg width="41" height="40" viewBox="0 0 41 40" fill="none" xmlns="http://www.w3.org/2000/svg">
  <g clip-path="url(#clip0_829_28167)">
    <path d="M20.5 40C31.5457 40 40.5 31.0457 40.5 20C40.5 8.9543 31.5457 0 20.5 0C9.4543 0 0.5 8.9543 0.5 20C0.5 31.0457 9.4543 40 20.5 40Z" fill="#FFCE00"/>
    <path d="M40.1305 23.847L30.1116 13.8281L20.5 36.0896L24.0903 39.6798C32.1725 38.2149 38.5634 31.8931 40.1305 23.847Z" fill="#FFAA00"/>
    <path d="M20.5023 6.16602L10.8906 13.8273L20.5023 36.0887L20.5902 35.849L21.132 20.3145L20.5681 6.35305L20.5023 6.16602Z" fill="#FF73A5"/>
    <path d="M20.5 6.16602V36.0887L30.1116 13.8273L20.5 6.16602Z" fill="#FF468C"/>
    <path d="M20.5023 4.21484L10.8906 13.8265L15.346 15.389H20.5938L21.45 11.3159L20.592 4.40016L20.5023 4.21484Z" fill="#FF468C"/>
    <path d="M30.1116 13.8265L20.5 4.21484L22.7605 14.5035L25.6562 15.389L30.1116 13.8265Z" fill="#D72878"/>
    <path d="M20.5 8.98828L15.3438 15.3884L20.5 36.0874L20.5732 35.5984L21.1021 20.5871L20.5 9.18742V8.98828Z" fill="#FF5F96"/>
    <path d="M20.5 15.166V36.0888L25.6562 15.3898L20.5 15.166Z" fill="#D72878"/>
    <path d="M20.5 4.21484L15.3438 15.389H20.5916L21.1591 11.0637L20.5916 4.41328L20.5 4.21484Z" fill="#FF73A5"/>
    <path d="M20.5 4.21484V15.389H25.6562L20.5 4.21484Z" fill="#FF468C"/>
  </g>
  <defs>
    <clipPath id="clip0_829_28167">
      <rect width="40" height="40" fill="white" transform="translate(0.5)"/>
    </clipPath>
  </defs>
</svg>