<svg width="32" height="32" viewBox="0 0 32 32" fill="none" xmlns="http://www.w3.org/2000/svg">
<path d="M17.887 16.7766L7.06078 27.6042C6.63109 28.034 5.93447 28.034 5.50472 27.6043L2.82616 24.9257C2.39653 24.496 2.39647 23.7994 2.82609 23.3698L10.1957 15.9986L5.87559 11.6785L2.82622 8.62909C2.39653 8.19941 2.39653 7.50278 2.82622 7.07309L5.50478 4.39453C5.93447 3.96484 6.63109 3.96484 7.06078 4.39453L14.3447 11.6785L17.8869 15.2207C18.3165 15.6503 18.3166 16.3469 17.887 16.7766Z" fill="#959595"/>
<path d="M14.4285 11.7655L10.1939 16.0001L8.57536 14.3815L5.87555 11.6783L2.82617 8.62891C2.39648 8.19922 2.39648 7.50259 2.82617 7.07291L5.50455 4.39453C5.9343 3.96478 6.63111 3.96484 7.06073 4.39472L12.8099 10.1469L14.4285 11.7655Z" fill="#555555"/>
<path d="M14.4294 11.7668L10.1948 16.0014L9.16797 14.9728L13.4025 10.7383L14.4294 11.7668Z" fill="#1D2432"/>
<path d="M29.1741 16.7766L18.348 27.6042C17.9183 28.034 17.2216 28.034 16.7919 27.6043L14.1133 24.9257C13.6836 24.496 13.6836 23.7994 14.1132 23.3698L21.4828 15.9986L17.1627 11.6785L14.1133 8.62909C13.6836 8.19941 13.6836 7.50278 14.1133 7.07309L16.7919 4.39453C17.2216 3.96484 17.9182 3.96484 18.3479 4.39453L25.6318 11.6785L29.174 15.2207C29.6037 15.6503 29.6037 16.3469 29.1741 16.7766Z" fill="#555555"/>
<path d="M25.7156 11.7655L21.481 16.0001L19.8625 14.3815L17.1627 11.6783L14.1133 8.62891C13.6836 8.19922 13.6836 7.50259 14.1133 7.07291L16.7917 4.39453C17.2214 3.96478 17.9182 3.96484 18.3478 4.39472L24.097 10.1469L25.7156 11.7655Z" fill="#959595"/>
<path d="M25.7165 11.7668L21.482 16.0014L20.4551 14.9728L24.6896 10.7383L25.7165 11.7668ZM30.8764 30.537C30.7521 30.537 30.6328 30.5864 30.5449 30.6743C30.457 30.7622 30.4076 30.8814 30.4076 31.0057V31.5318C30.4076 31.7907 30.6175 32.0005 30.8764 32.0005C31.1353 32.0005 31.3451 31.7907 31.3451 31.5318V31.0057C31.3451 30.8814 31.2958 30.7622 31.2078 30.6743C31.1199 30.5864 31.0007 30.537 30.8764 30.537ZM28.1094 30.537C27.9851 30.537 27.8658 30.5864 27.7779 30.6743C27.69 30.7622 27.6406 30.8814 27.6406 31.0057V31.5318C27.6406 31.7907 27.8505 32.0005 28.1094 32.0005C28.3683 32.0005 28.5781 31.7907 28.5781 31.5318V31.0057C28.5781 30.8814 28.5288 30.7622 28.4408 30.6743C28.3529 30.5864 28.2337 30.537 28.1094 30.537ZM25.3424 30.537C25.2181 30.537 25.0988 30.5864 25.0109 30.6743C24.923 30.7622 24.8736 30.8814 24.8736 31.0057V31.5318C24.8736 31.7907 25.0835 32.0005 25.3424 32.0005C25.6013 32.0005 25.8111 31.7907 25.8111 31.5318V31.0057C25.8111 30.8814 25.7618 30.7622 25.6738 30.6743C25.5859 30.5864 25.4667 30.537 25.3424 30.537Z" fill="#CACACA"/>
<path d="M6.659 1.46356C6.78332 1.46356 6.90255 1.41418 6.99046 1.32627C7.07836 1.23836 7.12775 1.11913 7.12775 0.994812V0.46875C7.12775 0.34443 7.07836 0.225201 6.99046 0.137294C6.90255 0.049386 6.78332 0 6.659 0C6.53468 0 6.41545 0.049386 6.32754 0.137294C6.23964 0.225201 6.19025 0.34443 6.19025 0.46875V0.994812C6.19025 1.11913 6.23964 1.23836 6.32754 1.32627C6.41545 1.41418 6.53468 1.46356 6.659 1.46356ZM3.892 1.46356C4.01632 1.46356 4.13555 1.41418 4.22346 1.32627C4.31136 1.23836 4.36075 1.11913 4.36075 0.994812V0.46875C4.36075 0.34443 4.31136 0.225201 4.22346 0.137294C4.13555 0.049386 4.01632 0 3.892 0C3.76768 0 3.64845 0.049386 3.56054 0.137294C3.47264 0.225201 3.42325 0.34443 3.42325 0.46875V0.994812C3.42325 1.11913 3.47264 1.23836 3.56054 1.32627C3.64845 1.41418 3.76768 1.46356 3.892 1.46356ZM1.125 0C1.00068 0 0.881451 0.049386 0.793544 0.137294C0.705636 0.225201 0.65625 0.34443 0.65625 0.46875V0.994812C0.65625 1.11913 0.705636 1.23836 0.793544 1.32627C0.881451 1.41418 1.00068 1.46356 1.125 1.46356C1.24932 1.46356 1.36855 1.41418 1.45646 1.32627C1.54436 1.23836 1.59375 1.11913 1.59375 0.994812V0.46875C1.59375 0.34443 1.54436 0.225201 1.45646 0.137294C1.36855 0.049386 1.24932 0 1.125 0Z" fill="#1D2432"/>
</svg>
