<svg width="40" height="40" viewBox="0 0 40 40" fill="none" xmlns="http://www.w3.org/2000/svg">
<g clip-path="url(#clip0_744_26264)">
<path d="M28.5427 2.07812H34.4248V10.9414H28.5427V2.07812Z" fill="#EADFDA"/>
<path d="M28.5427 2.07812H30.0416V10.9414H28.5427V2.07812Z" fill="#C6BEB9"/>
<path d="M35.1054 16.0248V39.9991H4.89429V16.0248L5.61069 15.3036L7.1889 13.7133L16.369 4.46461L20.0002 0.806641L23.6323 4.46539L34.3841 15.2979L35.1054 16.0248Z" fill="#EADFDA"/>
<path d="M7.1889 13.7148V40.0006H4.89429V16.0264L5.61069 15.3052L7.1889 13.7148Z" fill="#C6BEB9"/>
<path d="M35.1054 16.0251V20.414C28.6561 12.7395 20.0002 7.95719 20.0002 7.95719C20.0002 7.95719 11.3436 12.7395 4.89429 20.4148V16.0251L5.61069 15.3038L16.369 4.46484C18.5602 3.18383 20.0003 2.57812 20.0003 2.57812C20.0003 2.57812 21.4412 3.18469 23.6324 4.4657L34.3842 15.2982L35.1054 16.0251Z" fill="#C6BEB9"/>
<path d="M20 0C20 0 32.4072 5.2207 39.784 17.407L37.1163 20.4391C30.6404 11.2579 20 5.37914 20 5.37914C20 5.37914 9.35974 11.2579 2.8838 20.4391L0.216064 17.407C7.59294 5.2207 20 0 20 0Z" fill="#DA4A54"/>
<path d="M5.95044 35.8535H33.9722V39.9995H5.95044V35.8535Z" fill="#8BC852"/>
<path d="M13.4734 17.6289H26.5266V34.0663H13.4734V17.6289Z" fill="#B9E4EF"/>
<path d="M12.8826 32.4023H26.5857V34.0617H12.8826V32.4023Z" fill="#DA4A54"/>
<path d="M6.11255 33.2344H33.8876V37.4243H6.11255V33.2344Z" fill="#934D36"/>
<path d="M27.13 17.629C27.13 17.4689 27.0664 17.3154 26.9532 17.2022C26.84 17.089 26.6864 17.0254 26.5264 17.0254H13.4735C13.3134 17.0254 13.1599 17.089 13.0467 17.2022C12.9335 17.3154 12.8699 17.4689 12.8699 17.629V32.2945C12.8699 32.4545 12.9335 32.6081 13.0467 32.7213C13.1599 32.8345 13.3134 32.898 13.4735 32.898C13.6335 32.898 13.7871 32.8345 13.9003 32.7213C14.0135 32.6081 14.0771 32.4545 14.0771 32.2945V24.3567H19.3964V31.681C19.3964 31.8411 19.46 31.9946 19.5732 32.1078C19.6864 32.221 19.8399 32.2846 20 32.2846C20.1601 32.2846 20.3136 32.221 20.4268 32.1078C20.54 31.9946 20.6036 31.8411 20.6036 31.681V24.3567H25.9227V32.2945C25.9227 32.4545 25.9863 32.6081 26.0995 32.7213C26.2127 32.8345 26.3662 32.898 26.5263 32.898C26.6864 32.898 26.8399 32.8345 26.9531 32.7213C27.0663 32.6081 27.1299 32.4545 27.1299 32.2945V17.629H27.13ZM14.0771 23.1495V18.2327H19.3964V23.1495H14.0771ZM20.6036 23.1495V18.2327H25.9227V23.1495H20.6036Z" fill="#DA4A54"/>
<path d="M7.53741 31.5158L5.0664 29.9043L2.59546 31.5158V40.0006H7.53741V31.5158ZM15.0041 31.5158L12.5331 29.9043L10.0621 31.5158V40.0006H15.0041V31.5158ZM22.4708 31.5158L19.9998 29.9043L17.5288 31.5158V40.0006H22.4708V31.5158ZM37.4041 31.5158L34.9331 29.9043L32.4621 31.5158V40.0006H37.4041V31.5158ZM29.9374 31.5158L27.4665 29.9043L24.9955 31.5158V40.0006H29.9374V31.5158Z" fill="#AA593D"/>
</g>
<defs>
<clipPath id="clip0_744_26264">
<rect width="40" height="40" fill="white"/>
</clipPath>
</defs>
</svg>
