<svg width="40" height="40" viewBox="0 0 40 40" fill="none" xmlns="http://www.w3.org/2000/svg">
<g clip-path="url(#clip0_744_26306)">
<path d="M20.3127 23.4651C20.7643 22.8425 21.3127 22.52 21.6127 22.3748C20.4192 21.9458 19.4127 21.8748 18.7676 21.8812C17.8127 21.8909 17.1095 21.8974 16.5547 22.4103C15.7837 23.1167 15.8643 24.2716 15.8869 24.5232L12.1998 25.4006L8.51272 26.2812C8.41917 26.049 7.97079 24.9812 6.96434 24.6974C6.23853 24.4941 5.6095 24.8038 4.75466 25.2264C4.17401 25.5135 3.30627 26.0296 2.4353 26.9522C2.76756 26.9458 3.40304 26.9845 4.08692 27.3393C5.04175 27.8329 5.48692 28.6296 5.63208 28.9232C5.49982 29.5071 4.78046 32.9135 6.93208 36.0329C8.40304 38.1683 10.6482 38.9683 11.4385 39.2522C12.4127 39.9554 13.9837 40.207 15.6224 39.8167C17.2611 39.4264 18.5514 38.4877 19.1063 37.4232C19.6837 36.8103 21.3289 35.0845 21.6805 32.5135C22.1966 28.7554 20.0256 26.0393 19.645 25.578C19.6421 25.249 19.6808 24.3393 20.3127 23.4651ZM31.1356 36.4038C31.0453 36.9554 31.1292 37.7845 31.5163 37.9232C31.9679 38.0877 32.8066 37.2909 33.0324 36.4038C33.2518 35.5361 32.8324 34.7877 32.6808 34.5458C32.6614 34.5393 32.6388 34.5296 32.6195 34.5232C32.3518 34.6683 31.3227 35.2748 31.1356 36.4038Z" fill="#E7F2F1"/>
<path d="M37.8741 25.4226C38.2838 24.5484 38.387 23.4322 37.958 23.1064C37.8644 23.0355 37.4935 22.8097 36.3709 23.4355C36.0257 23.629 35.5935 23.4484 35.4806 23.0742C35.2806 22.4097 34.9515 21.5903 34.5483 21.5871C33.9967 21.5806 33.5161 23.0968 33.4096 24.2451L33.3999 24.371C31.0193 24.8968 29.2419 27.0226 29.2419 29.5645C29.2419 31.8226 30.6419 33.7484 32.6193 34.5226C32.6322 34.5129 32.6419 34.5097 32.6515 34.5032C32.658 34.5161 32.6677 34.529 32.6806 34.5451C33.2612 34.7645 33.8903 34.8839 34.5483 34.8839C37.4774 34.8839 39.8548 32.5032 39.8548 29.5645C39.8548 27.8903 39.0838 26.3968 37.8741 25.4226ZM6.95122 21.3484C9.50929 20.3387 10.7641 17.4419 9.75445 14.8774C8.95122 12.8355 6.95445 11.629 4.88348 11.729C4.87058 11.6387 4.85767 11.5516 4.84155 11.4581C4.73184 10.9098 4.52539 10.3855 4.23187 9.90967C4.15445 10.0903 4.07703 10.271 3.99638 10.4484C3.91896 10.629 3.84155 10.8097 3.76413 10.9871C3.63509 10.8161 3.41251 10.571 3.0738 10.3677C2.8738 10.2484 2.68671 10.1774 2.53509 10.1322C2.62864 10.6581 2.70606 11.2258 2.75767 11.8322C2.7738 11.9935 2.78026 12.1484 2.78993 12.3032C0.580255 13.4742 -0.445551 16.1516 0.493158 18.5387C1.50284 21.1032 4.39316 22.3613 6.95122 21.3484ZM27.4161 18.1645C27.4741 18.0742 27.5386 17.9871 27.6096 17.9032C28.5257 16.8032 29.7612 14.9871 30.4515 12.4677C30.8354 11.0677 30.9612 9.75805 30.958 8.61612C31.1451 8.98708 31.8548 10.3193 33.4193 10.8097C34.5451 11.1645 36.0483 11.0581 36.2257 10.5193C36.429 9.90321 34.6419 9.51289 33.5515 7.4387C32.9483 6.29354 33.0322 5.5387 32.2806 5.06128C31.6096 4.63547 30.787 4.71934 30.1806 4.88063C30.429 4.45483 30.9548 3.41612 30.7193 2.12902C30.5128 0.987085 29.729 -0.0935599 29.3419 0.00644015C29.0451 0.0806337 29.1838 0.787085 28.7128 1.79031C28.3967 2.45805 27.9677 2.90967 27.6548 3.19676C26.6111 2.795 25.5022 2.5894 24.3838 2.59031C24.2806 2.59031 24.1774 2.59354 24.0741 2.59676C22.9225 2.63547 21.9161 2.88386 21.0774 3.21289C20.7677 2.92579 20.3386 2.45805 20.0225 1.79031C19.5515 0.787085 19.687 0.0806337 19.3935 0.00644015C19.0032 -0.0935599 18.2225 0.987085 18.0128 2.12902C17.7774 3.41612 18.3225 4.48386 18.5709 4.90967C17.9644 4.74838 17.1225 4.63547 16.4515 5.06128C15.6999 5.5387 15.787 6.29354 15.1838 7.4387C14.0903 9.51289 12.3064 9.90321 12.5096 10.5193C12.687 11.0581 14.1903 11.1645 15.3161 10.8097C16.8806 10.3193 17.6257 8.96128 17.8128 8.59031C17.8064 9.62902 17.9096 10.8064 18.2161 12.0645C18.2483 12.1968 18.2838 12.3322 18.3193 12.4677C19.0096 14.9871 20.2451 16.8032 21.1612 17.9032C21.2322 17.9871 21.2967 18.0742 21.3548 18.1645C21.5709 18.4935 21.7193 18.8677 21.8257 19.2516C22.1386 20.3742 23.1709 21.2064 24.3838 21.2064C25.5999 21.2064 26.6322 20.3742 26.9419 19.2516C27.0515 18.8677 27.1999 18.4935 27.4161 18.1645Z" fill="#E7F2F1"/>
<path d="M19.345 35.8028C19.474 36.3415 19.3772 36.8963 19.1062 37.4222C18.5514 38.4867 17.2611 39.4254 15.6224 39.8157C13.9837 40.206 12.4127 39.9544 11.4385 39.2512C10.9579 38.906 10.6224 38.4544 10.4966 37.9157C10.1095 36.2834 11.774 34.4867 14.2191 33.9028C16.6611 33.3189 18.9579 34.1705 19.345 35.8028Z" fill="#F48CA7"/>
<path d="M19.645 25.578C20.0256 26.0393 22.1966 28.7554 21.6805 32.5135C21.3289 35.0845 19.6837 36.8103 19.1063 37.4232C19.3772 36.8974 19.474 36.3425 19.345 35.8038C18.9579 34.1716 16.6611 33.32 14.2192 33.9038C11.774 34.4877 10.1095 36.2845 10.4966 37.9167C10.6224 38.4554 10.9579 38.907 11.4385 39.2522C10.6482 38.9683 8.40304 38.1683 6.93208 36.0329C4.78046 32.9135 5.49982 29.5071 5.63208 28.9232C5.48692 28.6296 5.04175 27.8329 4.08692 27.3393C3.40304 26.9845 2.76756 26.9458 2.4353 26.9522C3.30627 26.0296 4.17401 25.5135 4.75466 25.2264C5.6095 24.8038 6.23853 24.4941 6.96434 24.6974C7.97079 24.9812 8.41917 26.049 8.51272 26.2812L12.1998 25.4006L15.8869 24.5232C15.8643 24.2716 15.7837 23.1167 16.5547 22.4103C17.1095 21.8974 17.8127 21.8909 18.7676 21.8812C19.4127 21.8748 20.4192 21.9458 21.6127 22.3748C21.3127 22.52 20.7643 22.8425 20.3127 23.4651C19.6805 24.3393 19.6418 25.249 19.645 25.578ZM18.8385 32.02C19.245 31.9232 19.4966 31.5135 19.3998 31.1038C19.3769 31.0069 19.3351 30.9155 19.2768 30.8348C19.2185 30.7541 19.1448 30.6857 19.06 30.6335C18.9752 30.5814 18.8809 30.5465 18.7825 30.5309C18.6842 30.5153 18.5837 30.5192 18.4869 30.5425C18.3898 30.5653 18.2982 30.607 18.2173 30.6652C18.1364 30.7235 18.0677 30.7971 18.0153 30.8819C17.9628 30.9667 17.9276 31.061 17.9117 31.1594C17.8958 31.2578 17.8994 31.3584 17.9224 31.4554C17.9691 31.6517 18.0919 31.8214 18.2636 31.9273C18.4354 32.0331 18.6422 32.0665 18.8385 32.02ZM9.24821 34.307C9.65788 34.2103 9.9095 33.8006 9.8095 33.3941C9.78688 33.297 9.74529 33.2053 9.6871 33.1242C9.62891 33.0432 9.55528 32.9745 9.47044 32.922C9.3856 32.8696 9.29123 32.8344 9.19274 32.8185C9.09426 32.8027 8.99361 32.8065 8.89659 32.8296C8.49014 32.9264 8.23853 33.3361 8.3353 33.7458C8.43208 34.1522 8.84175 34.4038 9.24821 34.307Z" fill="#FEC4B9"/>
<path d="M32.6806 34.546C32.8322 34.7879 33.2516 35.5363 33.0322 36.404C32.8064 37.2911 31.9677 38.0879 31.5161 37.9234C31.129 37.7847 31.0451 36.9557 31.1354 36.404C31.3225 35.275 32.3516 34.6686 32.6193 34.5234C32.6387 34.5298 32.6613 34.5395 32.6806 34.546ZM37.958 23.1073C38.3871 23.4331 38.2838 24.5492 37.8742 25.4234C37.6225 25.9653 37.2548 26.4137 36.8225 26.5266C36.3903 26.6395 36.1451 26.3492 35.6838 26.5266C34.8677 26.8395 34.9258 28.0169 34.5483 28.046C34.0774 28.0815 33.2645 26.3008 33.4 24.3718L33.4096 24.246C33.5161 23.0976 33.9967 21.5815 34.5483 21.5879C34.9516 21.5911 35.2806 22.4105 35.4806 23.075C35.5935 23.4492 36.0258 23.6298 36.3709 23.4363C37.4935 22.8105 37.8645 23.0363 37.958 23.1073Z" fill="#E15C63"/>
<path d="M33.8158 31.4714C34.6513 31.7133 34.9674 32.7456 34.4707 33.4585C33.8642 34.3262 33.0771 34.6843 32.6513 34.5036C32.232 34.3262 31.961 33.5198 32.1126 32.5165C32.1932 31.9811 32.59 31.5294 33.1223 31.4359C33.3443 31.3963 33.5723 31.4062 33.79 31.4649C33.7965 31.4682 33.8062 31.4714 33.8158 31.4714Z" fill="#FFC05A"/>
<path d="M36.8226 29.9454C37.242 29.9454 37.5807 30.2841 37.5807 30.7067C37.5807 31.126 37.242 31.4647 36.8226 31.4647C36.4032 31.4647 36.0645 31.126 36.0645 30.7067C36.0641 30.6069 36.0834 30.5079 36.1213 30.4156C36.1592 30.3232 36.215 30.2393 36.2854 30.1686C36.3559 30.0978 36.4396 30.0417 36.5318 30.0034C36.6239 29.9651 36.7228 29.9454 36.8226 29.9454ZM31.5161 28.8067C31.9323 28.8067 32.2742 29.1454 32.2742 29.5647C32.2742 29.9841 31.9323 30.326 31.5161 30.326C31.3185 30.3203 31.1309 30.2377 30.9931 30.0959C30.8554 29.954 30.7783 29.7641 30.7783 29.5664C30.7783 29.3686 30.8554 29.1787 30.9931 29.0368C31.1309 28.895 31.3185 28.8124 31.5161 28.8067ZM19.4 31.1035C19.4968 31.5131 19.2452 31.9228 18.8387 32.0196C18.6424 32.0661 18.4356 32.0328 18.2638 31.9269C18.0921 31.8211 17.9693 31.6514 17.9226 31.4551C17.8996 31.3581 17.896 31.2575 17.9119 31.159C17.9278 31.0606 17.963 30.9663 18.0155 30.8815C18.0679 30.7967 18.1366 30.7231 18.2175 30.6649C18.2984 30.6066 18.39 30.5649 18.4871 30.5422C18.8936 30.4422 19.3032 30.697 19.4 31.1035ZM9.8097 33.3938C9.9097 33.8002 9.65808 34.2099 9.24841 34.3067C8.84195 34.4035 8.43228 34.1518 8.3355 33.7454C8.23873 33.3357 8.49034 32.926 8.89679 32.8293C9.30647 32.7325 9.71292 32.9841 9.8097 33.3938ZM3.04808 16.6164C3.20292 17.0067 3.0126 17.4486 2.62228 17.6002C2.23196 17.7551 1.79325 17.5647 1.63841 17.1744C1.56535 16.9866 1.56944 16.7774 1.64979 16.5926C1.73014 16.4077 1.88024 16.2621 2.06744 16.1873C2.45454 16.0325 2.89647 16.226 3.04808 16.6164ZM7.98679 14.6647C8.14163 15.0551 7.94808 15.4938 7.56099 15.6486C7.17066 15.8035 6.72873 15.6131 6.57712 15.2228C6.54012 15.1302 6.52177 15.0312 6.52312 14.9314C6.52447 14.8317 6.54548 14.7332 6.58496 14.6416C6.62444 14.55 6.6816 14.4671 6.75318 14.3976C6.82476 14.3282 6.90934 14.2735 7.00208 14.2368C7.09482 14.2001 7.19389 14.1821 7.29362 14.1837C7.39335 14.1853 7.49178 14.2067 7.58325 14.2464C7.67473 14.2862 7.75746 14.3436 7.82671 14.4154C7.89596 14.4872 7.95036 14.5719 7.98679 14.6647Z" fill="#543927"/>
<path d="M8.74809 17.6285C8.94487 18.2898 7.55132 19.3285 6.34164 19.8059C5.13519 20.2834 3.40938 20.4769 3.10616 19.8608C3.02229 19.6963 2.95777 19.2963 3.74487 18.3834C3.78902 17.996 3.93746 17.6279 4.17435 17.3183C4.41125 17.0087 4.72772 16.7692 5.09003 16.6253C5.45207 16.4819 5.84631 16.4398 6.23047 16.5035C6.61462 16.5671 6.97421 16.7341 7.27067 16.9866C8.47067 17.1156 8.69325 17.4511 8.74809 17.6285Z" fill="#F49C60"/>
<path d="M9.75445 14.8779C10.7641 17.4424 9.50929 20.3392 6.95122 21.3489C4.39316 22.3618 1.50284 21.1037 0.493158 18.5392C-0.445551 16.1521 0.580255 13.4747 2.78993 12.3037C2.78026 12.1489 2.7738 11.994 2.75767 11.8327C2.70606 11.2263 2.62864 10.6585 2.53509 10.1327C2.68671 10.1779 2.8738 10.2489 3.0738 10.3682C3.41251 10.5714 3.63509 10.8166 3.76413 10.9876C3.84155 10.8102 3.91896 10.6295 3.99638 10.4489C4.07703 10.2714 4.15445 10.0908 4.23187 9.91016C4.52539 10.386 4.73184 10.9103 4.84155 11.4585C4.85767 11.5521 4.87058 11.6392 4.88348 11.7295C6.95445 11.6295 8.95122 12.836 9.75445 14.8779ZM6.34155 19.8069C7.55122 19.3295 8.94477 18.2908 8.748 17.6295C8.69316 17.4521 8.47058 17.1166 7.27058 16.9876C6.97412 16.7351 6.61453 16.5681 6.23037 16.5044C5.84621 16.4408 5.45197 16.4829 5.08993 16.6263C4.35445 16.9166 3.83509 17.594 3.74477 18.3844C2.95767 19.2973 3.02219 19.6973 3.10606 19.8618C3.40929 20.4779 5.13509 20.2844 6.34155 19.8069ZM7.5609 15.6489C7.948 15.494 8.14155 15.0553 7.98671 14.665C7.95027 14.5721 7.89587 14.4874 7.82662 14.4156C7.75738 14.3438 7.67464 14.2864 7.58317 14.2467C7.49169 14.2069 7.39326 14.1856 7.29354 14.1839C7.19381 14.1823 7.09473 14.2004 7.00199 14.2371C6.90926 14.2738 6.82467 14.3284 6.75309 14.3979C6.68152 14.4674 6.62435 14.5503 6.58487 14.6419C6.54539 14.7335 6.52438 14.8319 6.52303 14.9317C6.52169 15.0314 6.54004 15.1304 6.57703 15.2231C6.72864 15.6134 7.17058 15.8037 7.5609 15.6489ZM2.62219 17.6005C3.01251 17.4489 3.20284 17.0069 3.048 16.6166C3.01204 16.5239 2.95809 16.4391 2.88926 16.3673C2.82042 16.2955 2.73807 16.238 2.64692 16.1981C2.55578 16.1582 2.45765 16.1368 2.35819 16.135C2.25872 16.1332 2.15988 16.151 2.06735 16.1876C1.88016 16.2623 1.73005 16.408 1.6497 16.5928C1.56936 16.7777 1.56526 16.9868 1.63832 17.1747C1.79316 17.565 2.23187 17.7553 2.62219 17.6005Z" fill="#F9B132"/>
<path d="M28.4289 8.51953C28.845 8.51953 29.1805 8.85502 29.1805 9.27114C29.1835 9.37149 29.1662 9.4714 29.1299 9.56497C29.0935 9.65853 29.0387 9.74385 28.9688 9.81587C28.8989 9.88788 28.8152 9.94513 28.7227 9.98423C28.6303 10.0233 28.5309 10.0435 28.4305 10.0435C28.3301 10.0435 28.2308 10.0233 28.1383 9.98423C28.0459 9.94513 27.9622 9.88788 27.8922 9.81587C27.8223 9.74385 27.7675 9.65853 27.7312 9.56497C27.6948 9.4714 27.6776 9.37149 27.6805 9.27114C27.6805 8.85502 28.016 8.51953 28.4289 8.51953ZM20.4709 8.51953C20.8838 8.51953 21.2192 8.85502 21.2192 9.27114C21.2192 9.47006 21.1402 9.66082 20.9996 9.80147C20.8589 9.94213 20.6682 10.0211 20.4692 10.0211C20.2703 10.0211 20.0796 9.94213 19.9389 9.80147C19.7983 9.66082 19.7192 9.47006 19.7192 9.27114C19.7192 8.85502 20.0547 8.51953 20.4709 8.51953Z" fill="#543927"/>
<path d="M27.416 18.1646C27.1999 18.4936 27.0515 18.8678 26.9418 19.2517C26.6322 20.3742 25.5999 21.2065 24.3838 21.2065C23.1709 21.2065 22.1386 20.3742 21.8257 19.2517C21.7193 18.8678 21.5709 18.4936 21.3547 18.1646C21.4741 18.0033 22.5386 16.6484 24.3838 16.6484C24.5741 16.6484 26.2999 16.6775 27.416 18.1646Z" fill="#655F68"/>
<path d="M30.7192 2.12902C30.9547 3.41612 30.4289 4.45483 30.1805 4.88063C29.9128 4.49999 29.5644 4.17418 29.158 3.92902C28.7386 3.67741 28.2354 3.41934 27.6547 3.19676C27.9676 2.90967 28.3967 2.45805 28.7128 1.79031C29.1838 0.787085 29.045 0.0806337 29.3418 0.00644015C29.7289 -0.0935599 30.5128 0.987085 30.7192 2.12902ZM20.0225 1.79031C20.3386 2.45805 20.7676 2.92579 21.0773 3.21289C20.5096 3.42902 20.0192 3.68386 19.6128 3.92902C19.1934 4.18063 18.8418 4.51612 18.5709 4.90967C18.3225 4.48386 17.7773 3.41612 18.0128 2.12902C18.2225 0.987085 19.0031 -0.0935599 19.3934 0.00644015C19.687 0.0806337 19.5515 0.787085 20.0225 1.79031Z" fill="#B29576"/>
<path d="M33.5517 7.43823C34.6421 9.51242 36.4292 9.90275 36.2259 10.5189C36.0485 11.0576 34.5453 11.164 33.4195 10.8092C31.855 10.3189 31.1453 8.98662 30.9582 8.61565C30.955 7.73178 30.8679 6.95113 30.7614 6.29307C30.6743 5.77694 30.4743 5.2963 30.1808 4.88017C30.7872 4.71888 31.6098 4.635 32.2808 5.06081C33.0324 5.53823 32.9485 6.29307 33.5517 7.43823ZM27.655 3.1963C28.2356 3.41888 28.7388 3.67694 29.1582 3.92855C28.7421 5.26726 27.3356 6.05436 25.9872 5.70597C24.6292 5.35436 23.7775 3.97371 24.0743 2.5963C24.1775 2.59307 24.2808 2.58984 24.384 2.58984C25.6485 2.58984 26.7485 2.84791 27.655 3.1963ZM19.613 3.92855C22.3388 4.06404 24.2227 6.48662 23.9066 8.72533C23.5775 11.0415 20.9292 12.8705 18.2163 12.064C17.9098 10.806 17.8066 9.62855 17.813 8.58984C17.8195 7.71888 17.9033 6.94468 18.0098 6.29307C18.0937 5.78984 18.2872 5.31888 18.5711 4.9092C18.8421 4.51565 19.1937 4.18017 19.613 3.92855ZM21.2195 9.27049C21.2195 9.07158 21.1405 8.88081 20.9998 8.74016C20.8592 8.59951 20.6684 8.52049 20.4695 8.52049C20.2706 8.52049 20.0798 8.59951 19.9391 8.74016C19.7985 8.88081 19.7195 9.07158 19.7195 9.27049C19.7165 9.37083 19.7338 9.47074 19.7701 9.56431C19.8065 9.65788 19.8613 9.74319 19.9312 9.81521C20.0011 9.88723 20.0848 9.94448 20.1773 9.98357C20.2697 10.0227 20.3691 10.0428 20.4695 10.0428C20.5699 10.0428 20.6692 10.0227 20.7617 9.98357C20.8541 9.94448 20.9378 9.88723 21.0078 9.81521C21.0777 9.74319 21.1325 9.65788 21.1688 9.56431C21.2052 9.47074 21.2224 9.37083 21.2195 9.27049Z" fill="#655F68"/>
<path d="M18.5707 4.91022C18.2837 5.32442 18.092 5.79702 18.0094 6.29409C17.9029 6.94571 17.8191 7.7199 17.8126 8.59087C17.6255 8.96183 16.8803 10.3199 15.3158 10.8102C14.19 11.1651 12.6868 11.0586 12.5094 10.5199C12.3061 9.90377 14.09 9.51345 15.1836 7.43925C15.7868 6.29409 15.6997 5.53925 16.4513 5.06183C17.1223 4.63603 17.9642 4.74893 18.5707 4.91022Z" fill="#D6EAE8"/>
<path d="M21.8257 19.2515C21.8257 19.2515 25.2773 20.6257 26.0644 17.0547C26.5289 17.2773 27.0128 17.6257 27.416 18.1644C27.1999 18.4934 27.0515 18.8676 26.9418 19.2515C26.6321 20.374 25.5999 21.2063 24.3837 21.2063C23.1708 21.2063 22.1386 20.374 21.8257 19.2515Z" fill="#5D5560"/>
<path d="M30.9578 8.61678C30.961 9.75872 30.8352 11.0684 30.4513 12.4684C29.761 14.9878 28.5255 16.8039 27.6094 17.9039C27.5384 17.9878 27.4739 18.0748 27.4158 18.1652C27.0622 17.6909 26.5983 17.31 26.0642 17.0555C26.0642 17.0555 31.4642 11.5587 29.1578 3.92969C29.5642 4.17485 29.9126 4.50066 30.1803 4.8813C30.4739 5.29743 30.6739 5.77807 30.761 6.2942C30.8674 6.95227 30.9545 7.73291 30.9578 8.61678ZM32.6513 34.5039C33.0771 34.6845 33.8642 34.3265 34.4707 33.4587C34.4707 33.4587 40.6803 32.7878 37.8739 25.4232C39.0836 26.3974 39.8545 27.891 39.8545 29.5652C39.8545 32.5039 37.4771 34.8845 34.5481 34.8845C33.89 34.8845 33.261 34.7652 32.6803 34.5458C32.6692 34.5329 32.6595 34.5188 32.6513 34.5039Z" fill="#D6EAE8"/>
<path d="M16.5678 37.2363C18.1581 36.1428 18.4775 34.5234 18.4775 34.5234C18.9162 34.8589 19.2259 35.2944 19.3452 35.8041C19.4742 36.3428 19.3775 36.8976 19.1065 37.4234C18.5517 38.488 17.2613 39.4267 15.6226 39.817C13.9839 40.2073 12.413 39.9557 11.4388 39.2525C10.9581 38.9073 10.6226 38.4557 10.4968 37.917C13.4904 38.5815 15.3839 38.0557 16.5678 37.2363Z" fill="#EA728C"/>
<path d="M19.6483 25.584C20.0418 26.0614 22.1934 28.7711 21.6805 32.513C21.3289 35.084 19.6837 36.8098 19.1063 37.4227C19.3773 36.8969 19.4741 36.342 19.345 35.8033C19.2257 35.2937 18.916 34.8582 18.4773 34.5227C21.8515 32.2259 19.7225 25.8098 19.6483 25.584Z" fill="#F7B6AD"/>
<path d="M4.12231 21.593C5.91909 21.122 7.02231 20.1801 7.6836 19.0833C8.3707 18.6027 8.8707 18.0414 8.74812 17.6285C8.71909 17.5349 8.64167 17.3962 8.39651 17.2672C8.90296 15.0478 8.29973 12.8704 8.29973 12.8704L8.30296 12.8672C8.94941 13.4032 9.44894 14.0947 9.75457 14.8769C10.7642 17.4414 9.50941 20.3382 6.95135 21.3478C6.01586 21.7188 5.03844 21.7833 4.12231 21.5962V21.593Z" fill="#EF9D26"/>
<path d="M26.0818 18.2817C25.8216 18.2675 25.5619 18.316 25.3243 18.423C25.034 18.5549 24.8418 18.7424 24.7314 18.8762C24.677 18.9422 24.6511 19.0272 24.6593 19.1123C24.6675 19.1975 24.7091 19.2759 24.7752 19.3303C24.8412 19.3847 24.9261 19.4106 25.0112 19.4024C25.0964 19.3943 25.1748 19.3526 25.2292 19.2866C25.3273 19.1688 25.4507 19.0746 25.5902 19.0111C25.7334 18.9465 25.89 18.9173 26.0469 18.9259C26.132 18.9292 26.215 18.8993 26.2784 18.8425C26.3418 18.7856 26.3806 18.7063 26.3866 18.6214C26.3889 18.5791 26.3829 18.5367 26.3688 18.4967C26.3547 18.4567 26.3329 18.4199 26.3046 18.3884C26.2763 18.3568 26.242 18.3312 26.2038 18.3129C26.1656 18.2946 26.1241 18.284 26.0818 18.2817ZM23.445 18.4227C23.2078 18.3161 22.9485 18.2677 22.6889 18.2817C22.6465 18.284 22.6051 18.2946 22.5668 18.3129C22.5286 18.3312 22.4944 18.3568 22.466 18.3884C22.4377 18.4199 22.4159 18.4567 22.4018 18.4967C22.3878 18.5367 22.3817 18.5791 22.384 18.6214C22.3937 18.7991 22.5498 18.9317 22.7237 18.9259C22.8801 18.9171 23.0364 18.946 23.1792 19.0104C23.3779 19.1004 23.4937 19.2298 23.534 19.2808C23.5602 19.314 23.5928 19.3418 23.6297 19.3625C23.6667 19.3831 23.7073 19.3964 23.7494 19.4013C23.7914 19.4063 23.8341 19.4029 23.8748 19.3914C23.9156 19.3799 23.9537 19.3605 23.9869 19.3343C24.0202 19.3081 24.0479 19.2756 24.0686 19.2386C24.0893 19.2017 24.1025 19.161 24.1075 19.1189C24.1125 19.0769 24.1091 19.0343 24.0976 18.9935C24.0861 18.9527 24.0667 18.9147 24.0405 18.8814C23.8808 18.6838 23.6768 18.5266 23.445 18.4227Z" fill="#524956"/>
<path d="M18.5911 23.1663C18.3195 23.3179 17.8202 23.6689 17.5269 24.3147C17.3888 24.6135 17.3127 24.9373 17.3034 25.2663C17.3019 25.3087 17.3088 25.3509 17.3237 25.3905C17.3386 25.4302 17.3611 25.4665 17.3901 25.4975C17.419 25.5284 17.4538 25.5533 17.4924 25.5708C17.531 25.5882 17.5727 25.5979 17.615 25.5992L17.626 25.5995C17.7096 25.5994 17.7899 25.5668 17.85 25.5086C17.91 25.4504 17.9451 25.3712 17.9479 25.2876C17.9547 25.0443 18.0109 24.805 18.1131 24.5841C18.3314 24.1034 18.7034 23.8421 18.9056 23.7295C18.9433 23.7092 18.9765 23.6817 19.0034 23.6484C19.0303 23.6152 19.0503 23.5769 19.0622 23.5358C19.0742 23.4948 19.0779 23.4518 19.073 23.4093C19.0682 23.3668 19.055 23.3257 19.0342 23.2884C19.0133 23.251 18.9852 23.2182 18.9516 23.1918C18.918 23.1654 18.8794 23.146 18.8382 23.1346C18.797 23.1233 18.7539 23.1202 18.7115 23.1257C18.6691 23.1311 18.6282 23.1449 18.5911 23.1663ZM6.95564 26.8379C6.4021 26.3963 5.79855 26.307 5.48822 26.2934C5.4459 26.2915 5.40362 26.298 5.3638 26.3124C5.32397 26.3268 5.28737 26.349 5.2561 26.3775C5.19294 26.4353 5.1553 26.5157 5.15145 26.6012C5.1476 26.6866 5.17786 26.7701 5.23557 26.8333C5.29329 26.8964 5.37372 26.9341 5.45919 26.9379C5.69145 26.9483 6.14242 27.0144 6.55242 27.3415C6.74212 27.4951 6.90011 27.6843 7.01758 27.8983C7.05928 27.9729 7.12886 28.028 7.21108 28.0514C7.29331 28.0749 7.38148 28.0648 7.45629 28.0234C7.53103 27.9819 7.58624 27.9124 7.60977 27.8302C7.6333 27.748 7.62323 27.6598 7.58177 27.585C7.4237 27.2976 7.21101 27.0438 6.95564 26.8379Z" fill="#F7B6AD"/>
<path d="M13.4979 36.0292C13.4893 35.9868 13.4723 35.9465 13.4479 35.9108C13.4234 35.8751 13.3921 35.8447 13.3556 35.8214C13.3192 35.798 13.2784 35.7823 13.2358 35.775C13.1931 35.7678 13.1494 35.7692 13.1073 35.7792C13.0652 35.7891 13.0256 35.8075 12.9907 35.8331C12.9558 35.8587 12.9265 35.8911 12.9044 35.9283C12.8823 35.9655 12.8679 36.0068 12.8621 36.0497C12.8562 36.0925 12.8591 36.1361 12.8705 36.1779L13.3089 38.0263C13.3173 38.0688 13.3342 38.1092 13.3586 38.145C13.383 38.1809 13.4144 38.2114 13.4508 38.2349C13.4873 38.2584 13.5281 38.2742 13.5708 38.2815C13.6136 38.2889 13.6574 38.2875 13.6995 38.2775C13.7417 38.2675 13.7815 38.2491 13.8164 38.2235C13.8513 38.1978 13.8807 38.1653 13.9028 38.128C13.9249 38.0907 13.9393 38.0493 13.945 38.0063C13.9508 37.9634 13.9478 37.9197 13.9363 37.8779L13.4979 36.0292ZM16.446 35.3263C16.4363 35.285 16.4185 35.2461 16.3937 35.2118C16.369 35.1774 16.3377 35.1483 16.3016 35.1261C16.2656 35.1038 16.2255 35.0889 16.1837 35.0822C16.1418 35.0755 16.0991 35.0771 16.0579 35.0869C16.0167 35.0966 15.9778 35.1144 15.9434 35.1391C15.9091 35.1639 15.8799 35.1952 15.8577 35.2313C15.8355 35.2673 15.8206 35.3074 15.8138 35.3492C15.8071 35.391 15.8087 35.4338 15.8185 35.475L16.254 37.3101C16.2566 37.3214 16.2634 37.3427 16.2673 37.3534C16.2891 37.4152 16.3296 37.4688 16.3833 37.5065C16.4369 37.5443 16.501 37.5644 16.5666 37.564C16.6034 37.564 16.6405 37.5576 16.6776 37.5447C16.8356 37.4882 16.9215 37.3172 16.8808 37.1572L16.446 35.3263Z" fill="#BA6A7E"/>
<path d="M5.14756 17.9276C5.06235 17.9203 4.97774 17.9471 4.91222 18.0021C4.84669 18.057 4.80559 18.1357 4.79788 18.2208L4.72369 19.066C4.71992 19.1082 4.72452 19.1507 4.73721 19.1911C4.7499 19.2315 4.77044 19.269 4.79765 19.3014C4.82486 19.3339 4.8582 19.3607 4.89577 19.3802C4.93334 19.3998 4.9744 19.4117 5.01659 19.4153C5.02627 19.416 5.03594 19.4166 5.0453 19.4166C5.12593 19.4165 5.2036 19.3862 5.263 19.3317C5.32241 19.2772 5.35925 19.2024 5.36627 19.1221L5.44046 18.277C5.44789 18.1918 5.42121 18.1072 5.3663 18.0417C5.31138 17.9762 5.2327 17.9351 5.14756 17.9276ZM6.39304 17.5902C6.36181 17.5606 6.32499 17.5376 6.28474 17.5225C6.24449 17.5074 6.20163 17.5005 6.15867 17.5022C6.11572 17.5039 6.07353 17.5142 6.0346 17.5324C5.99566 17.5506 5.96076 17.5764 5.93195 17.6083C5.90314 17.6403 5.881 17.6776 5.86682 17.7182C5.85265 17.7588 5.84673 17.8018 5.84942 17.8447C5.85211 17.8876 5.86334 17.9295 5.88247 17.968C5.90159 18.0065 5.92822 18.0408 5.96078 18.0689L6.58982 18.6366C6.62118 18.6652 6.65787 18.6872 6.69779 18.7015C6.7377 18.7158 6.78005 18.722 6.82239 18.7199C6.86473 18.7177 6.90623 18.7072 6.94449 18.6889C6.98274 18.6706 7.01701 18.645 7.0453 18.6134C7.1026 18.5499 7.13234 18.4663 7.12798 18.3809C7.12363 18.2954 7.08553 18.2153 7.02207 18.1579L6.39304 17.5902Z" fill="#E28B50"/>
<path d="M13.418 9.57996H10.509C9.45446 9.99813 9.2207 9.28906 7.01817 9.28906C4.81564 9.28906 4.58188 9.99813 3.52734 9.57996H0.618346L0.230469 16.8889C0.472897 19.7615 2.25465 21.3251 3.66071 21.8948H10.3757C11.7817 21.3251 13.5635 19.7615 13.8059 16.8889L13.418 9.57996Z" fill="#F5DCB4"/>
<path d="M10.5088 9.5818C13.7842 10.5622 12.0011 15.618 14.1101 17.8034C14.4129 18.1172 14.9478 17.9778 15.0742 17.5605C15.2411 17.0092 15.4079 16.137 15.3814 14.8908C15.345 13.1817 16.0359 13.0727 16.0359 13.0727C16.0359 13.0727 15.1632 9 12.5451 9C11.6724 9 10.5088 9.5818 10.5088 9.5818Z" fill="#965A50"/>
<path d="M3.96346 17.1454C3.40347 17.1454 2.94531 16.6873 2.94531 16.1273V15.5455C2.94531 14.9855 3.40347 14.5273 3.96346 14.5273C4.52345 14.5273 4.98161 14.9855 4.98161 15.5455V16.1273C4.98164 16.6873 4.52345 17.1454 3.96346 17.1454Z" fill="#4B3F4E"/>
<path d="M3.96356 14.5273C3.91379 14.5273 3.86602 14.5351 3.81812 14.5421V15.9818C3.81812 16.3031 4.07861 16.5636 4.39991 16.5636C4.72125 16.5636 4.98171 16.3031 4.98171 15.9818V15.5455C4.98175 14.9856 4.52356 14.5273 3.96356 14.5273Z" fill="#5D5360"/>
<path d="M3.9632 15.6911C4.20419 15.6911 4.39955 15.4957 4.39955 15.2547C4.39955 15.0137 4.20419 14.8184 3.9632 14.8184C3.72222 14.8184 3.52686 15.0137 3.52686 15.2547C3.52686 15.4957 3.72222 15.6911 3.9632 15.6911Z" fill="white"/>
<path d="M10.0723 17.1454C9.51235 17.1454 9.0542 16.6873 9.0542 16.1273V15.5455C9.0542 14.9855 9.51235 14.5273 10.0723 14.5273C10.6323 14.5273 11.0905 14.9855 11.0905 15.5455V16.1273C11.0905 16.6873 10.6323 17.1454 10.0723 17.1454Z" fill="#4B3F4E"/>
<path d="M10.0725 14.5273C10.0227 14.5273 9.97491 14.5351 9.927 14.5421V15.9818C9.927 16.3031 10.1875 16.5636 10.5088 16.5636C10.8301 16.5636 11.0906 16.3031 11.0906 15.9818V15.5455C11.0906 14.9856 10.6324 14.5273 10.0725 14.5273Z" fill="#5D5360"/>
<path d="M10.0726 15.6911C10.3136 15.6911 10.5089 15.4957 10.5089 15.2547C10.5089 15.0137 10.3136 14.8184 10.0726 14.8184C9.83159 14.8184 9.63623 15.0137 9.63623 15.2547C9.63623 15.4957 9.83159 15.6911 10.0726 15.6911Z" fill="white"/>
<path d="M14.1101 17.8031C14.4129 18.1168 14.9478 17.9775 15.0742 17.5602C15.1699 17.244 15.2644 16.8183 15.3236 16.281C14.7517 15.9959 14.2635 15.0865 13.9632 13.545C13.4178 10.7451 12.6542 9.18146 10.5088 9.58142C13.7842 10.5618 12.0011 15.6177 14.1101 17.8031Z" fill="#824641"/>
<path d="M3.66071 21.8969H5.0395C5.0395 21.8969 2.61832 20.2727 2.21833 17.4C1.44021 11.8116 2.92134 10.1396 4.20242 9.7129C3.99948 9.71977 3.78869 9.68563 3.52738 9.58203H0.618346L0.230469 16.8909C0.472897 19.7636 2.25465 21.3272 3.66071 21.8969Z" fill="#E7C9A5"/>
<path d="M3.52713 9.5818C0.251741 10.5622 2.03486 15.6181 -0.0741737 17.8034C-0.376945 18.1172 -0.911892 17.9778 -1.03825 17.5605C-1.20522 17.0092 -1.37198 16.137 -1.34546 14.8908C-1.3091 13.1817 -2 13.0727 -2 13.0727C-2 13.0727 -1.1273 9 1.49083 9C2.36353 9 3.52713 9.5818 3.52713 9.5818Z" fill="#965A50"/>
<path d="M3.42976 9.53548C3.13456 9.39852 2.21389 9 1.49083 9C-1.1273 9 -2 13.0727 -2 13.0727C-2 13.0727 -1.3091 13.1818 -1.34546 14.8908C-1.34595 14.9136 -1.34528 14.9342 -1.34563 14.9567C0.328358 8.60589 2.90066 9.31246 3.42976 9.53548Z" fill="#824641"/>
<path d="M7.01808 24.4178C8.78537 24.4178 10.218 23.3759 10.218 22.0907C10.218 20.8055 8.78537 19.7637 7.01808 19.7637C5.25079 19.7637 3.81812 20.8055 3.81812 22.0907C3.81812 23.3759 5.25079 24.4178 7.01808 24.4178Z" fill="#BC8E78"/>
<path d="M5.56348 22.0898V23.5443C5.56348 24.3476 6.21467 24.9988 7.01797 24.9988C7.82128 24.9988 8.47247 24.3476 8.47247 23.5443V22.0898H5.56348Z" fill="#FF8087"/>
<path d="M5.56348 23.226C5.98411 23.1733 6.38101 23.0453 6.72707 22.8518V23.2535C6.72826 23.3298 6.75943 23.4027 6.81386 23.4563C6.86828 23.5099 6.9416 23.5399 7.01797 23.5399C7.09435 23.5399 7.16766 23.5099 7.22209 23.4563C7.27651 23.4027 7.30768 23.3298 7.30887 23.2535V22.8481C7.65159 23.0437 8.04954 23.1731 8.47247 23.2261V22.0898H5.56348V23.226Z" fill="#E6646E"/>
<path d="M8.90875 19.4727H5.12706C3.9221 19.4727 2.94531 20.189 2.94531 21.0726C2.94531 21.9562 3.92214 22.6726 5.12706 22.6726C5.73383 22.6726 6.28185 22.4905 6.67684 22.1971C6.77685 22.1228 6.89743 22.0857 7.0178 22.0857C7.13838 22.0857 7.25896 22.1228 7.35897 22.1971C7.75396 22.4905 8.30198 22.6726 8.90875 22.6726C10.1137 22.6726 11.0905 21.9562 11.0905 21.0726C11.0905 20.189 10.1137 19.4727 8.90875 19.4727Z" fill="#D4AF91"/>
<path d="M7.01793 18.3086C7.9819 18.3086 8.76333 18.8296 8.76333 19.4722C8.76333 20.092 8.02977 20.4183 7.50035 20.6596C7.34891 20.7287 7.18437 20.7645 7.01789 20.7645C6.85141 20.7645 6.68688 20.7287 6.53543 20.6596C6.00602 20.4183 5.27246 20.092 5.27246 19.4722C5.27253 18.8296 6.05396 18.3086 7.01793 18.3086Z" fill="#5D5360"/>
<path d="M6.13607 19.1541C6.09538 18.788 6.35328 18.3965 6.35328 18.3965C5.7191 18.5708 5.27246 18.9866 5.27246 19.4723C5.27246 20.092 6.00602 20.4183 6.53543 20.6597C6.68688 20.7288 6.85142 20.7646 7.01789 20.7646C7.18437 20.7646 7.3489 20.7288 7.50035 20.6597C7.6142 20.6078 7.7375 20.5516 7.8609 20.4897C7.14513 20.3632 6.21787 19.8905 6.13607 19.1541Z" fill="#4B3F4E"/>
</g>
<defs>
<clipPath id="clip0_744_26306">
<rect width="40" height="40" fill="white"/>
</clipPath>
</defs>
</svg>
