<svg width="24" height="24" viewBox="0 0 24 24" fill="none" xmlns="http://www.w3.org/2000/svg">
  <path d="M11.8516 5.25H9.60156V18.75H11.8516C13.1266 18.75 14.1016 17.775 14.1016 16.5V7.5C14.1016 6.225 13.1266 5.25 11.8516 5.25Z" fill="#EEEEEE"/>
  <path d="M9.37656 3.37375C8.77656 2.92375 7.95156 2.84875 7.27656 3.14875L2.77656 4.94875C1.95156 5.24875 1.35156 6.07375 1.35156 7.04875V17.0238C1.35156 17.9238 1.87656 18.7488 2.77656 19.1238L7.27656 20.9237C8.47656 21.3738 9.75156 20.7738 10.2016 19.6488C10.2766 19.4238 10.3516 19.1238 10.3516 18.8238V5.24875C10.3516 4.49875 9.97656 3.74875 9.37656 3.37375Z" fill="#F44336"/>
  <path d="M22.4266 11.4734L18.3766 7.12344C18.0766 6.82344 17.6266 6.82344 17.3266 7.12344C17.1766 7.27344 17.1016 7.42344 17.1016 7.64844V9.74844H12.6016C11.7766 9.74844 11.1016 10.4234 11.1016 11.2484V12.7484C11.1016 13.5734 11.7766 14.2484 12.6016 14.2484H17.1016V16.3484C17.1016 16.7984 17.4766 17.0984 17.8516 17.0984C18.0766 17.0984 18.2266 17.0234 18.3766 16.8734L22.4266 12.5234C22.7266 12.2234 22.7266 11.7734 22.4266 11.4734Z" fill="#757575"/>
  <path d="M6.60156 12.75C7.01578 12.75 7.35156 12.4142 7.35156 12C7.35156 11.5858 7.01578 11.25 6.60156 11.25C6.18735 11.25 5.85156 11.5858 5.85156 12C5.85156 12.4142 6.18735 12.75 6.60156 12.75Z" fill="#C2185B"/>
</svg>