<svg width="41" height="40" viewBox="0 0 41 40" fill="none" xmlns="http://www.w3.org/2000/svg">
  <g clip-path="url(#clip0_826_24876)">
    <path d="M22.8438 1.25H4.01562C2.07023 1.25 0.5 2.82023 0.5 4.76562V11.7969C0.5 13.7421 2.07023 15.3125 4.01562 15.3125H5.26562V18.8281C5.26562 19.2969 5.54688 19.7188 5.99219 19.9062C6.13281 19.9766 6.29688 20 6.4375 20C6.74219 20 7.04688 19.8828 7.25773 19.6484L11.6172 15.3125H15.8125C15.9062 15.3125 16.0001 15.3125 16.0938 15.2655L25.4688 12.9218C25.9845 12.8046 26.3594 12.3359 26.3594 11.7969V4.76562C26.3594 2.82023 24.7891 1.25 22.8438 1.25Z" fill="#73BCFF"/>
    <path d="M26.3594 4.76562V11.7969C26.3594 12.3359 25.9845 12.8047 25.4688 12.9218L16.0938 15.2655C16.0001 15.3125 15.9062 15.3125 15.8125 15.3125H13.4688V1.25H22.8438C24.7891 1.25 26.3594 2.82023 26.3594 4.76562Z" fill="#3AAAFF"/>
    <path d="M36.9844 10.625H18.1562C16.2109 10.625 14.6406 12.1952 14.6406 14.1406V21.1719C14.6406 21.7109 15.0155 22.1797 15.5312 22.2968C15.7421 22.3672 24.9765 24.6875 25.1875 24.6875H30.1093L33.6719 28.9531C33.9766 29.328 34.4921 29.4687 34.9609 29.3046C35.4298 29.1405 35.7345 28.6952 35.7345 28.2031V24.6875H36.9845C38.9298 24.6875 40.5001 23.1171 40.5001 21.1719V14.1406C40.5 12.1952 38.9298 10.625 36.9844 10.625Z" fill="#FF6C6C"/>
    <path d="M40.5 14.1406V21.1719C40.5 23.1171 38.9298 24.6875 36.9844 24.6875H35.7344V28.2031C35.7344 28.6952 35.4297 29.1405 34.9609 29.3046C34.492 29.4687 33.9766 29.328 33.6718 28.9531L30.1092 24.6875H27.5312V10.625H36.9844C38.9298 10.625 40.5 12.1952 40.5 14.1406Z" fill="#FF4949"/>
    <path d="M22.8438 20H4.01562C2.07023 20 0.5 21.5702 0.5 23.5156V30.5469C0.5 32.4921 2.07023 34.0625 4.01562 34.0625H5.26562V37.5781C5.26562 38.0469 5.54688 38.4688 5.99219 38.6562C6.41406 38.8438 6.92977 38.75 7.25773 38.3984L11.6172 34.0625H22.8438C24.7891 34.0625 26.3594 32.4921 26.3594 30.5469V23.5156C26.3594 21.5702 24.7891 20 22.8438 20Z" fill="#FFD400"/>
    <path d="M26.3594 23.5156V30.5469C26.3594 32.4921 24.7891 34.0625 22.8438 34.0625H13.4688V20H22.8438C24.7891 20 26.3594 21.5702 26.3594 23.5156Z" fill="#FDBF00"/>
    <path d="M32.2188 18.8281C32.866 18.8281 33.3906 18.3035 33.3906 17.6562C33.3906 17.009 32.866 16.4844 32.2188 16.4844C31.5715 16.4844 31.0469 17.009 31.0469 17.6562C31.0469 18.3035 31.5715 18.8281 32.2188 18.8281Z" fill="#384949"/>
    <path d="M28.7031 17.6562C28.7031 18.3124 28.1876 18.8281 27.5312 18.8281C26.8749 18.8281 26.3594 18.3124 26.3594 17.6562C26.3594 16.9999 26.8749 16.4844 27.5312 16.4844C28.1876 16.4844 28.7031 16.9999 28.7031 17.6562Z" fill="#3E5959"/>
    <path d="M22.8438 18.8281C23.491 18.8281 24.0156 18.3035 24.0156 17.6562C24.0156 17.009 23.491 16.4844 22.8438 16.4844C22.1965 16.4844 21.6719 17.009 21.6719 17.6562C21.6719 18.3035 22.1965 18.8281 22.8438 18.8281Z" fill="#3E5959"/>
    <path d="M18.1562 8.28125C18.8035 8.28125 19.3281 7.75658 19.3281 7.10938C19.3281 6.46217 18.8035 5.9375 18.1562 5.9375C17.509 5.9375 16.9844 6.46217 16.9844 7.10938C16.9844 7.75658 17.509 8.28125 18.1562 8.28125Z" fill="#384949"/>
    <path d="M14.6406 7.10938C14.6406 7.76555 14.1251 8.28125 13.4688 8.28125C12.8124 8.28125 12.2969 7.76555 12.2969 7.10938C12.2969 6.45305 12.8124 5.9375 13.4688 5.9375C14.1251 5.9375 14.6406 6.45305 14.6406 7.10938Z" fill="#3E5959"/>
    <path d="M8.78125 8.28125C9.42846 8.28125 9.95312 7.75658 9.95312 7.10938C9.95312 6.46217 9.42846 5.9375 8.78125 5.9375C8.13404 5.9375 7.60938 6.46217 7.60938 7.10938C7.60938 7.75658 8.13404 8.28125 8.78125 8.28125Z" fill="#3E5959"/>
    <path d="M18.1562 28.2031C18.8035 28.2031 19.3281 27.6785 19.3281 27.0312C19.3281 26.384 18.8035 25.8594 18.1562 25.8594C17.509 25.8594 16.9844 26.384 16.9844 27.0312C16.9844 27.6785 17.509 28.2031 18.1562 28.2031Z" fill="#384949"/>
    <path d="M14.6406 27.0312C14.6406 27.6874 14.1251 28.2031 13.4688 28.2031C12.8124 28.2031 12.2969 27.6874 12.2969 27.0312C12.2969 26.3749 12.8124 25.8594 13.4688 25.8594C14.1251 25.8594 14.6406 26.3749 14.6406 27.0312Z" fill="#3E5959"/>
    <path d="M8.78125 28.2031C9.42846 28.2031 9.95312 27.6785 9.95312 27.0312C9.95312 26.384 9.42846 25.8594 8.78125 25.8594C8.13404 25.8594 7.60938 26.384 7.60938 27.0312C7.60938 27.6785 8.13404 28.2031 8.78125 28.2031Z" fill="#3E5959"/>
    <path d="M14.6406 27.0312C14.6406 27.6874 14.1251 28.2031 13.4688 28.2031V25.8594C14.1251 25.8594 14.6406 26.3749 14.6406 27.0312ZM13.4688 8.28125V5.9375C14.1251 5.9375 14.6406 6.45305 14.6406 7.10938C14.6406 7.76555 14.1251 8.28125 13.4688 8.28125ZM28.7031 17.6562C28.7031 18.3124 28.1876 18.8281 27.5312 18.8281V16.4844C28.1876 16.4844 28.7031 16.9999 28.7031 17.6562Z" fill="#384949"/>
  </g>
  <defs>
    <clipPath id="clip0_826_24876">
      <rect width="40" height="40" fill="white" transform="translate(0.5)"/>
    </clipPath>
  </defs>
</svg>