<svg width="41" height="40" viewBox="0 0 41 40" fill="none" xmlns="http://www.w3.org/2000/svg">
  <g clip-path="url(#clip0_826_24837)">
    <path d="M40.5 20C40.5 31.0459 31.5459 40 20.5 40C9.45414 40 0.5 31.0459 0.5 20C0.5 8.95414 9.45414 0 20.5 0C31.5459 0 40.5 8.95414 40.5 20Z" fill="#FA5D0F"/>
    <path d="M40.3541 22.4135L29.991 12.0508L11.0078 33.1063L17.7064 39.8052C18.6318 39.9348 19.565 40 20.4994 40.0002C30.7283 40.0002 39.1624 32.3211 40.3541 22.4135Z" fill="#EF3800"/>
    <path d="M25.2064 7.26562H11.0078V33.1061H29.9909V12.0505L25.2064 7.26562Z" fill="white"/>
    <path d="M29.9902 12.0505L25.2056 7.26562H20.4336V33.1061H29.9902V12.0505Z" fill="#F2F6FC"/>
    <path d="M25.207 12.0505H29.9916L25.207 7.26562V12.0505Z" fill="#CDD2E1"/>
    <path d="M13.2383 14.1406H27.7594V15.9402H13.2383V14.1406Z" fill="#DCE1EB"/>
    <path d="M20.4336 14.1406H27.7594V15.9402H20.4336V14.1406Z" fill="#CDD2E1"/>
    <path d="M13.2383 17.418H27.7594V19.2179H13.2383V17.418Z" fill="#DCE1EB"/>
    <path d="M20.4336 17.418H27.7594V19.2179H20.4336V17.418Z" fill="#CDD2E1"/>
    <path d="M13.2383 20.6992H27.7594V22.4988H13.2383V20.6992Z" fill="#DCE1EB"/>
    <path d="M20.4336 20.6992H27.7594V22.4988H20.4336V20.6992Z" fill="#CDD2E1"/>
    <path d="M13.2383 23.9766H27.7594V25.7762H13.2383V23.9766Z" fill="#DCE1EB"/>
    <path d="M20.4336 23.9766H27.7594V25.7762H20.4336V23.9766Z" fill="#CDD2E1"/>
    <path d="M13.2383 27.2539H27.7594V29.0535H13.2383V27.2539Z" fill="#DCE1EB"/>
    <path d="M20.4336 27.2539H27.7594V29.0535H20.4336V27.2539Z" fill="#CDD2E1"/>
    <path d="M31.5307 29.7028C31.2947 29.7031 31.061 29.6568 30.843 29.5665C30.625 29.4762 30.427 29.3438 30.2604 29.1767L26.116 25.0324C25.4145 24.3304 25.4145 23.1931 26.116 22.4911C26.818 21.7896 27.9553 21.7893 28.6573 22.4911L32.8016 26.6354C33.5031 27.337 33.5031 28.4747 32.8016 29.1767C32.6348 29.3437 32.4367 29.4762 32.2186 29.5665C32.0006 29.6567 31.7668 29.7031 31.5308 29.7028H31.5307Z" fill="#23272B"/>
    <path d="M32.8039 26.6365L28.6596 22.4922C27.9699 21.8026 26.8605 21.7925 26.1562 22.4581L32.838 29.1399C33.5037 28.4356 33.4933 27.326 32.8039 26.6365Z" fill="#23272B"/>
    <path d="M22.3359 26.2109C18.4803 26.2109 15.3438 23.0741 15.3438 19.2188C15.3438 15.3631 18.4803 12.2266 22.3359 12.2266C26.1916 12.2266 29.3281 15.3631 29.3281 19.2188C29.3281 23.0741 26.1916 26.2109 22.3359 26.2109ZM22.3359 14.4141C19.6867 14.4141 17.5312 16.5692 17.5312 19.2188C17.5312 21.868 19.6867 24.0234 22.3359 24.0234C24.9852 24.0234 27.1406 21.868 27.1406 19.2188C27.1406 16.5692 24.9852 14.4141 22.3359 14.4141Z" fill="#414952"/>
    <path d="M22.3344 14.4141C24.9836 14.4141 27.1391 16.5692 27.1391 19.2188C27.1391 20.3958 26.7127 21.4749 26.0075 22.3111L27.5577 23.8614C28.6573 22.6257 29.3266 20.9989 29.3266 19.2188C29.3266 15.3631 26.19 12.2266 22.3344 12.2266C20.5539 12.2266 18.9273 12.8955 17.6914 13.9953L19.2417 15.5453C20.0782 14.8401 21.1573 14.4141 22.3344 14.4141Z" fill="#23272B"/>
  </g>
  <defs>
    <clipPath id="clip0_826_24837">
      <rect width="40" height="40" fill="white" transform="translate(0.5)"/>
    </clipPath>
  </defs>
</svg>