<svg width="41" height="40" viewBox="0 0 41 40" fill="none" xmlns="http://www.w3.org/2000/svg">
  <g clip-path="url(#clip0_829_28089)">
    <path d="M20.5 40C31.5457 40 40.5 31.0457 40.5 20C40.5 8.9543 31.5457 0 20.5 0C9.4543 0 0.5 8.9543 0.5 20C0.5 31.0457 9.4543 40 20.5 40Z" fill="#5FEB09"/>
    <path d="M40.5012 19.9997C40.5012 18.3196 40.2941 16.688 39.904 15.1288L34.5025 9.72742L32.6666 12.2127L26.4773 6.02344L6.5 29.955L16.0468 39.5018C17.4793 39.8277 18.9702 39.9997 20.5012 39.9997C31.547 39.9997 40.5012 31.0454 40.5012 19.9997Z" fill="#52CE06"/>
    <path d="M22.5469 9.72852H34.499V29.9561H22.5469V9.72852Z" fill="#CDD2E1"/>
    <path d="M28.5259 19.7433C30.5337 19.7433 32.1612 18.1157 32.1612 16.108C32.1612 14.1002 30.5337 12.4727 28.5259 12.4727C26.5182 12.4727 24.8906 14.1002 24.8906 16.108C24.8906 18.1157 26.5182 19.7433 28.5259 19.7433Z" fill="#6F798E"/>
    <path d="M6.5 9.72852H18.4521V29.9561H6.5V9.72852Z" fill="#E9EDF5"/>
    <path d="M24.207 21.5332H32.8393V23.8838H24.207V21.5332Z" fill="#414952"/>
    <path d="M24.207 25.457H32.8393V27.8076H24.207V25.457Z" fill="#707789"/>
    <path d="M12.4752 19.7433C14.4829 19.7433 16.1105 18.1157 16.1105 16.108C16.1105 14.1002 14.4829 12.4727 12.4752 12.4727C10.4674 12.4727 8.83984 14.1002 8.83984 16.108C8.83984 18.1157 10.4674 19.7433 12.4752 19.7433Z" fill="#7E8596"/>
    <path d="M8.16016 21.5332H16.7924V23.8838H8.16016V21.5332Z" fill="#636978"/>
    <path d="M8.16016 25.457H16.7924V27.8076H8.16016V25.457Z" fill="#AFB4C8"/>
    <path d="M14.5234 6.02344H26.4755V26.251H14.5234V6.02344Z" fill="white"/>
    <path d="M20.4688 6.02344H26.4727V26.251H20.4688V6.02344Z" fill="#F2F6FC"/>
    <path d="M23.9868 9.45805C23.5289 9.45805 23.1577 9.8293 23.1577 10.2872C23.1577 10.4734 23.2198 10.6448 23.3235 10.7832L22.2433 11.5559L20.958 10.1488C21.0721 10.0732 21.1657 9.97059 21.2304 9.85006C21.2951 9.72953 21.329 9.59485 21.3289 9.45805C21.3289 9.00016 20.9577 8.62891 20.4998 8.62891C20.0419 8.62891 19.6706 9.00016 19.6706 9.45805C19.6706 9.74648 19.818 10.0002 20.0415 10.1488L18.7563 11.5559L17.676 10.7832C17.7837 10.6402 17.8419 10.4661 17.8419 10.2872C17.8419 9.8293 17.4707 9.45805 17.0127 9.45805C16.5548 9.45805 16.1836 9.8293 16.1836 10.2872C16.1836 10.7451 16.5548 11.1163 17.0127 11.1163V14.5593H23.9867V11.1163C24.4446 11.1163 24.8159 10.7452 24.8159 10.2872C24.8159 9.8293 24.4448 9.45805 23.9868 9.45805Z" fill="#FFCE00"/>
    <path d="M23.9835 9.45805C23.5256 9.45805 23.1544 9.8293 23.1544 10.2872C23.1544 10.4734 23.2166 10.6448 23.3202 10.7832L22.24 11.5559L20.9548 10.1488C21.0689 10.0732 21.1625 9.97059 21.2272 9.85006C21.2919 9.72953 21.3257 9.59485 21.3257 9.45805C21.3257 9.00016 20.9545 8.62891 20.4966 8.62891C20.4872 8.62891 20.478 8.63 20.4688 8.63031V14.5593H23.9835V11.1163C24.4414 11.1163 24.8127 10.7452 24.8127 10.2872C24.8127 9.82922 24.4415 9.45805 23.9835 9.45805Z" fill="#FDBA12"/>
    <path d="M16.1836 16.8711H24.8159V19.2216H16.1836V16.8711Z" fill="#FE6A16"/>
    <path d="M20.4688 16.8711H24.8127V19.2216H20.4688V16.8711Z" fill="#F24500"/>
    <path d="M16.1836 20.7949H24.8159V23.1455H16.1836V20.7949Z" fill="#AFB4C8"/>
    <path d="M20.4688 20.793H24.8127V23.1435H20.4688V20.793Z" fill="#707789"/>
  </g>
  <defs>
    <clipPath id="clip0_829_28089">
      <rect width="40" height="40" fill="white" transform="translate(0.5)"/>
    </clipPath>
  </defs>
</svg>