<svg width="41" height="40" viewBox="0 0 41 40" fill="none" xmlns="http://www.w3.org/2000/svg">
  <path d="M34.4025 14.6367H10.2328C8.89344 14.6367 7.80859 15.7216 7.80859 17.061V34.8549H36.8268V17.061C36.8268 15.7216 35.7419 14.6367 34.4025 14.6367Z" fill="#E1D9E1"/>
  <path d="M10.2344 17.0625H34.4041V32.4322H10.2344V17.0625Z" fill="#4F7CE7"/>
  <path d="M31.6829 21.3816L27.9374 19.1089C27.8848 19.077 27.8246 19.0596 27.763 19.0586C27.7014 19.0577 27.6407 19.0731 27.587 19.1033C27.5333 19.1335 27.4887 19.1775 27.4576 19.2306C27.4265 19.2838 27.4102 19.3443 27.4102 19.4059V23.9513C27.4102 24.224 27.7071 24.3877 27.9374 24.2483L31.6829 21.9755C31.9071 21.8422 31.9071 21.521 31.6829 21.3816Z" fill="white"/>
  <path opacity="0.1" d="M24.3601 30.6125C26.0328 30.6125 27.3904 29.2549 27.3904 27.5822V24.5519H25.0207V14.6367H10.2328C8.89344 14.6367 7.80859 15.7216 7.80859 17.061V30.6125H24.3601Z" fill="black"/>
  <path d="M5.35547 34.8555C5.35547 36.8676 6.98577 38.4918 8.99183 38.4918H35.6464C37.6585 38.4918 39.2827 36.8615 39.2827 34.8555H5.35547Z" fill="#0E4B5C"/>
  <path d="M5.35511 9.14647V6.37678C5.35511 5.37072 4.54299 4.55859 3.53693 4.55859C2.53087 4.55859 1.71875 5.37072 1.71875 6.37678V9.14647H5.35511ZM8.99148 25.7586V27.5768C8.99148 28.5828 8.17936 29.395 7.1733 29.395H24.3612C25.3672 29.395 26.1794 28.5828 26.1794 27.5768V25.7586H8.99148Z" fill="#FF7146"/>
  <path d="M8.99186 27.583V25.7649H23.8161V6.37092C23.8161 5.36486 23.004 4.55273 21.9979 4.55273H3.53125C4.53731 4.55273 5.34943 5.36486 5.34943 6.37092V27.577C5.34943 28.583 6.16155 29.3952 7.16761 29.3952C8.17367 29.3952 8.99186 28.583 8.99186 27.583Z" fill="#E5E5E5"/>
  <path d="M36.4387 11.5392C36.3538 11.5392 36.269 11.515 36.1902 11.4665L32.6205 9.13922C32.4084 8.99982 32.3477 8.72103 32.4871 8.50891C32.6265 8.29679 32.9053 8.23619 33.1174 8.37558L36.6932 10.6968C36.9053 10.8362 36.9659 11.115 36.8265 11.3271C36.7356 11.4665 36.5902 11.5392 36.4387 11.5392ZM32.8629 6.59982C32.787 6.60058 32.7122 6.58208 32.6454 6.54604C32.5786 6.51 32.5221 6.45761 32.4811 6.39376C32.4481 6.34374 32.4253 6.28766 32.4142 6.22878C32.403 6.1699 32.4036 6.10938 32.4161 6.05075C32.4285 5.99212 32.4524 5.93653 32.4864 5.88721C32.5205 5.8379 32.564 5.79583 32.6144 5.76346L36.1902 3.44225C36.4023 3.30285 36.6811 3.36346 36.8205 3.57558C36.9599 3.7877 36.8993 4.06649 36.6871 4.20588L33.1114 6.5271C33.0387 6.58164 32.9478 6.59982 32.8629 6.59982Z" fill="#658C99"/>
  <path d="M31.1993 9.57641C32.3709 9.57641 33.3205 8.62671 33.3205 7.4552C33.3205 6.28368 32.3709 5.33398 31.1993 5.33398C30.0278 5.33398 29.0781 6.28368 29.0781 7.4552C29.0781 8.62671 30.0278 9.57641 31.1993 9.57641Z" fill="#FFC040"/>
  <path d="M37.5731 4.37663C38.3664 4.37663 39.0094 3.73355 39.0094 2.94027C39.0094 2.14699 38.3664 1.50391 37.5731 1.50391C36.7798 1.50391 36.1367 2.14699 36.1367 2.94027C36.1367 3.73355 36.7798 4.37663 37.5731 4.37663Z" fill="#1980B3"/>
  <path d="M37.5731 13.4001C38.3664 13.4001 39.0094 12.757 39.0094 11.9637C39.0094 11.1704 38.3664 10.5273 37.5731 10.5273C36.7798 10.5273 36.1367 11.1704 36.1367 11.9637C36.1367 12.757 36.7798 13.4001 37.5731 13.4001Z" fill="#1980B3"/>
  <path d="M7.77876 16.3583H21.1485C21.3969 16.3583 21.603 16.1522 21.603 15.9038C21.603 15.6553 21.3969 15.4492 21.1485 15.4492H7.77876C7.65821 15.4492 7.5426 15.4971 7.45735 15.5824C7.37211 15.6676 7.32422 15.7832 7.32422 15.9038C7.32422 16.0243 7.37211 16.1399 7.45735 16.2252C7.5426 16.3104 7.65821 16.3583 7.77876 16.3583ZM21.1424 17.8553H7.77876C7.53028 17.8553 7.32422 18.0613 7.32422 18.3098C7.32422 18.5583 7.53028 18.7644 7.77876 18.7644H21.1485C21.3969 18.7644 21.603 18.5583 21.603 18.3098C21.603 18.0613 21.3969 17.8553 21.1424 17.8553ZM21.1424 20.2613H7.77876C7.53028 20.2613 7.32422 20.4674 7.32422 20.7159C7.32422 20.9644 7.53028 21.1704 7.77876 21.1704H21.1485C21.3969 21.1704 21.603 20.9644 21.603 20.7159C21.603 20.4674 21.3969 20.2613 21.1424 20.2613ZM21.1424 22.6613H7.77876C7.53028 22.6613 7.32422 22.8674 7.32422 23.1159C7.32422 23.3644 7.53028 23.5704 7.77876 23.5704H21.1485C21.3969 23.5704 21.603 23.3644 21.603 23.1159C21.603 22.8674 21.3969 22.6613 21.1424 22.6613Z" fill="#3CC9D7"/>
  <path d="M7.78125 6.97656H12.757V12.6553H7.78125V6.97656Z" fill="#C3B8C3"/>
  <path d="M12.7509 7.4008V6.97656H11.9206L7.78125 11.9463V12.6553H8.37519L12.7509 7.4008Z" fill="#E1D9E1"/>
</svg>