<svg width="41" height="40" viewBox="0 0 41 40" fill="none" xmlns="http://www.w3.org/2000/svg">
  <g clip-path="url(#clip0_831_32164)">
    <path d="M16.8667 24.5014L15.3092 24.9777C15.1023 25.0409 14.8798 25.0306 14.6796 24.9485C14.4794 24.8664 14.3138 24.7176 14.2108 24.5273L10.3242 17.3517L13.7111 16.3164L17.417 23.1583C17.4832 23.2804 17.5214 23.4157 17.5289 23.5544C17.5363 23.6931 17.5129 23.8317 17.4602 23.9603C17.4076 24.0888 17.327 24.204 17.2244 24.2976C17.1217 24.3912 16.9996 24.4608 16.8667 24.5014Z" fill="#398F04"/>
    <path d="M20.9916 0.694303C20.7477 0.766716 20.5204 0.886474 20.3227 1.04674C20.1251 1.207 19.9609 1.40463 19.8396 1.62833C19.7184 1.85204 19.6424 2.09745 19.6159 2.35053C19.5895 2.60362 19.6132 2.85944 19.6857 3.10337L24.225 17.9556C24.383 18.4428 24.7261 18.8484 25.1804 19.0851C25.6346 19.3218 26.1636 19.3706 26.6535 19.221C27.1433 19.0713 27.5548 18.7353 27.7992 18.2852C28.0437 17.8351 28.1016 17.307 27.9604 16.8146L23.4197 1.96149C23.2656 1.47159 22.9233 1.06293 22.468 0.825312C22.0127 0.587698 21.4816 0.540577 20.9916 0.694303Z" fill="#EEEEEE"/>
    <path d="M24.2275 17.9521L19.6866 3.09986C19.6293 2.91195 19.6015 2.7163 19.6041 2.51986C16.9081 6.2408 12.516 8.33236 9.67876 9.37799C9.2022 9.55393 7.73626 9.97174 7.73626 9.97174C7.38304 10.0797 7.05455 10.2563 6.76954 10.4912C6.48454 10.7262 6.24861 11.015 6.07522 11.3411C5.90184 11.6672 5.79439 12.0243 5.75902 12.392C5.72365 12.7597 5.76105 13.1307 5.86908 13.4839L6.96564 17.0702C7.18402 17.7832 7.6766 18.3803 8.3351 18.7302C8.9936 19.0801 9.7641 19.1542 10.4772 18.9361C10.4772 18.9361 11.9263 18.463 12.4197 18.3424C15.3572 17.6236 20.1675 16.9008 24.4822 18.478C24.3706 18.3169 24.2847 18.1395 24.2275 17.9521ZM26.7128 12.7214C27.4404 12.3333 28.0105 11.7044 28.3256 10.9424C28.6406 10.1803 28.681 9.33242 28.4399 8.54384C28.1988 7.75525 27.6911 7.07497 27.0038 6.61939C26.3164 6.16382 25.4921 5.96128 24.6719 6.04643L26.7128 12.7214ZM33.2813 6.08361L31.4885 6.63174C31.2507 6.70443 31.0515 6.86859 30.9348 7.08813C30.818 7.30766 30.7933 7.56458 30.866 7.80236C30.9386 8.04015 31.1028 8.23932 31.3223 8.35606C31.5419 8.4728 31.7988 8.49755 32.0366 8.42486L33.8297 7.87643C33.949 7.84173 34.0601 7.78369 34.1568 7.70566C34.2534 7.62764 34.3336 7.53119 34.3926 7.42193C34.4516 7.31266 34.4884 7.19275 34.5007 7.06916C34.513 6.94557 34.5006 6.82077 34.4643 6.70201C34.428 6.58324 34.3684 6.47288 34.2891 6.37733C34.2097 6.28178 34.1122 6.20294 34.0021 6.14541C33.892 6.08787 33.7716 6.05278 33.6479 6.04218C33.5241 6.03157 33.3995 6.04565 33.2813 6.08361ZM33.865 13.3367L32.2088 12.4567C32.1 12.399 32.0037 12.3203 31.9253 12.2253C31.847 12.1303 31.7881 12.0208 31.7521 11.9031C31.716 11.7853 31.7035 11.6616 31.7153 11.539C31.7271 11.4164 31.7629 11.2974 31.8206 11.1886C31.8784 11.0799 31.9571 10.9836 32.0521 10.9052C32.1471 10.8268 32.2566 10.768 32.3743 10.7319C32.4921 10.6959 32.6158 10.6834 32.7384 10.6951C32.8609 10.7069 32.98 10.7427 33.0888 10.8005L34.745 11.6808C34.8538 11.7386 34.9501 11.8173 35.0284 11.9123C35.1068 12.0073 35.1656 12.1168 35.2017 12.2346C35.2377 12.3524 35.2502 12.4761 35.2384 12.5987C35.2266 12.7213 35.1908 12.8403 35.133 12.9491C35.0752 13.0578 34.9965 13.1541 34.9015 13.2325C34.8065 13.3108 34.697 13.3697 34.5792 13.4057C34.4614 13.4418 34.3377 13.4542 34.2151 13.4425C34.0925 13.4307 33.9735 13.3949 33.8647 13.3371L33.865 13.3367ZM30.2575 1.53674L29.3772 3.19299C29.3194 3.30174 29.2836 3.42081 29.2718 3.5434C29.26 3.666 29.2725 3.78971 29.3085 3.90748C29.3813 4.14533 29.5455 4.34453 29.7652 4.46127C29.9848 4.57801 30.2418 4.60271 30.4797 4.52996C30.7175 4.4572 30.9167 4.29293 31.0335 4.0733L31.9138 2.41705C32.0305 2.19742 32.0552 1.94041 31.9825 1.70256C31.9097 1.46471 31.7454 1.26551 31.5258 1.14877C31.3062 1.03203 31.0492 1.00733 30.8113 1.08009C30.5735 1.15284 30.3743 1.31711 30.2575 1.53674Z" fill="#52CE06"/>
    <path d="M12.4196 18.343L10.4771 18.9367C9.76378 19.1548 8.99305 19.0806 8.33445 18.7304C7.67585 18.3803 7.18333 17.7828 6.96521 17.0695L5.86896 13.4845C5.76099 13.1313 5.72364 12.7603 5.75905 12.3926C5.79447 12.025 5.90195 11.6679 6.07536 11.3418C6.24878 11.0157 6.48473 10.7269 6.76974 10.492C7.05475 10.2571 7.38324 10.0806 7.73646 9.97266L9.67896 9.37891L12.4196 18.343Z" fill="#EEEEEE"/>
    <path d="M4.5625 21.7188V36.7188C4.5625 37.4647 4.85882 38.18 5.38626 38.7075C5.91371 39.2349 6.62908 39.5312 7.375 39.5312H33.625C34.3709 39.5312 35.0863 39.2349 35.6137 38.7075C36.1412 38.18 36.4375 37.4647 36.4375 36.7188V21.7188C36.4375 21.4701 36.3387 21.2317 36.1629 21.0558C35.9871 20.88 35.7486 20.7812 35.5 20.7812H5.5C5.25136 20.7812 5.0129 20.88 4.83709 21.0558C4.66127 21.2317 4.5625 21.4701 4.5625 21.7188Z" fill="#FFC107"/>
    <path d="M25.5 20.7812V39.5312H33.625C34.3709 39.5312 35.0863 39.2349 35.6137 38.7075C36.1412 38.18 36.4375 37.4647 36.4375 36.7188V21.7188C36.4375 21.4701 36.3387 21.2317 36.1629 21.0558C35.9871 20.88 35.7486 20.7812 35.5 20.7812H25.5Z" fill="#FFB300"/>
    <path d="M1.37733 24.5516L3.9967 21.4469C4.17271 21.2383 4.39211 21.0708 4.63958 20.9558C4.88706 20.8408 5.15664 20.7813 5.42952 20.7812H25.4967L21.8561 25.0953C21.5921 25.4081 21.2629 25.6595 20.8917 25.832C20.5205 26.0044 20.116 26.0938 19.7067 26.0938H2.09358C1.91491 26.0937 1.73996 26.0426 1.58935 25.9465C1.43874 25.8504 1.31874 25.7132 1.24348 25.5511C1.16822 25.3891 1.14083 25.2089 1.16454 25.0318C1.18826 24.8547 1.26208 24.6881 1.37733 24.5516Z" fill="#FFD54F"/>
    <path d="M39.6194 24.5516L37 21.4469C36.824 21.2383 36.6046 21.0708 36.3571 20.9558C36.1096 20.8408 35.8401 20.7813 35.5672 20.7812H25.5L29.1406 25.0953C29.4046 25.4081 29.7338 25.6595 30.105 25.832C30.4763 26.0044 30.8807 26.0938 31.29 26.0938H38.9031C39.0818 26.0937 39.2567 26.0426 39.4074 25.9465C39.558 25.8504 39.678 25.7132 39.7532 25.5511C39.8285 25.3891 39.8559 25.2089 39.8322 25.0318C39.8084 24.8547 39.7346 24.6881 39.6194 24.5516Z" fill="#FFC107"/>
    <path d="M11.9062 34.2188H7.84375C7.58487 34.2188 7.375 34.4286 7.375 34.6875V36.25C7.375 36.5089 7.58487 36.7188 7.84375 36.7188H11.9062C12.1651 36.7188 12.375 36.5089 12.375 36.25V34.6875C12.375 34.4286 12.1651 34.2188 11.9062 34.2188Z" fill="white"/>
    <path d="M32.1761 8.87742L33.9689 8.32929C34.1455 8.27531 34.3098 8.18707 34.4523 8.0696C34.5948 7.95214 34.7127 7.80777 34.7994 7.64471C34.8862 7.48166 34.9399 7.30312 34.9576 7.1193C34.9753 6.93548 34.9566 6.74996 34.9027 6.57336C34.8487 6.39675 34.7604 6.2325 34.643 6.09C34.5255 5.9475 34.3811 5.82952 34.2181 5.74282C34.055 5.65611 33.8765 5.60237 33.6927 5.58466C33.5088 5.56695 33.3233 5.58562 33.1467 5.63961L31.3536 6.18773C31.177 6.24174 31.0127 6.33 30.8703 6.44748C30.7278 6.56496 30.6098 6.70936 30.5231 6.87243C30.4364 7.03549 30.3827 7.21404 30.365 7.39787C30.3473 7.5817 30.366 7.76722 30.42 7.94383C30.474 8.12043 30.5623 8.28467 30.6798 8.42717C30.7972 8.56967 30.9416 8.68763 31.1047 8.77432C31.2678 8.86101 31.4463 8.91474 31.6301 8.93243C31.814 8.95012 31.9995 8.93143 32.1761 8.87742ZM31.6277 7.08367C31.6277 7.08367 32.9739 6.67742 33.4208 6.53554C33.4801 6.51579 33.5428 6.50811 33.6051 6.51295C33.6675 6.51779 33.7282 6.53506 33.7838 6.56373C33.8393 6.5924 33.8886 6.6319 33.9287 6.6799C33.9688 6.7279 33.9988 6.78343 34.0171 6.84322C34.0354 6.90302 34.0415 6.96587 34.0352 7.02807C34.0288 7.09027 34.01 7.15057 33.98 7.20542C33.95 7.26026 33.9093 7.30854 33.8603 7.34742C33.8113 7.3863 33.7551 7.41499 33.6948 7.43179L31.9027 7.98023C31.7838 8.01662 31.6553 8.00428 31.5455 7.94594C31.4357 7.8876 31.3536 7.78803 31.3172 7.66914C31.2808 7.55025 31.2931 7.42177 31.3515 7.31197C31.4098 7.20218 31.5094 7.12005 31.6283 7.08367H31.6277ZM31.9917 12.874L33.648 13.7546C33.9768 13.9247 34.3594 13.9582 34.7128 13.848C35.0662 13.7377 35.3619 13.4926 35.5357 13.1657C35.7095 12.8389 35.7474 12.4567 35.6411 12.102C35.5349 11.7474 35.2931 11.449 34.9683 11.2715L33.312 10.3909C32.9832 10.2208 32.6006 10.1872 32.2472 10.2975C31.8938 10.4077 31.5981 10.6529 31.4243 10.9797C31.2505 11.3066 31.2126 11.6888 31.3189 12.0434C31.4251 12.398 31.6669 12.6965 31.9917 12.874ZM32.238 11.4127C32.2668 11.3583 32.3062 11.3102 32.3537 11.271C32.4012 11.2318 32.4559 11.2024 32.5148 11.1843C32.5737 11.1663 32.6355 11.1601 32.6968 11.166C32.7581 11.1718 32.8177 11.1898 32.872 11.2187L34.5283 12.099C34.5826 12.1279 34.6308 12.1672 34.6699 12.2147C34.7091 12.2622 34.7385 12.317 34.7565 12.3759C34.7745 12.4348 34.7807 12.4966 34.7748 12.5579C34.7689 12.6192 34.7509 12.6787 34.722 12.733C34.6931 12.7874 34.6538 12.8355 34.6063 12.8747C34.5588 12.9138 34.504 12.9432 34.4451 12.9612C34.3863 12.9792 34.3244 12.9854 34.2631 12.9795C34.2018 12.9736 34.1423 12.9557 34.088 12.9268L32.4317 12.0465C32.3224 11.9877 32.2408 11.8881 32.2045 11.7695C32.1682 11.6508 32.1803 11.5226 32.238 11.4127ZM31.4489 4.29648L32.3292 2.64023C32.4172 2.47706 32.4721 2.2981 32.4907 2.11364C32.5093 1.92918 32.4912 1.74286 32.4375 1.56542C32.3838 1.38797 32.2956 1.22288 32.1779 1.07967C32.0601 0.936452 31.9152 0.817927 31.7515 0.730914C31.5878 0.643902 31.4085 0.590118 31.224 0.572657C31.0394 0.555196 30.8532 0.574404 30.6761 0.629174C30.499 0.683944 30.3344 0.773197 30.1919 0.891795C30.0494 1.01039 29.9318 1.156 29.8458 1.32023L28.9652 2.97617C28.876 3.13941 28.82 3.31872 28.8006 3.50372C28.7812 3.68872 28.7987 3.87574 28.8521 4.05393C28.9055 4.23212 28.9937 4.39796 29.1116 4.54183C29.2295 4.6857 29.3748 4.80475 29.539 4.89208C29.7033 4.97941 29.8832 5.03328 30.0684 5.05059C30.2536 5.06789 30.4404 5.04828 30.618 4.99288C30.7956 4.93749 30.9604 4.84741 31.1029 4.72787C31.2454 4.60833 31.3628 4.46171 31.4483 4.29648H31.4489ZM29.9873 4.05023C29.933 4.02135 29.8848 3.98204 29.8456 3.93454C29.8064 3.88705 29.777 3.83229 29.7589 3.77341C29.7409 3.71453 29.7347 3.65267 29.7406 3.59137C29.7465 3.53008 29.7644 3.47054 29.7933 3.41617L30.6736 1.75992C30.7023 1.70518 30.7415 1.65664 30.789 1.61711C30.8365 1.57757 30.8913 1.54782 30.9504 1.52957C31.0094 1.51131 31.0715 1.50491 31.133 1.51073C31.1945 1.51655 31.2543 1.53448 31.3088 1.56348C31.3634 1.59248 31.4117 1.63199 31.451 1.67973C31.4902 1.72747 31.5196 1.7825 31.5375 1.84165C31.5554 1.9008 31.5614 1.9629 31.5552 2.02439C31.549 2.08587 31.5307 2.14553 31.5014 2.19992L30.6211 3.85617C30.5628 3.96593 30.4632 4.04803 30.3444 4.08442C30.2256 4.12081 30.0971 4.10852 29.9873 4.05023Z" fill="black"/>
    <path d="M36.9022 36.7183V26.562H38.8991C39.167 26.5619 39.4293 26.4853 39.6551 26.3411C39.8809 26.197 40.0608 25.9914 40.1737 25.7484C40.2866 25.5055 40.3278 25.2353 40.2924 24.9698C40.257 24.7043 40.1464 24.4544 39.9738 24.2495L37.3535 21.1445C37.1336 20.8835 36.8594 20.6738 36.55 20.53C36.2406 20.3862 35.9034 20.3118 35.5622 20.312H18.1522C18.3641 20.0627 18.4924 19.7531 18.519 19.427C18.5456 19.1008 18.4691 18.7745 18.3003 18.4942L18.0135 18.0173C20.1154 17.9182 22.2174 18.2117 24.2119 18.8826C24.565 19.3159 25.057 19.6137 25.6046 19.7256C26.1522 19.8374 26.7216 19.7565 27.2163 19.4965C27.7111 19.2365 28.1007 18.8134 28.3191 18.299C28.5375 17.7845 28.5713 17.2104 28.4147 16.6739L27.27 12.9348C27.9911 12.4552 28.5382 11.7557 28.8299 10.9402C29.1216 10.1248 29.1424 9.23701 28.8892 8.40882C28.636 7.58062 28.1223 6.85624 27.4245 6.34334C26.7267 5.83045 25.882 5.55643 25.016 5.56201L23.8725 1.8217C23.701 1.28876 23.3504 0.831545 22.8803 0.527548C22.4101 0.223551 21.8493 0.091478 21.2929 0.153716C20.7365 0.215955 20.2188 0.468676 19.8274 0.86904C19.4361 1.2694 19.1952 1.79278 19.1456 2.35045C16.5956 5.7967 12.5122 7.83482 9.51846 8.9392C9.06377 9.10701 7.62409 9.51795 7.60096 9.52451C6.76933 9.77989 6.07294 10.3547 5.66455 11.1228C5.25616 11.891 5.16912 12.7898 5.42252 13.622L6.51877 17.2079C6.77736 18.0391 7.35412 18.7343 8.12325 19.1418C8.89237 19.5494 9.79145 19.6363 10.6244 19.3836L10.8488 19.3111L11.3906 20.312H5.42971C5.08855 20.3117 4.75144 20.386 4.44202 20.5297C4.1326 20.6734 3.85834 20.883 3.63846 21.1439L1.01846 24.2495C0.845834 24.4543 0.7353 24.7042 0.699862 24.9697C0.664423 25.2352 0.705556 25.5053 0.81842 25.7483C0.931284 25.9912 1.11118 26.1968 1.33695 26.341C1.56272 26.4852 1.82497 26.5618 2.09284 26.562H4.08971V36.7183C4.0907 37.5882 4.43672 38.4222 5.05186 39.0374C5.667 39.6525 6.50102 39.9985 7.37096 39.9995H33.621C34.4909 39.9985 35.3249 39.6525 35.9401 39.0374C36.5552 38.4222 36.9012 37.5882 36.9022 36.7183ZM35.5622 21.2495C35.767 21.2494 35.9693 21.294 36.155 21.3804C36.3406 21.4668 36.5051 21.5928 36.6369 21.7495L39.2572 24.8542C39.3146 24.9225 39.3513 25.0057 39.363 25.0941C39.3747 25.1826 39.361 25.2725 39.3234 25.3534C39.2858 25.4343 39.2259 25.5027 39.1507 25.5508C39.0756 25.5988 38.9883 25.6244 38.8991 25.6245H31.286C30.945 25.6247 30.6081 25.5502 30.2989 25.4065C29.9897 25.2627 29.7156 25.0531 29.496 24.7923L26.505 21.2495H35.5622ZM27.9931 8.68201C28.1721 9.27103 28.1712 9.90004 27.9907 10.4886C27.8102 11.0771 27.4582 11.5984 26.9797 11.9858L25.3056 6.5092C25.9191 6.56257 26.5026 6.79789 26.9814 7.185C27.4602 7.57212 27.8125 8.09339 27.9931 8.68201ZM21.1316 1.13982C21.5029 1.02657 21.9037 1.0632 22.2484 1.24188C22.593 1.42055 22.8539 1.72706 22.9753 2.09576C24.0919 5.81451 26.3447 13.2461 27.516 16.9479C27.6225 17.3219 27.578 17.7227 27.3922 18.0642C27.2064 18.4058 26.894 18.6608 26.5222 18.7745C26.1504 18.8881 25.7488 18.8514 25.4038 18.6722C25.0587 18.493 24.7977 18.1856 24.6769 17.8161C23.5422 14.1029 21.3085 6.66545 20.1369 2.96357C20.0321 2.5899 20.0774 2.19007 20.2633 1.84936C20.4491 1.50865 20.7607 1.25403 21.1316 1.13982ZM19.3503 3.6017L23.6685 17.7267C19.8272 16.6233 15.726 17.1017 12.7403 17.7892L10.2569 9.66138C13.1156 8.56201 16.7838 6.66482 19.3516 3.6017H19.3503ZM15.2947 18.2623C15.8458 18.1828 16.3993 18.1213 16.9544 18.0779L17.496 18.9792C17.5438 19.0602 17.5727 19.1509 17.5806 19.2447C17.5884 19.3384 17.5751 19.4327 17.5414 19.5205C17.5078 19.6083 17.4547 19.6875 17.3863 19.7519C17.3178 19.8164 17.2357 19.8646 17.146 19.8929L16.3147 20.147L15.2947 18.2623ZM15.3397 20.312H12.4569L11.7594 19.0236C12.5971 18.7678 13.4506 18.5666 14.3144 18.4214L15.3397 20.312ZM10.3419 18.4898C9.74753 18.6685 9.10663 18.6053 8.55863 18.3139C8.01062 18.0226 7.59984 17.5266 7.41565 16.9339L6.31909 13.3479C6.13767 12.7549 6.19867 12.1142 6.48872 11.5661C6.77877 11.018 7.27424 10.6071 7.86659 10.4236C7.91284 10.4108 8.75909 10.1689 9.37252 9.97545L11.8325 18.022C11.2163 18.2048 10.3813 18.477 10.3419 18.4898ZM2.09284 25.6245C2.00353 25.6245 1.91609 25.5989 1.84081 25.5509C1.76554 25.5028 1.70556 25.4342 1.66793 25.3532C1.63031 25.2722 1.6166 25.1822 1.62843 25.0937C1.64026 25.0051 1.67714 24.9218 1.73471 24.8536L4.35471 21.7495C4.48657 21.5928 4.65113 21.4668 4.83683 21.3804C5.02254 21.2941 5.2249 21.2494 5.42971 21.2495H24.4869L21.496 24.7923C21.2763 25.0531 21.0023 25.2627 20.693 25.4065C20.3838 25.5502 20.0469 25.6247 19.706 25.6245H2.09284ZM25.0272 39.062H7.37096C6.74956 39.0613 6.1538 38.8142 5.71441 38.3748C5.27501 37.9354 5.02787 37.3397 5.02721 36.7183V26.562H19.706C20.1838 26.5627 20.656 26.4588 21.0894 26.2575C21.5228 26.0562 21.9069 25.7625 22.2147 25.397L25.0272 22.0633V39.062ZM33.621 39.062H25.9647V22.062L28.7772 25.3958C29.0849 25.7615 29.4689 26.0555 29.9023 26.2569C30.3357 26.4584 30.808 26.5626 31.286 26.562H35.9647V36.7183C35.964 37.3397 35.7169 37.9354 35.2775 38.3748C34.8381 38.8142 34.2424 39.0613 33.621 39.062Z" fill="black"/>
    <path d="M22.8438 36.0938H20.0312C19.9069 36.0938 19.7877 36.1431 19.6998 36.231C19.6119 36.319 19.5625 36.4382 19.5625 36.5625C19.5625 36.6868 19.6119 36.806 19.6998 36.894C19.7877 36.9819 19.9069 37.0312 20.0312 37.0312H22.8438C22.9681 37.0312 23.0873 36.9819 23.1752 36.894C23.2631 36.806 23.3125 36.6868 23.3125 36.5625C23.3125 36.4382 23.2631 36.319 23.1752 36.231C23.0873 36.1431 22.9681 36.0938 22.8438 36.0938ZM19.5625 34.0625C19.5625 34.1868 19.6119 34.306 19.6998 34.394C19.7877 34.4819 19.9069 34.5312 20.0312 34.5312H22.8438C22.9681 34.5312 23.0873 34.4819 23.1752 34.394C23.2631 34.306 23.3125 34.1868 23.3125 34.0625C23.3125 33.9382 23.2631 33.819 23.1752 33.731C23.0873 33.6431 22.9681 33.5938 22.8438 33.5938H20.0312C19.9069 33.5938 19.7877 33.6431 19.6998 33.731C19.6119 33.819 19.5625 33.9382 19.5625 34.0625ZM11.9062 33.75H7.84375C7.59511 33.75 7.35665 33.8488 7.18084 34.0246C7.00502 34.2004 6.90625 34.4389 6.90625 34.6875V36.25C6.90625 36.4986 7.00502 36.7371 7.18084 36.9129C7.35665 37.0887 7.59511 37.1875 7.84375 37.1875H11.9062C12.1549 37.1875 12.3933 37.0887 12.5692 36.9129C12.745 36.7371 12.8438 36.4986 12.8438 36.25V34.6875C12.8438 34.4389 12.745 34.2004 12.5692 34.0246C12.3933 33.8488 12.1549 33.75 11.9062 33.75ZM7.84375 36.25V34.6875H11.9062V36.25H7.84375Z" fill="black"/>
  </g>
  <defs>
    <clipPath id="clip0_831_32164">
      <rect width="40" height="40" fill="white" transform="translate(0.5)"/>
    </clipPath>
  </defs>
</svg>