<svg width="41" height="40" viewBox="0 0 41 40" fill="none" xmlns="http://www.w3.org/2000/svg">
  <g clip-path="url(#clip0_826_24864)">
    <path d="M31.5156 1.02148H9.48438C4.53039 1.02148 0.5 5.05188 0.5 10.0059V20.9434C0.5 25.5004 3.91 29.2758 8.3125 29.8516V37.8048C8.3125 38.0366 8.38124 38.2632 8.51001 38.4559C8.63878 38.6486 8.82181 38.7988 9.03595 38.8875C9.25008 38.9762 9.48571 38.9994 9.71303 38.9542C9.94036 38.909 10.1492 38.7973 10.313 38.6334L19.0187 29.9277H31.5156C36.4696 29.9277 40.5 25.8973 40.5 20.9434V10.0059C40.5 5.05188 36.4696 1.02148 31.5156 1.02148Z" fill="#FF674F"/>
    <path d="M31.515 1.02148H20.5V29.9277H31.515C36.469 29.9277 40.4994 25.8973 40.4994 20.9434V10.0059C40.4994 5.05188 36.469 1.02148 31.515 1.02148Z" fill="#F2472C"/>
    <path d="M27.355 16.9104L21.3286 22.9367C21.0997 23.1655 20.7999 23.28 20.5 23.28C20.2 23.28 19.9002 23.1656 19.6714 22.9368L13.6449 16.9105C11.7539 15.0195 11.7538 11.9426 13.6446 10.0516C15.5344 8.1618 18.6092 8.15992 20.5005 10.0471C21.416 9.13344 22.6318 8.63086 23.9256 8.63086C25.2211 8.63086 26.4391 9.13539 27.355 10.0516C28.2711 10.9676 28.7757 12.1855 28.7757 13.4809C28.7757 14.7763 28.2711 15.9943 27.355 16.9104Z" fill="white"/>
    <path d="M23.9251 8.63281C22.6316 8.63281 21.4155 9.13578 20.5 10.0491V23.282C20.6538 23.2821 20.8062 23.2518 20.9483 23.1929C21.0904 23.134 21.2195 23.0477 21.3281 22.9387L27.3545 16.9124C28.2706 15.9963 28.7752 14.7784 28.7752 13.483C28.7752 12.1875 28.2706 10.9695 27.3545 10.0536C26.4386 9.13734 25.2206 8.63281 23.9251 8.63281Z" fill="#FFEDCD"/>
  </g>
  <defs>
    <clipPath id="clip0_826_24864">
      <rect width="40" height="40" fill="white" transform="translate(0.5)"/>
    </clipPath>
  </defs>
</svg>