<svg width="56" height="56" viewBox="0 0 56 56" fill="none" xmlns="http://www.w3.org/2000/svg">
<g clip-path="url(#clip0_729_16777)">
<path d="M46.311 41.8174L55.2248 50.7311C56.2598 51.7662 56.2598 53.4444 55.2248 54.4795L54.5113 55.193C53.4762 56.2281 51.7981 56.2281 50.763 55.193L41.901 46.331L35.521 39.8538L40.5377 35.625L46.311 41.8174Z" fill="#D7D0D6"/>
<path d="M26.124 52.2772C40.5518 52.2772 52.2479 40.5811 52.2479 26.1533C52.2479 11.7254 40.5518 0.0292969 26.124 0.0292969C11.6961 0.0292969 0 11.7254 0 26.1533C0 40.5811 11.6961 52.2772 26.124 52.2772Z" fill="#FEE45A"/>
<path d="M9.39598 23.9235C9.39598 18.5907 10.9943 13.6315 13.7376 9.49805H5.99878C2.25225 14.0193 0 19.8235 0 26.1542C0 40.5821 11.6962 52.2781 26.124 52.2781C29.9151 52.2781 33.5182 51.4696 36.7695 50.0172C36.3558 50.0366 35.9385 50.0474 35.5199 50.0474C21.0921 50.0474 9.39598 38.3514 9.39598 23.9235Z" fill="#FEDF30"/>
<path d="M44.6988 25.9135L15.4983 25.6348L8.83203 35.2037L9.31675 38.9408C9.89538 39.6844 10.5237 40.3874 11.195 41.044L18.522 42.9172H35.2771L40.3278 41.044C43.8018 37.6457 46.0926 33.0392 46.5187 27.9039L44.6988 25.9135Z" fill="#97DA7B"/>
<path d="M10.7973 32.3828L8.83203 35.2039L9.31675 38.941C9.89538 39.6846 10.5237 40.3876 11.195 41.0442L17.2487 42.5919C14.3651 39.7692 12.1322 36.2846 10.7973 32.3828Z" fill="#80D261"/>
<path d="M8.07845 24.4668L5.00391 27.9041C5.19942 30.2684 5.79161 32.5207 6.71155 34.5945H6.71268L11.1615 33.8832L15.498 25.9137L8.07845 24.4668Z" fill="#97DA7B"/>
<path d="M11.277 33.671C10.1593 30.8937 9.50469 27.8805 9.40942 24.7264L8.07845 24.4668L5.00391 27.9041C5.19942 30.2684 5.79161 32.5207 6.71155 34.5945H6.71268L11.1615 33.8832L11.277 33.671Z" fill="#80D261"/>
<path d="M3.75684 12.6486C4.11996 13.6916 4.63967 14.6733 5.29812 15.5599L9.21032 20.9546C9.67038 21.5872 9.9929 22.3091 10.1572 23.0738L10.4505 24.4315C10.8175 26.13 12.3452 27.3628 14.083 27.3628C15.8206 27.3628 17.3483 26.1302 17.7156 24.4315L18.009 23.0739C18.1732 22.3092 18.4957 21.5872 18.9557 20.9546L22.8683 15.5598C24.3094 13.6157 25.0509 11.3059 25.0124 8.87962C24.9677 6.05495 23.8391 3.38646 21.8344 1.36555C21.5463 1.07618 21.2424 0.80288 20.9242 0.546875C13.6518 2.01572 7.47432 6.50452 3.75684 12.6486Z" fill="#FEDF30"/>
<path d="M39.896 13.5562L38.9046 9.992C35.3198 7.07172 30.745 5.32227 25.7611 5.32227C15.2474 5.32227 6.55211 13.1123 5.13379 23.235H5.13492L9.3821 25.6346H34.0051L41.737 19.6962L39.896 13.5562Z" fill="#97DA7B"/>
<path d="M9.45318 25.6334C9.41565 25.0635 9.39654 24.4926 9.39588 23.9215C9.39588 18.5887 10.9942 13.6296 13.7375 9.49609H13.2514C8.93366 12.7442 5.91878 17.6312 5.13379 23.2337H5.13492L9.3821 25.6334H9.45318Z" fill="#80D261"/>
<path d="M17.7159 24.4308L18.0093 23.0733C18.1735 22.3085 18.496 21.5866 18.956 20.954L22.8686 15.5591C24.3097 13.6151 25.0512 11.3053 25.0127 8.87898C24.9942 7.68099 24.7774 6.49433 24.3711 5.36719C16.5182 5.88479 9.85478 10.7546 6.76904 17.5869L9.21071 20.954C9.67076 21.5865 9.99329 22.3084 10.1575 23.0732L10.4509 24.4308C10.5434 24.8579 10.7115 25.265 10.9471 25.6331H17.2197C17.4552 25.265 17.6233 24.8579 17.7159 24.4308Z" fill="#80D261"/>
<path d="M42.2121 13.375L39.4005 13.7883L32.4775 24.2032L40.298 25.9127L46.388 23.2343C45.8726 19.5512 44.3933 16.1777 42.2121 13.375Z" fill="#97DA7B"/>
<path d="M46.5915 26.1532C46.5915 26.7431 46.5666 27.3263 46.518 27.9038H17.921C17.7567 27.9038 17.5948 27.9425 17.4483 28.0168C17.3018 28.0911 17.1749 28.199 17.0779 28.3315L9.31612 38.9406C8.27383 37.6034 7.39901 36.1437 6.71115 34.5941H6.71228L11.3129 28.3056C11.435 28.1386 11.3158 27.9037 11.1089 27.9037H5.00351C4.95492 27.3262 4.93005 26.743 4.93005 26.1531C4.93005 25.1631 4.99899 24.1889 5.13348 23.235H29.1259C29.1816 23.235 29.2339 23.2085 29.2668 23.1635L38.9032 9.99332L38.9043 9.99219C40.1317 10.991 41.2414 12.1262 42.2122 13.3758L35.2017 22.9575C35.1173 23.0729 35.1997 23.2352 35.3427 23.2352H46.3882C46.524 24.2019 46.592 25.177 46.5915 26.1532Z" fill="#FDF6EC"/>
<path d="M11.9915 35.2851C11.1694 33.5854 10.5353 31.8012 10.1005 29.9639L6.71363 34.5934H6.7125C7.40414 36.153 8.28226 37.6109 9.31747 38.9399L11.9915 35.2851ZM9.69832 27.903C9.49724 26.5856 9.39648 25.2548 9.39692 23.9221C9.39692 23.692 9.40098 23.4629 9.40686 23.2344H5.13482C5.00033 24.1882 4.9314 25.1624 4.9314 26.1524C4.9314 26.7423 4.95626 27.3255 5.00486 27.903H9.69832Z" fill="#FEF1DA"/>
<path d="M17.9749 23.2344H10.1924L10.4511 24.4318C10.818 26.1302 12.3458 27.3631 14.0836 27.3631C15.8212 27.3631 17.3489 26.1305 17.7162 24.4318L17.9749 23.2344Z" fill="#FEF1DA"/>
<path d="M14.2938 0.389185C9.40956 0.274137 5.41406 4.19911 5.41406 9.05713C5.41406 10.9935 6.04931 12.7813 7.12204 14.2244L11.0416 19.629C11.6848 20.5159 12.1365 21.527 12.3679 22.5979L12.6613 23.9555C12.8061 24.6257 13.3988 25.104 14.0845 25.104C14.7701 25.104 15.3629 24.6257 15.5077 23.9555L15.8011 22.5979C16.0325 21.527 16.4841 20.516 17.1274 19.6291L21.0469 14.2245C22.1455 12.7466 22.7853 10.9072 22.7538 8.91688C22.6807 4.28997 18.9198 0.49813 14.2938 0.389185Z" fill="#EE6161"/>
<path d="M15.3756 21.96C15.1441 20.8891 14.6925 19.8781 14.0492 18.9911L10.1297 13.5865C9.05684 12.1434 8.4217 10.3556 8.4217 8.41925C8.4217 4.7906 10.6512 1.68339 13.8147 0.390625C9.15109 0.533249 5.41406 4.35809 5.41406 9.05631C5.41406 10.9927 6.04931 12.7805 7.12204 14.2235L11.0416 19.6282C11.6848 20.5151 12.1365 21.5262 12.3679 22.5971L12.6613 23.9547C12.8061 24.6249 13.3988 25.1032 14.0845 25.1032C14.7701 25.1032 15.3629 24.6249 15.5077 23.9547L15.6572 23.2631L15.3756 21.96Z" fill="#E94444"/>
<path d="M10.5293 5.98038C11.3912 4.98473 12.6638 4.35547 14.0837 4.35547C16.6801 4.35547 18.7847 6.46069 18.7847 9.05708C18.7865 10.1872 18.3793 11.2799 17.6381 12.1331C16.7763 13.1287 15.5037 13.758 14.0837 13.758C11.4874 13.758 9.38282 11.6535 9.38282 9.05708C9.38103 7.92673 9.78827 6.8339 10.5293 5.98038Z" fill="#F9F7F8"/>
<path d="M40.3271 41.043C36.5705 44.7182 31.4306 46.983 25.7607 46.983C20.0908 46.983 14.9509 44.7182 11.1943 41.043H40.3271Z" fill="#FDF6EC"/>
<path d="M15.7879 41.043H11.1943C14.3008 44.0821 18.3537 46.1553 22.8695 46.7824C20.1922 45.2971 17.7955 43.3546 15.7879 41.043Z" fill="#FEF1DA"/>
<path d="M26.124 42.8615C25.8992 42.8615 25.6836 42.7722 25.5246 42.6132C25.3657 42.4542 25.2764 42.2386 25.2764 42.0139V35.3828C25.2764 34.9147 25.6558 34.5352 26.124 34.5352C26.5922 34.5352 26.9716 34.9147 26.9716 35.3828V42.0139C26.9716 42.2386 26.8823 42.4542 26.7233 42.6132C26.5644 42.7722 26.3488 42.8615 26.124 42.8615Z" fill="#FDDEB0"/>
<path d="M26.1239 37.9308C27.63 37.9308 28.851 36.7099 28.851 35.2037C28.851 33.6975 27.63 32.4766 26.1239 32.4766C24.6177 32.4766 23.3967 33.6975 23.3967 35.2037C23.3967 36.7099 24.6177 37.9308 26.1239 37.9308Z" fill="#EE6161"/>
</g>
<defs>
<clipPath id="clip0_729_16777">
<rect width="56" height="56" fill="white"/>
</clipPath>
</defs>
</svg>
