<svg width="40" height="40" viewBox="0 0 40 40" fill="none" xmlns="http://www.w3.org/2000/svg">
<g clip-path="url(#clip0_744_26393)">
<path d="M32.7879 12.8094V30.2336H3.74805V12.8094L18.2684 4.09766L32.7879 12.8094Z" fill="#FFA001"/>
<path d="M32.7871 12.8094V30.2336H18.2676V4.09766L32.7871 12.8094Z" fill="#F87F02"/>
<path d="M0 12.8098L3.7475 4.09766H18.2677L14.5202 12.8098H0Z" fill="#FFDA2D"/>
<path d="M36.5352 12.8098L32.7877 4.09766H18.2676L22.0151 12.8098H36.5352Z" fill="#FCBE00"/>
<path d="M8.41504 22.9316H10.7588V25.2754H8.41504V22.9316Z" fill="#FFDA2D"/>
<path d="M40.0004 27.3297C40.0004 32.0633 36.1629 35.9008 31.4293 35.9008C26.6949 35.9008 22.8574 32.0633 22.8574 27.3297C22.8574 22.5953 26.6949 18.7578 31.4293 18.7578C36.1629 18.7578 40.0004 22.5952 40.0004 27.3297Z" fill="#83E470"/>
<path d="M39.9998 27.3297C39.9998 32.0633 36.1623 35.9008 31.4287 35.9008V18.7578C36.1623 18.7578 39.9998 22.5952 39.9998 27.3297Z" fill="#01B763"/>
<path d="M35.9145 25.9422L31.4293 30.4273L30.652 31.2047L26.9434 27.496L28.6012 25.839L30.652 27.8898L31.4293 27.1125L34.2566 24.2852L35.9145 25.9422Z" fill="#F3FDFF"/>
<path d="M35.9141 25.9422L31.429 30.4273V27.1125L34.2563 24.2852L35.9141 25.9422Z" fill="#D7F3F7"/>
</g>
<defs>
<clipPath id="clip0_744_26393">
<rect width="40" height="40" fill="white"/>
</clipPath>
</defs>
</svg>
