<svg width="24" height="24" viewBox="0 0 24 24" fill="none" xmlns="http://www.w3.org/2000/svg">
  <g clip-path="url(#clip0_791_17574)">
    <path d="M12 24C18.6274 24 24 18.6274 24 12C24 5.37258 18.6274 0 12 0C5.37258 0 0 5.37258 0 12C0 18.6274 5.37258 24 12 24Z" fill="#4A7AFF"/>
    <path d="M24.0023 11.999C24.0023 10.991 23.878 10.012 23.644 9.07652L20.4031 5.83567L19.3015 7.32681L15.588 3.61328L3.60156 17.9722L9.32964 23.7003C10.1891 23.8958 11.0837 23.999 12.0023 23.999C18.6297 23.999 24.0023 18.6265 24.0023 11.999Z" fill="#0053BF"/>
    <path d="M13.2266 5.83594H20.3978V17.9725H13.2266V5.83594Z" fill="#CDD2E1"/>
    <path d="M16.814 11.8467C18.0186 11.8467 18.9952 10.8702 18.9952 9.66556C18.9952 8.46093 18.0186 7.48438 16.814 7.48438C15.6094 7.48438 14.6328 8.46093 14.6328 9.66556C14.6328 10.8702 15.6094 11.8467 16.814 11.8467Z" fill="#6F798E"/>
    <path d="M3.60156 5.83594H10.7728V17.9725H3.60156V5.83594Z" fill="#E9EDF5"/>
    <path d="M14.2266 12.9199H19.4059V14.3303H14.2266V12.9199Z" fill="#414952"/>
    <path d="M14.2266 15.2734H19.4059V16.6838H14.2266V15.2734Z" fill="#707789"/>
    <path d="M7.18509 11.8467C8.38973 11.8467 9.36628 10.8702 9.36628 9.66556C9.36628 8.46093 8.38973 7.48438 7.18509 7.48438C5.98046 7.48438 5.00391 8.46093 5.00391 9.66556C5.00391 10.8702 5.98046 11.8467 7.18509 11.8467Z" fill="#7E8596"/>
    <path d="M4.59375 12.9199H9.77311V14.3303H4.59375V12.9199Z" fill="#636978"/>
    <path d="M4.59375 15.2734H9.77311V16.6838H4.59375V15.2734Z" fill="#AFB4C8"/>
    <path d="M8.41406 3.61328H15.5853V15.7498H8.41406V3.61328Z" fill="white"/>
    <path d="M11.9844 3.61328H15.5867V15.7498H11.9844V3.61328Z" fill="#F2F6FC"/>
    <path d="M14.0921 5.67522C13.8173 5.67522 13.5946 5.89797 13.5946 6.1727C13.5946 6.28445 13.6319 6.38725 13.6941 6.47031L13.046 6.93395L12.2748 6.08964C12.3433 6.04432 12.3994 5.98275 12.4382 5.91043C12.4771 5.83811 12.4974 5.7573 12.4973 5.67522C12.4973 5.40048 12.2746 5.17773 11.9999 5.17773C11.7251 5.17773 11.5024 5.40048 11.5024 5.67522C11.5024 5.84828 11.5908 6.00053 11.7249 6.08964L10.9538 6.93395L10.3056 6.47031C10.3702 6.38454 10.4051 6.28008 10.4051 6.1727C10.4051 5.89797 10.1824 5.67522 9.90764 5.67522C9.63291 5.67522 9.41016 5.89797 9.41016 6.1727C9.41016 6.44744 9.63291 6.67019 9.90764 6.67019V8.73597H14.092V6.67019C14.3668 6.67019 14.5895 6.44748 14.5895 6.1727C14.5896 5.89797 14.3669 5.67522 14.0921 5.67522Z" fill="#FFCE00"/>
    <path d="M14.0932 5.67522C13.8185 5.67522 13.5957 5.89797 13.5957 6.1727C13.5957 6.28445 13.6331 6.38725 13.6953 6.47031L13.0471 6.93395L12.276 6.08964C12.3445 6.04432 12.4006 5.98275 12.4394 5.91043C12.4783 5.83811 12.4986 5.7573 12.4985 5.67522C12.4985 5.40048 12.2758 5.17773 12.0011 5.17773C11.9954 5.17773 11.99 5.17839 11.9844 5.17858V8.73597H14.0932V6.67019C14.368 6.67019 14.5907 6.44748 14.5907 6.1727C14.5907 5.89792 14.368 5.67522 14.0932 5.67522Z" fill="#FDBA12"/>
    <path d="M9.41016 10.123H14.5895V11.5334H9.41016V10.123Z" fill="#FE6A16"/>
    <path d="M11.9844 10.123H14.5907V11.5334H11.9844V10.123Z" fill="#F24500"/>
    <path d="M9.41016 12.4766H14.5895V13.8869H9.41016V12.4766Z" fill="#AFB4C8"/>
    <path d="M11.9844 12.4766H14.5907V13.8869H11.9844V12.4766Z" fill="#707789"/>
  </g>
  <defs>
    <clipPath id="clip0_791_17574">
      <rect width="24" height="24" fill="white"/>
    </clipPath>
  </defs>
</svg>