<svg width="41" height="40" viewBox="0 0 41 40" fill="none" xmlns="http://www.w3.org/2000/svg">
  <path d="M34.0968 30.6632H7V27.1578C7 19.6752 13.0658 13.6094 20.5484 13.6094C28.031 13.6094 34.0968 19.6752 34.0968 27.1578V30.6632Z" fill="#4A7AFF"/>
  <path d="M20.5486 15.9368C24.9613 15.9368 28.5386 12.3692 28.5386 7.96839C28.5386 3.56757 24.9613 0 20.5486 0C16.1358 0 12.5586 3.56757 12.5586 7.96839C12.5586 12.3692 16.1358 15.9368 20.5486 15.9368Z" fill="#F5DCB4"/>
  <path d="M28.5695 26.7606C27.5972 26.7606 26.8089 27.5489 26.8089 28.5212C26.8089 28.9167 26.941 29.2805 27.1611 29.5745L24.8673 31.2153L22.1382 28.2273C22.3804 28.0669 22.5791 27.849 22.7165 27.593C22.8539 27.3371 22.9258 27.0511 22.9257 26.7606C22.9257 25.7883 22.1375 25 21.1651 25C20.1928 25 19.4045 25.7883 19.4045 26.7606C19.4045 27.3731 19.7175 27.9119 20.192 28.2273L17.4629 31.2153L15.1691 29.5745C15.3976 29.2709 15.5213 28.9012 15.5212 28.5212C15.5212 27.5489 14.7331 26.7606 13.7606 26.7606C12.7883 26.7606 12 27.5489 12 28.5212C12 29.4935 12.7883 30.2819 13.7606 30.2819V37.5928H28.5694V30.2819C29.5417 30.2819 30.33 29.4937 30.33 28.5212C30.3302 27.5489 29.542 26.7606 28.5695 26.7606Z" fill="#FFCE00"/>
</svg>