<svg width="41" height="41" viewBox="0 0 41 41" fill="none" xmlns="http://www.w3.org/2000/svg">
  <path d="M25.9329 27.6194L20.4157 34.516L14.8984 27.6194C15.7316 26.9956 16.3295 26.1086 16.595 25.1022C16.7791 24.5029 16.8971 23.8856 16.9467 23.2608V23.2539H23.8846V23.2608C23.9343 23.8808 24.0502 24.4932 24.2295 25.0884C24.4943 26.1006 25.0949 26.9929 25.9329 27.6194Z" fill="#FDD7AD"/>
  <path d="M36.8666 39.2517C36.8794 39.3489 36.8713 39.4477 36.8428 39.5415C36.8143 39.6354 36.7662 39.722 36.7016 39.7958C36.637 39.8695 36.5574 39.9287 36.4681 39.9692C36.3788 40.0098 36.2819 40.0308 36.1839 40.031H19.0391L20.4184 31.7551L25.9356 27.6172L31.7908 28.8724C32.9024 29.1098 33.9134 29.6853 34.6851 30.52C35.4568 31.3546 35.9514 32.4076 36.1011 33.5344L36.8666 39.2517Z" fill="#65DDB9"/>
  <path d="M20.419 31.7551V40.031H4.65345C4.5554 40.0308 4.45851 40.0098 4.36924 39.9692C4.27997 39.9287 4.20038 39.8695 4.13576 39.7958C4.07115 39.722 4.02301 39.6354 3.99454 39.5415C3.96608 39.4477 3.95795 39.3489 3.9707 39.2517L4.73621 33.5344C4.88589 32.4076 5.38049 31.3546 6.15219 30.52C6.92388 29.6853 7.93489 29.1098 9.04655 28.8724L14.9017 27.6172L20.419 31.7551Z" fill="#26B99A"/>
  <path d="M24.2321 25.0884C23.1134 25.8634 21.779 26.2664 20.4183 26.2401C19.0573 26.2682 17.7215 25.8704 16.5977 25.1022C16.7818 24.5029 16.8997 23.8856 16.9494 23.2608V23.2539H23.8873V23.2608C23.937 23.8808 24.0528 24.4932 24.2321 25.0884Z" fill="#F9C795"/>
  <path d="M30.7651 34.5143H29.3858V33.135C29.3858 32.9521 29.3131 32.7766 29.1838 32.6473C29.0544 32.518 28.879 32.4453 28.6961 32.4453C28.5132 32.4453 28.3378 32.518 28.2085 32.6473C28.0791 32.7766 28.0065 32.9521 28.0065 33.135V34.5143H26.6272C26.4442 34.5143 26.2688 34.5869 26.1395 34.7163C26.0102 34.8456 25.9375 35.021 25.9375 35.2039C25.9375 35.3868 26.0102 35.5623 26.1395 35.6916C26.2688 35.8209 26.4442 35.8936 26.6272 35.8936H28.0065V37.2729C28.0065 37.4558 28.0791 37.6312 28.2085 37.7606C28.3378 37.8899 28.5132 37.9626 28.6961 37.9626C28.879 37.9626 29.0544 37.8899 29.1838 37.7606C29.3131 37.6312 29.3858 37.4558 29.3858 37.2729V35.8936H30.7651C30.948 35.8936 31.1234 35.8209 31.2527 35.6916C31.3821 35.5623 31.4547 35.3868 31.4547 35.2039C31.4547 35.021 31.3821 34.8456 31.2527 34.7163C31.1234 34.5869 30.948 34.5143 30.7651 34.5143Z" fill="#E64C3C"/>
  <path d="M13.5217 36.1688C13.5217 37.0826 12.9045 37.2723 12.1424 37.2723C11.3803 37.2723 10.7631 37.0826 10.7631 36.1688C10.6941 35.333 11.3079 34.5964 12.1424 34.5137C12.9769 34.5964 13.5907 35.333 13.5217 36.1688Z" fill="#3F5C6C"/>
  <path d="M10.7639 33.1352C11.1448 33.1352 11.4535 32.8264 11.4535 32.4455C11.4535 32.0646 11.1448 31.7559 10.7639 31.7559C10.383 31.7559 10.0742 32.0646 10.0742 32.4455C10.0742 32.8264 10.383 33.1352 10.7639 33.1352Z" fill="#3F5C6C"/>
  <path d="M9.38497 34.5121C9.76585 34.5121 10.0746 34.2034 10.0746 33.8225C10.0746 33.4416 9.76585 33.1328 9.38497 33.1328C9.00408 33.1328 8.69531 33.4416 8.69531 33.8225C8.69531 34.2034 9.00408 34.5121 9.38497 34.5121Z" fill="#3F5C6C"/>
  <path d="M13.5256 33.1352C13.9065 33.1352 14.2152 32.8264 14.2152 32.4455C14.2152 32.0646 13.9065 31.7559 13.5256 31.7559C13.1447 31.7559 12.8359 32.0646 12.8359 32.4455C12.8359 32.8264 13.1447 33.1352 13.5256 33.1352Z" fill="#3F5C6C"/>
  <path d="M14.9006 34.5121C15.2815 34.5121 15.5902 34.2034 15.5902 33.8225C15.5902 33.4416 15.2815 33.1328 14.9006 33.1328C14.5197 33.1328 14.2109 33.4416 14.2109 33.8225C14.2109 34.2034 14.5197 34.5121 14.9006 34.5121Z" fill="#3F5C6C"/>
  <path d="M10.7643 11.0657C10.4565 10.177 10.2845 9.24706 10.2539 8.30711L10.3022 5.54849C10.4415 3.58366 11.0746 1.68642 12.1436 0.03125C12.1436 0.03125 13.5229 1.41056 16.9711 0.720905C20.4194 0.03125 25.8539 -0.741163 28.6953 2.10021C29.5776 3.07379 30.1867 4.26346 30.4608 5.54849L30.7918 8.30711C30.8035 9.32292 30.6306 10.3324 30.2815 11.2864C30.2209 11.4463 30.1518 11.6028 30.0746 11.7554L10.7643 11.0657Z" fill="#CB8252"/>
  <path d="M28.688 10.84C29.5018 10.6813 30.7639 10.8055 30.7639 13.1365C30.7639 16.0468 29.288 16.502 27.9983 16.571H12.8397C11.5501 16.502 10.0742 16.0468 10.0742 13.1365C10.0742 10.8055 11.3363 10.6813 12.1501 10.84H28.688Z" fill="#F9C795"/>
  <path d="M28.1928 8.30664C28.4252 8.97905 28.5942 9.67216 28.6962 10.3756C28.6962 16.728 26.799 24.1687 20.4204 24.1687C12.8342 24.1687 12.1445 13.8239 12.1445 10.3756C12.2466 9.67216 12.4156 8.97905 12.648 8.30664H28.1928Z" fill="#FDD7AD"/>
  <path d="M10.0725 5.54883C9.88956 5.54883 9.71414 5.62149 9.58481 5.75082C9.45547 5.88016 9.38281 6.05558 9.38281 6.23848V7.61779C9.38281 7.8007 9.45547 7.97612 9.58481 8.10545C9.71414 8.23479 9.88956 8.30745 10.0725 8.30745H30.7897C30.9678 8.30032 31.1362 8.22452 31.2596 8.09595C31.383 7.96738 31.4519 7.79602 31.4518 7.61779V6.23848C31.4518 6.05558 31.3791 5.88016 31.2498 5.75082C31.1204 5.62149 30.945 5.54883 30.7621 5.54883H10.0725Z" fill="#65DDB9"/>
  <path d="M23.1805 9.68911C24.704 9.68911 25.9391 8.45404 25.9391 6.93049C25.9391 5.40695 24.704 4.17188 23.1805 4.17188C21.657 4.17188 20.4219 5.40695 20.4219 6.93049C20.4219 8.45404 21.657 9.68911 23.1805 9.68911Z" fill="#95A5A5"/>
</svg>