<svg width="41" height="40" viewBox="0 0 41 40" fill="none" xmlns="http://www.w3.org/2000/svg">
  <g clip-path="url(#clip0_826_24900)">
    <path d="M2.84375 25.7812H9.95312V38.8281H2.84375V25.7812ZM21.6719 23.4375H28.7812V38.8281H21.6719V23.4375Z" fill="#FED843"/>
    <path d="M12.2969 18.75H19.3281V38.8281H12.2969V18.75ZM31.125 14.0625H38.1562V38.8281H31.125V14.0625Z" fill="#FF641A"/>
    <path d="M6.4375 25.7812H9.95312V38.8281H6.4375V25.7812Z" fill="#FABE2C"/>
    <path d="M15.8125 18.75H19.3281V38.8281H15.8125V18.75Z" fill="#F03800"/>
    <path d="M25.1875 23.4375H28.7812V38.8281H25.1875V23.4375Z" fill="#FABE2C"/>
    <path d="M34.6406 14.0625H38.1562V38.8281H34.6406V14.0625Z" fill="#F03800"/>
    <path d="M31.1254 0V2.34375H36.4995L25.1879 13.5773L20.5004 8.88977L15.8129 4.20227L0.84375 19.0934L2.50078 20.7504L15.8129 7.51648L20.5004 12.204L25.1879 16.8915L38.1566 4.00086V9.375H40.5004V0H31.1254Z" fill="#97DE3D"/>
    <path d="M38.1562 4.00086V9.375H40.5V0H31.125V2.34375H36.4991L25.1875 13.5773L20.5 8.88976V12.204L25.1875 16.8915L38.1562 4.00086Z" fill="#59C36A"/>
    <path d="M20.5 37.6562H0.5V40H40.5V37.6562H20.5Z" fill="#2D5177"/>
    <path d="M20.5 37.6562H40.5V40H20.5V37.6562Z" fill="#32405D"/>
  </g>
  <defs>
    <clipPath id="clip0_826_24900">
      <rect width="40" height="40" fill="white" transform="translate(0.5)"/>
    </clipPath>
  </defs>
</svg>