<svg width="34" height="41" viewBox="0 0 34 41" fill="none" xmlns="http://www.w3.org/2000/svg">
  <path d="M22.9329 27.6194L17.4157 34.516L11.8984 27.6194C12.7316 26.9956 13.3295 26.1086 13.595 25.1022C13.7791 24.5029 13.8971 23.8856 13.9467 23.2608V23.2539H20.8846V23.2608C20.9343 23.8808 21.0502 24.4932 21.2295 25.0884C21.4943 26.1006 22.0949 26.9929 22.9329 27.6194Z" fill="#FDD7AD"/>
  <path d="M33.8666 39.2517C33.8794 39.3489 33.8713 39.4477 33.8428 39.5415C33.8143 39.6354 33.7662 39.722 33.7016 39.7958C33.637 39.8695 33.5574 39.9287 33.4681 39.9692C33.3788 40.0098 33.2819 40.0308 33.1839 40.031H16.0391L17.4184 31.7551L22.9356 27.6172L28.7908 28.8724C29.9024 29.1098 30.9134 29.6853 31.6851 30.52C32.4568 31.3546 32.9514 32.4076 33.1011 33.5344L33.8666 39.2517Z" fill="#65DDB9"/>
  <path d="M17.419 31.7551V40.031H1.65345C1.5554 40.0308 1.45851 40.0098 1.36924 39.9692C1.27997 39.9287 1.20038 39.8695 1.13576 39.7958C1.07115 39.722 1.02301 39.6354 0.994544 39.5415C0.96608 39.4477 0.95795 39.3489 0.970696 39.2517L1.73621 33.5344C1.88589 32.4076 2.38049 31.3546 3.15219 30.52C3.92388 29.6853 4.93489 29.1098 6.04655 28.8724L11.9017 27.6172L17.419 31.7551Z" fill="#26B99A"/>
  <path d="M21.2321 25.0884C20.1134 25.8634 18.779 26.2664 17.4183 26.2401C16.0573 26.2682 14.7215 25.8704 13.5977 25.1022C13.7818 24.5029 13.8997 23.8856 13.9494 23.2608V23.2539H20.8873V23.2608C20.937 23.8808 21.0528 24.4932 21.2321 25.0884Z" fill="#F9C795"/>
  <path d="M27.7651 34.5143H26.3858V33.135C26.3858 32.9521 26.3131 32.7766 26.1838 32.6473C26.0544 32.518 25.879 32.4453 25.6961 32.4453C25.5132 32.4453 25.3378 32.518 25.2085 32.6473C25.0791 32.7766 25.0065 32.9521 25.0065 33.135V34.5143H23.6272C23.4442 34.5143 23.2688 34.5869 23.1395 34.7163C23.0102 34.8456 22.9375 35.021 22.9375 35.2039C22.9375 35.3868 23.0102 35.5623 23.1395 35.6916C23.2688 35.8209 23.4442 35.8936 23.6272 35.8936H25.0065V37.2729C25.0065 37.4558 25.0791 37.6312 25.2085 37.7606C25.3378 37.8899 25.5132 37.9626 25.6961 37.9626C25.879 37.9626 26.0544 37.8899 26.1838 37.7606C26.3131 37.6312 26.3858 37.4558 26.3858 37.2729V35.8936H27.7651C27.948 35.8936 28.1234 35.8209 28.2527 35.6916C28.3821 35.5623 28.4547 35.3868 28.4547 35.2039C28.4547 35.021 28.3821 34.8456 28.2527 34.7163C28.1234 34.5869 27.948 34.5143 27.7651 34.5143Z" fill="#E64C3C"/>
  <path d="M10.5217 36.1688C10.5217 37.0826 9.90448 37.2723 9.14241 37.2723C8.38034 37.2723 7.7631 37.0826 7.7631 36.1688C7.69413 35.333 8.30793 34.5964 9.14241 34.5137C9.97689 34.5964 10.5907 35.333 10.5217 36.1688Z" fill="#3F5C6C"/>
  <path d="M7.76387 33.1352C8.14476 33.1352 8.45353 32.8264 8.45353 32.4455C8.45353 32.0646 8.14476 31.7559 7.76387 31.7559C7.38299 31.7559 7.07422 32.0646 7.07422 32.4455C7.07422 32.8264 7.38299 33.1352 7.76387 33.1352Z" fill="#3F5C6C"/>
  <path d="M6.38497 34.5121C6.76585 34.5121 7.07462 34.2034 7.07462 33.8225C7.07462 33.4416 6.76585 33.1328 6.38497 33.1328C6.00408 33.1328 5.69531 33.4416 5.69531 33.8225C5.69531 34.2034 6.00408 34.5121 6.38497 34.5121Z" fill="#3F5C6C"/>
  <path d="M10.5256 33.1352C10.9065 33.1352 11.2152 32.8264 11.2152 32.4455C11.2152 32.0646 10.9065 31.7559 10.5256 31.7559C10.1447 31.7559 9.83594 32.0646 9.83594 32.4455C9.83594 32.8264 10.1447 33.1352 10.5256 33.1352Z" fill="#3F5C6C"/>
  <path d="M11.9006 34.5121C12.2815 34.5121 12.5902 34.2034 12.5902 33.8225C12.5902 33.4416 12.2815 33.1328 11.9006 33.1328C11.5197 33.1328 11.2109 33.4416 11.2109 33.8225C11.2109 34.2034 11.5197 34.5121 11.9006 34.5121Z" fill="#3F5C6C"/>
  <path d="M7.76425 11.0657C7.4565 10.177 7.28446 9.24706 7.25391 8.30711L7.30218 5.54849C7.44149 3.58366 8.0746 1.68642 9.14356 0.03125C9.14356 0.03125 10.5229 1.41056 13.9711 0.720905C17.4194 0.03125 22.8539 -0.741163 25.6953 2.10021C26.5776 3.07379 27.1867 4.26346 27.4608 5.54849L27.7918 8.30711C27.8035 9.32292 27.6306 10.3324 27.2815 11.2864C27.2209 11.4463 27.1518 11.6028 27.0746 11.7554L7.76425 11.0657Z" fill="#CB8252"/>
  <path d="M25.688 10.84C26.5018 10.6813 27.7639 10.8055 27.7639 13.1365C27.7639 16.0468 26.288 16.502 24.9983 16.571H9.83973C8.55008 16.502 7.07422 16.0468 7.07422 13.1365C7.07422 10.8055 8.33629 10.6813 9.15008 10.84H25.688Z" fill="#F9C795"/>
  <path d="M25.1928 8.30664C25.4252 8.97905 25.5942 9.67216 25.6962 10.3756C25.6962 16.728 23.799 24.1687 17.4204 24.1687C9.83419 24.1687 9.14453 13.8239 9.14453 10.3756C9.2466 9.67216 9.41557 8.97905 9.64798 8.30664H25.1928Z" fill="#FDD7AD"/>
  <path d="M7.07247 5.54883C6.88956 5.54883 6.71414 5.62149 6.58481 5.75082C6.45547 5.88016 6.38281 6.05558 6.38281 6.23848V7.61779C6.38281 7.8007 6.45547 7.97612 6.58481 8.10545C6.71414 8.23479 6.88956 8.30745 7.07247 8.30745H27.7897C27.9678 8.30032 28.1362 8.22452 28.2596 8.09595C28.383 7.96738 28.4519 7.79602 28.4518 7.61779V6.23848C28.4518 6.05558 28.3791 5.88016 28.2498 5.75082C28.1204 5.62149 27.945 5.54883 27.7621 5.54883H7.07247Z" fill="#65DDB9"/>
  <path d="M20.1805 9.68911C21.704 9.68911 22.9391 8.45404 22.9391 6.93049C22.9391 5.40695 21.704 4.17188 20.1805 4.17188C18.657 4.17188 17.4219 5.40695 17.4219 6.93049C17.4219 8.45404 18.657 9.68911 20.1805 9.68911Z" fill="#95A5A5"/>
</svg>