<svg width="25" height="25" viewBox="0 0 25 25" fill="none" xmlns="http://www.w3.org/2000/svg">
  <g clip-path="url(#clip0_793_18841)">
    <path d="M24.5944 13.6849C23.9804 12.6508 23.1129 11.7901 22.074 11.1842C21.0046 10.5617 19.782 10.2324 18.5382 10.2324C17.2944 10.2324 16.0718 10.5617 15.0023 11.1842C13.9634 11.7902 13.096 12.6508 12.482 13.6849C11.9512 14.5806 11.9431 15.6575 12.4608 16.566C12.9836 17.484 13.9253 18.0318 14.9795 18.0318H22.0969C23.1513 18.0318 24.0928 17.4838 24.6157 16.566C25.1332 15.6575 25.1252 14.5806 24.5944 13.6849Z" fill="#19CFFC"/>
    <path d="M22.0751 11.1844C21.0059 10.5616 19.7831 10.2324 18.5393 10.2324H18.5391V18.0319H22.098C23.1524 18.0319 24.0938 17.484 24.6166 16.5661C25.1343 15.6577 25.1263 14.5806 24.5955 13.6851C23.9815 12.6509 23.1141 11.7902 22.0751 11.1844Z" fill="#4AB8F7"/>
    <path d="M21.3313 5.01479C20.585 4.26846 19.5928 3.85742 18.5372 3.85742C17.4817 3.85742 16.4895 4.26846 15.7434 5.01479C14.997 5.76113 14.5859 6.75337 14.5859 7.80869C14.5859 8.86421 14.997 9.8564 15.7434 10.6028C16.4895 11.3491 17.4817 11.7602 18.5372 11.7602C19.5928 11.7602 20.585 11.3491 21.3313 10.6028C22.0776 9.8564 22.4887 8.86421 22.4887 7.80869C22.4887 6.75337 22.0776 5.76113 21.3313 5.01479Z" fill="#FFD2BF"/>
    <path d="M21.3333 5.01484C20.563 4.24443 19.5511 3.85938 18.5391 3.85938V11.7583H18.5393C19.5511 11.7583 20.563 11.3731 21.3333 10.6028C22.8739 9.06226 22.8739 6.55542 21.3333 5.01484Z" fill="#FFB89C"/>
    <path d="M12.5163 13.6849C11.9022 12.6508 11.0348 11.7901 9.99591 11.1842C8.92663 10.5617 7.70382 10.2324 6.46007 10.2324C5.21627 10.2324 3.99367 10.5617 2.92423 11.1842C1.88536 11.7902 1.01796 12.6508 0.403873 13.6849C-0.126987 14.5804 -0.134995 15.6575 0.382681 16.5659C0.905484 17.4837 1.84713 18.0317 2.90133 18.0317H10.019C11.0732 18.0317 12.0146 17.4839 12.5377 16.5659C13.0551 15.6577 13.0471 14.5806 12.5163 13.6849Z" fill="#27488F"/>
    <path d="M9.99697 11.1844C8.92769 10.5616 7.70488 10.2324 6.46113 10.2324H6.46094V18.0319H10.0199C11.0742 18.0319 12.0157 17.484 12.5385 16.5661C13.0562 15.6577 13.0481 14.5806 12.5173 13.6851C11.9034 12.6509 11.036 11.7902 9.99697 11.1844Z" fill="#12254C"/>
    <path d="M9.25312 5.01479C8.50679 4.26846 7.5146 3.85742 6.45908 3.85742C5.40376 3.85742 4.41133 4.26846 3.66519 5.01479C2.91885 5.76113 2.50781 6.75342 2.50781 7.80869C2.50781 8.86421 2.91885 9.8564 3.66519 10.6028C4.41133 11.3491 5.40376 11.7602 6.45908 11.7602C7.5146 11.7602 8.50679 11.3491 9.25312 10.6028C9.99951 9.8564 10.4105 8.86421 10.4105 7.80869C10.4105 6.75337 9.99951 5.76113 9.25312 5.01479Z" fill="#FFD2BF"/>
    <path d="M9.25518 5.01484C8.48481 4.24443 7.47295 3.85938 6.46094 3.85938V11.7583H6.46113C7.47295 11.7583 8.48481 11.3731 9.25518 10.6028C10.7958 9.06226 10.7958 6.55542 9.25518 5.01484Z" fill="#FFB89C"/>
    <path d="M18.5551 16.8216C17.9413 15.7874 17.0739 14.9267 16.0349 14.3209C14.9655 13.6981 13.7429 13.3691 12.4991 13.3691C11.2553 13.3691 10.0325 13.6981 8.96326 14.3209C7.92424 14.9267 7.05681 15.7874 6.4429 16.8216C5.91209 17.7171 5.90408 18.7942 6.42171 19.7027C6.94451 20.6205 7.88597 21.1685 8.94036 21.1685H16.0578C17.112 21.1685 18.0537 20.6205 18.5765 19.7027C19.094 18.7942 19.0861 17.7171 18.5551 16.8216Z" fill="#FE6A16"/>
    <path d="M16.036 14.3211C14.9666 13.6983 13.744 13.3691 12.5002 13.3691H12.5V21.1686H16.0589C17.1131 21.1686 18.0548 20.6207 18.5776 19.7028C19.095 18.7943 19.0872 17.7173 18.5562 16.8218C17.9424 15.7875 17.075 14.9269 16.036 14.3211Z" fill="#FF432E"/>
    <path d="M15.2944 8.15153C13.7536 6.61095 11.2469 6.61095 9.70618 8.15153C8.16565 9.69205 8.16565 12.1989 9.70618 13.7395C10.4766 14.5098 11.4884 14.8949 12.5003 14.8949C13.5121 14.8949 14.524 14.5098 15.2944 13.7395C16.8349 12.1989 16.8349 9.6921 15.2944 8.15153Z" fill="#FFD2BF"/>
    <path d="M15.2943 8.15156C14.5239 7.38115 13.5119 6.99609 12.5 6.99609V14.895H12.5002C13.5121 14.895 14.5239 14.5099 15.2943 13.7395C16.8348 12.199 16.8348 9.69214 15.2943 8.15156Z" fill="#FFB89C"/>
  </g>
  <defs>
    <clipPath id="clip0_793_18841">
      <rect width="25" height="25" fill="white"/>
    </clipPath>
  </defs>
</svg>