<svg width="41" height="41" viewBox="0 0 41 41" fill="none" xmlns="http://www.w3.org/2000/svg">
  <path d="M25.4329 27.6194L19.9157 34.516L14.3984 27.6194C15.2316 26.9956 15.8295 26.1086 16.095 25.1022C16.2791 24.5029 16.3971 23.8856 16.4467 23.2608V23.2539H23.3846V23.2608C23.4343 23.8808 23.5502 24.4932 23.7295 25.0884C23.9943 26.1006 24.5949 26.9929 25.4329 27.6194Z" fill="#FDD7AD"/>
  <path d="M36.3666 39.2517C36.3794 39.3489 36.3713 39.4477 36.3428 39.5415C36.3143 39.6354 36.2662 39.722 36.2016 39.7958C36.137 39.8695 36.0574 39.9287 35.9681 39.9692C35.8788 40.0098 35.7819 40.0308 35.6839 40.031H18.5391L19.9184 31.7551L25.4356 27.6172L31.2908 28.8724C32.4024 29.1098 33.4134 29.6853 34.1851 30.52C34.9568 31.3546 35.4514 32.4076 35.6011 33.5344L36.3666 39.2517Z" fill="#65DDB9"/>
  <path d="M19.919 31.7551V40.031H4.15345C4.0554 40.0308 3.95851 40.0098 3.86924 39.9692C3.77997 39.9287 3.70038 39.8695 3.63576 39.7958C3.57115 39.722 3.52301 39.6354 3.49454 39.5415C3.46608 39.4477 3.45795 39.3489 3.4707 39.2517L4.23621 33.5344C4.38589 32.4076 4.88049 31.3546 5.65219 30.52C6.42388 29.6853 7.43489 29.1098 8.54655 28.8724L14.4017 27.6172L19.919 31.7551Z" fill="#26B99A"/>
  <path d="M23.7321 25.0884C22.6134 25.8634 21.279 26.2664 19.9183 26.2401C18.5573 26.2682 17.2215 25.8704 16.0977 25.1022C16.2818 24.5029 16.3997 23.8856 16.4494 23.2608V23.2539H23.3873V23.2608C23.437 23.8808 23.5528 24.4932 23.7321 25.0884Z" fill="#F9C795"/>
  <path d="M30.2651 34.5143H28.8858V33.135C28.8858 32.9521 28.8131 32.7766 28.6838 32.6473C28.5544 32.518 28.379 32.4453 28.1961 32.4453C28.0132 32.4453 27.8378 32.518 27.7085 32.6473C27.5791 32.7766 27.5065 32.9521 27.5065 33.135V34.5143H26.1272C25.9442 34.5143 25.7688 34.5869 25.6395 34.7163C25.5102 34.8456 25.4375 35.021 25.4375 35.2039C25.4375 35.3868 25.5102 35.5623 25.6395 35.6916C25.7688 35.8209 25.9442 35.8936 26.1272 35.8936H27.5065V37.2729C27.5065 37.4558 27.5791 37.6312 27.7085 37.7606C27.8378 37.8899 28.0132 37.9626 28.1961 37.9626C28.379 37.9626 28.5544 37.8899 28.6838 37.7606C28.8131 37.6312 28.8858 37.4558 28.8858 37.2729V35.8936H30.2651C30.448 35.8936 30.6234 35.8209 30.7527 35.6916C30.8821 35.5623 30.9547 35.3868 30.9547 35.2039C30.9547 35.021 30.8821 34.8456 30.7527 34.7163C30.6234 34.5869 30.448 34.5143 30.2651 34.5143Z" fill="#E64C3C"/>
  <path d="M13.0217 36.1688C13.0217 37.0826 12.4045 37.2723 11.6424 37.2723C10.8803 37.2723 10.2631 37.0826 10.2631 36.1688C10.1941 35.333 10.8079 34.5964 11.6424 34.5137C12.4769 34.5964 13.0907 35.333 13.0217 36.1688Z" fill="#3F5C6C"/>
  <path d="M10.2639 33.1352C10.6448 33.1352 10.9535 32.8264 10.9535 32.4455C10.9535 32.0646 10.6448 31.7559 10.2639 31.7559C9.88299 31.7559 9.57422 32.0646 9.57422 32.4455C9.57422 32.8264 9.88299 33.1352 10.2639 33.1352Z" fill="#3F5C6C"/>
  <path d="M8.88497 34.5121C9.26585 34.5121 9.57462 34.2034 9.57462 33.8225C9.57462 33.4416 9.26585 33.1328 8.88497 33.1328C8.50408 33.1328 8.19531 33.4416 8.19531 33.8225C8.19531 34.2034 8.50408 34.5121 8.88497 34.5121Z" fill="#3F5C6C"/>
  <path d="M13.0256 33.1352C13.4065 33.1352 13.7152 32.8264 13.7152 32.4455C13.7152 32.0646 13.4065 31.7559 13.0256 31.7559C12.6447 31.7559 12.3359 32.0646 12.3359 32.4455C12.3359 32.8264 12.6447 33.1352 13.0256 33.1352Z" fill="#3F5C6C"/>
  <path d="M14.4006 34.5121C14.7815 34.5121 15.0902 34.2034 15.0902 33.8225C15.0902 33.4416 14.7815 33.1328 14.4006 33.1328C14.0197 33.1328 13.7109 33.4416 13.7109 33.8225C13.7109 34.2034 14.0197 34.5121 14.4006 34.5121Z" fill="#3F5C6C"/>
  <path d="M10.2643 11.0657C9.9565 10.177 9.78446 9.24706 9.75391 8.30711L9.80218 5.54849C9.94149 3.58366 10.5746 1.68642 11.6436 0.03125C11.6436 0.03125 13.0229 1.41056 16.4711 0.720905C19.9194 0.03125 25.3539 -0.741163 28.1953 2.10021C29.0776 3.07379 29.6867 4.26346 29.9608 5.54849L30.2918 8.30711C30.3035 9.32292 30.1306 10.3324 29.7815 11.2864C29.7209 11.4463 29.6518 11.6028 29.5746 11.7554L10.2643 11.0657Z" fill="#CB8252"/>
  <path d="M28.188 10.84C29.0018 10.6813 30.2639 10.8055 30.2639 13.1365C30.2639 16.0468 28.788 16.502 27.4983 16.571H12.3397C11.0501 16.502 9.57422 16.0468 9.57422 13.1365C9.57422 10.8055 10.8363 10.6813 11.6501 10.84H28.188Z" fill="#F9C795"/>
  <path d="M27.6928 8.30664C27.9252 8.97905 28.0942 9.67216 28.1962 10.3756C28.1962 16.728 26.299 24.1687 19.9204 24.1687C12.3342 24.1687 11.6445 13.8239 11.6445 10.3756C11.7466 9.67216 11.9156 8.97905 12.148 8.30664H27.6928Z" fill="#FDD7AD"/>
  <path d="M9.57247 5.54883C9.38956 5.54883 9.21414 5.62149 9.08481 5.75082C8.95547 5.88016 8.88281 6.05558 8.88281 6.23848V7.61779C8.88281 7.8007 8.95547 7.97612 9.08481 8.10545C9.21414 8.23479 9.38956 8.30745 9.57247 8.30745H30.2897C30.4678 8.30032 30.6362 8.22452 30.7596 8.09595C30.883 7.96738 30.9519 7.79602 30.9518 7.61779V6.23848C30.9518 6.05558 30.8791 5.88016 30.7498 5.75082C30.6204 5.62149 30.445 5.54883 30.2621 5.54883H9.57247Z" fill="#65DDB9"/>
  <path d="M22.6805 9.68911C24.204 9.68911 25.4391 8.45404 25.4391 6.93049C25.4391 5.40695 24.204 4.17188 22.6805 4.17188C21.157 4.17188 19.9219 5.40695 19.9219 6.93049C19.9219 8.45404 21.157 9.68911 22.6805 9.68911Z" fill="#95A5A5"/>
  <path d="M38.3326 38.6162C35.5236 40.9063 26.7525 40.9063 24.0007 38.6162C21.1917 36.3261 21.4783 26.536 24.0007 23.9596C26.5232 21.3833 35.8102 21.3833 38.3326 23.9596C40.855 26.536 41.1416 36.3262 38.3326 38.6162Z" fill="#52CE06"/>
  <g opacity="0.2">
    <path d="M31.2156 34.6084C28.6932 36.6123 25.8842 37.6428 23.2471 37.7C21.298 34.3794 21.6993 26.3068 23.9924 23.9595C26.0562 21.8411 32.5342 21.4404 36.2605 22.7572C37.1777 26.5358 35.2859 31.345 31.2156 34.6084Z" fill="white"/>
  </g>
  <path d="M29.8572 36.2693C29.4559 36.2693 29.0546 36.0975 28.8253 35.754L25.615 31.6319C25.1564 31.0593 25.2711 30.2578 25.8443 29.7998C26.4176 29.3418 27.2202 29.4563 27.6788 30.0288L29.8572 32.8342L34.6727 26.5937C35.1314 26.0211 35.9339 25.9066 36.5072 26.3646C37.0805 26.8227 37.1951 27.6242 36.7365 28.1967L30.8891 35.754C30.6025 36.0403 30.2585 36.2693 29.8572 36.2693Z" fill="white"/>
</svg>