<svg width="25" height="24" viewBox="0 0 25 24" fill="none" xmlns="http://www.w3.org/2000/svg">
  <g clip-path="url(#clip0_737_16855)">
    <path d="M21.8682 21.7492C18.1957 24.7471 6.72879 24.7471 3.13131 21.7492C-0.541119 18.7513 -0.166388 5.9353 3.13131 2.56268C6.429 -0.809954 18.5705 -0.809954 21.8682 2.56268C25.1659 5.9353 25.5406 18.7514 21.8682 21.7492Z" fill="#52CE06"/>
    <g opacity="0.2">
      <path d="M12.5745 16.5053C9.27679 19.1284 5.60437 20.4775 2.1568 20.5524C-0.391428 16.2055 0.133226 5.63791 3.13113 2.56508C5.82923 -0.207961 14.2983 -0.732616 19.1699 0.991167C20.369 5.93771 17.8958 12.2332 12.5745 16.5053Z" fill="white"/>
    </g>
    <path d="M10.7754 18.6796C10.2508 18.6796 9.72616 18.4547 9.42637 18.0051L5.22934 12.6088C4.62975 11.8594 4.77967 10.8101 5.52914 10.2105C6.2786 9.61095 7.32785 9.76087 7.92744 10.5103L10.7754 14.1828L17.071 6.01351C17.6706 5.26405 18.7199 5.11413 19.4693 5.71372C20.2188 6.31331 20.3687 7.36256 19.7691 8.11202L12.1245 18.0051C11.7497 18.3798 11.3001 18.6796 10.7754 18.6796Z" fill="white"/>
  </g>
  <defs>
    <clipPath id="clip0_737_16855">
      <rect width="24" height="24" fill="white" transform="translate(0.5)"/>
    </clipPath>
  </defs>
</svg>