<svg width="52" height="40" viewBox="0 0 52 40" fill="none" xmlns="http://www.w3.org/2000/svg">
  <path d="M25.6016 29.205C29.1194 31.3251 39.2349 39.5805 42.3448 31.4899C47.5544 17.9368 58.1707 30.0694 45.4974 36.0729C36.1032 40.5232 31.4276 35.0221 25.6016 29.205Z" fill="#810000"/>
  <path d="M23.6615 17.463L15.8393 39.3822L0 2.01624H6.16571L15.8393 24.6059C16.9619 21.4926 17.7457 18.3793 18.8684 15.2661C19.7996 12.7977 19.8704 11.9678 21.1309 9.01816C22.4339 5.96873 24.7984 3.82695 27.5887 2.29444C30.3793 0.761932 33.4532 0 36.8018 0C40.6111 0 43.8089 0.96559 46.3956 2.90575C48.9913 4.84574 50.7984 7.56545 51.817 11.0734L46.8739 12.2428C45.9969 9.47884 44.7123 7.45905 43.0382 6.20103C41.3639 4.93419 39.2555 4.30525 36.7132 4.30525C33.7987 4.30525 31.3538 5.00501 29.3961 6.40485C27.4383 7.80453 26.059 9.6925 25.2679 12.0479C24.3913 14.6582 24.2864 14.7048 23.6617 17.463H23.6615Z" fill="#0B6614"/>
</svg>