<svg width="40" height="40" viewBox="0 0 40 40" fill="none" xmlns="http://www.w3.org/2000/svg">
<path fill-rule="evenodd" clip-rule="evenodd" d="M19.5768 11.0086C19.5187 11.0169 19.3469 11.0406 19.1948 11.0612C18.3281 11.1785 17.2915 11.6663 16.5865 12.2886C15.6961 13.0746 15.0678 14.2065 14.8764 15.3695C14.8074 15.7887 14.8164 16.7406 14.893 17.1257C15.1456 18.3952 15.8617 19.5704 16.8292 20.3028L17.0699 20.485L16.9689 20.5234C16.5457 20.6842 16.3597 20.7652 16.0002 20.9453C14.4372 21.7282 13.1655 22.9125 12.2623 24.4263C11.5225 25.6662 11.1103 27.048 11.0239 28.5778L11 29H11.7089H12.4177V28.8278C12.4177 27.6358 12.914 25.9877 13.578 24.9753C14.6034 23.4113 15.9745 22.3384 17.6467 21.7915C19.2352 21.2719 20.7978 21.2719 22.3863 21.7915C24.0585 22.3384 25.4296 23.4113 26.4551 24.9753C27.119 25.9877 27.6153 27.6358 27.6153 28.8278V29H28.3241H29.033L29.0092 28.5778C28.9227 27.048 28.5105 25.6662 27.7707 24.4263C26.8675 22.9125 25.5958 21.7282 24.0328 20.9453C23.6733 20.7652 23.4874 20.6842 23.0641 20.5234L22.9631 20.485L23.2038 20.3028C24.1713 19.5704 24.8874 18.3952 25.14 17.1257C25.2166 16.7406 25.2256 15.7887 25.1566 15.3695C25.0038 14.4412 24.5382 13.4611 23.9163 12.7585C23.1477 11.8903 22.0628 11.277 20.9338 11.0726C20.6623 11.0234 19.7681 10.9813 19.5768 11.0086ZM20.6116 12.4493C22.6811 12.7849 24.0954 14.7334 23.7619 16.7898C23.4262 18.8593 21.4777 20.2735 19.4214 19.94C17.3519 19.6044 15.9377 17.6559 16.2711 15.5996C16.6067 13.5303 18.5556 12.1158 20.6116 12.4493Z" fill="#0B6614"/>
</svg>
