<svg width="13" height="8" viewBox="0 0 13 8" fill="none" xmlns="http://www.w3.org/2000/svg">
<path d="M12.3536 4.35355C12.5488 4.15829 12.5488 3.84171 12.3536 3.64645L9.17157 0.464466C8.97631 0.269204 8.65973 0.269204 8.46447 0.464466C8.2692 0.659728 8.2692 0.976311 8.46447 1.17157L11.2929 4L8.46447 6.82843C8.2692 7.02369 8.2692 7.34027 8.46447 7.53553C8.65973 7.7308 8.97631 7.7308 9.17157 7.53553L12.3536 4.35355ZM1.5 4.5C1.77614 4.5 2 4.27614 2 4C2 3.72386 1.77614 3.5 1.5 3.5V4.5ZM4.5 3.5C4.22386 3.5 4 3.72386 4 4C4 4.27614 4.22386 4.5 4.5 4.5V3.5ZM7.5 4.5C7.77614 4.5 8 4.27614 8 4C8 3.72386 7.77614 3.5 7.5 3.5V4.5ZM10.5 3.5C10.2239 3.5 10 3.72386 10 4C10 4.27614 10.2239 4.5 10.5 4.5V3.5ZM0 4.5H1.5V3.5H0V4.5ZM4.5 4.5H7.5V3.5H4.5V4.5ZM10.5 4.5H12V3.5H10.5V4.5Z" fill="#555555"/>
</svg>
