<svg width="40" height="40" viewBox="0 0 40 40" fill="none" xmlns="http://www.w3.org/2000/svg">
<g clip-path="url(#clip0_128_976)">
<mask id="path-1-inside-1_128_976" fill="white">
<path d="M18 23H12C11.8674 23 11.7402 22.9473 11.6464 22.8536C11.5527 22.7598 11.5 22.6326 11.5 22.5C11.5 22.3674 11.5527 22.2402 11.6464 22.1464C11.7402 22.0527 11.8674 22 12 22H18C18.1326 22 18.2598 22.0527 18.3536 22.1464C18.4473 22.2402 18.5 22.3674 18.5 22.5C18.5 22.6326 18.4473 22.7598 18.3536 22.8536C18.2598 22.9473 18.1326 23 18 23ZM17 26H12C11.8674 26 11.7402 25.9473 11.6464 25.8536C11.5527 25.7598 11.5 25.6326 11.5 25.5C11.5 25.3674 11.5527 25.2402 11.6464 25.1464C11.7402 25.0527 11.8674 25 12 25H17C17.1326 25 17.2598 25.0527 17.3536 25.1464C17.4473 25.2402 17.5 25.3674 17.5 25.5C17.5 25.6326 17.4473 25.7598 17.3536 25.8536C17.2598 25.9473 17.1326 26 17 26ZM17 15C15.897 15 15 14.103 15 13C15 11.897 15.897 11 17 11C18.103 11 19 11.897 19 13C19 14.103 18.103 15 17 15ZM17 12C16.449 12 16 12.449 16 13C16 13.551 16.449 14 17 14C17.551 14 18 13.551 18 13C18 12.449 17.551 12 17 12ZM20.5 20C20.3674 20 20.2402 19.9473 20.1464 19.8536C20.0527 19.7598 20 19.6326 20 19.5V18.5C20 17.673 19.327 17 18.5 17H15.5C14.673 17 14 17.673 14 18.5V19.5C14 19.6326 13.9473 19.7598 13.8536 19.8536C13.7598 19.9473 13.6326 20 13.5 20C13.3674 20 13.2402 19.9473 13.1464 19.8536C13.0527 19.7598 13 19.6326 13 19.5V18.5C13 17.122 14.122 16 15.5 16H18.5C19.878 16 21 17.122 21 18.5V19.5C21 19.6326 20.9473 19.7598 20.8536 19.8536C20.7598 19.9473 20.6326 20 20.5 20Z"/>
</mask>
<path d="M18 22H12V24H18V22ZM12 22C12.1326 22 12.2598 22.0527 12.3536 22.1464L10.9393 23.5607C11.2206 23.842 11.6022 24 12 24V22ZM12.3536 22.1464C12.4473 22.2402 12.5 22.3674 12.5 22.5H10.5C10.5 22.8978 10.658 23.2794 10.9393 23.5607L12.3536 22.1464ZM12.5 22.5C12.5 22.6326 12.4473 22.7598 12.3536 22.8536L10.9393 21.4393C10.658 21.7206 10.5 22.1022 10.5 22.5H12.5ZM12.3536 22.8536C12.2598 22.9473 12.1326 23 12 23V21C11.6022 21 11.2206 21.158 10.9393 21.4393L12.3536 22.8536ZM12 23H18V21H12V23ZM18 23C17.8674 23 17.7402 22.9473 17.6464 22.8536L19.0607 21.4393C18.7794 21.158 18.3978 21 18 21V23ZM17.6464 22.8536C17.5527 22.7598 17.5 22.6326 17.5 22.5H19.5C19.5 22.1022 19.342 21.7206 19.0607 21.4393L17.6464 22.8536ZM17.5 22.5C17.5 22.3674 17.5527 22.2402 17.6464 22.1464L19.0607 23.5607C19.342 23.2794 19.5 22.8978 19.5 22.5H17.5ZM17.6464 22.1464C17.7402 22.0527 17.8674 22 18 22V24C18.3978 24 18.7794 23.842 19.0607 23.5607L17.6464 22.1464ZM17 25H12V27H17V25ZM12 25C12.1326 25 12.2598 25.0527 12.3536 25.1464L10.9393 26.5607C11.2206 26.842 11.6022 27 12 27V25ZM12.3536 25.1464C12.4473 25.2402 12.5 25.3674 12.5 25.5H10.5C10.5 25.8978 10.658 26.2794 10.9393 26.5607L12.3536 25.1464ZM12.5 25.5C12.5 25.6326 12.4473 25.7598 12.3536 25.8536L10.9393 24.4393C10.658 24.7206 10.5 25.1022 10.5 25.5H12.5ZM12.3536 25.8536C12.2598 25.9473 12.1326 26 12 26V24C11.6022 24 11.2206 24.158 10.9393 24.4393L12.3536 25.8536ZM12 26H17V24H12V26ZM17 26C16.8674 26 16.7402 25.9473 16.6464 25.8536L18.0607 24.4393C17.7794 24.158 17.3978 24 17 24V26ZM16.6464 25.8536C16.5527 25.7598 16.5 25.6326 16.5 25.5H18.5C18.5 25.1022 18.342 24.7206 18.0607 24.4393L16.6464 25.8536ZM16.5 25.5C16.5 25.3674 16.5527 25.2402 16.6464 25.1464L18.0607 26.5607C18.342 26.2794 18.5 25.8978 18.5 25.5H16.5ZM16.6464 25.1464C16.7402 25.0527 16.8674 25 17 25V27C17.3978 27 17.7794 26.842 18.0607 26.5607L16.6464 25.1464ZM17 14C16.4493 14 16 13.5507 16 13H14C14 14.6553 15.3447 16 17 16V14ZM16 13C16 12.4493 16.4493 12 17 12V10C15.3447 10 14 11.3447 14 13H16ZM17 12C17.5507 12 18 12.4493 18 13H20C20 11.3447 18.6553 10 17 10V12ZM18 13C18 13.5507 17.5507 14 17 14V16C18.6553 16 20 14.6553 20 13H18ZM17 11C15.8967 11 15 11.8967 15 13H17V11ZM15 13C15 14.1033 15.8967 15 17 15V13H15ZM17 15C18.1033 15 19 14.1033 19 13H17V15ZM19 13C19 11.8967 18.1033 11 17 11V13H19ZM20.5 19C20.6326 19 20.7598 19.0527 20.8536 19.1464L19.4393 20.5607C19.7206 20.842 20.1022 21 20.5 21V19ZM20.8536 19.1464C20.9473 19.2402 21 19.3674 21 19.5H19C19 19.8978 19.158 20.2794 19.4393 20.5607L20.8536 19.1464ZM21 19.5V18.5H19V19.5H21ZM21 18.5C21 17.1207 19.8793 16 18.5 16V18C18.7747 18 19 18.2253 19 18.5H21ZM18.5 16H15.5V18H18.5V16ZM15.5 16C14.1207 16 13 17.1207 13 18.5H15C15 18.2253 15.2253 18 15.5 18V16ZM13 18.5V19.5H15V18.5H13ZM13 19.5C13 19.3674 13.0527 19.2402 13.1464 19.1464L14.5607 20.5607C14.842 20.2794 15 19.8978 15 19.5H13ZM13.1464 19.1464C13.2402 19.0527 13.3674 19 13.5 19V21C13.8978 21 14.2794 20.842 14.5607 20.5607L13.1464 19.1464ZM13.5 19C13.6326 19 13.7598 19.0527 13.8536 19.1464L12.4393 20.5607C12.7206 20.842 13.1022 21 13.5 21V19ZM13.8536 19.1464C13.9473 19.2402 14 19.3674 14 19.5H12C12 19.8978 12.158 20.2794 12.4393 20.5607L13.8536 19.1464ZM14 19.5V18.5H12V19.5H14ZM14 18.5C14 17.6743 14.6743 17 15.5 17V15C13.5697 15 12 16.5697 12 18.5H14ZM15.5 17H18.5V15H15.5V17ZM18.5 17C19.3257 17 20 17.6743 20 18.5H22C22 16.5697 20.4303 15 18.5 15V17ZM20 18.5V19.5H22V18.5H20ZM20 19.5C20 19.3674 20.0527 19.2402 20.1464 19.1464L21.5607 20.5607C21.842 20.2794 22 19.8978 22 19.5H20ZM20.1464 19.1464C20.2402 19.0527 20.3674 19 20.5 19V21C20.8978 21 21.2794 20.842 21.5607 20.5607L20.1464 19.1464Z" fill="#555555" mask="url(#path-1-inside-1_128_976)"/>
<mask id="path-3-inside-2_128_976" fill="white">
<path d="M18 29H11C10.3372 28.9992 9.70178 28.7356 9.23311 28.2669C8.76444 27.7982 8.50079 27.1628 8.5 26.5V10.5C8.5 9.122 9.622 8 11 8H23C24.378 8 25.5 9.122 25.5 10.5V16.56C25.5 16.6926 25.4473 16.8198 25.3536 16.9136C25.2598 17.0073 25.1326 17.06 25 17.06C24.8674 17.06 24.7402 17.0073 24.6464 16.9136C24.5527 16.8198 24.5 16.6926 24.5 16.56V10.5C24.5 9.673 23.827 9 23 9H11C10.173 9 9.5 9.673 9.5 10.5V26.5C9.5 27.327 10.173 28 11 28H18C18.1326 28 18.2598 28.0527 18.3536 28.1464C18.4473 28.2402 18.5 28.3674 18.5 28.5C18.5 28.6326 18.4473 28.7598 18.3536 28.8536C18.2598 28.9473 18.1326 29 18 29Z"/>
</mask>
<path d="M11 29L10.9988 30H11V29ZM8.5 26.5H7.5L7.5 26.5012L8.5 26.5ZM18 28H11V30H18V28ZM11.0012 28C10.6032 27.9995 10.2216 27.8412 9.94022 27.5598L8.526 28.974C9.18191 29.6299 10.0712 29.9989 10.9988 30L11.0012 28ZM9.94022 27.5598C9.65879 27.2784 9.50048 26.8968 9.5 26.4988L7.5 26.5012C7.50111 27.4288 7.87009 28.3181 8.526 28.974L9.94022 27.5598ZM9.5 26.5V10.5H7.5V26.5H9.5ZM9.5 10.5C9.5 9.67428 10.1743 9 11 9V7C9.06972 7 7.5 8.56972 7.5 10.5H9.5ZM11 9H23V7H11V9ZM23 9C23.8257 9 24.5 9.67428 24.5 10.5H26.5C26.5 8.56972 24.9303 7 23 7V9ZM24.5 10.5V16.56H26.5V10.5H24.5ZM24.5 16.56C24.5 16.4274 24.5527 16.3002 24.6464 16.2064L26.0607 17.6207C26.342 17.3394 26.5 16.9578 26.5 16.56H24.5ZM24.6464 16.2064C24.7402 16.1127 24.8674 16.06 25 16.06V18.06C25.3978 18.06 25.7794 17.902 26.0607 17.6207L24.6464 16.2064ZM25 16.06C25.1326 16.06 25.2598 16.1127 25.3536 16.2064L23.9393 17.6207C24.2206 17.902 24.6022 18.06 25 18.06V16.06ZM25.3536 16.2064C25.4473 16.3002 25.5 16.4274 25.5 16.56H23.5C23.5 16.9578 23.658 17.3394 23.9393 17.6207L25.3536 16.2064ZM25.5 16.56V10.5H23.5V16.56H25.5ZM25.5 10.5C25.5 9.12072 24.3793 8 23 8V10C23.2747 10 23.5 10.2253 23.5 10.5H25.5ZM23 8H11V10H23V8ZM11 8C9.62072 8 8.5 9.12072 8.5 10.5H10.5C10.5 10.2253 10.7253 10 11 10V8ZM8.5 10.5V26.5H10.5V10.5H8.5ZM8.5 26.5C8.5 27.8793 9.62072 29 11 29V27C10.7253 27 10.5 26.7747 10.5 26.5H8.5ZM11 29H18V27H11V29ZM18 29C17.8674 29 17.7402 28.9473 17.6464 28.8536L19.0607 27.4393C18.7794 27.158 18.3978 27 18 27V29ZM17.6464 28.8536C17.5527 28.7598 17.5 28.6326 17.5 28.5H19.5C19.5 28.1022 19.342 27.7206 19.0607 27.4393L17.6464 28.8536ZM17.5 28.5C17.5 28.3674 17.5527 28.2402 17.6464 28.1464L19.0607 29.5607C19.342 29.2794 19.5 28.8978 19.5 28.5H17.5ZM17.6464 28.1464C17.7402 28.0527 17.8674 28 18 28V30C18.3978 30 18.7794 29.842 19.0607 29.5607L17.6464 28.1464Z" fill="#555555" mask="url(#path-3-inside-2_128_976)"/>
<mask id="path-5-inside-3_128_976" fill="white">
<path d="M26 32C22.416 32 19.5 29.084 19.5 25.5C19.5 21.916 22.416 19 26 19C29.584 19 32.5 21.916 32.5 25.5C32.5 29.084 29.584 32 26 32ZM26 20C22.967 20 20.5 22.467 20.5 25.5C20.5 28.533 22.967 31 26 31C29.033 31 31.5 28.533 31.5 25.5C31.5 22.467 29.033 20 26 20Z"/>
</mask>
<path d="M26 31C22.9683 31 20.5 28.5317 20.5 25.5H18.5C18.5 29.6363 21.8637 33 26 33V31ZM20.5 25.5C20.5 22.4683 22.9683 20 26 20V18C21.8637 18 18.5 21.3637 18.5 25.5H20.5ZM26 20C29.0317 20 31.5 22.4683 31.5 25.5H33.5C33.5 21.3637 30.1363 18 26 18V20ZM31.5 25.5C31.5 28.5317 29.0317 31 26 31V33C30.1363 33 33.5 29.6363 33.5 25.5H31.5ZM26 19C22.4147 19 19.5 21.9147 19.5 25.5H21.5C21.5 23.0193 23.5193 21 26 21V19ZM19.5 25.5C19.5 29.0853 22.4147 32 26 32V30C23.5193 30 21.5 27.9807 21.5 25.5H19.5ZM26 32C29.5853 32 32.5 29.0853 32.5 25.5H30.5C30.5 27.9807 28.4807 30 26 30V32ZM32.5 25.5C32.5 21.9147 29.5853 19 26 19V21C28.4807 21 30.5 23.0193 30.5 25.5H32.5Z" fill="#555555" mask="url(#path-5-inside-3_128_976)"/>
<path d="M25.0001 27.4997L25.3515 27.0981L28.4995 23.5001L28.4997 23.5L28.4999 23.5001L28.5 23.5003L28.5 23.5005L28.4999 23.5006L25.0006 27.4998C25.0005 27.4997 25.0003 27.4997 25.0001 27.4997Z" stroke="#555555"/>
</g>
<defs>
<clipPath id="clip0_128_976">
<rect width="24" height="24" fill="white" transform="translate(8.5 8)"/>
</clipPath>
</defs>
</svg>
