<svg width="80" height="80" viewBox="0 0 80 80" fill="none" xmlns="http://www.w3.org/2000/svg">
<g clip-path="url(#clip0_1219_1875)">
<path d="M71.2278 72.5038C58.9864 82.4968 20.7633 82.4968 8.77167 72.5038C-3.46975 62.5108 -2.22064 19.7909 8.77167 8.54876C19.764 -2.69334 60.2355 -2.69334 71.2278 8.54876C82.2202 19.7909 83.4693 62.511 71.2278 72.5038Z" fill="#0B6614"/>
<g opacity="0.2">
<path d="M40.2502 55.0175C29.2579 63.7614 17.0165 68.2583 5.52463 68.5081C-2.96947 54.0182 -1.22063 18.793 8.77237 8.55026C17.766 -0.693204 45.9962 -2.44205 62.2349 3.30389C66.232 19.7924 57.9878 40.7775 40.2502 55.0175Z" fill="white"/>
</g>
<path d="M34.2533 62.2614C32.5045 62.2614 30.7558 61.5118 29.7565 60.0129L15.7664 42.0256C13.7678 39.5274 14.2675 36.0299 16.7657 34.0312C19.2639 32.0326 22.7615 32.5323 24.7601 35.0305L34.2533 47.272L55.2387 20.0411C57.2373 17.5429 60.7348 17.0432 63.233 19.0418C65.7312 21.0404 66.231 24.538 64.2323 27.0362L38.7502 60.0129C37.5011 61.262 36.0022 62.2614 34.2533 62.2614Z" fill="white"/>
</g>
<defs>
<clipPath id="clip0_1219_1875">
<rect width="80" height="80" fill="white"/>
</clipPath>
</defs>
</svg>
