<svg width="40" height="40" viewBox="0 0 40 40" fill="none" xmlns="http://www.w3.org/2000/svg">
<path d="M24.1274 17.1234C24.2398 17.2359 24.3029 17.3884 24.3029 17.5474C24.3029 17.7064 24.2398 17.8589 24.1274 17.9714L19.2214 22.8774C19.1089 22.9898 18.9564 23.0529 18.7974 23.0529C18.6384 23.0529 18.4859 22.9898 18.3734 22.8774L15.8734 20.3774C15.7674 20.2637 15.7097 20.1132 15.7125 19.9578C15.7152 19.8023 15.7782 19.654 15.8881 19.5441C15.998 19.4342 16.1463 19.3712 16.3018 19.3685C16.4572 19.3657 16.6077 19.4234 16.7214 19.5294L18.7974 21.6044L23.2794 17.1234C23.3919 17.011 23.5444 16.9479 23.7034 16.9479C23.8624 16.9479 24.0149 17.011 24.1274 17.1234ZM30.6004 20.0004C30.6004 25.8454 25.8454 30.6004 20.0004 30.6004C14.1554 30.6004 9.40039 25.8454 9.40039 20.0004C9.40039 14.1554 14.1554 9.40039 20.0004 9.40039C25.8454 9.40039 30.6004 14.1554 30.6004 20.0004ZM29.4014 20.0004C29.4014 14.8164 25.1844 10.6004 20.0014 10.6004C14.8184 10.6004 10.6004 14.8164 10.6004 20.0004C10.6004 25.1844 14.8174 29.4004 20.0004 29.4004C25.1834 29.4004 29.4014 25.1834 29.4014 20.0004Z" fill="#555555"/>
</svg>
