<svg width="24" height="25" viewBox="0 0 24 25" fill="none" xmlns="http://www.w3.org/2000/svg">
<g clip-path="url(#clip0_557_30562)">
<path d="M21.3682 22.0558C17.6957 25.0537 6.22879 25.0537 2.6313 22.0558C-1.04112 19.0579 -0.666388 6.24195 2.6313 2.86932C5.929 -0.503314 18.0705 -0.503314 21.3682 2.86932C24.6658 6.24195 25.0406 19.058 21.3682 22.0558Z" fill="#52CE06"/>
<g opacity="0.2">
<path d="M12.0755 16.8099C8.77777 19.4331 5.10535 20.7822 1.65778 20.8571C-0.890451 16.5102 -0.365797 5.9426 2.6321 2.86977C5.3302 0.0967264 13.7992 -0.427928 18.6709 1.29585C19.87 6.24239 17.3967 12.5379 12.0755 16.8099Z" fill="white"/>
</g>
<path d="M10.2754 18.9843C9.75076 18.9843 9.22616 18.7594 8.92637 18.3097L4.72934 12.9135C4.12975 12.1641 4.27967 11.1148 5.02914 10.5152C5.7786 9.91563 6.82785 10.0656 7.42744 10.815L10.2754 14.4874L16.571 6.3182C17.1706 5.56874 18.2199 5.41881 18.9693 6.0184C19.7188 6.61799 19.8687 7.66725 19.2691 8.41671L11.6245 18.3097C11.2497 18.6845 10.8001 18.9843 10.2754 18.9843Z" fill="white"/>
</g>
<defs>
<clipPath id="clip0_557_30562">
<rect width="24" height="24" fill="white" transform="translate(0 0.304688)"/>
</clipPath>
</defs>
</svg>
