<svg width="48" height="48" viewBox="0 0 48 48" fill="none" xmlns="http://www.w3.org/2000/svg">
<g clip-path="url(#clip0_593_20417)">
<path d="M42.7363 43.5023C35.3915 49.4981 12.4576 49.4981 5.26261 43.5023C-2.08224 37.5065 -1.33278 11.8745 5.26261 5.12926C11.858 -1.616 36.1409 -1.616 42.7363 5.12926C49.3317 11.8745 50.0812 37.5066 42.7363 43.5023Z" fill="#F6F4C1"/>
<g opacity="0.2">
<path d="M24.1509 33.0105C17.5555 38.2569 10.2107 40.955 3.31556 41.1048C-1.7809 32.4109 -0.731594 11.2758 5.2642 5.13016C10.6604 -0.415922 27.5985 -1.46523 37.3417 1.98233C39.74 11.8754 34.7935 24.4665 24.1509 33.0105Z" fill="white"/>
</g>
<path d="M21.9852 33C21.277 33 20.5689 32.6965 20.1643 32.0896L14.4994 24.806C13.6901 23.7945 13.8924 22.3782 14.904 21.5689C15.9156 20.7596 17.3318 20.962 18.1411 21.9736L21.9852 26.9304L30.4826 15.904C31.2919 14.8924 32.7082 14.6901 33.7197 15.4994C34.7313 16.3087 34.9337 17.7249 34.1244 18.7365L23.806 32.0896C23.3003 32.5954 22.6933 33 21.9852 33Z" fill="#6B6D0B"/>
</g>
<defs>
<clipPath id="clip0_593_20417">
<rect width="48" height="48" fill="white"/>
</clipPath>
</defs>
</svg>
