<svg width="56" height="57" viewBox="0 0 56 57" fill="none" xmlns="http://www.w3.org/2000/svg">
<g clip-path="url(#clip0_557_21229)">
<path d="M49.8597 51.0583C41.2907 58.0534 14.5345 58.0534 6.14036 51.0583C-2.42863 44.0632 -1.55426 14.1593 6.14036 6.2898C13.835 -1.57967 42.1651 -1.57967 49.8597 6.2898C57.5543 14.1593 58.4287 44.0634 49.8597 51.0583Z" fill="#0B6614"/>
<g opacity="0.2">
<path d="M28.1748 38.817C20.4802 44.9377 11.9112 48.0855 3.86685 48.2603C-2.07902 38.1174 -0.854828 13.4598 6.14027 6.28987C12.4358 -0.180555 32.1969 -1.40475 43.564 2.61741C46.362 14.1593 40.5911 28.8489 28.1748 38.817Z" fill="white"/>
</g>
<path d="M36.6233 29.5968C36.623 29.5972 36.6226 29.5976 36.6223 29.5979L30.1828 36.5392C29.6777 37.0789 28.8622 37.075 28.3615 36.5304C28.322 36.4874 28.285 36.4416 28.251 36.3934C27.8899 35.8129 27.9687 35.0365 28.4377 34.554L31.9923 30.7085C32.1813 30.5046 32.3985 30.3336 32.6363 30.2018L33.0291 29.9797H20.3755C19.7276 30.009 19.1541 29.5314 19.0168 28.8483C18.9029 28.0914 19.3798 27.3784 20.0819 27.2557C20.1556 27.2428 20.2301 27.2368 20.3047 27.2379H33.0033L32.7264 27.0991C32.4563 26.9631 32.2101 26.7775 31.9988 26.5507L28.4377 22.7122C27.9687 22.2296 27.8899 21.4533 28.251 20.8728C28.6712 20.2542 29.4771 20.1198 30.051 20.5728C30.0974 20.6094 30.1414 20.6493 30.1828 20.6923L36.6223 27.6335C37.1255 28.1754 37.126 29.0544 36.6233 29.5968Z" fill="white"/>
</g>
<defs>
<clipPath id="clip0_557_21229">
<rect width="56" height="56" fill="white" transform="translate(0 0.304688)"/>
</clipPath>
</defs>
</svg>
