<svg width="56" height="56" viewBox="0 0 56 56" fill="none" xmlns="http://www.w3.org/2000/svg">
<path d="M36.4955 13.4869C36.4955 17.1932 35.1663 20.4014 32.5443 23.0239C29.9222 25.6459 26.7136 26.975 23.0073 26.975H23.0009C19.2992 26.9737 16.0928 25.6446 13.4707 23.0239C10.8483 20.4014 9.51953 17.1932 9.51953 13.4869C9.51953 9.78184 10.8483 6.57322 13.4707 3.95117C16.0914 1.33 19.298 0.0013125 23.0009 0H23.0073C26.7124 0 29.9209 1.32913 32.5443 3.95117C35.1663 6.57322 36.4955 9.78184 36.4955 13.4869Z" fill="#FFBB85"/>
<path d="M46.7215 46.3691C46.7215 49.2933 45.7914 51.6607 43.9593 53.4041C42.1488 55.1273 39.7539 56.0002 36.8423 56.0002H9.87799C6.9662 56.0002 4.57155 55.1273 2.76205 53.4042C0.929031 51.6593 0 49.2924 0 46.3693C0 45.2447 0.0371875 44.1321 0.111562 43.0623C0.187031 41.9685 0.340156 40.7782 0.565687 39.5226C0.792969 38.2566 1.08522 37.0599 1.43522 35.9662C1.79834 34.8339 2.28966 33.7172 2.89756 32.6473C3.52909 31.5369 4.27077 30.5696 5.10212 29.7732C5.97384 28.9397 7.03927 28.2702 8.27105 27.7823C9.49856 27.2969 10.8593 27.0508 12.3154 27.0508C12.8866 27.0508 13.4398 27.2845 14.5062 27.9793C15.2657 28.4739 16.0275 28.9651 16.7916 29.4528C17.5248 29.9202 18.5177 30.3586 19.7451 30.7547C20.824 31.1037 21.919 31.2985 23.0008 31.3322C23.12 31.3365 23.2392 31.3387 23.3585 31.3387C24.5598 31.3387 25.7749 31.1417 26.9729 30.7547C28.2004 30.3586 29.1946 29.9201 29.9273 29.4528C30.6911 28.9656 31.4526 28.4748 32.2118 27.9806C33.2791 27.2845 33.8314 27.0509 34.404 27.0509C35.8587 27.0509 37.2195 27.297 38.4478 27.7823C39.6796 28.2701 40.7451 28.941 41.6159 29.7732C42.4487 30.5696 43.1903 31.5369 43.8213 32.6473C44.4298 33.7181 44.922 34.8339 45.2838 35.9648C45.6342 37.0599 45.9272 38.2566 46.1545 39.5234C46.3788 40.7804 46.5322 41.9706 46.6074 43.0614C46.683 44.1278 46.7202 45.2404 46.7215 46.3691Z" fill="#6AA9FF"/>
<path d="M23.0065 26.975H23V0H23.0065C26.7115 0 29.92 1.32913 32.5434 3.95117C35.1655 6.57322 36.4946 9.78184 36.4946 13.4869C36.4946 17.1932 35.1655 20.4014 32.5434 23.0239C29.9214 25.6459 26.7127 26.975 23.0065 26.975Z" fill="#F5A86C"/>
<path d="M46.7207 46.369C46.7207 49.2932 45.7906 51.6606 43.9585 53.404C42.148 55.1272 39.7531 56 36.8415 56H23V31.3322C23.1192 31.3364 23.2384 31.3385 23.3577 31.3385C24.559 31.3385 25.7741 31.1416 26.9721 30.7544C28.1996 30.3585 29.1938 29.9201 29.9265 29.4527C30.6903 28.9655 31.4518 28.4747 32.211 27.9805C33.2783 27.2844 33.8306 27.0508 34.4032 27.0508C35.8579 27.0508 37.2188 27.2969 38.447 27.7822C39.6788 28.27 40.7443 28.9409 41.6151 29.7731C42.4479 30.5695 43.1895 31.5368 43.8205 32.6472C44.429 33.718 44.9212 34.8338 45.283 35.9647C45.6334 37.0598 45.9264 38.2565 46.1537 39.5233C46.378 40.7803 46.5314 41.9705 46.6066 43.0613C46.6822 44.1277 46.7194 45.2403 46.7207 46.369Z" fill="#2682FF"/>
<path d="M46.0991 27.3125C45.6639 27.3125 45.2466 27.1397 44.939 26.8319L39.0258 20.9188C36.9888 18.8817 36.9888 15.5673 39.0258 13.5302C40.0126 12.5434 41.3246 12 42.72 12C43.9717 12 45.1562 12.4372 46.0991 13.2392C47.0419 12.4372 48.2263 12 49.4779 12C50.8735 12 52.1855 12.5435 53.1721 13.5303C54.159 14.5169 54.7025 15.829 54.7025 17.2245C54.7025 18.62 54.159 19.9321 53.1722 20.9189L47.2592 26.8319C46.9515 27.1396 46.5342 27.3125 46.0991 27.3125Z" fill="#FF7083"/>
<path d="M49.4792 12C48.2281 12 47.0442 12.4367 46.1016 13.2382V27.3124C46.5362 27.3121 46.953 27.1393 47.2604 26.8319L53.1734 20.9189C54.1603 19.9321 54.7038 18.62 54.7038 17.2245C54.7038 15.829 54.1603 14.5169 53.1735 13.5303C52.1867 12.5435 50.8748 12 49.4792 12Z" fill="#E63950"/>
<path d="M41.8516 56C34.7652 56 29 50.2348 29 43.1484C29 36.062 34.7652 30.2969 41.8516 30.2969C48.938 30.2969 54.7031 36.062 54.7031 43.1484C54.7031 50.2348 48.938 56 41.8516 56Z" fill="#FFF5F5"/>
<path d="M54.7031 43.1484C54.7031 36.062 48.938 30.2969 41.8516 30.2969V56C48.938 56 54.7031 50.2348 54.7031 43.1484Z" fill="#EBE1DC"/>
<path d="M41.8516 50.2578C38.5805 50.2578 36.3828 48.4996 36.3828 45.8828C36.3828 43.3012 38.7216 40.4141 41.8516 40.4141C44.9815 40.4141 47.3203 43.3012 47.3203 45.8828C47.3203 48.4996 45.1226 50.2578 41.8516 50.2578Z" fill="#D6995C"/>
<path d="M41.8516 38.2266C42.7577 38.2266 43.4922 37.492 43.4922 36.5859C43.4922 35.6798 42.7577 34.9453 41.8516 34.9453C40.9455 34.9453 40.2109 35.6798 40.2109 36.5859C40.2109 37.492 40.9455 38.2266 41.8516 38.2266Z" fill="#D6995C"/>
<path d="M36.832 39.8086C37.7381 39.8086 38.4727 39.0741 38.4727 38.168C38.4727 37.2619 37.7381 36.5273 36.832 36.5273C35.9259 36.5273 35.1914 37.2619 35.1914 38.168C35.1914 39.0741 35.9259 39.8086 36.832 39.8086Z" fill="#D6995C"/>
<path d="M47.3203 45.8828C47.3203 43.3012 44.9815 40.4141 41.8516 40.4141V50.2578C45.1226 50.2578 47.3203 48.4996 47.3203 45.8828ZM43.4922 36.5859C43.4922 35.6799 42.7576 34.9453 41.8516 34.9453V38.2266C42.7576 38.2266 43.4922 37.492 43.4922 36.5859Z" fill="#B56D3C"/>
<path d="M46.8711 39.8086C47.7772 39.8086 48.5117 39.0741 48.5117 38.168C48.5117 37.2619 47.7772 36.5273 46.8711 36.5273C45.965 36.5273 45.2305 37.2619 45.2305 38.168C45.2305 39.0741 45.965 39.8086 46.8711 39.8086Z" fill="#B56D3C"/>
</svg>
