<svg width="56" height="57" viewBox="0 0 56 57" fill="none" xmlns="http://www.w3.org/2000/svg">
<path d="M35.6104 38.6645L27.8862 48.3196L20.1621 38.6645C21.3286 37.7912 22.1656 36.5492 22.5373 35.1403C22.7951 34.3013 22.9602 33.4371 23.0297 32.5624V32.5527H32.7428V32.5624C32.8123 33.4304 32.9745 34.2878 33.2255 35.121C33.5964 36.5381 34.4372 37.7874 35.6104 38.6645Z" fill="#FDD7AD"/>
<path d="M50.9137 54.9523C50.9315 55.0884 50.9201 55.2268 50.8803 55.3581C50.8404 55.4895 50.773 55.6108 50.6826 55.7141C50.5921 55.8173 50.4807 55.9001 50.3557 55.9569C50.2307 56.0137 50.0951 56.0432 49.9578 56.0434H25.9551L27.8861 44.4572L35.6102 38.6641L43.8075 40.4213C45.3638 40.7537 46.7792 41.5594 47.8596 42.728C48.94 43.8965 49.6324 45.3706 49.842 46.9482L50.9137 54.9523Z" fill="#65DDB9"/>
<path d="M27.8873 44.4572V56.0434H5.81562C5.67835 56.0432 5.5427 56.0137 5.41772 55.9569C5.29274 55.9001 5.18131 55.8173 5.09085 55.7141C5.00039 55.6108 4.93299 55.4895 4.89314 55.3581C4.85329 55.2268 4.84191 55.0884 4.85976 54.9523L5.93148 46.9482C6.14103 45.3706 6.83347 43.8965 7.91384 42.728C8.99422 41.5594 10.4096 40.7537 11.966 40.4213L20.1632 38.6641L27.8873 44.4572Z" fill="#26B99A"/>
<path d="M33.2254 35.121C31.6592 36.2061 29.791 36.7702 27.8861 36.7334C25.9806 36.7728 24.1105 36.2158 22.5371 35.1403C22.7949 34.3013 22.96 33.4371 23.0295 32.5624V32.5527H32.7426V32.5624C32.8121 33.4304 32.9743 34.2878 33.2254 35.121Z" fill="#F9C795"/>
<path d="M42.3699 48.3184H40.4389V46.3874C40.4389 46.1313 40.3372 45.8857 40.1561 45.7047C39.975 45.5236 39.7295 45.4219 39.4734 45.4219C39.2173 45.4219 38.9717 45.5236 38.7907 45.7047C38.6096 45.8857 38.5079 46.1313 38.5079 46.3874V48.3184H36.5768C36.3208 48.3184 36.0752 48.4201 35.8941 48.6012C35.7131 48.7823 35.6113 49.0279 35.6113 49.2839C35.6113 49.54 35.7131 49.7856 35.8941 49.9667C36.0752 50.1477 36.3208 50.2495 36.5768 50.2495H38.5079V52.1805C38.5079 52.4366 38.6096 52.6821 38.7907 52.8632C38.9717 53.0443 39.2173 53.146 39.4734 53.146C39.7295 53.146 39.975 53.0443 40.1561 52.8632C40.3372 52.6821 40.4389 52.4366 40.4389 52.1805V50.2495H42.3699C42.626 50.2495 42.8716 50.1477 43.0527 49.9667C43.2337 49.7856 43.3355 49.54 43.3355 49.2839C43.3355 49.0279 43.2337 48.7823 43.0527 48.6012C42.8716 48.4201 42.626 48.3184 42.3699 48.3184Z" fill="#E64C3C"/>
<path d="M18.2347 50.6356C18.2347 51.9149 17.3706 52.1804 16.3037 52.1804C15.2368 52.1804 14.3726 51.9149 14.3726 50.6356C14.2761 49.4654 15.1354 48.4342 16.3037 48.3184C17.4719 48.4342 18.3313 49.4654 18.2347 50.6356Z" fill="#3F5C6C"/>
<path d="M14.3698 46.3881C14.9031 46.3881 15.3353 45.9558 15.3353 45.4225C15.3353 44.8893 14.9031 44.457 14.3698 44.457C13.8366 44.457 13.4043 44.8893 13.4043 45.4225C13.4043 45.9558 13.8366 46.3881 14.3698 46.3881Z" fill="#3F5C6C"/>
<path d="M12.4401 48.3178C12.9734 48.3178 13.4056 47.8855 13.4056 47.3522C13.4056 46.819 12.9734 46.3867 12.4401 46.3867C11.9069 46.3867 11.4746 46.819 11.4746 47.3522C11.4746 47.8855 11.9069 48.3178 12.4401 48.3178Z" fill="#3F5C6C"/>
<path d="M18.235 46.3881C18.7683 46.3881 19.2006 45.9558 19.2006 45.4225C19.2006 44.8893 18.7683 44.457 18.235 44.457C17.7018 44.457 17.2695 44.8893 17.2695 45.4225C17.2695 45.9558 17.7018 46.3881 18.235 46.3881Z" fill="#3F5C6C"/>
<path d="M20.1647 48.3178C20.698 48.3178 21.1303 47.8855 21.1303 47.3522C21.1303 46.819 20.698 46.3867 20.1647 46.3867C19.6315 46.3867 19.1992 46.819 19.1992 47.3522C19.1992 47.8855 19.6315 48.3178 20.1647 48.3178Z" fill="#3F5C6C"/>
<path d="M14.3707 15.4912C13.9399 14.2471 13.699 12.9451 13.6562 11.6292L13.7238 7.7671C13.9189 5.01634 14.8052 2.36021 16.3018 0.0429688C16.3018 0.0429688 18.2328 1.974 23.0604 1.00849C27.888 0.0429688 35.4962 -1.03841 39.4742 2.93952C40.7095 4.30253 41.5622 5.96806 41.9459 7.7671L42.4093 11.6292C42.4257 13.0513 42.1836 14.4646 41.6948 15.8002C41.61 16.024 41.5133 16.2432 41.4052 16.4568L14.3707 15.4912Z" fill="#CB8252"/>
<path d="M39.4636 15.1732C40.6029 14.9511 42.3698 15.1249 42.3698 18.3884C42.3698 22.4629 40.3036 23.1001 38.4981 23.1966H17.276C15.4705 23.1001 13.4043 22.4629 13.4043 18.3884C13.4043 15.1249 15.1712 14.9511 16.3105 15.1732H39.4636Z" fill="#F9C795"/>
<path d="M38.7703 11.6289C39.0957 12.5703 39.3322 13.5406 39.4751 14.5255C39.4751 23.4188 36.819 33.8358 27.8889 33.8358C17.2683 33.8358 16.3027 19.353 16.3027 14.5255C16.4456 13.5406 16.6822 12.5703 17.0076 11.6289H38.7703Z" fill="#FDD7AD"/>
<path d="M13.405 7.76758C13.1489 7.76758 12.9033 7.8693 12.7222 8.05037C12.5412 8.23144 12.4395 8.47702 12.4395 8.73309V10.6641C12.4395 10.9202 12.5412 11.1658 12.7222 11.3469C12.9033 11.5279 13.1489 11.6296 13.405 11.6296H42.4091C42.6584 11.6197 42.8942 11.5136 43.067 11.3336C43.2398 11.1536 43.3362 10.9136 43.336 10.6641V8.73309C43.336 8.47702 43.2343 8.23144 43.0532 8.05037C42.8721 7.8693 42.6265 7.76758 42.3705 7.76758H13.405Z" fill="#65DDB9"/>
<path d="M31.7507 13.562C33.8837 13.562 35.6128 11.8329 35.6128 9.69996C35.6128 7.567 33.8837 5.83789 31.7507 5.83789C29.6178 5.83789 27.8887 7.567 27.8887 9.69996C27.8887 11.8329 29.6178 13.562 31.7507 13.562Z" fill="#95A5A5"/>
</svg>
