<svg width="179" height="37" viewBox="0 0 179 37" fill="none" xmlns="http://www.w3.org/2000/svg">
<path d="M23.7148 27.0536C26.9736 29.0175 36.3439 36.6646 39.2247 29.1702C44.0506 16.6155 53.8848 27.8543 42.145 33.4155C33.4429 37.5379 29.1117 32.4421 23.7148 27.0536Z" fill="#810000"/>
<path d="M21.9185 16.1764L14.6725 36.4807L0 1.86769H5.71153L14.6725 22.7931C15.7125 19.9091 16.4385 17.0252 17.4785 14.1414C18.3411 11.8548 18.4067 11.0861 19.5744 8.35376C20.7813 5.529 22.9717 3.545 25.5565 2.1254C28.1414 0.705798 30.9889 0 34.0909 0C37.6196 0 40.5818 0.894452 42.9779 2.69167C45.3824 4.48874 47.0564 7.00808 48 10.2576L43.421 11.3408C42.6086 8.7805 41.4187 6.90952 39.8679 5.74417C38.3169 4.57067 36.3638 3.98807 34.0088 3.98807C31.309 3.98807 29.0442 4.63627 27.2306 5.93298C25.4171 7.22954 24.1394 8.97842 23.4066 11.1603C22.5945 13.5783 22.4974 13.6214 21.9187 16.1764H21.9185Z" fill="#0B6614"/>
<path d="M68.568 26.4322C68.136 26.4322 67.776 26.3362 67.488 26.1442C67.216 25.9362 66.992 25.6322 66.816 25.2322L60.552 11.1682C60.376 10.7682 60.328 10.4162 60.408 10.1122C60.488 9.80823 60.656 9.56823 60.912 9.39223C61.168 9.21623 61.472 9.12823 61.824 9.12823C62.288 9.12823 62.632 9.23223 62.856 9.44023C63.096 9.63223 63.296 9.92823 63.456 10.3282L69.144 23.5042H68.112L73.776 10.3042C73.952 9.92023 74.16 9.63223 74.4 9.44023C74.64 9.23223 74.976 9.12823 75.408 9.12823C75.76 9.12823 76.048 9.21623 76.272 9.39223C76.512 9.56823 76.664 9.80823 76.728 10.1122C76.792 10.4162 76.736 10.7682 76.56 11.1682L70.296 25.2322C70.12 25.6322 69.896 25.9362 69.624 26.1442C69.368 26.3362 69.016 26.4322 68.568 26.4322ZM82.9534 26.4802C81.6254 26.4802 80.4814 26.2322 79.5214 25.7362C78.5614 25.2402 77.8174 24.5362 77.2894 23.6242C76.7774 22.7122 76.5214 21.6322 76.5214 20.3842C76.5214 19.1682 76.7694 18.1042 77.2654 17.1922C77.7774 16.2802 78.4734 15.5682 79.3534 15.0562C80.2494 14.5282 81.2654 14.2642 82.4014 14.2642C83.2334 14.2642 83.9774 14.4002 84.6334 14.6722C85.3054 14.9442 85.8734 15.3362 86.3374 15.8482C86.8174 16.3602 87.1774 16.9842 87.4174 17.7202C87.6734 18.4402 87.8014 19.2562 87.8014 20.1682C87.8014 20.4562 87.6974 20.6802 87.4894 20.8402C87.2974 20.9842 87.0174 21.0562 86.6494 21.0562H78.9454V19.3282H85.6894L85.3054 19.6882C85.3054 18.9522 85.1934 18.3362 84.9694 17.8402C84.7614 17.3442 84.4494 16.9682 84.0334 16.7122C83.6334 16.4402 83.1294 16.3042 82.5214 16.3042C81.8494 16.3042 81.2734 16.4642 80.7934 16.7842C80.3294 17.0882 79.9694 17.5282 79.7134 18.1042C79.4734 18.6642 79.3534 19.3362 79.3534 20.1202V20.2882C79.3534 21.6002 79.6574 22.5842 80.2654 23.2402C80.8894 23.8802 81.8014 24.2002 83.0014 24.2002C83.4174 24.2002 83.8814 24.1522 84.3934 24.0562C84.9214 23.9442 85.4174 23.7602 85.8814 23.5042C86.2174 23.3122 86.5134 23.2322 86.7694 23.2642C87.0254 23.2802 87.2254 23.3682 87.3694 23.5282C87.5294 23.6882 87.6254 23.8882 87.6574 24.1282C87.6894 24.3522 87.6414 24.5842 87.5134 24.8242C87.4014 25.0642 87.2014 25.2722 86.9134 25.4482C86.3534 25.8002 85.7054 26.0642 84.9694 26.2402C84.2494 26.4002 83.5774 26.4802 82.9534 26.4802ZM95.5063 26.4802C94.4663 26.4802 93.5943 26.3042 92.8903 25.9522C92.2023 25.6002 91.6903 25.0882 91.3543 24.4162C91.0183 23.7282 90.8503 22.8802 90.8503 21.8722V16.7602H89.6023C89.2183 16.7602 88.9223 16.6642 88.7143 16.4722C88.5063 16.2642 88.4023 15.9842 88.4023 15.6322C88.4023 15.2642 88.5063 14.9842 88.7143 14.7922C88.9223 14.6002 89.2183 14.5042 89.6023 14.5042H90.8503V12.3202C90.8503 11.8242 90.9783 11.4482 91.2343 11.1922C91.5063 10.9362 91.8823 10.8082 92.3623 10.8082C92.8423 10.8082 93.2103 10.9362 93.4663 11.1922C93.7223 11.4482 93.8503 11.8242 93.8503 12.3202V14.5042H96.3943C96.7783 14.5042 97.0743 14.6002 97.2823 14.7922C97.4903 14.9842 97.5943 15.2642 97.5943 15.6322C97.5943 15.9842 97.4903 16.2642 97.2823 16.4722C97.0743 16.6642 96.7783 16.7602 96.3943 16.7602H93.8503V21.7042C93.8503 22.4722 94.0183 23.0482 94.3543 23.4322C94.6903 23.8162 95.2343 24.0082 95.9863 24.0082C96.2583 24.0082 96.4983 23.9842 96.7063 23.9362C96.9143 23.8882 97.0983 23.8562 97.2583 23.8402C97.4503 23.8242 97.6103 23.8882 97.7383 24.0322C97.8663 24.1602 97.9303 24.4322 97.9303 24.8482C97.9303 25.1682 97.8743 25.4562 97.7623 25.7122C97.6663 25.9522 97.4823 26.1202 97.2103 26.2162C97.0023 26.2802 96.7303 26.3362 96.3943 26.3842C96.0583 26.4482 95.7623 26.4802 95.5063 26.4802ZM107.345 26.4322C106.865 26.4322 106.497 26.3042 106.241 26.0482C105.985 25.7762 105.857 25.3922 105.857 24.8962V10.6402C105.857 10.1442 105.985 9.76823 106.241 9.51223C106.497 9.25623 106.865 9.12823 107.345 9.12823C107.825 9.12823 108.193 9.25623 108.449 9.51223C108.721 9.76823 108.857 10.1442 108.857 10.6402V19.4962H108.905L112.865 15.3202C113.185 15.0002 113.465 14.7522 113.705 14.5762C113.945 14.4002 114.273 14.3122 114.689 14.3122C115.105 14.3122 115.417 14.4242 115.625 14.6482C115.849 14.8562 115.961 15.1122 115.961 15.4162C115.961 15.7202 115.817 16.0242 115.529 16.3282L111.353 20.7442V19.4962L115.937 24.4402C116.225 24.7442 116.353 25.0562 116.321 25.3762C116.305 25.6802 116.177 25.9362 115.937 26.1442C115.697 26.3362 115.393 26.4322 115.025 26.4322C114.577 26.4322 114.217 26.3442 113.945 26.1682C113.689 25.9922 113.401 25.7282 113.081 25.3762L108.905 21.0082H108.857V24.8962C108.857 25.9202 108.353 26.4322 107.345 26.4322ZM123.842 26.4802C122.626 26.4802 121.57 26.2322 120.674 25.7362C119.778 25.2402 119.082 24.5362 118.586 23.6242C118.09 22.6962 117.842 21.6082 117.842 20.3602C117.842 19.4162 117.978 18.5762 118.25 17.8402C118.538 17.0882 118.946 16.4482 119.474 15.9202C120.002 15.3762 120.634 14.9682 121.37 14.6962C122.106 14.4082 122.93 14.2642 123.842 14.2642C125.058 14.2642 126.114 14.5122 127.01 15.0082C127.906 15.5042 128.602 16.2082 129.098 17.1202C129.594 18.0322 129.842 19.1122 129.842 20.3602C129.842 21.3042 129.698 22.1522 129.41 22.9042C129.138 23.6562 128.738 24.3042 128.21 24.8482C127.682 25.3762 127.05 25.7842 126.314 26.0722C125.578 26.3442 124.754 26.4802 123.842 26.4802ZM123.842 24.2002C124.434 24.2002 124.954 24.0562 125.402 23.7682C125.85 23.4802 126.194 23.0562 126.434 22.4962C126.69 21.9202 126.818 21.2082 126.818 20.3602C126.818 19.0802 126.546 18.1282 126.002 17.5042C125.458 16.8642 124.738 16.5442 123.842 16.5442C123.25 16.5442 122.73 16.6882 122.282 16.9762C121.834 17.2482 121.482 17.6722 121.226 18.2482C120.986 18.8082 120.866 19.5122 120.866 20.3602C120.866 21.6242 121.138 22.5842 121.682 23.2402C122.226 23.8802 122.946 24.2002 123.842 24.2002ZM133.806 26.4322C133.326 26.4322 132.958 26.3042 132.702 26.0482C132.446 25.7762 132.318 25.3922 132.318 24.8962V15.8242C132.318 15.3282 132.446 14.9522 132.702 14.6962C132.958 14.4402 133.318 14.3122 133.782 14.3122C134.246 14.3122 134.606 14.4402 134.862 14.6962C135.118 14.9522 135.246 15.3282 135.246 15.8242V17.4562L134.982 16.8562C135.334 16.0082 135.878 15.3682 136.614 14.9362C137.366 14.4882 138.214 14.2642 139.158 14.2642C140.102 14.2642 140.878 14.4402 141.486 14.7922C142.094 15.1442 142.55 15.6802 142.854 16.4002C143.158 17.1042 143.31 18.0002 143.31 19.0882V24.8962C143.31 25.3922 143.182 25.7762 142.926 26.0482C142.67 26.3042 142.302 26.4322 141.822 26.4322C141.342 26.4322 140.966 26.3042 140.694 26.0482C140.438 25.7762 140.31 25.3922 140.31 24.8962V19.2322C140.31 18.3202 140.134 17.6562 139.782 17.2402C139.446 16.8242 138.918 16.6162 138.198 16.6162C137.318 16.6162 136.614 16.8962 136.086 17.4562C135.574 18.0002 135.318 18.7282 135.318 19.6402V24.8962C135.318 25.9202 134.814 26.4322 133.806 26.4322ZM152.141 26.4802C150.813 26.4802 149.669 26.2322 148.709 25.7362C147.749 25.2402 147.005 24.5362 146.477 23.6242C145.965 22.7122 145.709 21.6322 145.709 20.3842C145.709 19.1682 145.957 18.1042 146.453 17.1922C146.965 16.2802 147.661 15.5682 148.541 15.0562C149.437 14.5282 150.453 14.2642 151.589 14.2642C152.421 14.2642 153.165 14.4002 153.821 14.6722C154.493 14.9442 155.061 15.3362 155.525 15.8482C156.005 16.3602 156.365 16.9842 156.605 17.7202C156.861 18.4402 156.989 19.2562 156.989 20.1682C156.989 20.4562 156.885 20.6802 156.677 20.8402C156.485 20.9842 156.205 21.0562 155.837 21.0562H148.133V19.3282H154.877L154.493 19.6882C154.493 18.9522 154.381 18.3362 154.157 17.8402C153.949 17.3442 153.637 16.9682 153.221 16.7122C152.821 16.4402 152.317 16.3042 151.709 16.3042C151.037 16.3042 150.461 16.4642 149.981 16.7842C149.517 17.0882 149.157 17.5282 148.901 18.1042C148.661 18.6642 148.541 19.3362 148.541 20.1202V20.2882C148.541 21.6002 148.845 22.5842 149.453 23.2402C150.077 23.8802 150.989 24.2002 152.189 24.2002C152.605 24.2002 153.069 24.1522 153.581 24.0562C154.109 23.9442 154.605 23.7602 155.069 23.5042C155.405 23.3122 155.701 23.2322 155.957 23.2642C156.213 23.2802 156.413 23.3682 156.557 23.5282C156.717 23.6882 156.813 23.8882 156.845 24.1282C156.877 24.3522 156.829 24.5842 156.701 24.8242C156.589 25.0642 156.389 25.2722 156.101 25.4482C155.541 25.8002 154.893 26.0642 154.157 26.2402C153.437 26.4002 152.765 26.4802 152.141 26.4802ZM164.789 26.4802C163.557 26.4802 162.485 26.2322 161.573 25.7362C160.661 25.2242 159.957 24.5042 159.461 23.5762C158.965 22.6482 158.717 21.5602 158.717 20.3122C158.717 19.3682 158.853 18.5282 159.125 17.7922C159.413 17.0402 159.821 16.4082 160.349 15.8962C160.877 15.3682 161.517 14.9682 162.269 14.6962C163.021 14.4082 163.861 14.2642 164.789 14.2642C165.317 14.2642 165.885 14.3362 166.493 14.4802C167.117 14.6242 167.701 14.8642 168.245 15.2002C168.501 15.3602 168.669 15.5522 168.749 15.7762C168.829 16.0002 168.845 16.2322 168.797 16.4722C168.749 16.6962 168.645 16.8962 168.485 17.0722C168.341 17.2322 168.157 17.3362 167.933 17.3842C167.709 17.4162 167.461 17.3602 167.189 17.2162C166.837 17.0082 166.477 16.8562 166.109 16.7602C165.741 16.6482 165.389 16.5922 165.053 16.5922C164.525 16.5922 164.061 16.6802 163.661 16.8562C163.261 17.0162 162.917 17.2562 162.629 17.5762C162.357 17.8802 162.149 18.2642 162.005 18.7282C161.861 19.1922 161.789 19.7282 161.789 20.3362C161.789 21.5202 162.069 22.4562 162.629 23.1442C163.205 23.8162 164.013 24.1522 165.053 24.1522C165.389 24.1522 165.733 24.1042 166.085 24.0082C166.453 23.9122 166.821 23.7602 167.189 23.5522C167.461 23.4082 167.701 23.3602 167.909 23.4082C168.133 23.4562 168.317 23.5682 168.461 23.7442C168.605 23.9042 168.693 24.1042 168.725 24.3442C168.757 24.5682 168.725 24.7922 168.629 25.0162C168.549 25.2402 168.389 25.4242 168.149 25.5682C167.621 25.8882 167.061 26.1202 166.469 26.2642C165.877 26.4082 165.317 26.4802 164.789 26.4802ZM176.108 26.4802C175.068 26.4802 174.196 26.3042 173.492 25.9522C172.804 25.6002 172.292 25.0882 171.956 24.4162C171.62 23.7282 171.452 22.8802 171.452 21.8722V16.7602H170.204C169.82 16.7602 169.524 16.6642 169.316 16.4722C169.108 16.2642 169.004 15.9842 169.004 15.6322C169.004 15.2642 169.108 14.9842 169.316 14.7922C169.524 14.6002 169.82 14.5042 170.204 14.5042H171.452V12.3202C171.452 11.8242 171.58 11.4482 171.836 11.1922C172.108 10.9362 172.484 10.8082 172.964 10.8082C173.444 10.8082 173.812 10.9362 174.068 11.1922C174.324 11.4482 174.452 11.8242 174.452 12.3202V14.5042H176.996C177.38 14.5042 177.676 14.6002 177.884 14.7922C178.092 14.9842 178.196 15.2642 178.196 15.6322C178.196 15.9842 178.092 16.2642 177.884 16.4722C177.676 16.6642 177.38 16.7602 176.996 16.7602H174.452V21.7042C174.452 22.4722 174.62 23.0482 174.956 23.4322C175.292 23.8162 175.836 24.0082 176.588 24.0082C176.86 24.0082 177.1 23.9842 177.308 23.9362C177.516 23.8882 177.7 23.8562 177.86 23.8402C178.052 23.8242 178.212 23.8882 178.34 24.0322C178.468 24.1602 178.532 24.4322 178.532 24.8482C178.532 25.1682 178.476 25.4562 178.364 25.7122C178.268 25.9522 178.084 26.1202 177.812 26.2162C177.604 26.2802 177.332 26.3362 176.996 26.3842C176.66 26.4482 176.364 26.4802 176.108 26.4802Z" fill="#1D2432"/>
</svg>
