<svg width="42" height="42" viewBox="0 0 42 42" fill="none" xmlns="http://www.w3.org/2000/svg">
<circle cx="21" cy="21" r="20" fill="#F1F1F1" stroke="#1D2432" stroke-opacity="0.12"/>
<path d="M30 16H12C11.4 16 11 15.6 11 15C11 14.4 11.4 14 12 14H30C30.6 14 31 14.4 31 15C31 15.6 30.6 16 30 16ZM30 22H12C11.4 22 11 21.6 11 21C11 20.4 11.4 20 12 20H30C30.6 20 31 20.4 31 21C31 21.6 30.6 22 30 22ZM30 28H12C11.4 28 11 27.6 11 27C11 26.4 11.4 26 12 26H30C30.6 26 31 26.4 31 27C31 27.6 30.6 28 30 28Z" fill="#1D2432"/>
</svg>
