<svg width="24" height="24" viewBox="0 0 24 24" fill="none" xmlns="http://www.w3.org/2000/svg">
<g clip-path="url(#clip0_557_33777)">
<path d="M6.23436 17.3434L8.24079 12.0752C8.28181 11.975 8.42369 11.9748 8.4649 12.075L10.4531 17.3434M6.86014 16.0313H9.83749M12.5156 4.5703H18.7968M16.7872 4.5703V5.02428C16.7872 7.38959 15.0265 9.38505 12.6797 9.67966M14.5253 4.5703V5.02428C14.5253 7.38959 16.2859 9.38505 18.6328 9.67966M15.6562 4.5703V2.8828M13.5468 0.46875H9.79863C8.68446 0.46875 7.78123 1.37198 7.78123 2.4862V10.0763C7.78123 11.1905 8.68446 12.0937 9.79863 12.0937H17.9999L21.5137 15.0937V12.0937C22.6279 12.0937 23.5312 11.1905 23.5312 10.0763V2.4862C23.5312 1.37198 22.6279 0.46875 21.5137 0.46875H17.7656M16.2187 12.0937V18.5137C16.2187 19.628 15.3155 20.5312 14.2013 20.5312H5.99998L2.4862 23.5312V20.5312C1.37198 20.5312 0.46875 19.628 0.46875 18.5137V10.9237C0.46875 9.80946 1.37198 8.90622 2.4862 8.90622H7.78123" stroke="black" stroke-width="0.7" stroke-miterlimit="10" stroke-linecap="round" stroke-linejoin="round"/>
</g>
<defs>
<clipPath id="clip0_557_33777">
<rect width="24" height="24" fill="white"/>
</clipPath>
</defs>
</svg>
