<svg width="24" height="24" viewBox="0 0 24 24" fill="none" xmlns="http://www.w3.org/2000/svg">
<path d="M19.7907 11.3939L17.907 9.0731C17.814 8.96599 17.6512 8.96599 17.5814 9.14451C17.5116 9.28733 17.5116 9.53725 17.6279 9.64437L19.2558 11.6438H9.23256C9.09302 11.6438 9 11.7866 9 12.0008C9 12.2151 9.09302 12.3579 9.23256 12.3579H19.2558L17.6279 14.3573C17.5349 14.4644 17.5116 14.7144 17.5814 14.8572C17.6279 14.9286 17.6977 15 17.7674 15C17.814 15 17.8605 14.9643 17.907 14.9286L19.7907 12.6078C19.9302 12.465 20 12.2508 20 12.0008C20 11.7509 19.9302 11.5724 19.7907 11.3939Z" fill="#0B6614" stroke="#0B6614" stroke-width="0.2"/>
<path d="M15 18.9517C14.8138 18.9517 14.6897 19.0759 14.6897 19.2621C14.6897 19.8828 14.1931 20.3793 13.5724 20.3793H4.73793C4.11724 20.3793 3.62069 19.8828 3.62069 19.2621V4.73793C3.62069 4.11724 4.11724 3.62069 4.73793 3.62069H13.5414C14.1621 3.62069 14.6586 4.11724 14.6586 4.73793C14.6586 4.92414 14.7828 5.04828 14.969 5.04828C15.1552 5.04828 15.2793 4.92414 15.2793 4.73793C15.3103 3.77586 14.5345 3 13.5724 3H4.73793C3.77586 3 3 3.77586 3 4.73793V19.231C3 20.2241 3.77586 21 4.73793 21H13.5414C14.5034 21 15.2793 20.2241 15.2793 19.2621C15.3103 19.0759 15.1862 18.9517 15 18.9517Z" fill="#0B6614" stroke="#0B6614" stroke-width="0.2"/>
</svg>
