<svg width="24" height="24" viewBox="0 0 24 24" fill="none" xmlns="http://www.w3.org/2000/svg">
<path d="M21.218 15.8498L19.9041 14.9902C19.867 14.4591 19.7437 13.9439 19.5366 13.4527L20.3264 12.1392C20.3661 12.0731 20.3857 11.997 20.3831 11.92C20.3804 11.843 20.3555 11.7683 20.3114 11.7052C20.1005 11.4042 19.8609 11.1178 19.6003 10.8539C19.5498 10.8028 19.4864 10.7663 19.4168 10.7483C19.3473 10.7303 19.2741 10.7315 19.2052 10.7517L17.6611 11.2031C17.2017 10.897 16.6997 10.6659 16.1648 10.515L15.5766 9.09047C15.5194 8.95172 15.3891 8.85703 15.24 8.84531C15.0492 8.83031 14.2964 8.83031 14.1056 8.84531C14.0323 8.85106 13.9621 8.87701 13.9027 8.92029C13.8433 8.96357 13.797 9.02248 13.7691 9.09047L13.2009 10.4662C13.0655 10.3772 12.5386 10.0575 11.6602 9.82828C12.8016 9.15094 13.5684 7.90641 13.5684 6.48609C13.5684 4.34437 11.8261 2.60156 9.68391 2.60156C7.54219 2.60156 5.79937 4.34391 5.79937 6.48609C5.79937 7.91859 6.57937 9.17109 7.73578 9.84469C4.77469 10.657 2.60156 13.2731 2.60156 16.3659C2.60156 16.5858 2.78016 16.7644 3 16.7644H8.05078C8.09391 16.9477 8.37562 17.5533 8.52469 17.5753L10.1184 17.8078C10.3912 18.2695 10.7358 18.6834 11.1459 19.0425L11.0302 20.5589C11.0243 20.6345 11.0402 20.7101 11.0759 20.777C11.1116 20.8438 11.1657 20.8991 11.2317 20.9363C11.558 21.1205 11.902 21.2789 12.255 21.4078C12.3923 21.458 12.5461 21.4289 12.6553 21.3323L13.8337 20.2917C14.3873 20.3775 14.9597 20.3784 15.5137 20.2931L16.6903 21.3323C16.7632 21.3966 16.857 21.4321 16.9542 21.4322C17.0002 21.4322 17.0466 21.4242 17.0911 21.4078C17.4444 21.2787 17.7867 21.121 18.1144 20.9363C18.1803 20.899 18.2343 20.8437 18.27 20.7769C18.3057 20.7101 18.3216 20.6345 18.3159 20.5589L18.2011 19.0514C18.6164 18.69 18.9647 18.2723 19.2398 17.8059L20.8214 17.5748C20.8945 17.5642 20.9632 17.5334 21.0198 17.486C21.0764 17.4386 21.1187 17.3763 21.142 17.3063C21.2573 16.9603 21.3427 16.6017 21.3956 16.2408C21.406 16.1655 21.3948 16.0888 21.3633 16.0196C21.3319 15.9504 21.2815 15.8916 21.218 15.8498ZM6.59531 6.48609C6.59531 4.78359 7.98047 3.39844 9.68297 3.39844C11.3855 3.39844 12.7706 4.78359 12.7706 6.48609C12.7706 8.18859 11.3855 9.57375 9.68297 9.57375C7.98047 9.57375 6.59531 8.18859 6.59531 6.48609ZM9.68297 10.3805C10.8764 10.3805 11.753 10.6556 12.262 10.875C12.0651 10.9731 11.8746 11.0835 11.6916 11.2055L10.14 10.7513C9.99937 10.71 9.84797 10.7494 9.74484 10.8534C9.48433 11.1168 9.24632 11.4016 9.03328 11.7047C8.98895 11.7678 8.96393 11.8424 8.96127 11.9195C8.9586 11.9966 8.97841 12.0727 9.01828 12.1388L9.81469 13.463C9.61187 13.9462 9.48948 14.4594 9.45234 14.9822C9.45234 14.9822 8.04 15.9211 8.01047 15.967H3.41203C3.62812 12.8522 6.35812 10.3805 9.68297 10.3805ZM20.4562 16.823L18.93 17.0456C18.8684 17.0546 18.8098 17.0779 18.7588 17.1136C18.7078 17.1494 18.666 17.1965 18.6366 17.2514C18.3656 17.7563 17.9962 18.1987 17.5383 18.5662C17.4877 18.6068 17.4478 18.6591 17.422 18.7186C17.3962 18.778 17.3853 18.8429 17.3902 18.9075L17.5012 20.3611C17.3492 20.4387 17.1941 20.51 17.0362 20.5748L15.8981 19.5694C15.8524 19.5291 15.7982 19.4998 15.7394 19.4837C15.6807 19.4676 15.619 19.4652 15.5592 19.4766C14.9789 19.5877 14.3677 19.5872 13.7887 19.4752C13.6673 19.4517 13.5422 19.4859 13.4494 19.5675L12.3094 20.5744C12.1514 20.5097 11.9962 20.4384 11.8444 20.3606L11.9559 18.8991C11.9609 18.8347 11.95 18.77 11.9244 18.7107C11.8988 18.6514 11.8591 18.5993 11.8087 18.5588C11.3555 18.1931 10.9894 17.7539 10.7208 17.2533C10.6613 17.1422 10.552 17.0658 10.4273 17.0475L8.88937 16.823C8.84719 16.6748 8.81156 16.5248 8.78203 16.3739L10.0589 15.5386C10.1127 15.5034 10.1571 15.4558 10.1885 15.3997C10.2198 15.3436 10.2371 15.2808 10.2389 15.2166C10.2548 14.6559 10.3842 14.1141 10.6237 13.6055C10.6517 13.5462 10.6646 13.481 10.6613 13.4156C10.658 13.3502 10.6387 13.2866 10.605 13.2305L9.83859 11.9559C9.93703 11.8284 10.0411 11.7042 10.1503 11.5847L11.6512 12.0239C11.7694 12.0586 11.8969 12.0366 11.9967 11.9644C12.4687 11.6236 12.997 11.3798 13.5675 11.2397C13.6908 11.2092 13.7925 11.122 13.8408 11.0048L14.4108 9.62531C14.5875 9.61781 14.7591 9.61781 14.9358 9.62531L15.5044 11.002C15.5284 11.06 15.5657 11.1115 15.6133 11.1523C15.661 11.1931 15.7176 11.2221 15.7786 11.2369C16.3523 11.3761 16.8834 11.6198 17.3578 11.962C17.4577 12.0338 17.5847 12.0558 17.7028 12.0211L19.1958 11.5842C19.305 11.7038 19.4091 11.828 19.5075 11.9555L18.7472 13.2197C18.7133 13.2759 18.6938 13.3397 18.6905 13.4053C18.6873 13.4709 18.7003 13.5363 18.7284 13.5956C18.9717 14.1084 19.103 14.6559 19.118 15.2222C19.1197 15.2865 19.137 15.3494 19.1683 15.4056C19.1997 15.4617 19.2441 15.5095 19.298 15.5447L20.5636 16.373C20.5341 16.5248 20.4984 16.6753 20.4562 16.823Z" fill="#1D2432" stroke="#1D2432" stroke-width="0.3"/>
<path d="M14.6791 11.9199C12.7192 11.9199 11.125 13.4513 11.125 15.3338C11.125 17.2163 12.7192 18.7477 14.6791 18.7477C16.6389 18.7477 18.2331 17.2163 18.2331 15.3338C18.2331 13.4513 16.6384 11.9199 14.6791 11.9199ZM14.6791 17.9509C13.1589 17.9509 11.9219 16.7766 11.9219 15.3338C11.9219 13.891 13.1589 12.7168 14.6791 12.7168C16.1992 12.7168 17.4363 13.891 17.4363 15.3338C17.4363 16.7766 16.1992 17.9509 14.6791 17.9509Z" fill="#1D2432" stroke="#1D2432" stroke-width="0.3"/>
</svg>
