<svg width="24" height="24" viewBox="0 0 24 24" fill="none" xmlns="http://www.w3.org/2000/svg">
<path d="M18.5834 8.84151C18.5834 5.06305 15.5204 2 11.7419 2C7.96346 2 4.90042 5.06305 4.90042 8.84151C3.9236 8.96313 3 9.60167 3 11.084V14.6568C3 16.3292 4.17066 16.9373 5.2805 16.9373H6.38274C6.59265 16.9373 6.76283 16.7671 6.76283 16.5572V9.19878C6.76283 8.98888 6.59265 8.8187 6.38274 8.8187H5.66059C5.66059 5.46009 8.38331 2.73736 11.7419 2.73736C15.1005 2.73736 17.8233 5.46009 17.8233 8.8187H17.1011C16.8912 8.8187 16.721 8.98888 16.721 9.19878V16.5458C16.721 16.7557 16.8912 16.9259 17.1011 16.9259H17.8233C17.7168 19.5371 16.4626 20.149 13.9578 20.2592V20.0046C13.9578 19.5847 13.6175 19.2444 13.1976 19.2444H10.8069C10.3871 19.2444 10.0468 19.5847 10.0468 20.0046V21.2398C10.0468 21.6597 10.3871 22 10.8069 22H13.2052C13.6251 22 13.9654 21.6597 13.9654 21.2398V21.0194C16.3751 20.9092 18.458 20.4112 18.5834 16.9031C19.5602 16.7815 20.4838 16.1429 20.4838 14.6606V11.0878C20.4838 9.59787 19.564 8.96313 18.5834 8.84151ZM6.00266 9.55226V16.1657H5.2615C4.69897 16.1657 3.74116 15.9681 3.74116 14.6454V11.0726C3.74116 9.76131 4.68757 9.55226 5.2615 9.55226H6.00266ZM13.2052 20.6659V21.2436H10.8069V20.0084H13.2052V20.6659ZM19.7237 14.6568C19.7237 15.9681 18.7773 16.1771 18.2033 16.1771H17.4812V9.57887H18.2224C18.7849 9.57887 19.7427 9.77651 19.7427 11.0992L19.7237 14.6568Z" fill="#1D2432"/>
</svg>
