<svg width="24" height="24" viewBox="0 0 24 24" fill="none" xmlns="http://www.w3.org/2000/svg">
<path fill-rule="evenodd" clip-rule="evenodd" d="M11.5768 3.00864C11.5187 3.01694 11.3469 3.04058 11.1948 3.06116C10.3281 3.17852 9.2915 3.66632 8.58651 4.28861C7.69608 5.07463 7.06784 6.20646 6.87643 7.36953C6.80744 7.78873 6.81641 8.74061 6.893 9.12565C7.14559 10.3952 7.86174 11.5704 8.82917 12.3028L9.06994 12.485L8.96894 12.5234C8.54566 12.6842 8.35974 12.7652 8.00024 12.9453C6.43725 13.7282 5.16551 14.9125 4.26235 16.4263C3.52252 17.6662 3.11032 19.048 3.02385 20.5778L3 21H3.70887H4.41773V20.8278C4.41773 19.6358 4.91405 17.9877 5.57795 16.9753C6.60344 15.4113 7.97452 14.3384 9.64671 13.7915C11.2352 13.2719 12.7978 13.2719 14.3863 13.7915C16.0585 14.3384 17.4296 15.4113 18.4551 16.9753C19.119 17.9877 19.6153 19.6358 19.6153 20.8278V21H20.3241H21.033L21.0092 20.5778C20.9227 19.048 20.5105 17.6662 19.7707 16.4263C18.8675 14.9125 17.5958 13.7282 16.0328 12.9453C15.6733 12.7652 15.4874 12.6842 15.0641 12.5234L14.9631 12.485L15.2038 12.3028C16.1713 11.5704 16.8874 10.3952 17.14 9.12565C17.2166 8.74061 17.2256 7.78873 17.1566 7.36953C17.0038 6.44121 16.5382 5.46107 15.9163 4.75847C15.1477 3.89027 14.0628 3.27699 12.9338 3.07256C12.6623 3.02338 11.7681 2.98127 11.5768 3.00864ZM12.6116 4.44928C14.6811 4.78492 16.0954 6.73345 15.7619 8.78976C15.4262 10.8593 13.4777 12.2735 11.4214 11.94C9.35187 11.6044 7.93765 9.65588 8.27112 7.59957C8.6067 5.53034 10.5556 4.11584 12.6116 4.44928Z" fill="#1D2432"/>
</svg>
